<?xml version="1.0" encoding="UTF-8" standalone="no"?>
<!-- Created with Inkscape (http://www.inkscape.org/) -->
<svg xmlns:dc="http://purl.org/dc/elements/1.1/" xmlns:cc="http://creativecommons.org/ns#" xmlns:rdf="http://www.w3.org/1999/02/22-rdf-syntax-ns#" xmlns:svg="http://www.w3.org/2000/svg" xmlns="http://www.w3.org/2000/svg" xmlns:sodipodi="http://sodipodi.sourceforge.net/DTD/sodipodi-0.dtd" xmlns:inkscape="http://www.inkscape.org/namespaces/inkscape" id="svg2477" sodipodi:version="0.32" inkscape:version="0.46" width="110" height="37" version="1.0" sodipodi:docname="Kurt Gödel signature.svg" inkscape:output_extension="org.inkscape.output.svg.inkscape">
  <metadata id="metadata2482">
    <rdf:RDF>
      <cc:Work rdf:about="">
        <dc:format>image/svg+xml</dc:format>
        <dc:type rdf:resource="http://purl.org/dc/dcmitype/StillImage"/>
      </cc:Work>
    </rdf:RDF>
  </metadata>
  <defs id="defs2480">
    <inkscape:perspective sodipodi:type="inkscape:persp3d" inkscape:vp_x="0 : 526.18109 : 1" inkscape:vp_y="0 : 1000 : 0" inkscape:vp_z="744.09448 : 526.18109 : 1" inkscape:persp3d-origin="372.04724 : 350.78739 : 1" id="perspective2484"/>
    <filter inkscape:collect="always" id="filter3523">
      <feGaussianBlur inkscape:collect="always" stdDeviation="0.81122563" id="feGaussianBlur3525"/>
    </filter>
    <filter inkscape:collect="always" id="filter3544">
      <feGaussianBlur inkscape:collect="always" stdDeviation="0.48673538" id="feGaussianBlur3546"/>
    </filter>
    <inkscape:perspective id="perspective3555" inkscape:persp3d-origin="372.04724 : 350.78739 : 1" inkscape:vp_z="744.09448 : 526.18109 : 1" inkscape:vp_y="0 : 1000 : 0" inkscape:vp_x="0 : 526.18109 : 1" sodipodi:type="inkscape:persp3d"/>
  </defs>
  <sodipodi:namedview inkscape:window-height="968" inkscape:window-width="1280" inkscape:pageshadow="2" inkscape:pageopacity="0.0" guidetolerance="10.0" gridtolerance="10.0" objecttolerance="10.0" borderopacity="1.0" bordercolor="#666666" pagecolor="#ffffff" id="base" showgrid="false" inkscape:zoom="2.8284271" inkscape:cx="85.959752" inkscape:cy="3.4609632" inkscape:window-x="-4" inkscape:window-y="-4" inkscape:current-layer="svg2477"/>
  <path style="opacity:1;fill:#000000;fill-opacity:1;fill-rule:nonzero;stroke:none;stroke-width:0.13258252000000001;stroke-linecap:round;stroke-linejoin:round;stroke-miterlimit:4;stroke-dasharray:none;stroke-dashoffset:0;stroke-opacity:1" d="M 42.42819,17.094841 C 41.654054,15.225404 41.327325,13.268649 41.327325,12.38247 C 41.327325,11.893597 41.355746,11.805384 41.590679,11.565089 C 41.872549,11.276788 42.861227,11.030686 44.080384,11.030686 C 44.740265,11.030686 44.98691,10.731837 45.277629,9.6277989 C 45.794568,7.6646658 45.915394,7.318636 46.078985,7.0323517 C 46.161099,6.8886515 47.087821,7.02555 47.143903,7.4917537 C 47.16231,7.6447719 46.976767,7.977544 46.976767,7.977544 C 46.741394,8.6616689 46.332289,10.206198 46.375113,10.249021 C 48.965739,9.5855954 53.910898,8.0872205 54.14699,8.4961432 C 54.678266,9.416341 52.920757,10.084316 51.662381,10.604786 C 51.252677,10.734434 49.799814,11.065275 48.433801,11.339989 L 45.950142,11.839469 C 45.950142,12.96686 44.731642,17.733412 44.150304,18.391626 C 43.398282,19.243095 42.891331,18.213266 42.42819,17.094841 z M 44.177849,12.18456 C 44.092775,12.207672 43.733848,12.294421 43.380232,12.377334 L 42.737298,12.528085 L 42.792249,12.849499 C 42.987285,13.990285 43.451077,15.725652 43.535357,15.629988 C 43.96837,14.595899 44.075959,13.05179 44.177849,12.18456 z" id="path3655" sodipodi:nodetypes="cssssssccscccsscccccc"/>
  <path style="fill:#000000;fill-rule:evenodd;stroke:none;stroke-width:1px;stroke-linecap:butt;stroke-linejoin:miter;stroke-opacity:1;opacity:1" d="M 10.999675,3.1875001 C 9.8981137,3.1875001 7.6875,19.6875 8,19.9375 C 8.3125,20.1875 9.25,20.4375 9.75,19.9375 C 11.725403,17.163787 13.36065,14.164694 15.821568,11.787129 C 17.569075,14.362018 19.122268,20.442239 20.306218,20.125 C 20.962585,19.949127 19.143784,15.662888 16.8125,10.6875 C 17.0625,10.375 18.625,7.8750001 21.0625,6.1250001 C 23.5,4.3750001 26.625,3.2500001 26.375,2.7500001 C 26.125,2.2500001 22.0625,2.5625001 17,8.1250001 C 11.9375,13.6875 10,16.6875 10,16.6875 C 10.337137,12.1875 12.257664,3.1875001 10.999675,3.1875001 z" id="path3561" sodipodi:nodetypes="csccscssscs"/>
  <path style="opacity:0.6875;fill:#00ffff;fill-opacity:1;fill-rule:nonzero;stroke:none;stroke-width:1;stroke-linecap:round;stroke-linejoin:round;stroke-miterlimit:4;stroke-dasharray:none;stroke-dashoffset:0;stroke-opacity:1" d="" id="path3567"/>
  <path style="opacity:0.6875;fill:#00ffff;fill-opacity:1;fill-rule:nonzero;stroke:none;stroke-width:1;stroke-linecap:round;stroke-linejoin:round;stroke-miterlimit:4;stroke-dasharray:none;stroke-dashoffset:0;stroke-opacity:1" d="" id="path3573"/>
  <path style="fill:#000000;fill-rule:evenodd;stroke:none;stroke-width:1px;stroke-linecap:butt;stroke-linejoin:miter;stroke-opacity:1;opacity:1" d="M 25.84375,11.8125 C 25.237752,11.462627 23.875,13.34375 23.875,15.46875 C 23.875,17.59375 24.90625,19.03125 25.4375,19.03125 C 25.96875,19.03125 28.3125,16.5 28.84375,16 C 29.375,15.5 29.65625,14.90625 29.8125,14.90625 C 29.96875,14.90625 30.3125,17.96875 31.375,17.96875 C 32.4375,17.96875 34.03125,14.96875 34.53125,14.96875 C 35.03125,14.96875 35.59375,18.90625 36.84375,18.90625 C 38.09375,18.90625 39.0625,18 39.0625,17.5625 C 39.0625,17.125 36.96875,17.5 36.96875,15.78125 C 36.96875,14.0625 35.78125,13.5 34.875,13.5 C 33.96875,13.5 32.5625,15.46875 31.875,15.46875 C 31.1875,15.46875 31.322376,13.014543 30.458063,13.014543 C 29.59375,13.014543 26.15625,16.9375 25.625,16.9375 C 25.09375,16.9375 25.03125,15.78125 25.03125,14.8125 C 25.03125,13.84375 26.917702,12.432546 25.84375,11.8125 z" id="path3651" sodipodi:nodetypes="csssssssssssssss"/>
  <path style="fill:#000000;fill-rule:evenodd;stroke:none;stroke-width:1px;stroke-linecap:butt;stroke-linejoin:miter;stroke-opacity:1;opacity:1" d="M 78.754018,19.10136 C 79.461124,19.10136 81.140503,17.863923 81.140503,17.863923 C 81.140503,17.863923 80.78695,20.117826 81.538251,20.117826 C 82.289552,20.117826 84.49926,14.240001 85.383144,11.278991 C 86.267027,8.3179812 86.355415,6.9037677 85.383144,6.9037677 C 84.410872,6.9037677 84.189901,10.174137 83.571183,11.986098 C 82.952464,13.798059 83.384887,14.972689 82.770928,14.972689 C 82.156969,14.972689 81.891804,14.328389 81.891804,13.70967 C 81.891804,13.090952 81.184697,11.853515 79.726289,11.853515 C 78.267882,11.853515 76.190756,11.765127 75.218484,11.765127 C 74.246212,11.765127 74.03125,12 73.90625,11.90625 C 73.78125,11.8125 73.46875,11.21875 72.90625,10.84375 C 72.34375,10.46875 71.8125,11.03125 71.96875,11.40625 C 72.125,11.78125 73.125,13.34375 73.125,14.71875 C 73.125,16.09375 72.75,17.96875 71.40625,17.96875 C 70.0625,17.96875 70,13.71875 70,13.03125 C 70,12.34375 66.96875,14.78125 65.78125,15.625 C 64.59375,16.46875 63.8125,17.0625 63.8125,17.0625 C 63.8125,17.0625 63.8125,16.4375 63.8125,13.8125 C 63.8125,11.1875 65,9.8750001 65,8.8750001 C 65,7.8750001 64.1875,7.90625 63.65625,8.5 C 63.125,9.09375 63.21875,11.34375 62.75,12.1875 C 62.28125,13.03125 58.5625,18 57.5,18 C 56.4375,18 56.6875,13.25 58.3125,10.375 C 59.9375,7.5000001 59.53125,7.90625 60.09375,7.90625 C 60.65625,7.90625 61.125,6.96875 61.09375,6.65625 C 61.0625,6.34375 60.65625,6 59.9375,5.96875 C 59.03125,5.96875 55.25,12.46875 55.25,15.75 C 55.25,19.03125 57.25,19.46875 57.59375,19.46875 C 57.9375,19.46875 62.5625,14.9375 62.5625,14.9375 C 62.5625,14.9375 62.21875,18.9375 61.84375,19.3125 C 61.46875,19.6875 57.966389,21.855687 56.21875,24.4375 C 49.425585,34.473141 56.199534,39.705016 61.21875,28.5625 C 62.419193,25.897552 63.0625,19.125 63.0625,19.125 C 63.0625,19.125 69,14.375 69.03125,15 C 69.0625,15.625 68.885977,19.508208 71.302363,19.508208 C 73.71875,19.508208 73.9375,17.375 73.9375,12.9375 C 73.9375,12.9375 78.03125,12.90625 78.03125,13.0625 C 78.03125,13.21875 77.090795,14.519651 77.090795,16.572325 C 77.123114,18.032964 77.425567,18.60072 78.754018,19.10136 z M 56.767416,26.415495 C 59.677543,22.126779 61.849746,20.891224 61.916037,21.045903 C 61.982329,21.200583 60.553907,27.327716 59.043416,29.707961 C 54.797413,36.39885 53.330164,31.481046 56.767416,26.415495 z M 78.754018,17.444078 C 78.102179,17.426844 79.064185,14.173709 79.748387,14.173709 C 80.853241,14.173709 80.25297,15.9177 80.10194,16.250835 C 79.983925,16.511148 79.588951,17.466152 78.754018,17.444078 z" id="path3661" sodipodi:nodetypes="csccssssssssssssssscsssssssscsscsssssssscccscsss"/>
  <path style="fill:#000000;fill-rule:evenodd;stroke:none;stroke-width:1px;stroke-linecap:butt;stroke-linejoin:miter;stroke-opacity:1;opacity:1" d="M 76.025027,2.9925833 C 76.987941,2.9925833 77.494484,3.5229134 77.494484,3.5229134 C 77.494484,3.5229134 77.881183,3.0036318 78.477804,3.0036318 C 79.074425,3.0036318 80.002503,3.434525 80.002503,3.9980007 C 80.002503,4.8597871 79.11862,5.0144667 78.521998,5.0144667 C 77.925377,5.0144667 77.483435,4.6388162 77.483435,4.6388162 C 77.483435,4.6388162 76.964154,5.0255153 76.124464,5.0255153 C 75.682523,5.0255153 74.975416,4.5666026 74.975416,3.9206609 C 74.975416,3.4876364 75.2922,2.9925833 76.025027,2.9925833 z" id="path3663" sodipodi:nodetypes="ccssscsss"/>
  <path style="fill:#000000;fill-rule:evenodd;stroke:none;stroke-width:1px;stroke-linecap:butt;stroke-linejoin:miter;stroke-opacity:1;opacity:1" d="M 88.872779,12.854473 C 90.182679,11.821152 91.470789,11.468557 92,12 C 92.310279,12.311587 90.6875,14.3125 89.75,15.1875 C 88.8125,16.0625 87.8125,17 87.8125,17.6875 C 87.8125,18.375 88.25,18.875 88.8125,18.875 C 89.375,18.875 93.8125,15.5 95.4375,13.1875 C 97.0625,10.875 99.875,7.0625001 100.625,7.0625001 C 101.375,7.0625001 100.25,9.3750001 97.0625,13.3125 C 93.875,17.25 94,17.8125 94,18.5625 C 94,19.3125 94.375,20 94.875,20 C 95.375,20 97.8125,16.875 98,17.4375 C 98.1875,18 96.125,21.0625 95.125,21.0625 C 94.125,21.0625 93.0625,19.75 93.0625,18.875 C 93.0625,18 93.0625,17.75 93.0625,17.75 C 93.0625,17.75 90.8125,20 88.6875,20 C 86.5625,20 86.3125,18 86.3125,16.875 C 86.3125,15.75 87.03125,15.1875 87.03125,15.1875 C 84.782648,16.020549 87.521275,13.920613 88.872779,12.854473 z" id="path3665" sodipodi:nodetypes="csssssssssssscsscs"/>
</svg>