<?xml version="1.0" encoding="UTF-8" standalone="no"?>
<!DOCTYPE svg PUBLIC "-//W3C//DTD SVG 20010904//EN" "http://www.w3.org/TR/2001/REC-SVG-20010904/DTD/svg10.dtd">
<svg version="1.0" xmlns="http://www.w3.org/2000/svg" width="468pt" height="70pt" viewBox="0 0 468 70" preserveAspectRatio="xMidYMid meet">
<metadata>
Created by POTRACE VERSION, written by Peter Selinger 2001-2007
</metadata>
<g transform="translate(0,70) scale(0.008705,-0.008705)" fill="#000000" stroke="none">
<path d="M6235 7927 c-16 -7 -49 -22 -71 -34 -23 -12 -53 -36 -67 -52 -14 -17 -28 -44 -32 -60 -3 -17 -24 -46 -45 -65 -21 -19 -47 -47 -56 -63 -10 -15 -36 -50 -58 -78 -22 -27 -73 -86 -114 -130 -41 -44 -87 -93 -101 -110 -15 -16 -46 -56 -69 -87 -23 -31 -63 -74 -89 -95 -26 -21 -68 -58 -95 -83 -27 -25 -55 -52 -64 -60 -8 -8 -29 -35 -45 -58 -17 -24 -45 -51 -62 -60 -18 -10 -77 -62 -133 -117 -55 -55 -114 -120 -131 -145 -17 -25 -75 -88 -129 -141 -55 -53 -109 -109 -121 -126 -16 -21 -40 -36 -80 -49 -45 -15 -63 -27 -80 -54 -12 -19 -35 -51 -52 -70 -17 -19 -61 -70 -98 -113 -54 -64 -80 -85 -132 -110 -49 -23 -89 -54 -156 -121 -50 -50 -131 -129 -180 -175 -50 -46 -106 -93 -125 -104 -19 -11 -66 -50 -104 -86 -37 -36 -88 -86 -112 -111 -24 -25 -51 -53 -61 -63 -10 -9 -38 -35 -63 -56 -25 -21 -61 -46 -80 -56 -19 -9 -48 -32 -65 -51 -22 -25 -41 -36 -70 -41 -22 -3 -71 -22 -110 -42 -38 -19 -92 -57 -118 -84 -27 -26 -57 -66 -67 -90 -10 -23 -54 -79 -97 -123 -43 -45 -98 -94 -123 -109 -25 -15 -77 -55 -117 -88 -39 -33 -81 -73 -93 -89 -11 -15 -43 -39 -71 -54 -28 -14 -76 -50 -107 -80 -30 -31 -73 -64 -95 -75 -21 -11 -69 -47 -106 -80 -36 -33 -82 -75 -102 -94 -20 -19 -56 -43 -80 -54 -24 -10 -57 -33 -74 -51 -16 -17 -57 -48 -90 -67 -33 -19 -81 -59 -107 -88 -27 -30 -68 -62 -95 -75 -30 -14 -79 -54 -133 -109 -47 -49 -99 -95 -116 -104 -18 -9 -48 -35 -68 -59 -20 -23 -36 -47 -36 -53 0 -7 -9 -23 -20 -37 -10 -14 -45 -35 -77 -46 -32 -12 -92 -46 -133 -76 -41 -29 -97 -73 -123 -97 -27 -24 -59 -55 -70 -68 -12 -12 -31 -30 -41 -40 -10 -9 -50 -42 -87 -74 -38 -31 -76 -69 -86 -84 -10 -14 -29 -38 -44 -52 -14 -14 -67 -66 -118 -114 -51 -49 -129 -130 -173 -180 -44 -51 -125 -138 -180 -195 -62 -65 -107 -121 -119 -149 -15 -35 -17 -49 -8 -59 6 -8 21 -14 32 -14 11 0 29 8 39 18 11 9 47 31 81 47 53 25 65 37 84 76 18 39 35 55 108 100 64 40 126 93 232 199 80 80 156 162 169 182 13 21 41 46 62 57 26 13 44 32 57 61 13 30 35 53 74 79 31 21 83 56 117 79 33 24 120 101 192 172 73 72 137 130 143 130 6 0 33 21 59 48 26 26 83 69 127 95 44 26 100 68 124 93 24 25 67 61 94 79 28 18 71 54 98 80 26 26 47 50 47 54 0 5 19 16 42 27 24 10 60 33 81 51 20 18 55 41 77 49 25 10 50 31 68 56 20 30 42 46 87 64 41 17 79 43 120 83 33 33 79 68 102 80 22 11 50 32 61 45 10 14 25 38 31 53 7 15 30 42 53 58 22 17 58 41 80 53 26 16 47 22 63 18 13 -3 29 -15 35 -26 8 -15 5 -40 -15 -107 -14 -48 -25 -109 -25 -136 0 -27 -10 -81 -22 -120 -21 -64 -23 -93 -23 -267 0 -169 2 -199 18 -225 10 -16 31 -48 46 -69 18 -25 49 -49 82 -65 52 -25 54 -28 67 -81 9 -38 11 -94 7 -184 -4 -71 -13 -167 -20 -214 -8 -49 -21 -92 -31 -103 -12 -13 -19 -46 -25 -106 -4 -49 -11 -97 -15 -108 -4 -11 -20 -36 -35 -55 -16 -19 -38 -61 -50 -93 -17 -43 -35 -69 -70 -99 -36 -30 -50 -50 -58 -84 -6 -24 -21 -52 -32 -62 -11 -9 -35 -32 -53 -50 -19 -18 -53 -68 -76 -111 -23 -43 -61 -100 -84 -127 -24 -27 -51 -65 -61 -84 -10 -19 -32 -55 -50 -80 -18 -25 -37 -61 -44 -80 -6 -19 -37 -73 -67 -120 -31 -47 -73 -110 -93 -140 -21 -30 -43 -69 -50 -87 -7 -17 -35 -50 -62 -72 -35 -31 -59 -63 -88 -124 -22 -45 -50 -98 -61 -117 -16 -27 -20 -47 -17 -88 2 -31 12 -64 23 -80 11 -15 40 -37 64 -49 24 -13 58 -23 75 -23 18 0 46 11 66 26 19 14 52 35 74 46 22 11 70 51 107 90 44 45 71 82 78 107 5 20 22 48 37 63 16 14 55 43 89 66 33 22 79 64 101 94 23 29 51 75 63 101 13 26 38 60 56 74 19 14 54 52 78 84 25 33 74 115 111 184 36 69 80 140 96 157 16 18 37 58 45 88 9 30 24 69 34 85 10 17 28 68 39 114 12 46 21 99 21 117 0 18 13 68 29 111 16 43 34 105 41 138 7 33 17 69 23 80 5 11 25 38 43 60 18 23 47 72 64 110 22 49 45 82 76 108 24 21 67 72 94 114 28 41 58 93 67 116 9 23 22 51 30 62 7 11 41 53 76 94 34 40 82 94 107 121 32 33 63 54 105 69 33 13 67 29 77 37 9 9 38 22 64 30 26 8 79 32 118 53 39 21 92 44 116 51 25 6 69 25 98 41 29 17 95 41 145 54 51 13 104 28 117 33 14 5 68 15 120 22 55 7 116 21 145 35 28 12 75 44 105 70 29 26 77 57 105 69 27 13 56 30 64 39 7 10 16 37 18 61 5 38 2 48 -20 70 -20 20 -36 26 -70 26 -24 0 -68 -4 -96 -10 -29 -5 -71 -19 -94 -30 -23 -11 -78 -43 -122 -71 l-80 -51 -94 6 c-82 5 -98 3 -125 -14 -17 -10 -60 -23 -94 -29 -35 -6 -78 -20 -97 -31 -19 -12 -49 -25 -66 -30 -18 -5 -43 -7 -56 -4 -13 4 -28 15 -33 25 -8 13 -6 29 5 56 9 21 27 49 40 63 12 14 48 60 78 103 31 42 62 101 71 130 12 42 26 62 73 103 32 28 74 77 93 110 19 32 52 102 73 154 21 52 45 109 53 125 8 17 45 70 82 119 37 49 73 98 79 110 7 11 29 59 48 106 20 47 50 103 67 124 18 22 41 62 53 90 12 28 31 71 42 96 12 25 37 79 56 121 19 41 48 91 64 110 17 18 45 63 63 99 18 36 41 76 51 89 11 13 19 36 19 51 0 15 13 51 28 81 16 30 35 70 42 89 7 19 26 51 41 71 15 19 51 84 79 145 28 60 63 121 76 135 14 14 32 50 39 80 8 30 15 68 15 84 0 17 7 42 16 55 10 14 37 46 61 71 31 32 48 60 54 90 6 25 23 57 39 74 16 17 36 48 45 70 9 22 36 59 61 81 39 38 44 46 44 87 0 41 4 49 42 81 23 20 45 36 50 36 5 0 24 24 43 54 19 30 54 67 77 83 31 20 52 46 75 91 17 35 51 88 75 120 23 31 52 71 63 88 11 17 36 45 56 63 20 17 39 44 42 60 4 17 0 51 -8 76 -7 26 -21 55 -31 66 -9 10 -29 19 -43 18 -14 0 -39 -6 -56 -12z m-1055 -1479 c0 -12 -8 -31 -18 -42 -11 -12 -27 -51 -36 -87 -12 -47 -37 -96 -83 -164 -35 -54 -74 -123 -85 -154 -12 -31 -45 -108 -75 -171 -30 -63 -65 -142 -78 -175 -12 -33 -48 -108 -78 -167 -31 -59 -59 -124 -63 -144 -4 -21 -19 -49 -33 -63 -14 -14 -48 -62 -75 -106 -27 -44 -60 -100 -73 -124 -12 -25 -23 -59 -23 -77 0 -25 -15 -51 -74 -121 -40 -48 -81 -104 -91 -123 -9 -19 -26 -44 -36 -55 -10 -11 -28 -43 -40 -70 -11 -28 -37 -75 -56 -105 -19 -30 -59 -93 -88 -140 -30 -47 -88 -141 -130 -210 -42 -69 -111 -170 -155 -225 -44 -55 -88 -116 -99 -135 -10 -19 -30 -45 -43 -58 -18 -16 -44 -25 -96 -31 -39 -5 -86 -18 -104 -29 -18 -11 -47 -23 -65 -27 -17 -3 -41 -2 -51 4 -11 6 -24 24 -30 40 -7 19 -7 44 0 77 8 36 7 75 -2 147 -11 82 -11 105 0 135 8 23 14 90 15 177 2 77 10 187 20 245 9 58 19 126 22 153 4 38 0 57 -21 97 -14 27 -26 64 -26 81 0 25 12 42 63 89 34 32 82 73 107 92 24 18 62 57 85 86 22 29 61 65 87 80 27 15 59 44 73 65 14 20 43 48 63 61 20 13 50 34 66 47 16 13 59 52 95 85 36 34 91 78 122 97 31 20 83 64 115 98 33 34 80 83 106 108 25 25 75 72 110 104 34 32 78 69 96 83 17 14 32 31 32 38 0 7 15 26 33 42 17 17 50 41 71 54 22 13 55 38 74 54 19 17 44 46 57 66 16 25 50 51 116 87 60 34 101 63 112 82 9 16 33 43 52 60 20 17 42 31 50 31 8 0 24 14 37 30 12 17 28 30 35 30 7 0 13 -10 13 -22z m-1790 -3075 c0 -10 -9 -37 -20 -60 -10 -24 -26 -43 -33 -43 -8 0 -18 7 -21 16 -3 9 -6 27 -6 40 0 13 9 33 20 44 11 11 29 20 40 20 12 0 20 -7 20 -17z"/>
<path d="M26166 5675 c-22 -8 -51 -23 -65 -33 -14 -10 -30 -35 -35 -56 -7 -25 -6 -53 3 -89 7 -28 31 -94 52 -144 21 -51 39 -106 39 -121 0 -16 -9 -69 -19 -118 -11 -49 -29 -128 -41 -176 -17 -64 -31 -97 -55 -126 -19 -21 -50 -66 -69 -100 -20 -33 -45 -63 -55 -67 -10 -3 -34 -22 -53 -43 -20 -20 -66 -63 -104 -95 -38 -32 -118 -86 -179 -119 -60 -34 -127 -70 -148 -80 -21 -11 -61 -22 -88 -25 -37 -4 -61 -15 -89 -38 -21 -18 -58 -37 -82 -43 -24 -6 -91 -35 -149 -65 -79 -41 -120 -56 -168 -61 -34 -4 -102 -21 -149 -37 -48 -17 -134 -43 -192 -59 -58 -17 -125 -38 -150 -49 -25 -10 -79 -26 -120 -34 -41 -9 -109 -28 -150 -42 -41 -14 -116 -30 -165 -35 -50 -5 -111 -17 -135 -25 -25 -9 -85 -20 -133 -24 -78 -7 -93 -12 -128 -40 -22 -18 -54 -35 -72 -37 -17 -3 -43 -1 -57 5 -14 7 -40 22 -57 35 -26 19 -45 24 -91 23 -31 0 -67 5 -79 11 -13 7 -34 45 -57 105 -20 51 -36 105 -36 119 0 14 9 37 20 51 13 16 24 52 30 99 5 41 20 98 34 128 14 30 26 70 26 88 0 18 9 49 20 70 11 20 52 66 91 102 39 36 108 100 153 144 44 43 126 112 181 153 59 44 118 98 143 131 36 48 57 64 130 99 48 24 92 43 97 43 6 0 29 18 52 39 31 30 51 41 84 44 24 3 87 11 139 19 52 7 131 12 174 10 44 -2 88 -8 98 -13 10 -5 33 -35 51 -65 17 -30 38 -65 44 -77 7 -12 12 -33 12 -47 0 -14 -6 -45 -12 -69 -9 -35 -22 -51 -56 -75 -29 -21 -55 -52 -78 -95 -19 -35 -32 -70 -29 -77 3 -8 15 -14 27 -14 11 0 34 10 50 23 16 12 49 38 73 58 25 21 61 40 83 43 21 4 52 17 68 28 17 11 41 34 54 50 13 17 33 60 43 96 10 37 18 81 18 99 0 17 -4 43 -9 56 -5 13 -27 44 -49 69 -26 30 -41 60 -46 86 -3 22 -18 55 -32 72 -15 17 -50 46 -78 64 -28 18 -59 35 -69 39 -10 4 -98 -7 -195 -23 -97 -16 -220 -41 -272 -54 -52 -13 -126 -40 -165 -60 -38 -20 -95 -52 -125 -71 -30 -18 -81 -44 -113 -56 -39 -15 -70 -35 -95 -64 -21 -23 -58 -56 -82 -73 -25 -17 -61 -49 -81 -70 -20 -22 -70 -65 -110 -97 -41 -32 -91 -74 -112 -94 -21 -20 -50 -57 -63 -83 -13 -26 -28 -49 -33 -52 -5 -3 -35 -44 -66 -91 -31 -47 -73 -98 -92 -113 -20 -15 -46 -37 -59 -50 -14 -15 -25 -41 -29 -75 -3 -29 -9 -60 -11 -70 -3 -9 -23 -26 -44 -37 -22 -11 -43 -28 -48 -38 -5 -9 -12 -43 -15 -74 -3 -31 -18 -85 -34 -120 -18 -40 -28 -79 -27 -108 0 -30 13 -73 39 -130 21 -47 58 -108 83 -136 24 -29 65 -63 91 -77 25 -14 66 -30 90 -37 24 -6 111 -13 193 -15 82 -3 190 0 241 5 51 5 133 14 183 19 60 7 110 20 150 38 42 19 84 29 149 34 49 5 117 15 150 23 33 8 118 31 190 51 71 20 166 52 210 71 46 20 103 37 133 39 29 3 61 9 72 15 11 6 61 26 112 44 51 19 155 56 231 84 80 28 150 60 165 75 15 13 37 30 49 36 12 6 37 11 56 11 22 0 41 7 53 21 10 12 53 39 94 59 41 21 116 59 165 84 50 25 113 52 141 60 28 9 68 29 90 46 21 17 50 48 64 69 14 21 48 58 76 82 28 24 71 58 97 76 25 17 53 47 63 65 9 18 31 45 48 59 17 15 55 65 83 112 29 46 66 96 83 111 18 14 41 26 52 26 11 0 35 -15 54 -34 31 -31 34 -39 34 -95 0 -47 -6 -74 -27 -114 -14 -28 -41 -68 -59 -87 -18 -19 -41 -53 -50 -75 -9 -22 -31 -57 -50 -77 -18 -20 -42 -54 -53 -75 -11 -21 -34 -54 -53 -74 -18 -20 -91 -99 -163 -176 -71 -77 -149 -162 -171 -189 -23 -27 -51 -69 -63 -92 -14 -27 -35 -49 -59 -61 -20 -10 -53 -37 -73 -59 -20 -22 -67 -60 -105 -84 -38 -25 -115 -91 -171 -148 -56 -56 -114 -111 -129 -120 -15 -10 -39 -40 -53 -67 -22 -41 -33 -50 -71 -62 -36 -10 -67 -34 -142 -110 -53 -53 -156 -157 -230 -231 -73 -74 -156 -153 -183 -175 -28 -21 -59 -49 -70 -61 -11 -11 -48 -44 -83 -74 -34 -29 -79 -77 -99 -108 -21 -30 -57 -69 -81 -86 -30 -21 -54 -50 -73 -88 -16 -31 -33 -60 -39 -63 -6 -4 -38 -40 -70 -81 -43 -54 -64 -92 -79 -139 -14 -49 -31 -78 -69 -120 -28 -30 -71 -94 -97 -142 -25 -48 -51 -110 -57 -138 -8 -36 -7 -89 1 -195 12 -143 13 -146 56 -226 24 -44 49 -103 55 -130 5 -27 12 -59 15 -71 3 -13 19 -30 35 -38 18 -9 40 -35 55 -66 19 -36 40 -59 78 -83 29 -18 72 -50 95 -70 29 -24 71 -44 125 -61 45 -14 125 -34 177 -44 74 -15 129 -19 250 -17 l155 2 90 42 c59 27 115 44 162 51 40 5 88 18 105 29 18 11 56 25 83 31 28 7 82 30 121 52 39 21 106 66 149 100 43 34 117 82 164 107 47 25 147 76 222 113 l137 67 151 7 152 8 41 33 c35 30 47 34 96 34 31 0 115 12 186 26 72 14 183 37 246 51 63 14 158 34 210 43 52 10 124 25 160 34 36 8 108 22 160 31 52 9 112 22 133 30 21 9 95 24 165 36 70 11 161 31 202 44 41 13 99 28 129 34 29 6 82 23 116 37 40 16 73 22 88 19 14 -4 34 -15 46 -26 14 -13 21 -32 21 -58 0 -28 -7 -44 -26 -62 -14 -13 -37 -44 -50 -69 -14 -25 -38 -67 -55 -95 -17 -27 -52 -73 -78 -101 -31 -34 -53 -69 -62 -101 -8 -26 -14 -77 -14 -113 0 -46 6 -77 21 -105 14 -27 41 -54 84 -82 35 -24 80 -46 99 -49 20 -4 78 -2 129 4 83 9 102 16 164 53 68 41 73 43 191 52 109 8 128 12 191 44 39 19 89 54 111 77 28 28 66 51 124 75 47 19 103 49 125 66 23 17 59 41 81 54 28 16 56 48 96 109 31 48 61 105 67 127 6 22 20 93 32 157 11 64 33 154 47 200 24 75 27 96 25 228 -1 122 2 157 20 219 16 53 32 85 57 112 29 30 46 38 86 44 28 4 67 11 88 16 24 6 58 29 89 59 46 44 50 52 44 81 -3 18 -13 43 -20 54 -8 12 -31 30 -50 39 -28 13 -58 16 -126 14 -59 -2 -93 1 -101 9 -9 9 -6 31 16 95 19 60 29 112 32 185 4 71 2 111 -7 133 -7 17 -26 42 -43 56 -29 24 -37 26 -97 22 -36 -3 -89 -15 -118 -28 -29 -13 -65 -37 -80 -55 -15 -17 -48 -46 -73 -63 -25 -17 -53 -41 -61 -54 -8 -13 -28 -70 -43 -128 -16 -58 -30 -133 -32 -167 -4 -53 -1 -68 22 -110 15 -26 59 -78 98 -115 65 -62 69 -69 63 -99 -3 -18 -18 -57 -33 -88 -23 -46 -27 -66 -24 -116 2 -33 3 -87 4 -120 0 -33 -4 -140 -9 -237 l-9 -177 -37 -33 c-23 -21 -44 -55 -58 -93 -12 -33 -31 -80 -43 -104 -12 -24 -35 -52 -52 -63 -16 -10 -47 -23 -67 -28 -21 -6 -57 -15 -80 -21 -24 -6 -61 -24 -83 -39 -22 -15 -71 -42 -110 -59 -38 -18 -90 -45 -116 -61 -36 -24 -57 -30 -100 -30 -30 0 -81 7 -114 14 -32 8 -64 22 -71 31 -7 9 -10 25 -7 36 3 11 16 28 28 38 13 9 51 52 85 95 34 42 70 97 80 120 10 24 32 59 49 78 17 20 31 40 31 45 0 5 16 26 35 46 30 32 35 44 35 85 0 26 -5 64 -10 84 -6 21 -23 52 -37 69 -15 17 -41 38 -58 45 -25 10 -66 11 -186 4 -104 -5 -175 -15 -219 -28 -36 -11 -94 -23 -128 -27 -35 -3 -92 -15 -126 -25 -34 -11 -109 -29 -166 -41 -57 -11 -112 -25 -123 -30 -10 -6 -67 -12 -125 -14 -72 -2 -142 -11 -212 -29 -58 -14 -139 -34 -180 -44 -41 -11 -105 -24 -142 -30 -40 -6 -98 -25 -141 -46 -65 -32 -87 -38 -193 -47 -65 -6 -159 -17 -209 -25 -49 -8 -110 -18 -135 -24 -25 -5 -73 -9 -107 -10 -52 0 -64 3 -73 20 -6 11 -7 37 -4 61 4 22 17 53 29 67 12 15 34 63 49 107 14 44 26 94 26 110 0 17 -10 50 -21 75 -15 31 -23 77 -29 152 -6 82 -12 115 -29 144 -16 28 -21 50 -19 88 2 39 -3 60 -20 87 -12 20 -48 58 -78 83 -31 25 -68 49 -83 53 -14 3 -43 14 -63 24 -21 11 -57 19 -80 19 -24 0 -87 -11 -140 -24 -54 -14 -128 -41 -165 -60 -43 -23 -106 -72 -173 -134 -71 -67 -118 -103 -145 -112 -22 -7 -46 -17 -53 -23 -8 -6 -23 -30 -34 -54 -14 -30 -34 -52 -64 -69 -32 -19 -49 -39 -67 -77 -14 -29 -32 -73 -42 -100 -11 -31 -42 -75 -90 -127 -41 -44 -79 -96 -86 -117 -8 -25 -10 -68 -5 -137 5 -78 13 -113 32 -153 14 -29 44 -69 67 -89 23 -19 60 -45 82 -56 22 -11 49 -29 60 -39 11 -10 37 -25 58 -34 20 -8 87 -19 147 -24 61 -5 117 -15 125 -21 8 -7 15 -17 15 -22 0 -5 -12 -20 -27 -34 -14 -13 -51 -31 -82 -40 -31 -8 -94 -29 -140 -45 -46 -16 -138 -39 -203 -50 -65 -11 -130 -24 -144 -29 -14 -6 -83 -10 -153 -10 -83 0 -142 5 -167 14 -22 7 -66 17 -99 21 -33 4 -71 13 -85 20 -14 7 -46 35 -72 62 -25 26 -54 66 -63 88 -9 22 -27 69 -40 105 -12 36 -33 82 -47 102 -20 29 -27 55 -32 125 -4 48 -14 116 -23 150 l-17 61 54 108 c29 59 72 128 95 153 23 25 53 67 68 92 14 26 54 70 87 99 34 29 72 74 85 99 13 25 42 71 64 101 23 30 79 93 124 140 46 47 94 102 107 123 14 21 46 51 73 67 26 17 82 63 125 103 42 41 103 93 134 116 32 23 65 56 74 74 9 17 42 60 73 94 35 40 69 67 91 74 19 6 43 19 54 28 10 9 26 32 36 51 10 19 36 52 57 72 21 20 64 46 96 58 41 16 66 33 90 62 17 23 46 55 63 72 17 17 50 46 73 64 23 18 58 56 79 84 29 40 55 60 117 92 76 39 83 46 139 129 48 72 71 96 122 128 37 24 79 61 101 91 21 29 56 77 78 108 22 31 71 88 108 126 38 37 77 84 87 104 10 19 48 84 84 144 36 60 66 115 66 121 0 7 11 29 25 49 13 20 39 70 56 112 26 63 31 84 26 129 -3 29 -15 71 -26 94 -12 22 -34 48 -49 58 -15 9 -69 51 -121 92 -51 42 -125 92 -164 111 -44 22 -76 45 -84 60 -7 14 -13 52 -13 86 0 33 -7 84 -16 113 -9 30 -31 69 -52 93 -20 23 -61 52 -90 65 -29 12 -58 23 -65 23 -7 -1 -30 -7 -51 -15z m-189 -3398 c12 -7 40 -34 64 -60 36 -42 44 -59 55 -120 7 -40 13 -121 13 -182 1 -77 -5 -132 -18 -184 -13 -48 -29 -83 -47 -102 -16 -17 -33 -52 -43 -91 -14 -52 -22 -66 -51 -85 -19 -12 -50 -34 -69 -48 -23 -17 -47 -25 -73 -25 -21 0 -83 -7 -136 -16 -90 -15 -104 -15 -172 0 -41 9 -104 22 -139 30 -45 10 -70 22 -83 38 -10 12 -30 47 -44 76 -22 43 -26 61 -21 100 4 26 20 83 36 127 19 50 41 89 59 105 16 14 47 52 69 85 22 33 59 75 82 93 23 19 77 67 120 107 43 40 100 83 127 95 27 13 74 33 104 46 31 13 75 23 100 23 25 0 55 -5 67 -12z"/>
<path d="M10858 5061 c-37 -4 -75 -14 -85 -21 -10 -8 -36 -30 -58 -50 -22 -21 -60 -51 -85 -68 -25 -17 -65 -36 -90 -42 -25 -7 -64 -27 -86 -46 -27 -22 -49 -52 -63 -87 -15 -35 -31 -58 -47 -66 -14 -6 -32 -11 -40 -11 -8 0 -28 -7 -44 -15 -21 -11 -32 -27 -40 -58 -6 -23 -15 -52 -20 -63 -4 -12 -36 -38 -69 -58 -37 -23 -74 -56 -98 -89 -21 -29 -78 -92 -128 -142 -75 -74 -99 -106 -135 -178 -30 -61 -60 -104 -97 -140 -33 -32 -65 -75 -82 -112 -15 -34 -49 -84 -74 -113 -26 -29 -47 -57 -47 -62 0 -5 -21 -35 -47 -65 -27 -30 -67 -77 -89 -104 -25 -29 -50 -75 -63 -113 -16 -46 -41 -88 -99 -158 -42 -53 -92 -123 -109 -157 -18 -33 -69 -101 -112 -150 -44 -50 -101 -106 -128 -126 -26 -20 -75 -59 -108 -87 -33 -27 -83 -61 -111 -75 -29 -13 -76 -46 -105 -73 -30 -26 -76 -61 -104 -77 -27 -15 -68 -47 -90 -70 -22 -23 -59 -53 -81 -68 -23 -14 -51 -39 -63 -55 -14 -20 -35 -33 -66 -41 -27 -7 -51 -20 -60 -34 -8 -13 -58 -44 -113 -69 -53 -25 -131 -61 -173 -80 -41 -20 -91 -49 -111 -67 -20 -17 -61 -40 -92 -51 -30 -10 -75 -30 -99 -44 -24 -14 -69 -35 -99 -45 -31 -11 -100 -47 -154 -82 -55 -34 -115 -77 -135 -94 -30 -27 -51 -35 -110 -44 -41 -7 -92 -18 -114 -26 -22 -7 -116 -41 -210 -74 -93 -34 -208 -75 -255 -91 -47 -16 -143 -43 -215 -60 -105 -26 -144 -31 -203 -27 -51 3 -81 10 -99 23 -14 11 -29 29 -33 40 -6 14 1 39 22 80 23 48 28 69 25 109 -2 28 -10 87 -17 132 l-14 81 36 74 c20 40 48 103 63 139 14 37 46 90 71 119 25 29 57 76 71 103 14 28 49 74 79 104 33 33 77 64 117 82 35 16 74 41 86 57 12 15 35 36 52 46 17 10 69 52 116 93 46 41 116 95 154 120 39 26 96 71 127 101 31 31 74 62 94 71 20 8 48 29 62 47 13 18 55 62 93 99 38 36 86 79 108 95 22 16 54 42 70 58 17 17 48 54 70 84 22 29 59 74 81 99 23 25 57 80 76 121 20 41 67 118 106 170 45 61 89 135 120 205 27 61 52 132 56 159 4 36 16 60 44 93 20 25 48 60 61 79 22 32 24 42 26 221 3 152 0 192 -12 211 -8 13 -21 31 -28 40 -8 9 -25 33 -37 52 -14 21 -36 38 -56 44 -25 7 -47 5 -88 -8 -36 -11 -68 -31 -93 -57 -23 -23 -49 -39 -62 -39 -17 0 -77 -55 -216 -196 -107 -108 -212 -222 -233 -255 -22 -32 -49 -65 -61 -73 -12 -8 -30 -29 -40 -46 -11 -17 -33 -36 -49 -42 -17 -5 -30 -13 -30 -17 0 -5 -18 -34 -40 -67 -22 -32 -64 -88 -95 -124 -30 -36 -67 -83 -82 -105 -15 -22 -51 -70 -80 -107 -29 -37 -58 -70 -63 -73 -6 -4 -21 -30 -34 -58 -13 -29 -50 -81 -83 -116 -46 -49 -68 -84 -98 -155 -22 -50 -51 -110 -67 -132 -15 -23 -45 -56 -67 -73 -21 -17 -46 -46 -55 -65 -9 -19 -16 -47 -16 -63 0 -15 -7 -41 -16 -58 -9 -16 -27 -51 -40 -77 -13 -25 -31 -79 -40 -120 -9 -40 -23 -85 -31 -100 -7 -15 -25 -35 -39 -44 -13 -9 -43 -48 -66 -86 -23 -38 -52 -77 -65 -86 -14 -9 -45 -32 -70 -50 -25 -19 -64 -40 -87 -48 -22 -8 -72 -34 -111 -56 -38 -23 -101 -70 -140 -104 -38 -34 -104 -78 -144 -99 -41 -20 -91 -47 -110 -60 -20 -12 -54 -28 -76 -35 -22 -7 -61 -24 -88 -38 -26 -14 -59 -40 -73 -59 -15 -20 -50 -45 -87 -62 -34 -15 -86 -45 -116 -65 -38 -25 -64 -36 -90 -36 -21 0 -59 -6 -86 -14 -26 -8 -59 -26 -74 -40 -14 -14 -73 -47 -131 -74 -58 -28 -138 -58 -178 -67 -48 -12 -94 -31 -132 -57 -36 -24 -80 -43 -112 -49 -29 -6 -66 -12 -83 -15 -17 -3 -38 0 -48 8 -11 8 -33 41 -50 73 -24 44 -44 66 -80 88 -41 25 -54 28 -93 22 -24 -3 -57 -17 -72 -30 -26 -23 -27 -26 -27 -132 1 -83 5 -116 18 -140 11 -20 40 -44 80 -67 34 -19 80 -39 102 -46 22 -6 55 -15 72 -20 20 -5 60 -3 105 6 40 8 89 14 109 14 25 0 73 18 145 55 60 31 154 72 209 91 55 20 145 57 200 84 55 26 111 51 125 55 14 4 45 22 70 40 25 18 69 45 98 59 30 15 73 44 95 65 23 21 57 46 75 55 19 10 54 33 78 52 25 18 71 41 102 50 37 11 100 45 182 100 69 47 145 100 170 119 25 19 55 40 68 47 17 8 28 9 40 1 9 -5 18 -21 20 -35 2 -14 -6 -63 -18 -108 -12 -46 -30 -101 -41 -123 -13 -25 -24 -76 -31 -138 -6 -69 -6 -127 2 -190 6 -51 16 -101 22 -113 6 -11 25 -41 42 -65 17 -23 48 -52 69 -62 20 -11 68 -24 105 -28 38 -5 95 -22 132 -40 l66 -31 89 21 c50 12 110 28 135 36 25 8 81 26 125 40 44 13 114 28 156 32 66 7 91 16 180 64 57 30 154 74 214 97 61 23 142 60 180 82 39 23 88 52 110 66 22 14 67 41 100 60 33 19 91 45 130 58 38 14 87 38 108 55 21 17 64 38 95 46 31 8 74 24 97 35 22 11 60 37 85 58 26 21 93 61 150 90 58 29 126 71 153 94 26 22 73 64 105 93 40 36 71 55 101 62 33 7 59 25 115 79 55 53 82 72 111 78 22 4 45 3 54 -3 9 -6 17 -27 19 -52 3 -33 -5 -56 -39 -119 -23 -42 -67 -109 -96 -149 l-55 -72 6 -58 c3 -32 9 -100 12 -151 5 -85 4 -96 -19 -140 -14 -26 -30 -65 -36 -87 -8 -31 -7 -62 4 -135 7 -52 21 -144 30 -205 9 -60 22 -121 28 -135 7 -13 27 -34 45 -45 18 -11 60 -40 94 -65 33 -25 74 -54 91 -64 24 -16 48 -20 111 -19 48 0 99 7 124 16 24 9 87 41 140 71 54 30 115 68 136 85 21 17 67 39 102 50 54 16 72 28 112 72 26 29 57 69 69 89 13 21 37 43 55 51 17 7 53 31 79 54 26 22 77 63 114 90 36 28 80 60 97 73 17 12 42 22 55 22 20 0 29 -12 58 -73 27 -61 42 -80 86 -112 30 -22 83 -47 119 -58 58 -16 78 -17 190 -7 69 6 163 17 210 26 54 10 102 26 131 43 30 18 67 30 108 35 34 4 121 24 194 46 73 21 167 50 209 64 43 14 87 30 99 37 13 6 55 15 94 20 57 6 97 20 201 70 115 55 136 62 194 63 65 1 65 1 68 -28 2 -16 -6 -56 -18 -89 -19 -52 -21 -70 -14 -136 4 -42 6 -99 5 -128 -2 -43 4 -66 33 -126 24 -50 48 -83 73 -103 21 -15 42 -34 47 -42 5 -8 24 -32 43 -53 25 -27 53 -44 106 -62 40 -14 99 -35 132 -47 54 -20 71 -22 175 -16 63 4 156 14 205 22 50 9 110 24 135 35 25 11 56 31 70 43 14 13 44 33 66 44 23 12 108 48 190 80 82 33 172 67 199 76 33 10 70 34 109 71 32 31 93 73 135 95 42 22 116 72 165 111 49 39 106 79 125 89 20 10 43 26 52 36 9 11 26 37 37 59 11 22 46 65 79 96 32 31 73 64 91 73 18 9 54 20 80 23 37 4 75 -3 172 -32 l125 -38 101 17 c56 9 115 16 131 16 16 0 39 -7 51 -16 15 -10 22 -25 22 -49 0 -26 -14 -53 -60 -114 -34 -44 -79 -120 -102 -168 -22 -48 -49 -97 -59 -109 -11 -11 -36 -47 -56 -80 -20 -32 -45 -77 -56 -99 -11 -22 -36 -58 -56 -80 -33 -36 -38 -50 -55 -143 -10 -59 -15 -119 -11 -141 3 -21 15 -52 25 -69 11 -18 41 -42 69 -57 28 -14 76 -32 108 -40 31 -8 80 -15 108 -15 27 0 72 7 99 15 27 8 74 15 105 15 31 0 72 5 92 10 20 6 44 19 54 30 14 15 31 20 74 20 31 0 74 5 95 11 22 6 56 22 77 36 20 13 69 33 107 43 38 9 96 34 129 54 32 20 104 51 158 70 55 18 138 50 185 71 47 21 96 46 110 55 14 10 63 38 110 62 47 25 103 51 125 58 22 7 49 18 61 25 11 7 61 27 109 45 49 17 121 48 160 69 38 21 98 49 133 62 35 13 86 43 113 66 28 24 74 51 102 60 29 10 79 32 112 48 47 24 69 43 100 89 25 37 59 70 91 90 28 17 64 40 80 50 16 11 48 35 71 53 24 19 74 45 112 58 38 13 93 39 123 58 30 19 73 54 96 78 23 24 59 61 80 83 20 21 64 56 97 78 32 21 85 66 117 99 37 39 64 59 75 57 12 -2 19 -14 21 -33 2 -23 -5 -37 -31 -62 -18 -17 -39 -50 -46 -75 -7 -23 -21 -54 -31 -68 -9 -14 -35 -59 -58 -100 -22 -41 -46 -97 -53 -125 -6 -27 -18 -62 -25 -77 -8 -14 -32 -47 -54 -73 -22 -26 -49 -63 -59 -83 -10 -21 -35 -89 -56 -152 -21 -65 -52 -137 -72 -167 -30 -43 -36 -63 -40 -120 -4 -55 0 -88 23 -168 22 -81 34 -107 64 -136 19 -20 53 -42 74 -47 29 -8 66 -7 150 4 61 9 163 31 227 49 64 18 154 52 200 75 46 23 95 52 109 65 14 12 48 34 75 48 28 15 72 51 100 84 28 32 67 81 86 108 20 28 46 80 58 117 12 37 30 77 40 90 10 13 26 38 36 57 9 19 25 62 35 95 10 34 23 75 28 91 6 17 21 107 33 201 21 168 21 173 4 297 -17 119 -17 132 -2 202 10 42 17 92 17 113 0 20 -16 73 -35 117 -19 44 -35 90 -35 102 0 12 3 29 6 38 4 8 19 22 35 30 16 9 55 15 90 15 34 0 85 6 113 14 28 8 80 21 116 29 36 8 97 22 135 32 39 9 106 27 150 40 44 13 118 27 165 30 47 4 121 15 165 25 44 11 98 28 120 40 22 11 59 20 85 20 25 0 83 14 130 30 47 17 119 35 160 41 41 6 100 22 130 35 30 14 100 34 156 44 55 10 132 32 170 48 38 17 103 40 144 51 41 12 104 21 140 21 54 0 74 5 117 30 29 17 64 47 78 67 14 21 25 48 25 60 0 12 -12 31 -27 43 -23 18 -37 21 -73 16 -25 -3 -67 -10 -95 -16 -27 -5 -66 -22 -86 -36 -31 -21 -55 -27 -134 -34 -52 -4 -137 -18 -188 -30 -51 -12 -114 -28 -141 -36 -26 -8 -69 -14 -95 -14 -26 0 -71 -7 -101 -16 -30 -9 -102 -28 -160 -44 -58 -15 -131 -38 -162 -49 -32 -12 -80 -21 -107 -21 -28 0 -96 -9 -151 -20 -56 -10 -154 -38 -218 -60 -80 -29 -146 -45 -207 -51 -49 -5 -128 -14 -175 -19 -47 -5 -119 -12 -161 -16 -70 -6 -78 -5 -98 15 -18 18 -21 29 -16 54 4 18 25 61 48 97 22 36 55 88 74 115 30 45 33 57 33 123 0 40 -4 82 -10 92 -5 10 -24 23 -41 29 -18 6 -47 11 -66 11 -18 0 -48 -6 -67 -14 -18 -7 -60 -35 -94 -60 -34 -26 -64 -51 -67 -57 -4 -5 -12 -9 -19 -9 -7 0 -39 35 -71 79 -44 59 -78 91 -139 133 -45 30 -97 60 -116 66 -19 6 -71 16 -115 22 -78 10 -83 9 -165 -21 -47 -17 -107 -48 -135 -69 -27 -21 -71 -58 -96 -82 -31 -28 -51 -57 -58 -83 -6 -22 -20 -53 -31 -70 -14 -21 -20 -47 -20 -85 0 -30 7 -84 16 -120 8 -36 32 -95 54 -131 21 -36 56 -80 77 -98 21 -18 64 -48 96 -67 32 -18 97 -47 145 -65 48 -17 103 -38 122 -47 21 -10 36 -25 38 -39 2 -15 -19 -44 -80 -105 -46 -45 -90 -97 -99 -114 -13 -24 -29 -36 -67 -48 -41 -14 -66 -34 -130 -101 -51 -53 -98 -93 -133 -110 -30 -15 -81 -55 -114 -89 -33 -34 -83 -78 -110 -100 -28 -21 -72 -49 -98 -63 -27 -13 -80 -44 -117 -68 -38 -25 -84 -51 -102 -58 -18 -8 -63 -36 -99 -63 -37 -27 -114 -82 -172 -122 -58 -40 -127 -79 -154 -88 -26 -8 -104 -48 -173 -90 -69 -41 -157 -90 -197 -109 -39 -19 -118 -46 -175 -61 -57 -14 -116 -36 -133 -48 -16 -13 -50 -33 -75 -46 -25 -13 -79 -46 -120 -73 -41 -28 -97 -57 -125 -64 -27 -7 -63 -13 -80 -13 -16 0 -52 -12 -80 -25 -27 -14 -59 -25 -70 -25 -11 0 -56 -14 -100 -31 -44 -18 -144 -53 -222 -79 -78 -26 -173 -53 -210 -59 -37 -6 -98 -19 -135 -28 -57 -15 -69 -15 -83 -3 -9 8 -21 24 -26 37 -5 15 -2 46 12 95 12 40 27 87 34 105 8 17 39 61 69 97 31 36 66 82 77 103 12 21 38 67 57 103 20 36 46 78 59 93 12 15 27 47 33 70 5 23 18 67 27 97 12 36 34 73 65 107 30 33 49 65 54 88 3 20 4 57 0 83 -3 25 -13 56 -22 69 -8 13 -29 33 -47 43 -22 14 -50 20 -89 20 -40 0 -79 -9 -131 -30 -42 -16 -82 -30 -91 -30 -9 0 -43 -9 -77 -21 -39 -14 -72 -19 -92 -15 -17 4 -61 18 -97 32 -36 14 -74 34 -85 45 -13 13 -20 32 -20 58 0 28 7 47 23 64 13 14 32 53 43 86 10 34 29 76 43 94 13 18 42 70 65 117 30 64 41 98 41 133 0 26 -6 63 -14 82 -10 22 -23 36 -38 39 -13 2 -48 8 -78 14 l-55 10 -48 -52 c-27 -28 -58 -69 -69 -91 -11 -22 -37 -58 -57 -81 -20 -22 -48 -63 -64 -90 -15 -27 -43 -74 -62 -104 -19 -30 -42 -79 -51 -109 -8 -30 -36 -90 -62 -135 -29 -51 -84 -121 -147 -188 -55 -59 -143 -139 -195 -178 -52 -40 -111 -87 -130 -106 -19 -19 -66 -59 -105 -90 -38 -30 -113 -76 -165 -101 -52 -25 -113 -51 -135 -59 -22 -8 -56 -30 -75 -48 -19 -19 -48 -41 -65 -49 -16 -8 -62 -24 -101 -36 -39 -12 -102 -35 -139 -52 -38 -17 -98 -37 -134 -45 -36 -8 -131 -19 -210 -24 l-144 -11 -62 41 c-35 22 -70 49 -80 60 -16 18 -16 26 -5 97 10 60 10 90 1 131 -6 29 -11 87 -11 128 0 72 2 78 66 202 36 70 72 148 80 174 11 34 27 57 63 87 27 22 54 54 61 71 7 17 10 48 7 71 -3 22 -13 49 -23 60 -13 14 -30 19 -68 19 -29 0 -75 -10 -106 -23 -43 -17 -61 -32 -86 -69 -17 -27 -39 -57 -50 -69 -10 -12 -40 -32 -66 -45 -25 -13 -63 -35 -83 -48 -20 -14 -57 -32 -83 -41 -26 -9 -81 -32 -122 -51 -41 -19 -131 -50 -200 -70 -69 -20 -154 -43 -190 -51 -36 -8 -85 -19 -110 -24 -25 -5 -67 -25 -95 -44 -27 -19 -66 -41 -85 -49 -19 -8 -70 -19 -113 -25 -53 -7 -100 -22 -150 -47 -39 -20 -101 -45 -137 -56 -36 -10 -101 -21 -145 -25 -50 -3 -97 -1 -124 7 -24 6 -58 25 -74 41 -29 30 -30 31 -24 109 4 45 18 111 32 152 14 40 32 96 39 123 7 28 23 93 35 145 15 61 34 115 57 151 24 40 37 77 44 125 5 38 10 91 10 117 0 27 -5 57 -11 69 -6 11 -26 26 -45 34 -31 13 -39 13 -77 -4 -23 -10 -67 -40 -97 -66 -30 -25 -75 -77 -100 -114 -25 -37 -63 -92 -86 -122 -22 -30 -59 -92 -81 -136 -22 -45 -59 -108 -82 -140 -23 -33 -64 -86 -91 -119 -27 -33 -81 -100 -120 -150 -38 -49 -95 -119 -125 -155 -33 -38 -82 -81 -118 -103 -34 -20 -79 -42 -101 -48 -24 -7 -62 -33 -105 -73 -47 -44 -83 -68 -126 -84 -34 -12 -90 -45 -128 -76 -45 -36 -81 -57 -107 -61 -32 -5 -50 -1 -95 21 -31 16 -65 38 -75 49 -14 15 -24 51 -34 125 -8 58 -22 128 -30 155 -9 28 -16 63 -16 78 0 15 8 47 19 70 10 24 21 78 24 125 4 55 15 103 33 145 14 34 38 100 54 147 15 47 35 103 45 125 10 22 30 56 45 76 16 19 37 57 48 85 11 27 35 83 52 124 18 41 47 93 65 115 18 22 54 67 79 100 26 33 71 96 101 140 35 52 92 115 163 180 61 55 141 125 178 156 38 31 92 70 119 87 28 17 61 45 73 61 12 17 51 54 86 82 36 28 70 65 77 81 7 17 27 49 46 72 18 22 59 71 90 108 41 50 75 79 127 107 39 21 80 50 92 63 11 12 33 45 49 72 15 27 47 69 71 93 24 23 59 67 78 96 18 30 50 64 70 76 25 16 38 33 45 59 5 20 13 52 18 71 7 28 20 41 73 73 36 22 78 51 93 66 15 14 39 45 52 68 13 23 36 49 49 58 14 9 44 40 66 69 22 28 51 68 65 87 14 19 46 67 71 105 39 59 48 82 58 151 7 50 8 90 3 102 -5 11 -21 25 -35 32 -14 6 -47 13 -72 15 -25 2 -75 0 -112 -4z m-260 -494 c3 -21 -6 -39 -34 -70 -21 -23 -50 -50 -65 -60 -15 -10 -32 -30 -37 -45 -5 -16 -33 -57 -62 -93 -29 -35 -82 -94 -119 -130 -36 -36 -92 -100 -125 -143 -32 -42 -70 -85 -85 -94 -14 -9 -53 -44 -86 -79 -33 -35 -71 -77 -85 -94 -14 -17 -40 -47 -57 -66 -18 -18 -33 -37 -33 -42 0 -4 -17 -26 -37 -48 -21 -23 -48 -46 -60 -52 -12 -6 -26 -11 -32 -11 -6 0 -11 11 -11 25 0 15 7 39 15 55 8 16 23 31 33 34 10 4 43 37 73 74 29 37 75 92 102 122 26 30 53 73 60 95 7 25 35 65 77 109 36 38 138 142 228 232 89 89 162 166 162 171 0 4 29 39 64 76 50 53 69 68 87 65 18 -2 25 -10 27 -31z m-3038 -242 c10 -11 11 -43 6 -123 l-7 -107 -40 -37 c-21 -21 -39 -44 -39 -53 0 -9 -20 -63 -45 -119 -25 -57 -61 -135 -80 -174 -19 -38 -57 -96 -86 -129 -28 -32 -63 -76 -76 -98 -14 -22 -71 -87 -128 -145 -56 -58 -121 -131 -145 -163 -23 -31 -63 -72 -89 -91 -25 -19 -57 -46 -71 -61 -14 -15 -50 -44 -81 -66 -31 -21 -69 -53 -84 -70 -15 -18 -59 -55 -99 -81 -39 -27 -95 -55 -123 -64 -29 -8 -57 -13 -63 -9 -5 3 -10 21 -10 38 0 18 5 50 11 72 7 23 27 54 48 75 21 19 54 49 75 65 35 28 38 36 51 117 8 48 21 102 31 120 9 18 60 89 114 158 53 69 108 143 122 165 14 23 50 67 79 99 33 36 60 77 69 105 12 38 22 49 55 64 22 11 59 38 83 60 24 23 53 60 64 82 11 22 41 62 67 89 25 26 73 76 107 110 33 33 70 78 83 98 12 21 37 49 54 63 25 19 44 25 83 25 34 0 56 -5 64 -15z m10546 -921 c18 -9 53 -35 78 -57 42 -40 44 -46 51 -112 5 -52 13 -76 30 -95 12 -14 28 -35 34 -47 6 -12 11 -35 11 -52 0 -16 -7 -36 -15 -45 -9 -8 -30 -18 -48 -21 -19 -4 -50 0 -77 10 -24 9 -65 33 -90 53 -25 21 -62 48 -82 61 -21 12 -38 26 -38 30 0 4 -23 34 -50 65 -39 45 -49 63 -44 79 3 12 14 35 23 51 9 16 43 44 76 62 33 19 71 34 83 34 13 0 39 -7 58 -16z m349 -955 c3 -10 7 -173 8 -361 2 -333 2 -344 -20 -397 -13 -33 -20 -65 -16 -79 4 -16 -3 -36 -24 -65 -16 -23 -45 -70 -63 -104 -18 -35 -36 -63 -41 -63 -4 0 -29 -27 -54 -60 -31 -40 -63 -69 -95 -85 -27 -14 -52 -30 -56 -36 -3 -6 -39 -27 -78 -46 -39 -19 -87 -43 -106 -54 -19 -10 -42 -19 -51 -19 -9 0 -28 9 -42 20 -14 11 -31 36 -37 55 -9 29 -8 45 8 97 11 35 30 92 42 128 12 36 30 96 41 134 10 39 27 79 37 90 11 12 25 37 32 56 8 19 37 58 66 85 48 47 54 59 83 155 18 58 46 136 64 174 18 37 46 80 62 95 17 15 61 83 98 151 38 69 77 133 88 142 11 9 26 15 34 12 8 -3 17 -14 20 -25z"/>
<path d="M45388 4175 c-2 -3 -67 -12 -143 -20 -89 -10 -165 -25 -214 -42 -57 -20 -94 -26 -146 -25 -38 1 -110 -5 -160 -13 -49 -8 -117 -20 -150 -26 -33 -5 -71 -18 -85 -27 -14 -9 -54 -20 -90 -24 -36 -4 -139 -14 -230 -22 -124 -11 -184 -21 -240 -41 -41 -14 -113 -32 -159 -40 -47 -9 -99 -12 -117 -9 -24 4 -43 -1 -76 -19 -29 -17 -70 -28 -128 -35 -47 -6 -121 -14 -166 -17 -45 -3 -105 -12 -133 -21 -29 -8 -97 -24 -152 -34 -61 -12 -112 -28 -130 -41 -17 -12 -46 -25 -65 -29 -23 -5 -58 -2 -108 11 l-74 19 -48 -22 c-36 -16 -64 -21 -106 -19 -32 1 -93 3 -135 4 -43 1 -121 -4 -173 -11 -52 -6 -158 -16 -235 -22 l-140 -9 -40 45 c-24 27 -54 48 -75 54 -19 6 -56 10 -83 10 -31 0 -64 -9 -95 -24 -26 -13 -62 -39 -79 -56 -18 -18 -33 -42 -33 -54 0 -11 10 -37 23 -58 12 -20 41 -61 65 -91 26 -34 45 -70 49 -94 3 -21 23 -70 45 -109 21 -40 51 -113 67 -163 18 -58 39 -103 59 -125 18 -21 34 -54 41 -86 6 -28 11 -59 11 -69 0 -11 14 -45 31 -77 17 -33 35 -71 39 -86 5 -16 4 -44 -2 -65 -5 -20 -24 -54 -41 -75 -18 -22 -54 -54 -82 -72 -27 -18 -98 -71 -157 -118 -69 -56 -124 -92 -157 -103 -40 -13 -57 -26 -85 -64 -20 -28 -58 -63 -93 -84 -32 -20 -69 -53 -83 -73 -16 -24 -43 -45 -75 -59 -27 -13 -94 -55 -148 -94 -54 -39 -110 -77 -126 -85 -15 -8 -51 -33 -79 -55 -28 -23 -76 -53 -107 -67 -31 -15 -66 -39 -78 -54 -12 -15 -40 -37 -62 -47 -22 -11 -74 -39 -115 -63 -41 -23 -87 -51 -102 -62 -15 -11 -60 -28 -100 -39 -46 -13 -105 -41 -158 -74 -60 -37 -102 -56 -143 -64 -31 -6 -67 -16 -80 -22 -12 -7 -42 -29 -66 -50 -24 -22 -71 -53 -105 -70 -33 -17 -81 -41 -105 -54 -31 -17 -59 -24 -96 -24 -29 1 -62 -4 -73 -10 -11 -6 -38 -11 -59 -11 -21 0 -57 -9 -81 -20 -24 -11 -60 -24 -82 -30 -21 -6 -64 -26 -96 -45 -32 -19 -64 -35 -71 -35 -7 0 -32 -17 -56 -39 -23 -21 -52 -43 -64 -50 -12 -6 -52 -11 -88 -11 -51 0 -85 -7 -141 -30 -41 -16 -125 -38 -187 -49 -88 -15 -128 -28 -190 -60 -67 -35 -88 -41 -138 -41 -55 0 -62 -3 -102 -39 -25 -24 -57 -42 -79 -46 -31 -6 -38 -4 -52 18 -10 14 -14 32 -10 43 4 10 19 33 33 51 14 17 40 51 57 75 17 24 37 61 44 83 7 22 23 61 37 88 15 30 30 93 43 175 11 70 30 159 44 199 13 39 29 102 35 140 7 45 7 98 1 158 -5 50 -16 113 -23 141 -7 28 -23 64 -36 80 -12 16 -42 55 -67 87 -25 31 -58 64 -73 71 -15 8 -57 20 -93 26 -52 9 -92 8 -199 -4 -74 -9 -157 -20 -186 -25 -29 -6 -74 -21 -100 -35 -29 -14 -90 -30 -153 -40 -71 -11 -113 -23 -130 -37 -14 -11 -48 -31 -76 -44 -28 -14 -93 -34 -144 -45 -51 -11 -115 -32 -143 -49 -29 -15 -86 -36 -127 -46 -41 -10 -99 -28 -128 -41 -29 -13 -68 -26 -87 -30 -18 -3 -58 -21 -87 -40 -29 -19 -59 -34 -68 -34 -9 0 -49 -16 -90 -36 -41 -20 -118 -51 -170 -69 -52 -18 -162 -54 -245 -80 -82 -26 -184 -62 -225 -80 -41 -18 -93 -38 -115 -45 -22 -7 -60 -23 -85 -35 -25 -13 -91 -41 -145 -63 -55 -21 -118 -42 -140 -46 -22 -4 -55 -16 -74 -27 -18 -11 -68 -29 -110 -41 -42 -11 -103 -33 -136 -49 -33 -15 -89 -33 -125 -39 -36 -6 -83 -22 -105 -34 -29 -17 -52 -22 -85 -19 -32 2 -72 -6 -140 -30 -52 -19 -142 -54 -200 -79 -61 -27 -161 -59 -240 -78 -74 -18 -169 -34 -210 -37 -41 -3 -97 -11 -124 -19 -27 -8 -77 -14 -111 -14 -39 0 -69 6 -83 16 -12 8 -22 25 -22 37 0 12 9 41 19 64 14 30 31 48 60 62 22 12 51 35 64 53 13 18 48 66 77 106 29 39 56 72 60 72 4 0 21 15 37 33 17 17 50 53 73 79 23 26 61 56 85 68 26 13 60 42 84 73 22 29 50 75 62 103 16 34 22 68 22 110 0 33 -6 71 -13 83 -6 13 -30 31 -53 42 -23 10 -55 19 -70 19 -15 0 -45 -9 -66 -19 -20 -11 -67 -29 -102 -41 -36 -11 -96 -39 -135 -61 -38 -23 -80 -45 -94 -51 -14 -5 -59 -16 -102 -23 -44 -8 -130 -36 -205 -68 -70 -30 -150 -60 -178 -66 -27 -7 -75 -27 -105 -45 -30 -19 -102 -49 -160 -69 -58 -19 -141 -43 -185 -52 -44 -9 -113 -33 -153 -52 -40 -19 -76 -41 -79 -49 -3 -8 -18 -21 -34 -29 -16 -9 -55 -15 -91 -15 -35 0 -84 7 -110 17 -41 15 -55 15 -116 3 -38 -7 -82 -10 -96 -6 -15 4 -36 21 -47 39 -16 25 -19 43 -15 82 2 28 19 84 37 125 17 41 43 107 56 145 16 46 26 103 30 165 5 78 3 102 -11 128 -9 18 -34 41 -56 52 -25 13 -59 20 -96 20 -31 0 -84 -7 -118 -16 -33 -9 -77 -25 -96 -37 -26 -16 -64 -24 -161 -33 -99 -9 -134 -16 -156 -32 -16 -11 -51 -23 -78 -27 -28 -4 -95 -25 -150 -46 -55 -22 -132 -46 -172 -54 -39 -9 -103 -29 -143 -45 -39 -16 -83 -38 -98 -48 -15 -11 -72 -41 -127 -66 -74 -35 -122 -50 -187 -60 -62 -9 -98 -20 -125 -38 -21 -14 -72 -42 -113 -61 -44 -21 -105 -40 -148 -46 -40 -6 -112 -27 -160 -46 -48 -18 -105 -39 -127 -45 -22 -6 -74 -28 -115 -48 -58 -29 -79 -45 -93 -72 -13 -26 -17 -51 -15 -97 3 -44 10 -71 25 -90 18 -24 27 -28 71 -28 43 1 57 6 89 33 21 18 58 47 83 65 25 18 59 47 76 64 16 18 43 37 60 43 16 5 73 16 127 24 71 11 121 25 180 53 45 20 98 48 117 60 20 13 79 31 139 43 57 12 125 31 150 44 25 13 71 31 101 41 30 10 85 33 122 51 37 19 88 38 115 44 26 6 89 25 138 44 50 18 122 41 160 50 39 9 111 36 160 60 50 24 113 49 140 55 28 6 68 12 91 13 22 1 46 -2 52 -6 7 -4 12 -15 12 -24 0 -9 -14 -46 -32 -82 -17 -36 -34 -87 -38 -115 -4 -27 -20 -79 -35 -114 -17 -40 -29 -90 -32 -135 -3 -39 0 -89 6 -111 6 -22 28 -69 48 -104 38 -64 38 -65 108 -84 62 -18 79 -19 151 -8 44 6 111 11 150 11 38 0 103 6 144 14 42 7 86 19 99 25 13 7 66 21 120 32 55 11 126 34 166 53 51 25 93 37 155 45 52 6 107 20 140 35 30 14 63 26 72 26 9 0 30 12 47 26 20 17 63 34 123 49 51 13 131 38 178 57 47 19 110 40 140 47 30 7 72 19 92 28 20 9 45 13 54 9 15 -6 12 -11 -18 -39 -19 -18 -38 -42 -42 -55 -4 -12 -20 -29 -36 -37 -16 -8 -43 -35 -60 -60 -23 -33 -50 -54 -109 -85 -65 -34 -86 -51 -117 -97 -22 -31 -56 -81 -76 -112 -24 -36 -38 -68 -38 -89 0 -26 11 -44 50 -86 28 -29 50 -58 50 -63 0 -6 9 -22 21 -37 12 -15 43 -38 70 -52 41 -20 67 -25 148 -28 55 -2 104 -7 110 -10 6 -4 48 -1 94 8 45 8 120 19 167 26 47 6 117 20 155 30 39 10 90 22 114 25 24 4 81 22 125 40 45 18 108 38 141 45 33 6 83 24 110 40 29 16 74 30 105 34 36 4 87 22 145 51 50 25 126 60 170 79 44 19 105 39 135 45 30 6 107 29 170 52 63 22 138 49 165 59 28 9 86 30 130 44 44 15 116 38 160 51 44 12 138 50 209 84 71 34 150 66 175 72 25 6 91 31 146 56 55 24 120 54 145 65 25 11 90 36 145 55 55 18 128 40 163 48 35 8 96 30 135 49 40 19 113 52 162 74 50 22 126 51 170 66 44 14 112 36 152 50 39 13 86 32 104 42 18 9 71 29 116 45 46 15 96 37 111 47 15 11 47 25 72 32 25 6 67 19 93 27 38 12 74 15 160 10 62 -3 129 -11 150 -17 32 -9 42 -19 58 -56 15 -32 20 -64 19 -112 -1 -37 1 -97 5 -134 6 -52 4 -72 -7 -90 -8 -13 -20 -39 -26 -58 -6 -19 -29 -96 -52 -170 -26 -83 -51 -145 -65 -160 -13 -14 -32 -45 -43 -70 -11 -25 -27 -52 -37 -60 -12 -10 -41 -15 -81 -16 -54 0 -70 -5 -106 -31 -30 -21 -53 -50 -78 -99 -19 -38 -58 -98 -85 -133 -47 -59 -50 -67 -50 -121 0 -51 4 -62 38 -105 20 -27 42 -67 48 -89 6 -23 16 -59 23 -80 6 -22 23 -48 39 -60 20 -15 42 -20 71 -19 24 1 66 13 94 27 27 14 72 48 98 77 27 28 57 55 68 61 10 6 60 14 110 19 50 5 138 15 196 22 58 7 119 20 135 28 17 9 46 20 65 24 19 4 58 20 85 35 28 16 79 36 115 45 36 9 90 29 121 45 31 16 88 38 125 49 38 11 101 31 139 45 39 14 83 26 98 26 15 0 40 6 56 14 15 8 33 22 40 30 8 9 45 25 85 37 39 12 94 33 121 47 28 14 79 31 114 39 36 7 90 25 122 39 31 14 69 39 84 54 19 20 56 38 112 56 62 20 96 37 131 69 26 23 62 47 81 53 19 7 46 12 61 12 14 0 48 11 76 24 27 13 92 44 145 69 52 25 117 64 144 86 27 23 65 46 85 52 19 7 55 23 80 37 25 15 70 42 101 62 30 19 75 52 100 71 24 20 64 48 90 62 25 15 80 33 124 42 76 14 80 16 144 81 36 36 83 75 103 85 21 11 58 22 83 26 35 4 45 3 45 -8 0 -8 -13 -42 -30 -77 -16 -34 -42 -79 -58 -100 -16 -20 -53 -81 -81 -135 -29 -55 -61 -122 -70 -150 -10 -29 -37 -81 -59 -117 -23 -36 -55 -82 -71 -103 -17 -22 -42 -73 -55 -115 -13 -43 -48 -140 -76 -217 -38 -104 -52 -155 -53 -196 0 -41 5 -64 20 -85 10 -16 27 -50 37 -76 10 -26 29 -57 43 -68 14 -11 55 -29 90 -40 36 -11 82 -20 103 -20 21 0 69 15 112 35 51 23 105 39 171 48 72 11 120 26 194 60 54 24 114 50 133 58 19 7 60 36 90 64 30 28 91 78 135 110 44 33 126 97 182 142 82 67 111 99 153 166 29 45 68 96 86 112 25 22 42 55 68 126 19 53 40 131 46 173 9 60 9 98 0 165 -7 49 -10 105 -6 125 3 20 9 52 12 71 5 27 0 49 -20 89 -18 38 -28 76 -32 127 -3 51 -12 89 -29 122 -13 26 -27 62 -30 81 -5 24 -1 45 14 74 12 23 21 58 21 79 0 23 -12 60 -30 93 -19 36 -29 70 -30 98 0 29 10 62 29 100 17 31 41 82 55 112 16 35 36 62 56 74 17 10 65 51 107 92 62 62 79 86 100 142 14 37 29 79 35 95 6 15 7 42 4 61 -4 18 -16 42 -29 54 -12 11 -35 25 -50 31 -16 6 -43 11 -61 11 -18 0 -55 -7 -83 -15 -28 -8 -62 -25 -77 -36 -15 -12 -45 -50 -68 -86 -22 -35 -53 -70 -69 -78 -15 -8 -42 -15 -58 -15 -21 0 -34 7 -42 22 -7 12 -20 56 -31 98 -10 41 -29 91 -42 110 -13 20 -33 54 -45 77 -11 23 -21 60 -21 83 0 26 7 47 20 60 11 11 30 22 42 24 13 3 91 8 173 12 83 4 218 8 300 9 140 1 154 3 205 28 49 24 67 27 162 27 59 0 119 5 135 11 15 6 53 12 83 15 30 3 100 18 155 34 55 16 141 34 190 39 50 6 131 22 180 36 50 14 155 35 235 46 80 11 190 30 245 43 55 13 119 27 141 30 23 3 61 15 85 26 24 11 55 20 68 20 13 0 55 11 93 25 56 20 88 25 168 25 54 0 131 7 170 15 39 8 84 22 100 30 16 8 48 15 72 15 24 0 106 7 183 15 77 9 185 20 241 24 60 5 114 16 135 26 19 9 49 31 67 48 20 19 32 41 32 57 0 17 -13 39 -38 63 -27 26 -47 37 -68 37 -17 0 -33 -2 -36 -5z m-3484 -2030 c9 -19 26 -74 38 -122 16 -69 23 -140 29 -323 4 -129 11 -258 14 -286 5 -41 2 -62 -18 -110 -14 -32 -30 -85 -37 -116 -7 -36 -25 -76 -48 -109 -20 -28 -53 -70 -72 -93 -20 -23 -48 -57 -63 -78 -14 -20 -44 -47 -64 -59 -21 -13 -87 -62 -148 -108 -60 -47 -129 -95 -151 -108 -23 -13 -84 -33 -135 -44 -72 -15 -103 -28 -134 -52 -33 -27 -49 -32 -91 -32 -37 0 -58 6 -73 19 -12 11 -21 31 -21 48 0 16 6 41 14 56 7 15 19 59 26 99 9 56 22 87 60 148 27 43 58 87 69 99 11 11 24 34 30 49 6 16 11 47 11 69 0 36 6 47 44 82 24 23 50 52 59 66 9 14 25 53 37 88 11 35 36 87 55 115 19 29 37 64 41 80 3 15 20 40 37 55 17 15 41 38 54 52 12 14 43 49 68 78 25 29 53 65 62 80 10 15 44 62 76 105 32 43 70 100 85 127 15 27 42 74 60 105 21 34 40 55 52 55 10 0 24 -14 34 -35z"/>
<path d="M49914 3738 c-11 -7 -42 -30 -67 -52 -29 -24 -57 -59 -73 -95 -15 -31 -43 -73 -62 -93 -31 -33 -36 -46 -39 -95 -2 -36 1 -66 9 -79 7 -11 27 -41 44 -66 17 -26 55 -67 84 -92 53 -45 55 -46 122 -46 38 0 83 6 102 14 18 7 49 28 69 45 20 18 41 48 47 67 6 19 9 48 5 65 -6 24 -17 34 -60 53 -29 13 -56 29 -59 35 -4 6 6 23 22 39 16 15 41 43 55 63 15 20 27 47 27 60 0 13 -9 42 -19 64 -10 22 -34 57 -52 78 -29 32 -42 39 -84 43 -31 3 -58 0 -71 -8z"/>
<path d="M45058 2316 c-20 -7 -57 -25 -82 -40 -26 -15 -69 -29 -99 -33 -37 -4 -78 -20 -142 -56 -49 -27 -121 -75 -160 -106 -38 -31 -90 -69 -115 -85 -24 -15 -134 -117 -243 -225 -110 -108 -218 -222 -241 -254 -22 -33 -53 -76 -67 -98 -21 -30 -27 -55 -31 -111 -3 -40 -12 -87 -21 -104 -11 -22 -37 -42 -85 -67 -38 -19 -92 -50 -119 -69 -37 -25 -69 -38 -121 -46 -39 -7 -119 -28 -179 -48 -59 -19 -139 -49 -178 -66 -55 -24 -96 -33 -199 -44 -88 -9 -143 -20 -172 -35 -24 -11 -53 -32 -64 -46 -11 -14 -20 -35 -20 -47 0 -11 9 -36 20 -54 12 -19 37 -40 57 -49 24 -10 51 -13 76 -9 21 4 56 15 77 26 21 11 85 27 141 35 57 9 128 27 158 40 31 14 126 45 211 69 85 24 179 49 208 55 30 6 62 16 72 21 11 6 48 32 82 59 35 26 74 51 86 55 11 4 32 2 44 -5 13 -6 44 -31 69 -55 32 -29 64 -47 100 -57 30 -8 108 -27 173 -42 115 -26 123 -27 228 -15 59 6 140 9 181 5 48 -4 104 -1 169 9 54 9 148 16 210 16 61 0 152 5 202 11 50 7 108 20 128 30 21 11 48 19 61 19 14 0 113 18 221 40 108 22 212 40 232 40 19 0 56 9 82 19 31 13 81 21 147 24 55 3 156 16 225 30 69 14 150 30 180 35 30 6 75 17 100 25 25 8 83 22 130 31 47 9 103 16 126 16 28 0 64 12 118 41 48 25 87 39 104 37 20 -2 28 -9 30 -27 3 -17 -8 -36 -36 -65 -21 -22 -58 -65 -80 -94 -28 -36 -44 -69 -52 -108 -7 -31 -9 -76 -5 -100 4 -31 16 -52 42 -77 19 -19 74 -61 121 -93 l85 -59 326 -2 c320 -2 328 -2 426 23 55 14 150 29 210 34 61 5 130 12 155 15 25 4 79 19 120 33 69 23 91 26 265 28 105 1 267 8 360 15 94 6 226 13 295 13 69 1 160 6 203 10 l77 9 0 -24 c0 -14 -16 -49 -35 -79 -19 -30 -35 -67 -35 -82 0 -15 16 -53 36 -83 19 -31 43 -59 52 -62 9 -4 35 -19 57 -34 35 -24 55 -29 155 -39 77 -7 175 -8 295 -2 164 8 185 11 236 36 33 15 73 26 98 26 23 0 71 -7 106 -16 59 -15 72 -15 162 0 54 10 143 30 197 46 74 23 120 30 180 30 45 0 117 6 161 14 44 8 132 17 195 21 63 3 149 15 190 25 41 10 149 24 240 31 91 8 201 12 245 11 44 -2 132 2 195 8 63 6 133 16 154 21 21 6 56 22 77 36 24 16 45 23 58 18 10 -3 31 -15 45 -26 21 -16 26 -29 26 -62 0 -25 -8 -54 -20 -72 -16 -24 -20 -47 -20 -111 0 -69 4 -86 24 -117 13 -19 27 -50 31 -68 4 -19 13 -46 21 -60 7 -15 33 -38 57 -52 24 -14 56 -42 71 -62 16 -20 40 -41 54 -47 15 -6 95 -12 177 -13 83 -2 194 1 248 5 84 7 103 12 133 35 20 15 61 37 91 49 37 14 67 34 86 58 23 28 30 48 31 81 1 24 -5 55 -12 69 -8 13 -27 33 -44 43 -25 14 -44 17 -102 12 -40 -4 -90 -13 -111 -20 -22 -8 -55 -12 -73 -9 -26 3 -41 -2 -72 -27 -21 -17 -47 -31 -57 -31 -10 0 -47 15 -83 33 -45 22 -69 41 -80 62 -8 17 -15 59 -16 95 0 36 -8 84 -17 107 -9 23 -14 50 -10 60 3 10 16 32 27 48 12 17 31 52 44 78 12 27 22 66 22 87 0 22 -8 47 -20 62 -10 14 -34 31 -52 39 -18 7 -45 22 -60 32 -17 13 -36 18 -55 14 -15 -2 -41 -9 -58 -15 -16 -6 -83 -23 -147 -38 -70 -16 -127 -24 -143 -20 -15 4 -61 -2 -108 -13 -45 -11 -138 -28 -207 -38 -69 -10 -162 -17 -207 -15 -63 2 -104 -3 -175 -21 -60 -16 -137 -28 -218 -32 -69 -4 -181 -8 -250 -10 -108 -2 -138 -6 -220 -32 -52 -17 -133 -37 -180 -44 -47 -7 -145 -14 -219 -16 -74 -2 -161 -8 -195 -14 -33 -6 -110 -15 -171 -19 -60 -5 -175 -14 -254 -19 -96 -7 -150 -7 -162 0 -14 7 -19 21 -19 55 0 39 5 51 33 77 19 18 58 53 88 78 30 25 65 51 77 58 13 7 30 28 38 46 8 19 14 51 14 72 0 21 -9 52 -19 69 -13 21 -30 33 -51 38 -18 3 -60 6 -94 6 -34 0 -94 -9 -133 -20 -40 -11 -127 -25 -195 -31 -68 -6 -131 -15 -141 -21 -10 -5 -57 -16 -105 -23 -48 -8 -148 -22 -222 -31 -74 -9 -182 -17 -240 -18 -58 -1 -154 -6 -215 -10 -78 -6 -127 -16 -167 -32 -32 -14 -78 -24 -104 -24 -26 0 -64 5 -85 11 -31 10 -45 9 -79 -5 -33 -13 -49 -14 -78 -6 -20 5 -55 10 -78 10 -22 0 -78 -11 -124 -25 -46 -14 -99 -25 -117 -25 -19 0 -66 5 -104 12 -61 10 -75 9 -105 -5 -27 -13 -66 -17 -182 -17 -81 -1 -167 -5 -192 -10 -28 -5 -59 -5 -82 1 -21 5 -44 19 -53 32 -8 12 -15 31 -15 43 0 11 13 39 29 62 17 22 62 64 101 94 43 31 90 78 117 116 27 38 88 99 155 154 70 58 116 104 124 124 8 19 14 46 14 62 0 16 -10 42 -22 57 -21 27 -23 27 -92 21 -39 -4 -102 -13 -140 -21 -37 -8 -96 -28 -130 -44 -33 -16 -72 -32 -86 -36 -14 -4 -52 -19 -85 -32 -33 -14 -93 -29 -133 -34 -46 -5 -99 -20 -140 -38 -54 -25 -99 -35 -226 -51 -88 -11 -176 -25 -195 -30 -20 -5 -74 -14 -120 -20 -45 -6 -126 -25 -180 -41 -76 -24 -124 -32 -236 -39 -111 -6 -156 -13 -214 -34 -60 -21 -93 -26 -167 -26 -59 0 -124 -8 -180 -21 -49 -11 -101 -27 -117 -36 -22 -11 -47 -13 -105 -8 -57 5 -117 1 -227 -16 -108 -16 -202 -22 -335 -24 -102 -1 -214 -5 -250 -9 -46 -5 -77 -4 -105 6 -34 11 -40 18 -43 45 -2 24 3 39 20 56 14 14 48 30 79 37 30 7 86 29 124 48 39 19 89 52 113 73 30 26 70 46 125 65 76 25 87 32 155 103 41 42 89 99 107 128 21 32 56 67 94 92 33 23 72 56 86 75 14 19 34 58 45 88 10 29 24 84 30 121 9 47 9 86 2 130 -5 34 -10 73 -10 86 -1 13 -13 36 -27 51 -14 15 -43 32 -64 39 -21 6 -56 11 -77 11 -22 -1 -55 -7 -76 -14z m-55 -318 c4 -13 2 -39 -2 -58 -4 -19 -15 -49 -24 -65 -8 -17 -34 -50 -56 -73 -22 -22 -59 -54 -83 -69 -24 -15 -64 -45 -89 -68 -25 -22 -75 -56 -109 -75 -35 -19 -89 -59 -121 -87 -31 -29 -76 -62 -100 -73 -24 -11 -53 -20 -65 -20 -12 0 -35 -5 -52 -11 -17 -6 -34 -19 -37 -30 -4 -10 -13 -26 -21 -34 -9 -8 -26 -15 -40 -15 -14 0 -27 7 -30 15 -4 8 1 26 10 40 9 14 34 36 56 50 25 16 49 43 64 74 14 26 38 59 55 72 16 13 41 32 55 42 14 10 44 44 66 76 22 33 56 72 75 89 20 16 55 35 78 41 30 9 57 28 92 67 40 43 69 62 140 94 50 22 100 40 111 40 14 0 24 -8 27 -22z"/>
</g>
</svg>