<svg xmlns="http://www.w3.org/2000/svg" viewBox="0 0 238.59 269.56"><title>Asset 12</title><g id="Layer_2" data-name="Layer 2"><g id="Layer_1-2" data-name="Layer 1"><path d="M102.4,107.67h0v0h0ZM77.58,119c.44-.09.86-.23,1.38-.37-.11-2.25-.2-4.43-.32-6.61s-.3-4.28-.41-6.42c-.21-4.11-.4-8.21-.61-12.31a12.77,12.77,0,0,0-.22-1.63A1.91,1.91,0,0,0,75.7,90a2.3,2.3,0,0,1-1.26-.45,8,8,0,0,0-3.2-1.66,12.72,12.72,0,0,1-4.36-2.78,2.76,2.76,0,0,0-1.11-.76,8.53,8.53,0,0,1-4.27-3.27c-.6-.79-1.13-1.65-1.81-2.66,1.21.11,2,1.1,3.1.85-4.81-3.63-4.29-4.71-4-7.49.23.49.39.84.57,1.18a4.7,4.7,0,0,0,2.27,2.28A2.24,2.24,0,0,0,64.13,75,2.68,2.68,0,0,0,64.49,72a4.58,4.58,0,0,0-.87-1,17.45,17.45,0,0,0-1.73-1.35,10.93,10.93,0,0,1-4.66-7.14,13,13,0,0,1,.2-7.42A4,4,0,0,0,56.89,51a6.84,6.84,0,0,1-1.19-4.28c.1-2.08,1-4.44,4.12-4.8a13,13,0,0,0,1.75-.28c.87-.22,1-.83.47-1.52s-1-1.05-1.45-1.64a5.09,5.09,0,0,1-1.07-4.36c.56-2.14,1.77-3.11,4.14-3.35.58-.06,1.17-.06,1.75-.09a1.8,1.8,0,0,0,.14-.44,9.76,9.76,0,0,1,2.11-6.5,10,10,0,0,0,1.94-6,10.53,10.53,0,0,1,10.93-10,9.25,9.25,0,0,0,3.25-.09,10,10,0,0,0,2.53-2c.1-.09.22-.17.31-.26A5.15,5.15,0,0,1,92.39,4a3.09,3.09,0,0,0,2.12-.08,38.27,38.27,0,0,1,9-1.64A21.81,21.81,0,0,0,110.57.78a9.57,9.57,0,0,1,8,.19,13.4,13.4,0,0,1,1.48.71,17.41,17.41,0,0,0,8.22,2.22,30.41,30.41,0,0,1,4.47.61c4,.9,6.68,3.21,7.6,7.33.05.22.1.45.18.84.56,0,1.15,0,1.72,0a45.26,45.26,0,0,1,5.85.53A6.83,6.83,0,0,1,153,22.74a3.69,3.69,0,0,0-.26,1.71,32.13,32.13,0,0,0,.61,4.61,12.22,12.22,0,0,0,1.42,3.23c.9,1.48,2,2.84,2.93,4.3a10.44,10.44,0,0,1,1.93,5.62,11.28,11.28,0,0,1-.39,2.82c-.09.41-.24.75,0,1.15a2.18,2.18,0,0,1,.18,2c-.56,1.87-1.17,3.73-1.73,5.6a8,8,0,0,0-.34,1.6,8.09,8.09,0,0,1-4.73,6.59c-.72.38-1.37.9-2.09,1.26a5.55,5.55,0,0,1-1.91.65,2.49,2.49,0,0,0-2.49,2.82,24.29,24.29,0,0,0,.46,3.38c.16.89.42,1.77.62,2.66a12,12,0,0,1-.65,6.85c-.5,1.37-1.12,2.7-1.61,4.07a9.88,9.88,0,0,0-.65,2.65A41.3,41.3,0,0,1,143,94.09a5.63,5.63,0,0,0,.11,3.2,10.84,10.84,0,0,1-.49,8,1.58,1.58,0,0,0-.16,1c.47,1.57,1,3.12,1.56,4.81h2.6a5.51,5.51,0,0,1,3.44,1.11q6.28,4.63,12.62,9.19c1.77,1.29,3.62,2.48,5.37,3.79a13.52,13.52,0,0,1,2.81,2.57,50.14,50.14,0,0,0,6.46,6.49q11.28,10.5,22.52,21a12.38,12.38,0,0,1,3.51,5.73c3.09,10.31,6.4,20.55,9.44,30.87,1.08,3.66,1.69,7.47,2.43,11.22q2.73,13.83,5.37,27.67c.78,4.08,1.55,8.16,2.27,12.25a7.44,7.44,0,0,1-2.29,6.85c-3.39,3.27-6.89,6.41-10.35,9.61l-5.1,4.75.13.24,11.23-4.89.16.19c-.36.44-.71.89-1.08,1.33-2.08,2.48-4.17,5-6.22,7.47a2.12,2.12,0,0,1-1.86.88c-2.19-.05-4.37,0-6.64,0a7.67,7.67,0,0,1-.17-1q-.3-9.45-.57-18.89c-.16-5.57-.3-11.14-.49-16.71a91.81,91.81,0,0,0-1.75-13c-.62-3.5-1.21-7-1.68-10.55,2.45,6.54,4.56,13.19,6.69,19.87.08-2.49.19-5,.24-7.46.08-4.61.08-9.22.22-13.84a49.43,49.43,0,0,0-1.58-12.59c-2.33-10.23-4.7-20.45-7-30.68a5.11,5.11,0,0,0-1.56-2.79c-1.68-1.52-3.25-3.16-5-4.88,4.7,13.38,9.35,26.56,12.59,40.18l-.25.08c-1.21-3.65-2.44-7.31-3.62-11s-2.36-7.39-3.5-11.09-2.25-7.48-3.6-11.15c.65,2.75,1.3,5.51,2,8.26l-.27.07c-.38-1.21-.79-2.41-1.13-3.63q-2.48-8.69-4.9-17.38a6.86,6.86,0,0,0-1.42-2.76c-5.29-6.11-10.47-12.32-15.86-18.34a68.28,68.28,0,0,0-6.9-6.24c-3.85-3.28-7.78-6.49-11.67-9.74a4.73,4.73,0,0,0-4.06-1.27c1.76,1.63,3.49,3.16,5.14,4.78,5.06,4.94,10.15,9.87,15.12,14.91,4.48,4.56,4.42,4.62,6.66,10.62s4.47,12.16,6.8,18.2a27.37,27.37,0,0,0,2.52,4.83,21.36,21.36,0,0,1,2.5,6.2q3.2,12.09,6.32,24.22c.3,1.14.55,2.31.91,3.43a22.41,22.41,0,0,1,1,6.89A169.49,169.49,0,0,0,193.76,225q1,8.84,1.91,17.69c.14,1.36.12,2.74.16,4.11a29,29,0,0,0,1.16,8c.22.69.33,1.42.54,2.12a17.45,17.45,0,0,1,.7,7.83c-.25,1.52-.28,3.07-.42,4.69h-8.22l.79-5.7c.28-1.94.67-3.88.8-5.83a11.23,11.23,0,0,0-.41-3.64c-1.14-4.23-2.4-8.42-3.62-12.62a3.7,3.7,0,0,0-.32-.62c.6,5.69,1.92,11.19,1,16.85-.16-1.55-.33-3.09-.48-4.64-.32-3.18-.59-6.36-1-9.54-.59-5.31-.74-10.65-.86-16-.15-6.43-.42-12.87-.68-19.3-.11-3-.16-6-.51-9-.36-3.21-1-6.39-1.58-9.57s-1.19-6.18-1.79-9.27a6.93,6.93,0,0,0-1-2.78,78.39,78.39,0,0,0,2.37,12.8l-.29.08c-.55-1.71-1.14-3.42-1.63-5.15a39.36,39.36,0,0,1-1.7-9.27,7.27,7.27,0,0,0-.5-2.12q-4.8-13.6-9.65-27.2a9.7,9.7,0,0,0-1.51-2.58c-6.13-8-12.62-15.75-19.2-23.4-1.43-1.67-2.88-3.3-4.34-4.94-.32-.36-.71-.67-1.19-1.11a3.42,3.42,0,0,0,.54,3.21c2.1,3.15,4.25,6.27,6.27,9.48,3.13,5,6.18,10,9.22,15.06a4.29,4.29,0,0,0,2.29,2c.81.28,1.57.73,2.38,1a1.46,1.46,0,0,1,1.09,1.51c0,1.74.16,3.47.26,5.2a52.62,52.62,0,0,0,1.86,9.94c1.23,4.72,2.55,9.42,3.63,14.17.75,3.29,1.16,6.65,1.74,10q2,11.26,4,22.51c.36,2,.75,4,1,6.15-.35-.51-.69-1-1.05-1.55a7.42,7.42,0,0,0-1.4-1.63c0,.28,0,.57,0,.85.54,7,1.1,14,1.64,21a8.1,8.1,0,0,0,.89,3.27c.35.64.59,1.35,1,2,1.47,2.43,1.76,5.12,1.94,7.88.28,4.19.68,8.37,1,12.55.26,3.27.49,6.55.74,9.94H167.28c1.41-7,3.08-14,4.52-21-2.75,7.09-5.3,14.24-8.3,21.21l-.38-.13c.15-.48.29-1,.46-1.44q3.27-9.44,6.55-18.87a20.09,20.09,0,0,0,1.17-7.06q-7,13.68-14,27.34h-8c.22-.56.39-1,.59-1.47,2.53-5.61,5.12-11.2,7.57-16.85a95.45,95.45,0,0,0,5.25-14.81,31.66,31.66,0,0,0,.57-11c-.09-.94-.17-1.89-.27-2.93-.17.13-.32.18-.34.27-1.54,5.4-4.09,10.35-6.67,15.28-3.18,6.11-6.41,12.2-9.62,18.3a3.57,3.57,0,0,1-.65.88c4.8-14.71,10-29.28,15.23-43.83l.33.09-.81,3.05a24,24,0,0,0-.68,3.18l1.08-2.74c.44-1.15.83-2.32,1.33-3.44a7.27,7.27,0,0,0,.56-3.6c-.27-3.87-.47-7.74-.71-11.62-.23-3.73-.5-7.47-.74-11.2a14.22,14.22,0,0,0-.32-2.56,6.3,6.3,0,0,0-.28.72c-3.93,16-9.29,31.48-14.41,47.08-1.79,5.46-3.51,10.94-5.39,16.37-1.25,3.62-2.7,7.17-4.12,10.73a3.64,3.64,0,0,1-1.16,1.48,25.08,25.08,0,0,1-3.19,2.1c-3.9,2.1-7.82,4.15-11.74,6.19a3.28,3.28,0,0,1-1.43.38c-6.76,0-13.52,0-20.28,0-.07,0-.13-.09-.31-.2l1.27-.77a150.5,150.5,0,0,1,14.57-6.93c8.23-3.59,8.23-3.56,14.93-9.42,2-1.71,3.94-3.41,5.86-5.16a4.4,4.4,0,0,0,1.19-1.62q10.14-27,20.23-54.06a50,50,0,0,0,2.65-9.76,19.94,19.94,0,0,0,.26-3.27c-.05-6.35-.14-12.69-.23-19a.57.57,0,0,0-.2-.39c-2.05,6.33-3.55,12.82-5.61,19.15q.48-15.15,1-30.32l-.29-.09a4.67,4.67,0,0,0-.41.58c-3.77,6.83-7.58,13.64-11.29,20.5a44.19,44.19,0,0,0-2.47,5.64q-7.43,20-14.79,40l-3.39,9.23h0v.17l-.35.9.28,0c0-.32.05-.64.07-.95l0-.1,0,0v0h.35l0,0,0,0v0l0,0,0,0,0,0s0,0,0,0,0,0,0,0v0s0,0,0-.05v0s0,0,0,0v-.07h0a.29.29,0,0,0,0-.09l0-.05h0s0,0,0-.06h0l0,0a.14.14,0,0,1,0-.06c1.38-2.78,2.77-5.55,4.08-8.36q10-21.39,19.94-42.8a10,10,0,0,1,1.08-2q-.82,4.5-1.64,9c-.52,2.87-1,5.75-1.55,8.62a15.43,15.43,0,0,1-.79,2.75q-7,17.52-14.07,35a9.63,9.63,0,0,1-2.78,3.82c-6,5.13-12,10.28-17.92,15.52a47.37,47.37,0,0,0-3.78,4.31,21.69,21.69,0,0,1-2.35,2.44,182.42,182.42,0,0,1-16,11.06q-5.06,3.28-10.09,6.58a3.68,3.68,0,0,1-2.17.69c-1.68,0-3.35,0-5.36,0l2.6-1.64a4.84,4.84,0,0,0-.78-.34l-13-2.73c-.31-.07-.61-.2-.91-.28a2.81,2.81,0,0,1-2-2,105.29,105.29,0,0,1-3.27-11.58q-2.55-11.78-5.08-23.54c-.18-.82-.31-1.66-.5-2.74-.85,1.1-1.54,2-2.22,2.9A37.59,37.59,0,0,1,38.43,234a4.21,4.21,0,0,0-1.36,3.17,25.24,25.24,0,0,0,.59,6.66,86.78,86.78,0,0,0,3.91,14.09c.06.17.14.33.33.77.06-.51.11-.79.12-1.06a10.66,10.66,0,0,1,0-1.5,11.06,11.06,0,0,0-1.28-7.27,4.46,4.46,0,0,1-.08-3.92c1.53-3.8,3-7.64,4.53-11.73.32,1.74.59,3.22.86,4.71,1.37,7.73,2.75,15.45,4.07,23.18a3.58,3.58,0,0,0,1.1,2c2,2,3.93,4.07,5.91,6.12-1,.35-28,.51-32.38.19-.17-.43-.39-.92-.56-1.42-1.72-4.91-3.5-9.8-5.12-14.74a14.78,14.78,0,0,0-4-6.28c-2.06-1.94-4.15-3.86-6.22-5.79l-7.33-6.84a14.15,14.15,0,0,0,.71,2,23.85,23.85,0,0,0,2.13,3.5c2,2.5,4.09,4.91,6.16,7.34a10.68,10.68,0,0,0,5.32,3.44,10.72,10.72,0,0,1,1,.43l-6.46,1.4c-.08-.13-.22-.37-.38-.59-1.54-2.15-3.07-4.31-4.63-6.45A31.83,31.83,0,0,1,1,236.63,12.07,12.07,0,0,1,.41,233c0-5.21,0-10.42.05-15.62A4,4,0,0,1,1.25,215C3,212.53,4.7,210,6.44,207.58a78.7,78.7,0,0,0,5.94-9.68,7.16,7.16,0,0,1,3-3.11c1.39-.78,2.75-1.61,4.17-2.44q.11-3.91.2-7.8c.13-5.71.2-11.42.4-17.12a51.18,51.18,0,0,1,.74-6.53A7.4,7.4,0,0,1,22,158.15,75.52,75.52,0,0,1,30,147.78a9.93,9.93,0,0,1,2.15-1.67c3.88-2.32,7.78-4.6,11.67-6.88,1.85-1.08,3.7-2.17,5.59-3.2a5.7,5.7,0,0,0,2.48-2.61c.79-1.6,1.69-3.13,2.63-4.64a9,9,0,0,1,4.6-3.75q7.5-2.73,15.07-5.33A28.38,28.38,0,0,1,77.58,119ZM59.45,51.62l-2.39-2.21a5.64,5.64,0,0,0,1.41,2.48C58.79,52.24,59.18,52.23,59.45,51.62ZM65.53,31.5a4.48,4.48,0,0,0-2.3,1.11A1,1,0,0,0,64,34.44c1,0,1.41-.29,1.52-1.31A14.48,14.48,0,0,0,65.53,31.5Zm-40,134.3c.24,5,.42,9.93.63,14.89.06,1.26.16,2.52.25,3.77.75-3.32.32-6.7.64-10.05.08,1,.08,2,.09,3s0,2.1,0,3.15a7.12,7.12,0,0,0,.33,2.86c.42-10.56.51-21.12.36-31.69a17.52,17.52,0,0,0-.85,2.85C26.22,158.28,25.38,162,25.56,165.8Zm-12,36.34c1.13-.9,2-1.63,2.87-2.27s1.72-1,1.94-2.37c1.43,2.06,3.34,1.86,5.28,1.86,0-.47-.08-.74-.09-1s0-.51,0-1a5.2,5.2,0,0,0,4.57,1.7c.5,0,1,0,1.51,0,2.05,0,4.11-.07,6.16,0a15.4,15.4,0,0,1,6.22,1.38c1.73.83,2,.79,3.28-.57a8.74,8.74,0,0,0,.78-.95c1.26-1.79,1.07-3-.86-4-1.64-.86-3.42-1.47-5.14-2.2a9.41,9.41,0,0,0-5-.5c-3.38.46-6.75,1-10.13,1.48a20.5,20.5,0,0,1-5.85.3c-1.31-.19-1.56-.12-2.18,1.07-.77,1.5-1.46,3-2.18,4.57Zm8.33,55.76c1.39-1.78,2.57-3.27,3.73-4.77a1.73,1.73,0,0,0,.23-1.8c-1.23-3-1.52-6.16-2-9.31-.05-.32-.18-.62-.35-1.23-.91,1-1.68,1.66-2.32,2.48a8,8,0,0,0-1.68,7.3C20.21,252.92,21.05,255.22,21.93,257.9ZM32.76,251a8.09,8.09,0,0,0-.59-1.52,66.59,66.59,0,0,0-3.67-7.13l-.23.15c.08.25.15.5.24.75.9,2.53,1.94,5,2.68,7.59,1.09,3.78.48,6.71-2.68,9-.48.35-.93.74-1.42,1.06q-1.32.85-2.67,1.65c-.45.27-.71.55-.36,1.09a3.68,3.68,0,0,0,.94,0c1.71-.44,3.42-.91,5.14-1.37a1.26,1.26,0,0,0,1-1.1c.56-2.72,1.23-5.42,1.77-8.14A5.21,5.21,0,0,0,32.76,251ZM45.37,218.6a10.59,10.59,0,0,0-2.29-1.46,10.73,10.73,0,0,0-4.83-.73c-2.14.06-4.29.16-6.43.12a6.75,6.75,0,0,1-5.24-2.65c2.3,1.91,4.94,2.26,7.83,2a27.8,27.8,0,0,1,7.78.17c.52.1,1,.16,1.66.25.21-1,.47-1.88.58-2.77a3.48,3.48,0,0,0-2.15-3.76,8.31,8.31,0,0,0-2-.6c-2.56-.4-5.14-.71-7.7-1.12-1.44-.22-2.87-.51-4.28-.87a3,3,0,0,1-2-1.37,5.82,5.82,0,0,1,1.06.11,32.28,32.28,0,0,0,7.22,1.42,27.9,27.9,0,0,1,8.9,2,4.21,4.21,0,0,0,1.15.07c-.31-.55-.4-1-.68-1.19-1.11-.61-1-1.43-.65-2.44a3.24,3.24,0,0,0-1-3.61A6.52,6.52,0,0,0,39,200.43,36.77,36.77,0,0,0,29.1,200c-2.9.23-5.82.62-8.69-.3a3.73,3.73,0,0,0-1.63-.07c-1.14.14-1.57.59-1.76,1.74a13.27,13.27,0,0,0-.18,1.77c-.06,1.69.46,2.23,2.15,2.21a8.45,8.45,0,0,0,1.48-.24l1.29-.29a7.3,7.3,0,0,1-5.5,1.69,3.31,3.31,0,0,0,.56,2.16,6.42,6.42,0,0,1,.6,4.51c-.21.93-.26,1.89-.39,2.84.38-1.41.75-2.81,1.15-4.21.15-.5.36-1,.63-1.71l.85,1.6a9.71,9.71,0,0,1,4.93-.82c-1.64.8-3.63.6-4.73,2.34a3.79,3.79,0,0,1,1.77,2.37c.07.29.68.45,1.16.75a5.77,5.77,0,0,1-.49,3.15c-.54,1.05-.45,1.33.34,2.61,1.17-.42,1.92-1.43,2.88-2.22-.44,1.72-2.65,3.39-5.2,4.23.08-1,.17-1.9.25-2.83-3.81,3.67-6.41,8.08-8.76,12.73.24-.8.45-1.61.73-2.4a89.58,89.58,0,0,0,3.51-11.34c.11-.49.2-1,.3-1.47-.21.5-.46,1-.62,1.5-.34,1-.62,2-.93,3.05.35-2.77.88-5.5,1.3-8.24a19,19,0,0,0,.33-4.62c-.15-1.54-1.13-2.94-1-4.62a1.7,1.7,0,0,0-.64.55c-3.79,5.49-7.58,11-11.33,16.47a7,7,0,0,0-1,2.25,17.72,17.72,0,0,0-.3,5.72,7.49,7.49,0,0,0,2.4,5.2l6.15,5.65c.26.24.55.44.91.74l1-2.22a4.37,4.37,0,0,0,.16-3.33,6.71,6.71,0,0,1-.33-1.32,2.82,2.82,0,0,1,.13-.79c.88,1.24,1.09,2.63,2.08,3.83v-2l.89,1.36,2.92-2.81.13.12c-1.53,2.62-3.07,5.23-4.58,7.81a4.06,4.06,0,0,0,5,.68A12.08,12.08,0,0,0,21.23,242c1.78-1.77,3.53-3.57,5.23-5.42a15.59,15.59,0,0,0,2-2.76,4.75,4.75,0,0,0,.13-5.18,8.43,8.43,0,0,1-.7-1.63,2.25,2.25,0,0,1,0-1.69c.69,1.18,1.39,2.23,1.93,3.35a5.63,5.63,0,0,1,.51,2.09,7.08,7.08,0,0,1-2.18,5.7c-.36.35-.9.65-.82,1.33a2.45,2.45,0,0,0,3-.95A8.14,8.14,0,0,0,32,229.16a10.4,10.4,0,0,0-.44-1.44c-.31-.66-.26-1.2.4-1.57-1.79-2.4-2.29-3.44-2.22-4.6,1.32,1.58,1.44,1.63,3.5,1.35.45-.06.9-.16,1.35-.22a18.85,18.85,0,0,1,8.86,1.16,5.43,5.43,0,0,1,.72.48c-.47.29-.78.52-1.11.7a9.3,9.3,0,0,0-3.53,3.54,2.11,2.11,0,0,0-.35,1,1.06,1.06,0,0,0,.4.76.79.79,0,0,0,.73-.05,6,6,0,0,0,1.16-1.15c1.23-1.64,2.46-3.29,3.61-5a10.24,10.24,0,0,0,1.15-2.32A2.77,2.77,0,0,0,45.37,218.6ZM68.2,265.31c-2.8-2.4-5.57-4.84-8.42-7.19a10.57,10.57,0,0,1-3-3.86c-1.47-3.23-3-6.43-4.5-9.65h-.21c.06.44.09.89.18,1.33,1.11,5.25,2.29,10.5,3.32,15.77a2.4,2.4,0,0,0,2.16,2.22l8.34,1.43c.67.11,1.34.16,2,.23C68.15,265.5,68.17,265.4,68.2,265.31ZM72.5,258l-10.84-7.69-.24.24c1,1.59,2.11,3.16,3.11,4.78A3.34,3.34,0,0,0,67,257c1.82.32,3.6.78,5.4,1.19A1.86,1.86,0,0,1,72.5,258Zm11.9-.75-4.48-1.57A13.46,13.46,0,0,1,75.35,253c-3.64-3.26-7.27-6.53-11-9.72a8.38,8.38,0,0,1-2.6-3.92c-2.16-6.68-4.4-13.34-6.51-20a33.25,33.25,0,0,1-1.16-5.61c-.49-3.8-.85-7.62-1.23-11.43-.53-5.18-1-10.36-1.54-15.53l-1.29-13.22c-.3-2.95-.75-5.9-.86-8.86-.23-6.29-.3-12.6-.41-18.9,0-1.36.1-2.72.16-4.15a10.28,10.28,0,0,0-.67.81c-.82,1.15-1.59,2.35-2.45,3.46a10.35,10.35,0,0,0-2.31,5.87c-.28,4.33-.86,8.63-1.14,13-.31,5-.43,10.09-.64,15.25-.14-.55-.29-1-.38-1.49-.57-2.82-1.47-5.58-1.42-8.49.14-8.34.06-16.69.83-25.21-.95,1.39-2.21,2.4-2.43,4.11-.18,1.4-.47,2.79-.73,4.18s-.55,2.93-.82,4.39c-.07-1.85,0-3.66.06-5.49a23.07,23.07,0,0,0-.08-5.79c-1.3,2.05-1.67,4.15-2.65,6a27.48,27.48,0,0,1,2-7.24l-2.73,1.46-2.65,1.49c2,14.38,4.54,28.55,6.9,42.61,2.11.71,4,1.23,5.72,2a17.7,17.7,0,0,1,3.77,2.18,3,3,0,0,1,.78,4.37,19.21,19.21,0,0,1-2.07,2.53,10.4,10.4,0,0,1-1.09,1c.48,1.63.94,3.1,1.34,4.59.45,1.72.79,3.46,1.26,5.17a15.25,15.25,0,0,1,.54,5.67,15.64,15.64,0,0,0,.24,5.16c1.09,4.52,2.41,9,3.71,13.45A6.41,6.41,0,0,0,53,238.66c1.57,2,3.22,3.85,4.82,5.79a22.52,22.52,0,0,0,6.46,5.63c2.48,1.35,4.9,2.83,7.24,4.42a26.63,26.63,0,0,0,9.78,3.7A3.67,3.67,0,0,0,84.4,257.27Zm43-65.42c-.43.16-.81.28-1.16.45-1,.45-2,.95-3,1.39-3.24,1.45-6.5,2.87-9.75,4.33a6.72,6.72,0,0,1-4.51.37c-4.6-1.13-9.21-2.26-13.84-3.21a17.77,17.77,0,0,1-8.75-4.5c-5.39-5-10.84-9.94-16.22-15q-3.32-3.07-6.46-6.33a11.67,11.67,0,0,1-3.36-7.87c-.18-4.84-.39-9.68-.57-14.51-.13-3.55-.22-7.11-.33-10.66l-.21,0C58.14,138.9,57,141.5,55.8,144a7.26,7.26,0,0,0-.51,4.8c1.61,7.58,3.24,15.16,5.3,22.64,2.7,9.81,5.54,19.57,8.72,29.23.15.44.25.89.37,1.34a5.79,5.79,0,0,1-1.07-1.78q-6.15-14.42-12.31-28.82a31.76,31.76,0,0,1-2-6.24c-.25-1.24-.57-2.47-.87-3.7a.93.93,0,0,0-.13.67q1,5.87,2,11.73,1.58,9.24,3.15,18.47c.94,5.44,1.75,10.91,2.88,16.31.81,3.83,2,7.58,3.13,11.33,1.57,5.24,3.26,10.44,4.88,15.67a3.05,3.05,0,0,0,1.65,2c1.43.71,2.79,1.56,4.22,2.26a6.18,6.18,0,0,0,2.19.67c2.46.18,4.93.25,7.39.35,1,.05,2.1,0,3.15.11a2.37,2.37,0,0,1,1.28.36c2.41,2,4.78,4.06,7.16,6.1l-.12.26c-8.33-2-16.6-4.23-25.08-6.38.2.32.27.48.37.62a46.75,46.75,0,0,0,6.55,6.79,3.7,3.7,0,0,0,1.31.71c3.28,1.1,6.58,2.15,9.85,3.28a2.12,2.12,0,0,0,2.17-.3c1.62-1.27,3.31-2.46,4.84-3.81s2.29-3.14,3.36-4.76c-1.23-.84-2.35-1.54-3.39-2.34s-2-1.66-2.93-2.48-2-1.61-2.93-2.41a2.67,2.67,0,0,1,1.41.56,8.58,8.58,0,0,0,5.43,1.93c1.3,0,2.6.19,3.9.29a1.45,1.45,0,0,0-.57-.58c-4.32-2.82-8.63-5.65-13-8.45a12.46,12.46,0,0,1-4-4.27c-3.44-5.76-6.91-11.5-10.36-17.26a10.3,10.3,0,0,1-.49-1c5.39,4.82,10.61,9.74,15.89,14.59s10.67,9.67,16.08,14.55c.25-.34.39-.51.5-.7,2.63-4.59,5.43-9.1,7.84-13.81,5.11-9.94,9.82-20.07,14.36-30.29A1.77,1.77,0,0,0,127.44,191.85ZM66.21,170.1,62,160.68C62.51,165.9,63.69,168.46,66.21,170.1Zm79.9-27.26a31,31,0,0,0-4.59,7.11q-10.71,21.42-21.45,42.84l-.75,1.49c3-1.12,5.8-2.4,8.59-3.74a2.29,2.29,0,0,0,.86-1c2.31-4.45,4.59-8.92,6.91-13.37,2.19-4.21,4.51-8.35,6.61-12.6,2.47-5,4.69-10.1,7.19-15.07.82-1.64,1.15-3,.26-4.71a33.72,33.72,0,0,1-1.46-3.79C147.49,141,146.87,142,146.11,142.84ZM143.21,87a21.09,21.09,0,0,0-1.44,5.28c0,.32.24.67.37,1A13.4,13.4,0,0,0,143.21,87Zm2.19-17.32-1.05,1.18c.78-2.52.89-4.66-.56-6.71a7,7,0,0,1-5,.65A18.2,18.2,0,0,1,134,63.39a2.91,2.91,0,0,0,0,2.71c.36.79.77,1.55,1.15,2.33.21.44.39.88.59,1.32l-.27.11c-1.15-1.87-2.75-3.56-2.32-6.09.06-.34.19-.8-.37-1.14a5.86,5.86,0,0,0-.1.89c.14,3,.23,5.93.48,8.88a16.06,16.06,0,0,0,.84,3.29c.39,1.31.83,2.61,1.27,3.9a2.26,2.26,0,0,1-.72,2.58A8.3,8.3,0,0,1,130.78,84a2.16,2.16,0,0,0,.4.27,14.45,14.45,0,0,1,6.09,4.93,7.4,7.4,0,0,1,1.77,4.5c0,2,0,4,.07,6a6.83,6.83,0,0,1-1,3.78c-1,1.61-.8,2.57.67,3.77l1.07.86a4.91,4.91,0,0,1,1.83,3.54,2,2,0,0,1-.46,1.6c-.88-2-.91-4.32-3.25-5.24,0,.25-.07.38-.08.51a7.94,7.94,0,0,0,1.3,4,10.58,10.58,0,0,1,1.39,4c.06.69,0,1.39,0,2.12a2.46,2.46,0,0,0,.74-2c0-.72-.1-1.45-.15-2.15,1.15-.5,1.61-.92,1.68-1.81a4.71,4.71,0,0,0-.17-2c-.64-1.6-1.42-3.15-2.16-4.71-.19-.4-.45-.77-.67-1.16l.25,0,1.47-4.62a12.18,12.18,0,0,1,.36,1.3,8.38,8.38,0,0,1,.09,1.23c0,.39.05.79.07,1.19a8.78,8.78,0,0,0,0-6.57c-.5-1.22-1.09-2.4-1.68-3.59a4.37,4.37,0,0,1-.56-2.35,18.85,18.85,0,0,0-.8-6.63c-.24-.79-.4-1.61-.6-2.42l.26-.07L141,88.69l.79-1.82c.83-1.87,1.67-3.75,2.51-5.62.47-1,1-2.06,1.42-3.11C146.9,75.32,146.45,72.56,145.4,69.66Zm-10.18,47.61.26-.18a14.52,14.52,0,0,1,1.87,2.32,16.17,16.17,0,0,1,.9,3c.41-.8.78-1.51,1.13-2.23a3,3,0,0,0,.08-2.5,17.49,17.49,0,0,1-.67-2.51c-.6-2.64-1.85-5.14-1.86-7.94-.17,1.33-.12,2.65-.18,4s-.21,2.59-.34,4c-.58-.54-1-1-1.56-1.45a4,4,0,0,1-1.34-4.61c.14-.44.29-.87.39-1.32a3.68,3.68,0,0,0-2-4.34c-.57-.3-1.16-.54-1.71-.86a4.07,4.07,0,0,1-.57-.39,3.18,3.18,0,0,1-1.26-2.18l.75.46.17.11c-.7-1.39-1.26-2.48-1.86-3.66h-1.9c-2.12,0-2.59,1.24-2.52,2.79a8.07,8.07,0,0,0,3.68,6.82,7.19,7.19,0,0,1,1.92,1.72c1.72,2.38,1.58,4.14.1,6-.54.67-1.13,1.32-1.73,1.94-1.75,1.8-2,3.49-.62,5.66a37.91,37.91,0,0,0,2.42,3.48,4.54,4.54,0,0,1,1.17,4.2,4.37,4.37,0,0,0,.85-1.21,2.2,2.2,0,0,0-.56-2.93,15,15,0,0,1-1.74-1.74,4.37,4.37,0,0,1-.45-.72l.22-.19,2.86,2.46a3.48,3.48,0,0,0-.69-2.35,6.22,6.22,0,0,1-1-3.63c0-.73,0-1.46,0-2.19.2-2.33.55-4.62,2.07-6.54a2.2,2.2,0,0,0,.4-2.32,24.79,24.79,0,0,0-1.45-2.92,20.3,20.3,0,0,0-1.7-2.15,8.6,8.6,0,0,1,1.88,1.61c1.72,1.8,2.43,3.83,1.36,6.24a5.25,5.25,0,0,0-.17.52,5.1,5.1,0,0,0,1.25,5.56,45,45,0,0,0,3.73,3l.12-.15C136.36,119.05,135.79,118.16,135.22,117.27Zm.46,7.09c-.28.59-.87,1-1.21,1.56a1.68,1.68,0,0,0-.25.92,8.06,8.06,0,0,0,1.84-1.28,2.18,2.18,0,0,0,.42-2.64,8.19,8.19,0,0,0-4-3.41,3.44,3.44,0,0,0,1.26,2.85c.63.65,1.28,1.29,1.92,1.93-1-.67-1.9-1.34-2.84-2-.37-.27-.71-.57-1.21-1a4.93,4.93,0,0,0,2.67,4.11Zm-11.09-7.94c2.15-.84,3.19-2.12,3-4.12a8.48,8.48,0,0,0-.81-3.14c-1.16-2.29-3.29-3.7-5.24-5.56a3.24,3.24,0,0,0,.91,2.6c.72.88,1.52,1.7,2.17,2.63a3.94,3.94,0,0,1,.41,4.12,29.12,29.12,0,0,0-2.09-3.26,15.37,15.37,0,0,0-2.54-2.28,3.32,3.32,0,0,1-1.34-3.36,8.07,8.07,0,0,0,0-1.12,4.42,4.42,0,0,0-.57.42,5.26,5.26,0,0,0-.14,7,10.35,10.35,0,0,0,2.1,1.74,6.15,6.15,0,0,1,3,3.54c-.06-2.25-1.63-3.68-3.06-5.36A6,6,0,0,1,124.59,116.42Zm-9.15-.12c1,1,1.88,1.88,2.82,2.67a7.8,7.8,0,0,1,2.95,5.08s.1.09.21.17a3.55,3.55,0,0,0,.46-2.23,7.82,7.82,0,0,0-6.25-6.6,18.52,18.52,0,0,1-3-.84,4.39,4.39,0,0,1-3-4.8,17.24,17.24,0,0,1,.83-3.29c.08-.26.33-.46.62-.84l.3,2.06,1.24-1.74a8.55,8.55,0,0,0,1,5.06,6,6,0,0,0,4.39,3c-.39-.42-.59-.66-.81-.87a10.09,10.09,0,0,1-3.09-7.23,3.16,3.16,0,0,1,1.67-3.19c1.59-.86,3.21-1.68,4.79-2.5.46-1,.93-2,1.43-3.15-1-.54-2.44-.48-3.44-1.44a17.09,17.09,0,0,1,2.48.26c2.34.37,4.66.89,7.06.46a15,15,0,0,1,2.6,0c0,.11,0,.22,0,.32l-2.53.38a25.31,25.31,0,0,1,1.3,2.24,7.37,7.37,0,0,0,3.15,3.49,4.49,4.49,0,0,1,2.2,2.85c.08.28.2.55.3.83a16.36,16.36,0,0,0,.55-2.68c.18-.93.46-1.84.72-2.85-.49-.32-.93-.65-1.4-.91a4.66,4.66,0,0,1-2.2-2.66,6,6,0,0,0-7.13-3.76,3.77,3.77,0,0,1-2.13,0,4.67,4.67,0,0,0-4.08.47,11,11,0,0,1-5.24,2,25,25,0,0,1-1.58,3.19,3.23,3.23,0,0,0-.69,1.69,2.67,2.67,0,0,1-1.54,2.56,7.73,7.73,0,0,0-3.51,2.8,3.62,3.62,0,0,0,.41-3.14,3.29,3.29,0,0,0-2.3-2.21c.18.54.3.92.43,1.3a6.44,6.44,0,0,1,.24,3.37,3.12,3.12,0,0,1-1.6,2.27l-.11.06-.05,0,0,0,0,0-.07,0h0a1.05,1.05,0,0,1-1.24-.32.43.43,0,0,0,0,0s0,0,0,0c-.4-.57-.79-1.15-1.16-1.69l-1.62,1.84a8,8,0,0,0-1.06-6.36,24.61,24.61,0,0,0-2-2.76,4.52,4.52,0,0,1-.85-4.61c.15-.45.23-.92.34-1.38l-.2-.07c-.34.67-.69,1.33-1.17,2.27a6.78,6.78,0,0,1,.85-3.28,1.06,1.06,0,0,0-.28-1.5c-1.37,1.65-2.72,3.23-4,4.85A12,12,0,0,0,90,96.67a4.76,4.76,0,0,0-.16,4.32c.26-2.27.89-3.58,2.18-4.49-1.11,3.63-.87,5.85.82,7.12a17.5,17.5,0,0,1,.73-7.51,11.43,11.43,0,0,0,.79,4.33c.12-.46.2-.75.28-1l.27,0a21.57,21.57,0,0,1,.57,2.72,10.11,10.11,0,0,1-.08,3,15.69,15.69,0,0,1-1.17,2.79,4.44,4.44,0,0,0,2.37-2.3,20,20,0,0,0,.61-3.06c.88,1.72.85,2.76-.16,4.21-.68,1-1.43,1.9-2.06,2.89a5.54,5.54,0,0,0-1,3.77,3.67,3.67,0,0,0,.3.75,6.14,6.14,0,0,1,2.6-4.32c-.28,1.24-1,2.37-.93,3.92a10.58,10.58,0,0,1,.76-.9l3.12-2.9,2.44-2.25h0l0,0c-.14.43-.29.86-.42,1.29v0l-.12.45c-.72,2.65.32,4.88,1.7,7-.22-1.41-.89-2.76-.62-4.29.5,1.16.92,2.3,1.47,3.38a5.37,5.37,0,0,0,2.47,2.48c-1.33-3.15-1.45-4.41-.53-5.48.12,3.47,1.82,6.74,3.83,7.37-1.7-2.42-1.53-4.41-.4-5.45.26,3.65,1.08,5,3.27,5.5-1.4-2.44-1.52-3.66-.37-4.83a3,3,0,0,1,.29.87,4.93,4.93,0,0,0,1.17,3.13c2.18,3,3.59,6.15,2.91,10a8.9,8.9,0,0,0,1.79-4.65,5.86,5.86,0,0,0-1.69-5.5,8.77,8.77,0,0,1-1.17-1.52A9.64,9.64,0,0,1,115.44,116.3Zm-2.18,5.64,3,4.49A4.87,4.87,0,0,0,113.26,121.94ZM88.54,87a9.18,9.18,0,0,0-.33,1.84,12.2,12.2,0,0,0,4.14-4.06,4.67,4.67,0,0,1-.48,1.52c-.33.6-.77,1.13-1.12,1.72a2.32,2.32,0,0,0-.4,2.1,6.91,6.91,0,0,0,3.08-3.48,3,3,0,0,1-.67,2.48,14.21,14.21,0,0,1-1.33,1.56,3,3,0,0,0-.82,3.12,14.45,14.45,0,0,0,3.25-3.18,4.53,4.53,0,0,0,.45-5.16,50.64,50.64,0,0,0-4-5.51A2.58,2.58,0,0,0,88,79C89.88,81.72,89.63,84.35,88.54,87ZM87,77.48l-.42-.1a15.1,15.1,0,0,0-.95,2.34A3.74,3.74,0,0,0,86.23,83c.21.28.49.58,1,.06A5.73,5.73,0,0,1,87,77.48Zm1.73-18.65c-.14-1.13-.38-2.25-.58-3.37a4.63,4.63,0,0,1,2.31-5.12c.66-.4,1.36-.75,2-1.17a3,3,0,0,0,1.45-1.88c-2.27,2.15-4.9,2.26-7.47,1.7a6.55,6.55,0,0,0-4.55.84,2.47,2.47,0,0,0-1.5,2.56c.4,2.86,1.5,5.36,4.11,6.92a2.83,2.83,0,0,0,2.49.37l-1.09-1.61c-.57-.82-1.21-1.61-1.71-2.48-1.36-2.41-.44-4.53,2.32-5.36l-1.3,1.93.18.13L86.92,51l.24.13a9.27,9.27,0,0,0,.18,5.66A9.82,9.82,0,0,1,86,65.17a3.53,3.53,0,0,1-2.64,1.75,4.74,4.74,0,0,0-.93.34c.3.22.42.37.58.42a3,3,0,0,0,3.62-1.15A10,10,0,0,0,88.75,58.83ZM74.39,39.91c.13.41.16.53.21.65.57,1.63,1.07,3.29,1.75,4.87s1.91,2.3,3.36,1.86a12.67,12.67,0,0,1,1.61-.3c.54-.09,1-.2,1.44.39a1.36,1.36,0,0,0,1.62.4,17.68,17.68,0,0,0,2-.74,5.36,5.36,0,0,0,2.92-4.64,2.17,2.17,0,0,0-.85-1.94,4.43,4.43,0,0,0-.13.63,15,15,0,0,1-.08,1.78c-.32,1.77-1,3.32-2.82,4.06-.91.38-.94.34-1.59-.68l1.46-1.65c-2.62.24-5,.07-6.84-1.88s-1.83-4.45-1.5-7.06a6.38,6.38,0,0,0-2.65,1.75,3.9,3.9,0,0,0-1,1.56,6.78,6.78,0,0,0,2.61,6.55A9.63,9.63,0,0,1,74.39,39.91Zm9.72-27.53a20.92,20.92,0,0,1-2,3.07,40.25,40.25,0,0,1-3.48,3.3,10.37,10.37,0,0,0-2.5,3.05,12.79,12.79,0,0,0-1.47,7.54,7.81,7.81,0,0,0,2,4.66c.09-.23.12-.27.11-.31-.08-.35-.19-.7-.27-1-.94-4.41-.08-8.26,3.56-11.21.57-.46,1.18-.88,1.73-1.35,1.3-1.14,2.67-2.22,3.86-3.47a10.66,10.66,0,0,0,2.85-6,8.29,8.29,0,0,0,0-1.13,13.59,13.59,0,0,0-4.44,1.9C84.09,11.86,84.22,12.19,84.11,12.38Zm3.23,8.52a31,31,0,0,1,1.4-3.11,6.22,6.22,0,0,0-4.42,4.12,9,9,0,0,0-.26,4.19,11.66,11.66,0,0,0,3.86,6.75,12.76,12.76,0,0,0,5,2.77c-1.49-2.08-3-4.09-4.41-6.21A9.72,9.72,0,0,1,87.34,20.9ZM91,39.18c-.24,2,.19,3.45,1.82,4.36a3.07,3.07,0,0,0,3.43.21l-1.49-.43a1.94,1.94,0,0,1-1.58-1.53C93,40.47,92.06,39.92,91,39.18Zm2.77,28.53.22,0c-.09-.66-.18-1.33-.28-2l-.26,0C93.55,66.38,93.66,67,93.76,67.71Zm13,27.05a3.65,3.65,0,0,0,1.46,2.9Zm1.73,1.15V90.27A4.3,4.3,0,0,0,108.48,95.91Zm-3.63-.84c-.06-.28-.14-.56-.24-.93a2.07,2.07,0,0,0-1,1.68c-.19,1.89.53,3,2.61,3.78,1.2.45,2.37.87,2.74,2.32a2.55,2.55,0,0,0-1.28-2.56A6.16,6.16,0,0,1,104.85,95.07Zm6.91-3.63c.67,1.32.47,2.73,1.41,3.83.81-2.52.12-4.89.06-7.27l-.33-.12c-.63.82-1.3,1.63-1.88,2.49a4.55,4.55,0,0,0-.74,3.65c.42,1.69,1.06,3.33,1.64,5.08a4.5,4.5,0,0,0,.19-3.62A8.75,8.75,0,0,1,111.76,91.44Zm5.06.17c2.46-1.2,2.93-4.06,4.87-5.71a18.58,18.58,0,0,0-1.32,4.63,4.37,4.37,0,0,0,3.3-5.51c-1.73-.18-1.73-.18-4,1.09l1.1-1.28A5.25,5.25,0,0,0,116.82,91.61Zm2.78-12.67a19.46,19.46,0,0,1,2.16,0c.71,0,1-.17,1.12-.87a2.25,2.25,0,0,0-2.5-2.67,2.31,2.31,0,0,0-2.26,2A1.28,1.28,0,0,0,119.6,78.94Zm-2.73,7.17c-3.06,1.67-3.32,3.91-2,6.67.1-.09.26-.16.29-.26C115.71,90.44,116.27,88.35,116.87,86.11Zm7.3,4.34.74-.55c.1.17.16.28.24.39.61.84,1,.82,1.42-.09a3.51,3.51,0,0,0-.16-3.27,1.44,1.44,0,0,0-1-.58c-.48-.08-.68.32-.78.76-.21,1-.43,2-.64,3.07C124,90.24,124.1,90.32,124.17,90.45ZM137,97.67a5.71,5.71,0,0,0,.84-4.69,12,12,0,0,0-3.43-5.81c-1.68-1.66-4.44-2.4-6.52-.88,1.25,1.57.71,3.45.74,5.31a3.94,3.94,0,0,0,2.58-1.37,1.48,1.48,0,0,0,.26-1.23,24.21,24.21,0,0,0-1.17-2.56,4,4,0,0,1,1.62,1.94L133,90.71l.19-.1.12-2.21.29,0a8.78,8.78,0,0,1,.29,1.23,7.77,7.77,0,0,0,2,4.66A3.48,3.48,0,0,1,137,97.67ZM121.78,125.9c2.29-1.21,2.8-3.86,1-5.51C122.87,122.37,123,124.25,121.78,125.9Zm12.34-47.1c-.41,1.09-.79,2.1-1.2,3.17C134.67,81.43,135,80.69,134.12,78.8Zm5.41-14.47c-1.17-.64-1.49-1.78-1.85-3a9.82,9.82,0,0,0-3.21,1.84A13.41,13.41,0,0,0,139.53,64.33Zm6.62-1.3a2.91,2.91,0,0,0,0-.31.75.75,0,0,0,0-.16,1.81,1.81,0,0,0-.13-.34,3.36,3.36,0,0,0-.19-.38,10,10,0,0,0-1.66-2.13c-1.3-1.29-1.83-1.32-3.71-.44,1,.87,2,1.58,2.88,2.45.21.22.42.45.61.69.59.71,1.13,1.48,1.7,2.21A3.34,3.34,0,0,0,146.15,63Zm2.4-6.39c-.44-2.81-2.5-4.52-4.38-6.4l3,1.66c0-2,.11-3.89,0-5.73-.21-2.68-.69-5.34-.9-8a7.58,7.58,0,0,0-2-4.81,16.29,16.29,0,0,0-2.75-2.82,2,2,0,0,0-.25.41,11.73,11.73,0,0,1-6.79,6.75,36.87,36.87,0,0,1-4.93,1.61,39.11,39.11,0,0,1-10.09,1.63,22.85,22.85,0,0,0-3.93.5c-1.15.2-2.28.5-3.46.77.47-3.53,4.09-5.91,8.44-5.61.18-3,2.43-4.37,4.58-5.83-.74-.95-1.4-1.82-2.08-2.67a13.6,13.6,0,0,0-8.24-4.75,11.34,11.34,0,0,1-4.49-1.94c-1.93-1.43-3.43-3.16-3.35-5.78v0c0-.05-.11-.11-.15-.16a5.58,5.58,0,0,0-.56.28l0,0,0,0a.65.65,0,0,0-.21.35l-.06.17a4.29,4.29,0,0,0,.39,3.31,8.21,8.21,0,0,0,4.64,4c1.71.62,3.48,1.07,5.21,1.64a12.88,12.88,0,0,1,2.51,1,3,3,0,0,1,.58,4.81A3.93,3.93,0,0,1,115,32.2a18.4,18.4,0,0,1-6.41-3.57c-.65-.5-1.31-1-2-1.47a.85.85,0,0,0-1.31.15l-2.78,3.51c.14.4.26.74.37,1.09a8.12,8.12,0,0,1-.43,6.63,2,2,0,0,0,0,2.15,5.44,5.44,0,0,1,.43,1.57,11.18,11.18,0,0,1-.75,5.77c-.34,1-.73,2.06-1,3.11a4.72,4.72,0,0,0,.61,4.06c.83,1.29,1.07,1.37,2.43.71.61-.3,1.21-.63,1.83-.93A26.1,26.1,0,0,1,113,52.52a7.23,7.23,0,0,1,3.78,0,6.22,6.22,0,0,0,3,.26,7.73,7.73,0,0,1,2.71,0A2.22,2.22,0,0,0,125,51.9c.36-.44.67-.92,1-1.42,1,1.85.84,2.3-1,2.81l-1.67.47c.77,1.38,1.05,1.53,2.33,1.4a3.14,3.14,0,0,0,2.06-1.22,6.44,6.44,0,0,0,.51-6.83c-.23-.37-.45-.74-.67-1.11a3,3,0,0,1,1.81,1.73A7.54,7.54,0,0,1,128,55.86a10.35,10.35,0,0,1-1.55,1.34,2.31,2.31,0,0,0-1.07,2.8,7,7,0,0,1,.18,1.36q.28,4.17.54,8.33a5.2,5.2,0,0,1-.1.78,2.41,2.41,0,0,1-.46-.3c-.65-.76-1.25-1.58-2-2.28a7.6,7.6,0,0,0-2.13-1.64c-1.65-.74-3,0-3.57,1.78a2,2,0,0,1-.47.78c-.89.81-1.82,1.59-2.73,2.39l-.11-.12,2-2.41-.77-.23a4.6,4.6,0,0,1,2-3,2.65,2.65,0,0,0,1-2.64,1.2,1.2,0,0,0-1-1.24,4.33,4.33,0,0,0-1.48,0,19,19,0,0,0-2.24.61,7.23,7.23,0,0,1-5-.19c-.72-.27-1.4-.66-2.1-1-.24-.12-.5-.21-1-.39a5.81,5.81,0,0,0,.36.54c.64.7,1.39,1.32,1.21,2.47,0,.26.28.7.55.88a10.69,10.69,0,0,0,2,1.08,12.51,12.51,0,0,0,1.95.42,6.57,6.57,0,0,1-5-1.22c-1.77-1.18-2.16-2.94-2-5-.37.12-.58.17-.78.25a8.12,8.12,0,0,1-4.92.75c-.23-.05-.51.11-.76.16a18.41,18.41,0,0,1-2.52.5c-1.18.08-2.37,0-3.56,0-.45,0-.82.11-1,.59a.89.89,0,0,0,.51,1.14,4.12,4.12,0,0,0,1.85.32c1.3-.18,2.58-.52,3.86-.82.45-.11.89-.27,1.34-.4l.13.31-4.94,2.58c1,6,4.78,9.42,10.16,11.57a23.57,23.57,0,0,1,4-2.39c-.12.24-.14.34-.2.39-.34.31-.68.62-1,.9a10.33,10.33,0,0,0-4.43,8,9,9,0,0,1-.31,1.55l-4-3.43a3.23,3.23,0,0,0,.22,2.24c.31.71.66,1.4,1,2.11a7.21,7.21,0,0,1,.58,1.38c.43,1.78.35,3.44-1.16,4.77A2.37,2.37,0,0,0,98,94.25c2.48-2.08,5.19-3.62,6.66-6.48a7.33,7.33,0,0,1-1.57,3.89c-.44.64-.91,1.26-1.29,1.94a1.8,1.8,0,0,0-.28,1.7,22.61,22.61,0,0,1,1.89-2.49A54.1,54.1,0,0,0,108.38,87a10,10,0,0,1,6.15-4.27,1.55,1.55,0,0,0,.42-.25,4.68,4.68,0,0,1,.44-4.28,13.07,13.07,0,0,1,1.37-2.2,8.87,8.87,0,0,0,1.77-2.89,1.78,1.78,0,0,1,1.65-1.23,3,3,0,0,1,2.43.66,5.17,5.17,0,0,1,1.86,3c.21.94.34,1.89.62,2.81a5.42,5.42,0,0,0,4,3.9,2.83,2.83,0,0,0,3.67-2,6.52,6.52,0,0,0,.16-4.56,21.13,21.13,0,0,1-.95-5.79c0-.68-.05-1.36-.09-2-.19-3.37-.38-6.75-2.31-9.76a8.57,8.57,0,0,0,1.22-8.75c1.23.79,2.26.18,3.32-.17s1.88-.57,2.82-.85a8,8,0,0,1-2,1.22c-2.47,1.2-2.47,1.21-2.63,3.91a5,5,0,0,0,0,1,2.43,2.43,0,0,0,1.43,2.1c1.21-.3,1.3-1.3,1.45-2.26,2.83,2.19,5.28,2.49,7.63,1a4,4,0,0,0-.79-2.88l.24-.16a3.73,3.73,0,0,1,.76.78,5.45,5.45,0,0,1,.62,4.23,7.29,7.29,0,0,1,4.66,3.37A8,8,0,0,0,148.55,56.64Zm-44.73,21,.21-.36a6.68,6.68,0,0,0-2.79-1.08Zm3-19.22a41.45,41.45,0,0,1,4.53-.73,41.38,41.38,0,0,1,4.59.24C113.35,55.77,110.31,55.76,106.84,58.41Zm8.8-4.47v-.4a7.32,7.32,0,0,0-4.52.72Zm-3.7,4.59a6.21,6.21,0,0,0-3.37,2.23,5.8,5.8,0,0,0,5.71.81A3.88,3.88,0,0,1,111.94,58.53ZM101.45,25.05a7.81,7.81,0,0,1-1.69,1,5,5,0,0,0,1.54,2.19c2.73-2.45,1.89-8-.73-9.37.15.41.31.81.44,1.22.29.91.59,1.81.82,2.73A2.35,2.35,0,0,1,101.45,25.05ZM127.81,16a1.92,1.92,0,0,0-.36-.39l-7.93-4.78c-.09,0-.26,0-.38,0a5.25,5.25,0,0,0,2.51,6,31,31,0,0,0,3,1.66,8.7,8.7,0,0,1,3.91,3.44l0,0c.09.3.1.69.29.9a2.75,2.75,0,0,1,.41,2.82,8.28,8.28,0,0,1-2,3.69l-1.15,1.27,2.13-.21c-1.49.72-2.71,1.21-3.84,1.87a3.59,3.59,0,0,0-2.11,3.09,7.86,7.86,0,0,1,5.16-1.66,6.84,6.84,0,0,0,3.7-1.25c.52-.36,1.08-.68,1.59-1.05a9.85,9.85,0,0,0,3.7-5.13,5.22,5.22,0,0,0,.07-3c-.81,4-1.3,4.76-3.33,5.29a13.43,13.43,0,0,0,1.55-1.79,12,12,0,0,0,.81-2.1l-.26-.14A4.42,4.42,0,0,1,133,26.87c.5-1.35,1.33-2.59,1.13-4.05s-.6-2.68-.92-4l1.18.64a5.36,5.36,0,0,1,2.61,5.1,9.8,9.8,0,0,1-1.74,5.12A11.45,11.45,0,0,1,131,33.17c-.32.19-.63.42-.94.63,2.88.41,4.39-1.64,6.15-3.33,0,.19.07.29,0,.36a7.32,7.32,0,0,1-7.14,3.84,3.82,3.82,0,0,0-3.28,1l5.55.36c0,.08,0,.16.05.24l-1.21.65a3.92,3.92,0,0,0,.55.18,4,4,0,0,0,3.1-1.17,22.28,22.28,0,0,0,4.38-6.08c.22-.41.46-.8.7-1.2l.31.11-.5,4.46a4.68,4.68,0,0,0,1.39-2.78,16,16,0,0,0-.33-6c-.94-3.47-2.54-6.46-6.08-8-.46-.2-.87-.5-1.33-.7-2.08-.88-4.17-1.74-6.26-2.61l-.12.26c.65.4,1.29.81,1.94,1.2a9,9,0,0,1,3,2.92,5,5,0,0,1,.63,3.75c-.14-.45-.22-.79-.35-1.12a6,6,0,0,0-2.19-3.2c.44,1,.93,2,1.3,3.1a2.52,2.52,0,0,1-.1,1.61,21.92,21.92,0,0,0-1.4-3.26,21.22,21.22,0,0,0-2.31-2.7l1.26.21ZM116.33,11.4c0-.21.07-.43.15-1-.51.6-.82.92-1.08,1.28a4.62,4.62,0,0,0,.64,6.39,21.11,21.11,0,0,0,2.12,1.48l1.65,1.14-.07.3-.87.19,6.5,3.46c1-2.21.6-3.66-1.32-4.91a25.89,25.89,0,0,0-2.67-1.38c-.73-.36-1.51-.64-2.22-1A5.33,5.33,0,0,1,116.33,11.4Zm-3.78,2A4.14,4.14,0,0,0,115,19,5.88,5.88,0,0,1,112.55,13.43Zm4.76-4.91c-2.14-1.31-6.61-.24-9.63,2.15l.75,1.14C111.35,10.61,114.52,10.4,117.31,8.52ZM147.9,30.63c-.36,1.52-.84,3-1.31,4.67a6.1,6.1,0,0,0,.37-9.36C147.36,27.66,148.28,29.05,147.9,30.63Zm2,25.57-.32,0a4.63,4.63,0,0,0,.32,3.16Zm6-1.47a16.44,16.44,0,0,0-1.33-3.56c-1.14-2.36-3.47-2.81-5.82-3.56a8.1,8.1,0,0,0,.12.85,5.46,5.46,0,0,0,2.2,2.87,36.44,36.44,0,0,1,3.22,2.72,3,3,0,0,1,.52,3.77,8.55,8.55,0,0,1-3.56,3.89A6.22,6.22,0,0,0,155.94,54.73Zm-3.06-12.41a22.28,22.28,0,0,0,1.73,3.7,26.15,26.15,0,0,1,2.94,5.4c.58-2.17-1-3.85-1.26-5.85.59,1,1.17,1.93,1.87,3.08.2-1.94-1.34-2.95-2.24-4.48l1.1.54-2.11-3.27.21-.14,3.26,2.86c1-2.6-1.15-7.87-4.31-10.54-.19,1.62-.38,3.21-.57,4.8l-.29,0c0-.39-.05-.77-.08-1.16A6.52,6.52,0,0,0,152.88,42.32Zm-.62-10.84c-.48-1.24-.87-2.5-1.28-3.76a2.1,2.1,0,0,1,.16-1.95c.29.67.57,1.34.85,2a11,11,0,0,0-.71-4.82,2.78,2.78,0,0,0-.93-1.15,8.79,8.79,0,0,0-4.53-1.75,16.47,16.47,0,0,0-2.22.07,1.52,1.52,0,0,0,1.31,1.81,8.43,8.43,0,0,1,1.31.35,5.05,5.05,0,0,1,2.17,1.26c-1.26-.26-2.22-.78-3.57-.66,1.12.66,2,1.2,2.91,1.71A5,5,0,0,1,150.27,29a39,39,0,0,1-1,9.64,7.88,7.88,0,0,0,2.93,8.17c.36.29.71.58,1.08.84a5.89,5.89,0,0,0,.94.4c-.54-.81-.88-1.35-1.24-1.87a9.47,9.47,0,0,1-1.28-8.6c.17-.52.35-1,.55-1.55A6.19,6.19,0,0,0,152.26,31.48ZM140.65,13.71a6.15,6.15,0,0,0,1.46,4.34,1.69,1.69,0,0,0,1,.59c1.25.07,2.51,0,3.92,0-.68-1.31-1.88-1.61-2.85-2.2.1-.13.11-.17.14-.18a1.26,1.26,0,0,1,.27,0,6.27,6.27,0,0,1,5.48,3.05c.43.66.8,1.35,1.2,2a7.74,7.74,0,0,0-2.43-5.87,6.91,6.91,0,0,1,2,1.23,15.59,15.59,0,0,1,1.58,2.09,3.46,3.46,0,0,0-.09-.65,6,6,0,0,0-2.91-3.3C146.7,13.31,143.72,13.77,140.65,13.71ZM105,5.91a1.17,1.17,0,0,0,1.82.38c3.44-2.17,7.3-2.71,11.27-2.77a3.21,3.21,0,0,1,.61.09,3.79,3.79,0,0,1-1.39.51c-1.55.37-3.12.68-4.64,1.13a3.92,3.92,0,0,0-2.77,2.32c.35-.18.7-.37,1.07-.52a11.75,11.75,0,0,1,9.81,0c3.37,1.61,6.64,3.43,10,5a19.19,19.19,0,0,1,8.6,8.51A26.86,26.86,0,0,1,141,25c.12.37.19.77.28,1.16a6.11,6.11,0,0,0,.41-1.83A11.47,11.47,0,0,0,139,15.57a14.45,14.45,0,0,0-3.91-3.18c-1.39-.75-2.77-1.53-4.15-2.29a26.59,26.59,0,0,1,8.6,3.51c-.85-2.75-3.18-4-5.31-5.54,1.65.33,3,1.32,4.65,2.28a7.49,7.49,0,0,0-5.95-4.55c-1.57-.26-3.16-.41-4.75-.58a21,21,0,0,1-8.59-2.51,16.2,16.2,0,0,0-2.37-1,7.79,7.79,0,0,0-5.87.05,18.46,18.46,0,0,0-5.82,3.53A6.63,6.63,0,0,0,105,5.91Zm-9.77-.66c1.45.71,2.71,0,4-.45A13.44,13.44,0,0,0,103,3.46C100.31,3.62,97.62,3.8,95.21,5.25ZM83.68,9.82a3.07,3.07,0,0,0,1.19-.48,7,7,0,0,1,5.89-1c2,.59,4.09,1.26,6.11,1.94a25.73,25.73,0,0,1,2.36,1c-2.33,1.26-4.87,1.91-5.88,4.51,1.86-1,3.52-2.42,5.56-3.11a6,6,0,0,1-1.11,1c-1.45,1.11-2.94,2.17-4.34,3.33a8.68,8.68,0,0,0-.49,13c.6.56,1.24,1.08,1.87,1.59S96,32.55,96.46,33a2.35,2.35,0,0,1,.69,3,14.84,14.84,0,0,1-.93,1.5,18,18,0,0,0-.93,1.66,1.34,1.34,0,0,0,.39,1.62,3.27,3.27,0,0,0,2.1.94,20.32,20.32,0,0,1,1-2,4.1,4.1,0,0,0-.08-4.95c-1.61-2.59-3.09-5.27-4.5-8-1.76-3.35-1.2-6.37,1.64-9.24-.28.77-.52,1.45-.77,2.12a7.11,7.11,0,0,0,2,8.34A24.33,24.33,0,0,1,99,30c2.86,3.44,2.89,7.09.11,10.58-.24.3-.45.61-.68.92l.14.15a2.18,2.18,0,0,0,.43-.22c2.9-2.39,4.8-6.8,2.26-11.17-.5-.87-1.09-1.68-1.6-2.54a25,25,0,0,1-1.65-3A4.89,4.89,0,0,1,99,19.16a11.61,11.61,0,0,1,1.28-1.25c1.6-1.27,3.24-2.51,4.86-3.77a12.36,12.36,0,0,0,1.47-1.22,1.73,1.73,0,0,0-.38-2.62,7.44,7.44,0,0,0-1.49-.67c-4.21-1.47-8.43-2.91-12.63-4.41A4,4,0,0,0,88,5.81C86.66,6.88,85.42,8,84.17,9.17A3.57,3.57,0,0,0,83.68,9.82ZM72.77,14.59a11,11,0,0,1,5.11-4.49c-2.06,1.43-3.72,3.14-4.15,5.75a18,18,0,0,1,7.7-6.19,10.94,10.94,0,0,0,1.42-.95C77.81,7.84,73.23,10,72.77,14.59Zm-.07,35c-2.42-4.29-2.17-8.67-1.21-13.2C68.59,40,69.46,47.75,72.7,49.63ZM80,79.51a7,7,0,0,0,0-5.84c-.39-.83-.69-.88-1.76-.54.11.25.23.5.33.75a6.85,6.85,0,0,1,.35.89c.3,1,.15,1.5-.53,1.9a1.47,1.47,0,0,1-2.09-.29c-.42-.42-.75-.92-1.15-1.36q-1.95-2.1-3.94-4.16c-.6-.63-1.29-1.17-1.89-1.79a8.84,8.84,0,0,1-2.07-9.94A27.25,27.25,0,0,1,68.59,56c.91-1.79,1.8-2.2,3.66-1.44a33.45,33.45,0,0,1,3.69,2c.29.17.58.36,1,.65a3.13,3.13,0,0,0-1-2.32,8.62,8.62,0,0,0-3.85-2.26c-2-.55-3-.13-4,1.62a17.26,17.26,0,0,0-2.18,5.57,10.15,10.15,0,0,0,3,10c.5.47,1,.92,1.48,1.43,1.2,1.3,2.41,2.61,3.55,4,.84,1,1.52,2.17,2.38,3.17A7,7,0,0,0,78.21,80,1.14,1.14,0,0,0,80,79.51Zm-8.33-15a2,2,0,0,0-.72-1.93c-.35,1.21-.68,2.19-.9,3.2a3.07,3.07,0,0,0,.91,2.87,1,1,0,0,0,1.58,0A6.39,6.39,0,0,1,71.63,64.53Zm2.56,84.74c-3.92-.57-7.83-1.18-11.75-1.77a8,8,0,0,0-1.2,0,7.33,7.33,0,0,0,.64,3.7c.64,1.65,1.35,3.29,2.07,4.91q4.11,9.33,8.25,18.65A9.87,9.87,0,0,0,74.64,178c4.12,3.75,8.22,7.51,12.3,11.32a4.42,4.42,0,0,0,2.68,1.19c1.13.11,2.27.2,3.4.35a10.77,10.77,0,0,1,2.8.54c3.92,1.73,7.79,3.56,11.69,5.33,1.85.85,1.87.83,3.08-.78q6.54-8.7,13-17.43a7.35,7.35,0,0,0,.85-1.84c.67-1.74,1.16-3.57,2-5.23,2.93-5.83,5.94-11.62,9-17.39a27.34,27.34,0,0,1,2.4-3.65c1.48-2,3-3.88,4.57-5.82a6.59,6.59,0,0,0,.44-.72c-2,1.05-3.81,2.27-5.7,3.36a35.42,35.42,0,0,1-5,2.55c-2.67,1-5.42,1.89-8.16,2.72a11.52,11.52,0,0,1-3.09.43,1.5,1.5,0,0,1-1.54-2,3.28,3.28,0,0,1,1.41-2.12,35.55,35.55,0,0,1,4-2.24,2.51,2.51,0,0,0,1.46-1.48q1-2.62,2-5.22c.18-.44.4-.87.6-1.3l.22.08c-.62,2.23-1.25,4.46-1.87,6.69a2.77,2.77,0,0,1-1.91,1.92,28,28,0,0,0-4.1,2.14,3.2,3.2,0,0,0-1.07,1.37c-.39.88,0,1.45.94,1.46a5.44,5.44,0,0,0,1.75-.23c3.41-1.14,6.81-2.32,10.21-3.51a6.26,6.26,0,0,0,1.34-.68q4.31-2.79,8.6-5.61a2.64,2.64,0,0,0,1.21-3.18,25.31,25.31,0,0,0-2.91-7.35c-1.07-1.67-2.35-3.19-3.48-4.7-1.66.51-1.11,1.72-1.12,2.71-1.22.12-1.2-1-1.71-1.52a4.22,4.22,0,0,1-1.19.67,6.89,6.89,0,0,0-3.3,1.81c-1.33,1.07-2.8,1.48-4.39.37-.17.24-.32.41-.43.6a10.39,10.39,0,0,1-5.49,4.53,28.29,28.29,0,0,1-6.58,1.75,14.77,14.77,0,0,0-5.12,1.35,6.75,6.75,0,0,1-2.1.58c-1.25.21-2.53.3-3.78.53a2.58,2.58,0,0,0-1.29.69c-1.14,1.14-1.48,4.19-.71,5.63,1.25,2.34,2.49,4.67,3.73,7,.13.25.2.54.36,1-.33-.18-.5-.26-.65-.36-2.44-1.76-4.9-3.51-7.32-5.3a2.57,2.57,0,0,0-2.54-.49c-2,.67-4.1,1.22-6.14,1.87a8.22,8.22,0,0,1-3.64.38Q79.33,150,74.19,149.27ZM207,143.87c2.9,3.41,5.76,6.86,8.69,10.23a32.48,32.48,0,0,1,5.5,8.46q8.37,19.49,16.73,39l.42.93a27.33,27.33,0,0,0,.15-4.41,5.57,5.57,0,0,0-.47-2c-1-2.25-2.06-4.47-3.1-6.7-3.82-8.24-7.62-16.48-11.47-24.7a47.61,47.61,0,0,0-6.12-10c-3.26-4-6.46-8.05-9.64-12.11a5.6,5.6,0,0,1-1-2.06c-.6-2.43-1.13-4.89-1.64-7.34a1.86,1.86,0,0,0-1.42-1.61c-1.27-.37-2.49-.89-3.73-1.33-5.87-2.13-11.84-4-17.19-7.36a7.77,7.77,0,0,0-2.29-.85c-2-.5-4.08-1-6.14-1.36a57.29,57.29,0,0,1-13-4c-1.81-.84-3.7-1.54-5.55-2.3-.23-.09-.48-.14-.72-.21,7.06,3.78,14,7.62,20.85,11.8s12.74,9.47,19.25,14c-1.32-2.15-2.79-4.18-4.14-6.28a13.83,13.83,0,0,0-5.19-4.74c-3.79-2.1-7.56-4.24-11.33-6.37l-1.08-.63c1.8.12,3.48.53,5.18.79a16,16,0,0,1,6,2.24,50.49,50.49,0,0,0,8.26,4c2.51.95,5,2,7.51,2.92a2.31,2.31,0,0,1,1.66,1.94c.73,4.41,1.57,8.8,2.34,13.21a27.94,27.94,0,0,0,1.91,7.39q1.42,3,2.67,6a27.77,27.77,0,0,1,1.45,4.26c1.41,6,2.73,12.1,4.1,18.15.16.72.38,1.43.57,2.15.21-2.8-.18-5.53,0-8.47.72.6,1.22,1.07,1.77,1.46A3,3,0,0,1,217.9,180q1.26,7.35,2.57,14.69a42.16,42.16,0,0,0,2.27,8.85c4.15,10.08,8.17,20.21,12.22,30.33a6,6,0,0,1,.53,2,9.25,9.25,0,0,1-1.9,6.15c-2.29,3-4.54,6-6.84,8.9-3.25,4.18-6.18,8.61-9.88,12.44-1.64,1.7-3.17,3.53-4.75,5.31a8.75,8.75,0,0,0-.52.75h9.52l8-14.33,9.34,8V245.44l-7.16,2.38c.36-.5.57-.83.81-1.14,1.93-2.55,3.85-5.11,5.8-7.64a3,3,0,0,0,.68-2q0-9.93,0-19.87a4.71,4.71,0,0,0-.66-2.46c-2.74-4.64-5.48-9.28-8.16-14a15.82,15.82,0,0,1-1.41-3.24c-1.86-6.06-3.65-12.14-5.49-18.2-1.16-3.84-2.36-7.67-3.56-11.5-.13-.43-.36-.83-.62-1.44-.29.8,0,1.46-.58,2-1.86-2-3.66-4-5.5-6a6,6,0,0,1-1.32-2.35q-2-6.06-4-12.08c-.61-1.85-1.26-3.7-1.89-5.55l.16-.13C206,142.78,206.51,143.32,207,143.87ZM0,258.55a3.63,3.63,0,0,0,.2,1.35q1.7,4.47,3.44,8.93a3.05,3.05,0,0,0,.51.64l.26-.13c-.11-.41-.2-.84-.35-1.24-.93-2.62-1.86-5.24-2.82-7.85a7.15,7.15,0,0,1-.21-4c.39.62.67,1,.92,1.46,2.1,3.58,4.22,7.15,6.29,10.75a1.71,1.71,0,0,0,1.7,1c3.15,0,6.3,0,9.45,0,.43,0,.87,0,1.47-.08-.21-.28-.3-.42-.41-.55-5.91-6.65-11.8-13.32-17.76-19.93a6.69,6.69,0,0,1-1.82-4.14c-.05-.71-.18-1.41-.27-2.12-.18.12-.22.2-.23.29Q.18,250.75,0,258.55Zm109.88,2.1c3.68-3,7.41-5.92,11.1-8.9,3.3-2.66,6.57-5.36,9.86-8a8.72,8.72,0,0,0,2.76-3.66c.89-2.29,1.91-4.53,2.85-6.81.31-.77.54-1.57.81-2.36l-.2-.09-.77,1.42c-1,1.84-2,3.7-3,5.51a17.15,17.15,0,0,1-5.26,5.66q-14.77,10-29.51,20.08l-2.87,2a2,2,0,0,0,1.13,0c2.93-.85,5.85-1.73,8.79-2.54A11.73,11.73,0,0,0,109.88,260.65Zm-54.6,5c1.36,1.2,2.72,2.4,4.1,3.59.11.1.31.1.47.14a2.39,2.39,0,0,1,.13-.21l-4.49-3.77ZM127.81,16h0l0,0A.1.1,0,0,1,127.81,16Zm-39.64,166A39.23,39.23,0,0,1,83,176.85c-4.86-6.45-9.8-12.83-14.71-19.23-.72-.94-1.49-1.84-2.23-2.75l-.23.21c.16.32.29.64.47.94q6.61,11.43,13.23,22.84a5.57,5.57,0,0,0,2.32,2.24c3.35,1.74,6.69,3.51,10,5.28l2.46,1.33.23-.28a8.23,8.23,0,0,1-.78-.53C91.93,185.25,90,183.6,88.17,181.92Zm19.1-29.64c1.53,2.66,1.64,2.55,4.69,2.14a6.29,6.29,0,0,0,5.32-5.3c.53-3.33,1-6.67,1.46-10l-.23-.06c-.46,1.22-.91,2.45-1.37,3.68l-.34-.07v-3.48a20.12,20.12,0,0,1-2.7,5.69c-1.47,2.36-2.8,4.81-4.19,7.22-.18.32-.38.62-.67,1.09a6.4,6.4,0,0,1-1.72-2.45c-1.18-2.62-2.32-5.26-3.49-7.89-.12-.28-.29-.56-.44-.83a76.39,76.39,0,0,0,2.35,7.57A17.34,17.34,0,0,0,107.27,152.28Zm-41.74-.63a25.42,25.42,0,0,0,9,5.47,11.72,11.72,0,0,0,2.27.46c4.58.38,9.16.85,13.76,1,5.65.24,11.22,1.15,16.83,1.78.32,0,.63.14,1,.16s.63,0,.95,0c-5.46-1.06-10.8-2.62-16.41-2.77-4.83-.12-9.64-.67-14.46-1a18.33,18.33,0,0,1-9.28-2.89C67.92,153.14,66.72,152.4,65.53,151.65Zm26.88,59.16a9,9,0,0,0-1.81-2.2c-3.81-3.48-7.65-6.91-11.49-10.36l-2.78-2.49a2.27,2.27,0,0,0,.45,1c3,4.57,6.08,9.11,9,13.71a50.39,50.39,0,0,0,7.68,9.42c2.61,2.48,5.08,5.1,7.62,7.65l.24-.16c-.12-.24-.23-.48-.35-.71C98.15,221.4,95.31,216.09,92.41,210.81ZM65.78,202.1l-.21.12c.05.31.09.62.16.93,1.81,7.91,3.63,15.82,5.41,23.73a3.59,3.59,0,0,0,1.48,2.35c.68.46,1.26,1.05,1.91,1.56q2.31,1.85,4.64,3.67a10.36,10.36,0,0,0-1.13-2.2c-1.56-2.62-3.39-5.09-4.41-8-1.67-4.78-3.37-9.54-5.06-14.31ZM99,203.42c.53,1.1,1.05,2.2,1.58,3.29,1.56,3.19.86,2.48,4,4.13a5.6,5.6,0,0,1,2.27,2.07c.77,1.23,1.6,2.42,2.45,3.69l5.64-2.93L99.17,203.25Zm13.1-156.7a17.89,17.89,0,0,0-6.13,3.49,11.36,11.36,0,0,0-1.82,2.35,2.15,2.15,0,0,0-.19,2.12c1.59-4.35,5.24-6.1,8.81-8A1.5,1.5,0,0,0,112.06,46.72ZM112,65.25a7.82,7.82,0,0,0,5-2Zm10.63-19.4,3.3,2.1.17-.28A5.45,5.45,0,0,0,122.63,45.85Zm-21.39,42h.13V86.34h-.13ZM140,67.57c-1-.32-2.06-.71-3.08-1.08l-1.07-.41c0,.1-.09.2-.13.3,1.18.54,2.34,1.17,3.56,1.6a6.72,6.72,0,0,0,2.41.26,1.83,1.83,0,0,0,1.79-1.6A3.19,3.19,0,0,1,140,67.57Zm.43,31.92-.23,0c-.27,1.38-.53,2.76-.8,4.13l.33.06C140,102.25,140.22,100.87,140.46,99.49Zm-34.3,11,3.77-4.66C107.36,106.76,106.28,108.09,106.16,110.51Zm23.12-87.75a4.8,4.8,0,0,0-2.93-5,15.26,15.26,0,0,1,1,1.2,4.83,4.83,0,0,1,1.23,2.93l0,0Zm-87,174.73c-1.44-.32-2-1.42-2.4-2.66C39.77,196.76,40.58,197.67,42.28,197.49ZM37.82,193a2.81,2.81,0,0,0,0,2.7Zm87.55-92.23c0-.08-.16-.11-.36-.24a5.11,5.11,0,0,0,2.41,4.33,6.12,6.12,0,0,1,3.18,4.49,1.63,1.63,0,0,0,.23.43l.35-.08a6.81,6.81,0,0,0-.34-2,7,7,0,0,0-1.61-2.3A13.74,13.74,0,0,1,125.37,100.76Zm7,11.69c.16.66.32,1.33.49,2l.28-.07c-.18-.66-.36-1.32-.55-2Zm-8.75-12.06h.21c.06-.63.11-1.26.17-1.9h-.23ZM77.06,44.71c-.29-.59-.58-1.18-.86-1.77l-.26.13c.29.61.58,1.22.86,1.83ZM89.17,32.14a2.59,2.59,0,0,0,.17.38,3.26,3.26,0,0,0,1.31,1.24l.28.16-.18-.26a5.6,5.6,0,0,0-.93-1.12,2.37,2.37,0,0,0-.65-.4ZM89.05,32l-.72-1.11-.27.22,1,.89Zm0,0,.08.13h0l0,0,0,0h0a.05.05,0,0,1,0,0h0s0,0,0,0l-.11-.1Z"/></g></g></svg>