<svg xmlns="http://www.w3.org/2000/svg" viewBox="0 0 208.24 262.49"><title>Asset 7</title><g id="Layer_2" data-name="Layer 2"><g id="Layer_1-2" data-name="Layer 1"><path d="M89.66,53.65Zm118.49,174.5a1.67,1.67,0,0,1,0,1.17c-1.05,1.58-2.18,3.1-3.42,4.84-.39-1.49-.67-2.71-1-3.91A33,33,0,0,0,194,214.62a30.92,30.92,0,0,0-3.23-2.3,7.34,7.34,0,0,0-1.23-.59c-4.49-1.83-6.84,1-7.53,4.32a3.6,3.6,0,0,0,.86,3.17,85,85,0,0,1,6.95,9.5,18.87,18.87,0,0,1,3.1,10.47,27.62,27.62,0,0,0,.09,3,1.64,1.64,0,0,1-1.12,1.76c-2.38-8.48-5.9-16.32-11.73-23.17a10.41,10.41,0,0,0-.27,1.12c-.78,6-1.57,12-2.3,18.05-.44,3.58-.8,7.17-1.15,10.75a1.43,1.43,0,0,1-1.14,1.47c-.83.23-1.63.56-2.64.9a9.76,9.76,0,0,1,0-1.1q.62-5.24,1.26-10.47,1.31-10.74,2.61-21.47.77-6.26,1.48-12.51.9-7.69,1.75-15.38a17.34,17.34,0,0,0,0-2.6,1.41,1.41,0,0,0-1.46-1.51c.15.61.31,1.11.4,1.62a2.32,2.32,0,0,1,0,1.17,1.18,1.18,0,0,1-.81.59,1,1,0,0,1-.72-.48,13.71,13.71,0,0,1-.73-1.77c-1-2.51-1.84-5.06-2.88-7.54-1.85-4.42-5.37-7-9.7-8.7,0,0-.09,0-.32.08l1.51,1.53c1.64,1.71,3.39,3.33,4.9,5.15a19.34,19.34,0,0,1,4.28,10.93,180,180,0,0,1,.81,20.24,60.35,60.35,0,0,1-1.85,13.45,2.86,2.86,0,0,1-.22-.78A62.42,62.42,0,0,0,169.46,206a61.25,61.25,0,0,1-3.17-13.42c-.25-2.5-.3-5-.45-7.52,0-.56-.13-1.13-.2-1.69l-.34,0a8.15,8.15,0,0,0-.31,1.07,43.3,43.3,0,0,0-.11,10.79c.74,8.55,2.27,17,3.6,25.47a59.69,59.69,0,0,1,.9,10.77,65.47,65.47,0,0,1-1.75,13c-.53,2.35-1.18,4.68-1.79,7a3.9,3.9,0,0,1-.48,1.09,87.45,87.45,0,0,0,1.49-24.79,24.4,24.4,0,0,0-1-5,5.58,5.58,0,0,0-.2.83c-.7,7.36-2,14.64-3.19,21.93-.58,3.37-1.2,6.73-1.79,10.11-.07.41-.08.85-.58,1l-5.81,1.29c.71-13,2.09-25.69,3.22-38.45-5.17,12.84-7.75,26.36-10.46,39.93-.54.09-1.07.2-1.6.26s-1.08.06-1.85.1c2.06-8,4.3-15.83,6.37-23.69s4.1-15.67,6-23.56c-2.07,3.8-4.51,7.39-6,11.5.08-.42.15-.85.24-1.26a210.18,210.18,0,0,1,9.51-29.82c.18-.47.35-.94.54-1.41a4.65,4.65,0,0,0-.31-4.58,2.42,2.42,0,0,1,.25-3.21,21.63,21.63,0,0,0,1.38-1.88,13.41,13.41,0,0,0,1-1.64,1.56,1.56,0,0,0,.06-1.8,1.79,1.79,0,0,0-1.87-.54c-1.91.32-2.4,1.32-1.58,3.35h1.7c.16.72-.33,1.08-.63,1.49-2.19,3-4.47,6-6.58,9.1-3.87,5.63-6.31,11.91-8.33,18.39-2.78,8.93-4.8,18.06-6.85,27.18-1,4.27-1.87,8.56-2.8,12.84a3,3,0,0,1-.5,1.14c.19-1.44.35-2.88.58-4.31,1.13-7.21,2.18-14.44,3.45-21.63a214.71,214.71,0,0,1,9.24-33.75c1.33-3.78,2.43-7.64,3.57-11.49a8.23,8.23,0,0,0,.32-2.7c-.12-2.61-1.73-4.37-4.59-5l.61.46a4.52,4.52,0,0,1,2,4.63,54,54,0,0,1-1.38,6.27c-4,13.89-8.12,27.74-12,41.66-3.24,11.54-6.26,23.15-9.36,34.74-.4,1.48-.08,1.51-2.12,1.67a7.65,7.65,0,0,1-1,0,15.14,15.14,0,0,1,0-5.73c.59-2.76,1.38-5.48,2.18-8.19q7.36-24.93,14.77-49.84a.69.69,0,0,0-.09-.63c-.32.55-.64,1.09-.94,1.65a137.76,137.76,0,0,0-7.36,16.63c-2.66,7.05-4.87,14.24-7,21.45a15.31,15.31,0,0,1-2,4.33q-5.45,8.06-10.92,16.09c-.93,1.36-1.87,2.7-2.81,4.06-.64.93-.64.93-2,.72l.63-1.22c3.06-6,6.36-11.82,9.11-17.93,3-6.65,5.5-13.52,8.13-20.32,3-7.75,6-15.5,8.77-23.31a61.6,61.6,0,0,1,8.28-15.36c.55-.76,1.08-1.54,1.63-2.31l-.19-.18c-.45.34-.9.67-1.34,1A119.4,119.4,0,0,0,132,193.83c-5.72,6.22-11,12.8-16.34,19.37a5.42,5.42,0,0,1-1.22,1.16,3.6,3.6,0,0,1,.32-.75c3.41-5.46,6.86-10.9,10.25-16.37a45.05,45.05,0,0,1,7.06-8.16c2.57-2.53,5.13-5.08,7.69-7.62.34-.33.64-.69,1-1l-.19-.2c-.21.13-.44.24-.64.38A70.53,70.53,0,0,0,123.31,197a238.74,238.74,0,0,1-22.57,26.62c-3.27,3.39-6.62,6.69-9.9,10.06A49.77,49.77,0,0,1,81.1,241c-7.68,4.77-15.38,9.5-23.06,14.26a2.18,2.18,0,0,1-1.94.32l-10.94-3.47v-.31l1.44-.47a106.94,106.94,0,0,0,14.23-5.65,113.29,113.29,0,0,0,27.61-18.14,28.08,28.08,0,0,0,3.12-3.14,5.4,5.4,0,0,0-1-.11c-1.36.15-2.71.35-4.07.51-.53.06-1.07.07-1.64.1a1.37,1.37,0,0,1,.86-1.5,21,21,0,0,1,2-.93q3.74-1.54,7.48-3.06a14.53,14.53,0,0,0,4.91-3.18q12.11-12,24.17-24.08c.15-.15.26-.34.49-.63a4.4,4.4,0,0,0-.67,0c-7.06,1.24-14.11,2.5-21.16,3.7a9.3,9.3,0,0,0-4.28,2q-4.09,3.21-8.39,6.15a24.35,24.35,0,0,1-4.15,2.07,5.39,5.39,0,0,1-2,.38c-.94,0-1.33-.54-1-1.44a8.14,8.14,0,0,1,.83-1.57c.74-1.2,1.55-2.37,2.25-3.6,1.1-2,1.1-3.17-.49-4.71-2.3-2.24-2.63-4.92-2.19-7.83.54-3.56,1.27-7.09,1.83-10.65.37-2.3.58-4.62.87-6.93a5.32,5.32,0,0,1,.27-1.15,26.75,26.75,0,0,1,.61,7.35c0,1.42-.13,2.83-.15,4.25,0,1.73.89,2.45,2.54,1.94a6.79,6.79,0,0,0,2.17-1.12,42.23,42.23,0,0,0,8.18-9.16,3.3,3.3,0,0,0,.24-.6l-2.84,1c.52-1.42,2-1.3,2.73-2.45-2.09.09-4.06.51-6-.79H96c-3.39-1.3-5-3.91-5.82-6.92-.92-3.23-1.55-6.56-2.2-9.87-.61-3.08-1.11-6.2-1.6-9.3a4,4,0,0,0-1.19-2.25,33.67,33.67,0,0,1-4.67-5.71,16.65,16.65,0,0,1-2.69-8.65c0-2.61.07-5.21.12-7.81,0-1,.1-1.92.06-2.87-.16-3.63-2-6.26-4.91-8.27a1.35,1.35,0,0,0-.36-.18,1.18,1.18,0,0,0-.34,0,16.81,16.81,0,0,0-1.15,4.87,70,70,0,0,0-.14,12.45c.27,4.46.61,8.92.95,13.38.27,3.51.68,7,.86,10.51.19,4,.31,7.94.24,11.91A93,93,0,0,0,73.91,171c.41,3.91.79,7.81,1.19,11.72.2,2,.44,3.9.6,5.85a3.34,3.34,0,0,0,2.35,3.17,8.21,8.21,0,0,1,4.35,4.17,3.65,3.65,0,0,1,.32,1.31.62.62,0,0,1-.35.51.73.73,0,0,1-.59-.18,3.42,3.42,0,0,1-.57-.77,6.38,6.38,0,0,0-6.12-3.14,17.56,17.56,0,0,0-5.25.94c.74.36,1.2.6,1.69.81a23.07,23.07,0,0,1,5.82,3.54c.48.4.89.89,1.56,1.56a3.58,3.58,0,0,1-1.09.14,2,2,0,0,1-.69-.42,30.05,30.05,0,0,0-14.61-5.73,142.09,142.09,0,0,0-19.66-1.33c-3.7,0-7.4.06-11.1,0a20,20,0,0,1-3.53-.4,1.85,1.85,0,0,1-1.67-1.57,2.13,2.13,0,0,1,1.11-2.31,7,7,0,0,1,4.76-.86c4.19.64,8.37,1.37,12.58,1.93s8.33,1,12.52,1.4a45.39,45.39,0,0,0,5.46-.16,4.58,4.58,0,0,0,.81-.14c2.64-.63,3.45-1.81,3.17-4.53a36.21,36.21,0,0,0-2-8.07,66.9,66.9,0,0,0-3-7.17c-.09.49-.15,1-.27,1.47a40.37,40.37,0,0,1-1.2,4.34,10.27,10.27,0,0,1-7.62,6.64,55.88,55.88,0,0,1-7.3,1.09c-1.93.17-3.89,0-6,0,7.17-4,11.54-10.45,15.69-17.48a58.67,58.67,0,0,1,1.54,9.69A24.16,24.16,0,0,0,58,167.94a89.74,89.74,0,0,0-1.53-12.77c0-.12-.09-.23-.23-.59-.25.7-.44,1.2-.61,1.7a58,58,0,0,1-6.3,13.63,50.46,50.46,0,0,1-3.6,4.64c-2.63,3-6.22,4.42-10,5.36a32.17,32.17,0,0,1-12.08,1,2.84,2.84,0,0,0-.41,0,2.54,2.54,0,0,0-.39.15c.27,1.53.53,3.09.82,4.64a225.21,225.21,0,0,0,6.48,25,9.25,9.25,0,0,0,1.33,2.82q5.7,7.63,11.53,15.15a3.16,3.16,0,0,0,1.44,1c7.35,2.49,14.71,4.93,22.06,7.4a1.65,1.65,0,0,0,1.64-.25c2-1.36,3.9-2.7,5.9-4a3.69,3.69,0,0,0,1.8-3.44c0-.92,0-1.83.06-2.74a6,6,0,0,1,3.47-5.35,10.75,10.75,0,0,1,2.13-.91c5.37-1.43,10.75-2.81,16.13-4.2,0,.09.1.18.14.27-.17.21-.3.52-.53.64a23,23,0,0,1-2.7,1.29c-2.26.86-4.57,1.6-6.82,2.48a37.83,37.83,0,0,0-4,2A4.63,4.63,0,0,0,81.55,225a1.6,1.6,0,0,0,1.28,2.44,13.16,13.16,0,0,0,2.18.11c.44,0,.89-.06,1.33-.1.09.12.18.24.28.35A4,4,0,0,0,86,228q-8.16,5.15-16.32,10.32a3.17,3.17,0,0,1-3,.34q-14.58-5.11-29.21-10.16a4,4,0,0,1-2.41-2.19A219.54,219.54,0,0,1,22.7,196.67a82.63,82.63,0,0,1-3.49-16.3c-.35-3.08-.62-6.17-.93-9.26,0-.06-.08-.11-.29-.4a83.08,83.08,0,0,0,.06,18.59c.81,6.15,3,11.88,5.52,17.49a1.14,1.14,0,0,1-1.72-.13,16.41,16.41,0,0,1-1.66-2.17,35.07,35.07,0,0,1-4.81-13.43c-.12-.93-.27-1.86-.43-2.87-.19.12-.33.16-.39.26a17.66,17.66,0,0,0-2.8,7.91,210.63,210.63,0,0,0-.7,24.22c.11,2.6.45,5.18.68,7.77,0,.23,0,.45,0,.78a2.14,2.14,0,0,1-.48-.29A48.34,48.34,0,0,1,1,210.32,28.62,28.62,0,0,1,0,203.55a161.24,161.24,0,0,1,1.24-22.82c.29-2.49.34-5,.52-7.68.45-.12,1-.29,1.56-.43,3.28-.83,6.55-1.67,9.83-2.46a3.73,3.73,0,0,0,2.23-1.44,13.12,13.12,0,0,1,5.43-4.26,12.07,12.07,0,0,1,9.22.1,1.88,1.88,0,0,0,2.11-.26,65.91,65.91,0,0,0,8.6-7.41,22.73,22.73,0,0,0,3.95-5.72,65.6,65.6,0,0,0,5.72-18.64c.29-1.8.41-3.63.68-5.43a1.5,1.5,0,0,0-.69-1.64c-.75-.51-1.5-1-2.22-1.59-1-.78-2-1.55-3-2.41A6.78,6.78,0,0,1,43,117.34c-.06-.35-.17-.7-.26-1a13.67,13.67,0,0,1-1.45-.51,2.2,2.2,0,0,1-1.13-3.18c.21-.45.57-.83.77-1.29a6.91,6.91,0,0,0,.67-1.91,1.9,1.9,0,0,0-2-2.31,4.22,4.22,0,0,1-2.31-.71,16.39,16.39,0,0,1-6.77-18,13.57,13.57,0,0,1,.82-2c.29-.61.67-1.19,1-1.74a12.43,12.43,0,0,1-6.6-8.39,6.26,6.26,0,0,1,.13-3.38,1.93,1.93,0,0,0-.2-1.92,3.51,3.51,0,0,1-.54-1.67,10.58,10.58,0,0,1,5.38-10.84c.06,0,.16,0,.45,0-1.8,1.76-3.32,3.56-3.52,6.07a9.28,9.28,0,0,0,.93,5.18A9.93,9.93,0,0,0,36.08,75a6.51,6.51,0,0,0-.55-.79c-.84-.9-1.72-1.77-2.55-2.68a16.77,16.77,0,0,1-1.45-1.82,8.13,8.13,0,0,1-.73-8.91,22,22,0,0,0,2.56-6.61A69.4,69.4,0,0,0,34.19,47a45.33,45.33,0,0,1,.85-8.7A25.14,25.14,0,0,1,41.29,27a7.35,7.35,0,0,0,1.61-2.5,14.4,14.4,0,0,1,5.49-6.83,25.83,25.83,0,0,1,10.1-4,2.76,2.76,0,0,1,.4-.06,3.62,3.62,0,0,0,3-1.84,15.29,15.29,0,0,1,6.33-5.1A19.81,19.81,0,0,1,77,4.52c2.69,0,5.39,0,8.08.08A5.14,5.14,0,0,0,87.79,4,24.57,24.57,0,0,1,98.33.82a4.42,4.42,0,0,1,1,0c2.58.46,5.08-.16,7.61-.48a34,34,0,0,1,15,1.24,28,28,0,0,1,3.52,1.5c.93.46,1.78,1.06,2.68,1.6-.16.2-.25.32-.36.44a17.21,17.21,0,0,1,1.88,1.18l.15.12.06.06.06,0,.08.08,0,0,.07.08v0a.47.47,0,0,1,.06.09h0a.36.36,0,0,1,0,.09h0a.29.29,0,0,1,0,.09h0a.28.28,0,0,1,0,.09h0a.28.28,0,0,1,0,.09h0l0,.09h0a1,1,0,0,1,0,.1h0l-.06.11h0l-.08.12h0a4.13,4.13,0,0,1-.37.41l0,0a2.61,2.61,0,0,0-3.13-2.15,6.34,6.34,0,0,0,3.13,2.15.13.13,0,0,1,0,.06l0,0L128.1,9.65c2.39.4,3.24-.26,3.26-2.61.3.41.52.67.69,1s.28.57.43.87c1.17.12,2.35.19,3.51.38a12.24,12.24,0,0,1,5.75,2.4,15.43,15.43,0,0,0,3.35,1.8,45.62,45.62,0,0,0,5.66,1.85,10.36,10.36,0,0,1,7.1,6.33,11.43,11.43,0,0,0,1.28,2.25A8.48,8.48,0,0,1,160.44,30c-.11-.82-.2-1.42-.28-2A7.54,7.54,0,0,0,157.39,23,13.55,13.55,0,0,0,147.84,20a6.47,6.47,0,0,0-1.11.23c.16.67.68.79,1.13.92,1.22.36,2.46.68,3.69,1a11.23,11.23,0,0,1,5.57,3.05,12.22,12.22,0,0,1,2.45,4.23A40.94,40.94,0,0,1,162,38.62c2.54.73,4.53,2.07,5.24,4.83a8,8,0,0,1-1.41,7,5.94,5.94,0,0,1,2,2.87A3.61,3.61,0,0,1,165,57.78c-.87.17-1.33-.36-1.8-.88-1.12.81-1.23,1.14-.6,2.12a15,15,0,0,0,1.26,1.62,8.35,8.35,0,0,1,1.43,9.08,13.67,13.67,0,0,1-.84,1.72c-1,1.76-2.08,3.51-3.17,5.33-1.65-6.54-3.28-13-4.95-19.64a13.58,13.58,0,0,1-9,1.07,3.53,3.53,0,0,1-2-.91c.11-.63.55-.58.95-.62a20,20,0,0,0,2.58-.32c2.25-.58,4-1.73,4.53-4.21a11.08,11.08,0,0,0,0-2.1,11,11,0,0,1-9.85.52A8.6,8.6,0,0,1,139.12,47c2,1.35,4.16,2.33,6.63,1.51a9.16,9.16,0,0,0,4.86-3.61,6.66,6.66,0,0,0-.78-8.17c.2.8.39,1.44.53,2.1a5.59,5.59,0,0,1-5.85,6.81,6.32,6.32,0,0,1-1.15-.3c2.13-.92,3.69-2.1,4.16-4.28a4.7,4.7,0,0,0-1-3.62c-1.81,1-3.61,2-5.42,2.92a13.23,13.23,0,0,0-5,4.62l-1.63,2.5a39.92,39.92,0,0,1-3.28-10l-3.06.44c.08.77.15,1.44.24,2.12.59,4.42-1,7.66-4.71,9.59-.39.2-.76.47-1.28.8.4.61.71,1.14,1.06,1.65a28.71,28.71,0,0,1,2.08,3,9.11,9.11,0,0,1,.9,3c.22,1.75-.71,2.77-2.49,2.89a9.42,9.42,0,0,1-2.19-.06,5.73,5.73,0,0,0-5.22,1.78,9.53,9.53,0,0,0-2.82,5.64c-.19,1.17-.32,2.35-.53,3.52a7.92,7.92,0,0,1-4,5.73,40.75,40.75,0,0,1-4,1.76c-.8.33-1.66.53-2.44.91a6.24,6.24,0,0,0-3.8,6,9.19,9.19,0,0,1-.2,2.32l-.42-2.87-.17,0-1.47,6.13c.74.35.51,1,.19,1.72s-.47,1.24-.69,1.87l.3.15,1.59-2.45a5.58,5.58,0,0,1-.87,3.15c1.62-.72,1.91-1.41,2.94-6.89a14.16,14.16,0,0,1,2.09,4.9,6.85,6.85,0,0,1-.91,4.94c2,1,2,1,3.26,3,.54.84,1.19,1.62,1.81,2.41.36.47.77.9,1.12,1.38,1.27,1.7,1.22,2.77-.15,4.44.06-1.08.13-2.23.19-3.37l-.26-.07c-.67.92-1.28,1.89-2,2.73s-1.64,1.54-2.6,2.44l1.45-.07,0,.22-2.77.46c1.06.63,2.14.3,3.31.21,0,.24-.09.43-.15.68,2.42-.24,3.15-2.36,4.54-4.14a6.79,6.79,0,0,1-1.37,4c-.47.62-1,1.2-1.47,1.81a10.24,10.24,0,0,0-2,7.39l1.47-2.71.32,0a7.46,7.46,0,0,0,1.59,8.71c0-.41,0-.62-.08-1a5.27,5.27,0,0,0,4.89,1.88,7.69,7.69,0,0,1-5.71-5.55c.72.65,1.44,1.36,2.23,2a4.27,4.27,0,0,0,3.07,1c-2.49-1.27-4.4-2.7-5-5.29a4.23,4.23,0,0,1,.62-3l.75,3.54h.26c0-.23,0-.45,0-.67.16-1.91.26-3.82.5-5.72.09-.69.18-1.25-.59-1.64l2.76-2.59c-.22,2.09-1.43,3.78-1.6,5.76a7.9,7.9,0,0,0,3.14-5.61c.64,2,.13,3.72-1.91,6.64,1.81-.79,2.42-1.49,3.93-4.58.57,1.25-.07,2.42,0,3.7a2.23,2.23,0,0,0,1-2.83,49.43,49.43,0,0,1-2-7.25,40.33,40.33,0,0,0-3.53-8.73c-.37-.71-.73-1.43-1.08-2.12.18-.12.23-.18.25-.17,3.75,1.33,7.59.73,11.4.57a28.9,28.9,0,0,0,10.42-2.3,3.7,3.7,0,0,1-2.11,2.73,17.37,17.37,0,0,1-3.12,1.39,10.32,10.32,0,0,0-6.79,6.62,27.91,27.91,0,0,0-1.95,7.94,10,10,0,0,0,0,1.64,4.07,4.07,0,0,0,2.88,3.64c.38-.55.77-1.09,1.13-1.65a16.09,16.09,0,0,1,10.18-7.32,22.87,22.87,0,0,1,3.52-.42c.72-.06,1.45,0,2.3,0-.24-1.17-1.3-2-1-3.23s.66-2.14,1.08-3.47a12.94,12.94,0,0,0-1.42,1.15c-3.29,3.72-7.56,6-12,8.06a2.63,2.63,0,0,1-.49,0l1.45-1a55.5,55.5,0,0,0,11.73-10.43,7.18,7.18,0,0,1,1.43-1.26c.21-.15.55-.11,1-.2-.35.71-.61,1.22-1,1.94a7.55,7.55,0,0,1,7.33,2.19c0,.1-.07.19-.1.28-.48-.2-1-.38-1.44-.6a5.56,5.56,0,0,0-2.91-.6A3.14,3.14,0,0,0,139,103.3a2.18,2.18,0,0,0-.32,2.44,1.85,1.85,0,0,0,1.9,1.08,11.21,11.21,0,0,0,1.64-.12,11.37,11.37,0,0,1,9.4,2.78c.46.38.87.81,1.34,1.17a5.42,5.42,0,0,0,6.61.26c.11-.06.23-.08.58-.21-1,2.47-3.16,3-5.32,3.71l.86,1.58a14.62,14.62,0,0,1,1.91,5.66c.33,3.06-.85,5.62-2.67,8-.23.28-.48.55-.71.83-1.19,1.44-1.34,2.54-.41,4.13a7.83,7.83,0,0,0,1.54,1.9,3,3,0,0,0,3.67.45c.2-.11.4-.2.6-.3a1.65,1.65,0,0,1-.34,2.49,14.32,14.32,0,0,1-2.51,1.34c-.93.46-1.93.81-2.83,1.33s-1,.88-.61,1.93a7.18,7.18,0,0,0,.82,1.42,5.16,5.16,0,0,1,.38,5.68c-.51,1-1.2,1.93-1.87,3,.31.28.64.57,1,.88a3.84,3.84,0,0,1-.14,5.71,4.81,4.81,0,0,1-3.12,1.25c-1,0-1.91,0-2.93,0-.12.3-.26.57-.35.86a7.49,7.49,0,0,1-4.42,4.77c-1.76.74-3.58,1.34-5.38,2-.34.13-.68.24-1.26.44a25,25,0,0,0,3.27,2c2.77-2.49,6.17-3.27,9.72-3.51a34.92,34.92,0,0,1,10.87,1,28.67,28.67,0,0,1,8.22,3.32A18.9,18.9,0,0,1,176.64,183c.11.34.27.68.38,1a3,3,0,0,0,2,1.95c1.37.51,2.72,1.07,4.06,1.64.67.28,1.32.62,2,1a3.87,3.87,0,0,1,2.19,3.67c0,2.47-.06,4.93-.1,7.4,0,.36,0,.73-.07,1.09a1.89,1.89,0,0,0,1,1.91c2.32,1.63,4.67,3.23,6.82,5a39.46,39.46,0,0,1,12.21,16.9C207.47,225.79,207.82,227,208.15,228.15ZM153.44,127.49c2.37-1.57,3.13-6.28,1.6-8.19a21.27,21.27,0,0,1,0,4.14A22.76,22.76,0,0,1,153.44,127.49Zm9.12-65.41h0c.26.75.56,1.5.8,2.26.08.25.16.5.23.76.26,1-.18,2.07.21,3.23a6.21,6.21,0,0,0,.28-.66c0-.15.09-.3.13-.46s.07-.3.1-.46,0-.3.05-.46a4.42,4.42,0,0,0-1.8-4.21Zm3.27-16.24a16.52,16.52,0,0,1-1.05,3.29,4.7,4.7,0,0,0,.73-6.52A14.39,14.39,0,0,1,165.83,45.84Zm-1.42,10.75c2-.56,2.66-2,1.81-3.81a20.92,20.92,0,0,1-.74,2.07A16.82,16.82,0,0,1,164.41,56.59ZM149.84,17.77a8.69,8.69,0,0,0,4.84,2c-.07-.22-.08-.52-.22-.61-1.18-.74-2.37-1.48-3.6-2.13C150.36,16.8,150,17.19,149.84,17.77Zm-117,62.06C31.54,78.89,30.26,78,29,77c-.73-.51-.76-.49-1.56.5a12.6,12.6,0,0,0,4.85,3.53,1.11,1.11,0,0,0,1-.29C33.62,80.35,33.14,80.06,32.82,79.83ZM46.5,162.68a63.69,63.69,0,0,1-6,6.2,21.24,21.24,0,0,0,.54-5L24.54,176.1c0,.1.07.2.1.31,1.27-.14,2.55-.17,3.79-.43a27.55,27.55,0,0,0,15.92-9.69,26,26,0,0,0,1.91-2.83A2.53,2.53,0,0,0,46.5,162.68Zm99.66-4.06c-.07-.19-.34-.32-.58-.53a22,22,0,0,1-.76,3.81,24.06,24.06,0,0,1-1.91,3.36C145.13,164.42,146.94,160.73,146.16,158.62Zm1.36-.64a4.81,4.81,0,0,0,0,2.14A1.53,1.53,0,0,0,147.52,158Zm4.75-.14a2.16,2.16,0,0,0-.49-2.51l-2.28,3C150.8,158.68,151.85,158.5,152.27,157.84Zm-1.26,1.7c1.07.18,1.07.18,1.78-.51C152.24,159.24,151.57,158.94,151,159.54Zm-.7-7.11c2.35-1.17,3.53-4.05,2.47-6.14C153.05,148.76,151.81,150.64,150.31,152.43ZM115.89,129.3a7.83,7.83,0,0,0,6.72-.59c3.11-2,5-4.77,4.4-8.75a5.09,5.09,0,0,1,.92,3.87,34.47,34.47,0,0,1-1.39,4c.5-.44.9-.75,1.24-1.11,1.56-1.67,2.57-3.47,2-5.93a11.9,11.9,0,0,1-.05-3.53,1.53,1.53,0,0,1,.76-1.42c0,2.18-.17,4.29,1.2,6.18a26.63,26.63,0,0,0,1.34-6.21l1.69,3,.2-.09-1.09-3.76.3-.11c.6,1.3,1.19,2.6,1.78,3.87,1.36-1.54,1.43-2,.47-4,1.46.45,1.71.85,2.19,3.54a2.1,2.1,0,0,0,.54-2.3c-.26-.78-.63-1.51-1.06-2.51,1.76,1.2,2.08,2.94,2.66,4.67l.12-.18.54-.8v0s0,0,0,0v2a6.53,6.53,0,0,0,2.19-4.57c.71,1.73.3,3.39-.55,5.21l2.31-1.13.15.26L143,120.78a3.56,3.56,0,0,0,3.33-1.3,5.37,5.37,0,0,0,1.07-4.63,3,3,0,0,0-1.28-2v.94c-1.47-1.32-3.23-1.46-5.05-2,.17.75.34,1.31.42,1.88a8,8,0,0,1,.11,2.57h0c0,.06,0,.13,0,.19v0a1.21,1.21,0,0,1-.05.18v0a1.15,1.15,0,0,1-.06.17s0,0,0,0l-.07.15,0,.06h0s0,0,0,0c0-.21,0-.43,0-.64s0-.43,0-.65a9.11,9.11,0,0,0,0-1.28,2.41,2.41,0,0,0-2.36-2.55,8.41,8.41,0,0,0-2.29.09c-.89.11-1.78.31-2.65.46l-.07-.59c-1.34.18-1.83,1.36-2.77,2,.2-.44.41-.89.61-1.34a9.19,9.19,0,0,0-4.16,4.5l-.58-2.49c-1.45,2.45-1.28,5.07-2.27,7.45-.68-1.06-.73-2.34-1.83-3a23.92,23.92,0,0,0,.43,2.69,20,20,0,0,1,.45,2.55,2,2,0,0,1-.87,2,5.69,5.69,0,0,0-.41-4.18,7,7,0,0,1-1.93,4.81A9.45,9.45,0,0,1,115.89,129.3Zm29.1-7.14c2.24-.53,3.18-1.54,3.26-3.55Zm-24.76,26.53c-2.49-.33-4.81-.2-6.38,2a4.75,4.75,0,0,0-.18,5.23C113.52,151.33,116.15,149.38,120.23,148.69Zm-4.07-1.94c1-1.32,2.71-1.27,4.1-2.08a4.61,4.61,0,0,0-.82-.61,2.86,2.86,0,0,0-2.25.23,9.09,9.09,0,0,0-5.52,9.79c.25-1,.42-1.75.62-2.49a4.59,4.59,0,0,1,3.39-3.42c.75-.21,1.5-.37,2.25-.57.45-.13.89-.31,1.54-.53C118.27,146.19,117.23,146.93,116.16,146.75Zm-1.09-18.5a3.78,3.78,0,0,0,3.94-1.74,5.28,5.28,0,0,0,.72-5.25,18.41,18.41,0,0,1-1.5,3.93A20.53,20.53,0,0,1,115.07,128.25Zm-1.6,1.8.72.4a2.52,2.52,0,0,1,1.32,3.22c-.16.56-.53,1.05-.74,1.61a16.86,16.86,0,0,0-.94,2.81,2.81,2.81,0,0,0,1,2.68,5.57,5.57,0,0,1,1.55-4.14c.23-.28.45-.58.65-.88a3.9,3.9,0,0,0-1.24-5.69A1.83,1.83,0,0,0,113.47,130.05Zm-1.74,13.39c-2.22-2.74-2.32-3-1.64-4.31.63,1.78,1,2.22,2.15,2.6-.92-2.15-.91-2.54.12-4.78a5.05,5.05,0,0,0,.51-1.26,11.21,11.21,0,0,0,.26-2.69,2.22,2.22,0,0,0-1.9-2.19c-.09.83-.21,1.49-.23,2.15a5.11,5.11,0,0,1-1.28,3.37,9.18,9.18,0,0,0-1.32,1.74A3.57,3.57,0,0,0,111.73,143.44ZM106.92,145c.59,1.62,1.33,2.15,2.8,2Zm-7.08-8a9.07,9.07,0,0,1-.48-5,6.21,6.21,0,0,0-1.23,3.67c-.13,3.49,2.34,7,6,8.55-.36-.58-.68-1.06-1-1.56a6.6,6.6,0,0,1-.06-6.89c.38-.67.85-1.29,1.25-1.95a10.58,10.58,0,0,0,.78-1.44c.4-1.07.12-1.91-1-2.88A13.69,13.69,0,0,0,99.84,137Zm.94-15.26a8.17,8.17,0,0,1-1.33-4,8,8,0,0,0-.35-1.49l-.37,0a5.71,5.71,0,0,0-.56,1.24,9,9,0,0,0,.09,4.07c.09.34.12.7.18,1h-.17l-1-1.82-.13.07c0,.36,0,.73.08,1.1a6.68,6.68,0,0,1-.92-2.16,19.83,19.83,0,0,1-.29-2.17h-.3a5.09,5.09,0,0,0-.36,1.39,10.43,10.43,0,0,0,.33,2.55,23.89,23.89,0,0,0,1.12,2.79,3.43,3.43,0,0,1-.2,3.38c-.52.86-1,1.76-1.39,2.66a5.78,5.78,0,0,0-.23,1.19c2.12-1.87,4.71-3,4.77-6.16.88,1.3.34,2.52.09,3.81,2.34-1.76,2.86-4,1.56-6.44Q101.11,122.23,100.78,121.72Zm-3.19,19.06-2.45.36,1.91,2.62C97.63,142.66,98.16,141.88,97.59,140.78ZM95,125.5c.51-1.62.06-2.89-.9-4.42A8.12,8.12,0,0,0,95,125.5Zm2.59-15.32c-.9.44-1.79.91-2.72,1.28a5.2,5.2,0,0,0-2.87,2.6c-.4.82-.69,1.68-1,2.53-.14.36-.23.74-.34,1.11a1.42,1.42,0,0,1-.22-.71c0-.27,0-.55,0-.82A5.36,5.36,0,0,1,94,110.85c.76-.3,1.55-.52,2.33-.78.35-.11.69-.24,1-.36a7.49,7.49,0,0,0-2.59-.48,5.08,5.08,0,0,0-5,3.22A9.66,9.66,0,0,0,89.2,119a6.91,6.91,0,0,0,1.91,3.38c.08-.1.12-.12.13-.16.11-.44.2-.89.31-1.33a11.24,11.24,0,0,1,5.37-7.43c.84-.47,1.68-.93,2.48-1.45a7.81,7.81,0,0,0,2.83-9.3c-.29,1-.52,1.76-.77,2.57A7.66,7.66,0,0,1,97.59,110.18Zm-9.78-1.36a5.18,5.18,0,0,1,5.3-1.82,8.72,8.72,0,0,0-3.42,1.64c1.66-.09,3.14-.16,4.62-.26a11.61,11.61,0,0,0,2-.25,4,4,0,0,0,2.92-2c-2-.3-3.86-.63-5.74-.85A8.87,8.87,0,0,0,89,106a5.94,5.94,0,0,0-3.13,2.93c-1.38,2.88-.88,5.63.72,8.28-.13-.61-.28-1.22-.37-1.83A8,8,0,0,1,87.81,108.82Zm-.9-36c-.33-.45-.57-.8-.83-1.15A10.23,10.23,0,0,1,84,67.14c-.16-.94-.1-1.91-.21-2.86a2.43,2.43,0,0,0-.44-1.37c-.89-.9-1.89-1.69-2.89-2.56-1,.86-1.16,1.15-1.25,1.94C78.61,67.61,82.64,71.53,86.91,72.84Zm8.23,27.58a10.33,10.33,0,0,1,.26-5.93c.09-.31.15-.62.23-1-.68,0-1.14.59-1.86.27.3-.32.5-.57.73-.78a3.89,3.89,0,0,0,1.2-2.8c.26-2.56-1.23-4.36-2.5-6.27.16,2.14.36,4.25.71,6.34a2.81,2.81,0,0,1-1.35,3.27c-1.06.62-2.15,1.21-3.21,1.82-.47.27-1.08.4-1.39,1.27l3-.86a6.56,6.56,0,0,0-2.28,5.71A11.37,11.37,0,0,1,93,96.17c-1.64,2.56-2.17,4.27-1.79,6C91.77,101,92.4,99.9,93,98.78l.33.12c0,.27,0,.55.08.81a7.15,7.15,0,0,0,2.25,4.14,3.35,3.35,0,0,0,4.45.26,34.7,34.7,0,0,0-3.23-1.61A2.82,2.82,0,0,1,95.14,100.42Zm-2.69-11.8a4.69,4.69,0,0,0-1.43,3C92.19,91.21,92.63,90.28,92.45,88.62ZM97,83c-.31,2.6-.62,5.2-1,8.08a5.76,5.76,0,0,0,1-2.75,15.07,15.07,0,0,0,.33-2.83C97.3,84.69,97.82,83.81,97,83Zm1.88-4.22-.64-.36a11,11,0,0,1-5.26-6.37c-.38-1.21-.56-2.48-.83-3.72-.11-.54-.23-1.07-.4-1.85C89.21,71.66,93.6,79,98.84,78.79Zm6.07-2.15c-1.06-.17-2-.33-2.9-.46-4.24-.57-6.49-3.24-6.93-7.54,0-.43-.1-.85-.17-1.48-1.8,4.15-.25,7.36,2.22,9.19S102.9,78.33,104.91,76.64Zm9.48-27.51s-.09,0-.11.07a1.24,1.24,0,0,0-.19.36A6.12,6.12,0,0,1,109.62,54c-1.05.33-2.1.64-3.12,1a9.82,9.82,0,0,0-6,6.11c-.93,2.76.57,6.37,2.5,7.47-.38-1.25-.84-2.48-1.13-3.75a5.46,5.46,0,0,1,.58-3.85,4.62,4.62,0,0,1,2.8-2.42c-1.48,2.22-1.68,2.76-1.46,3.8,1.61-3.11,5.59-5.69,7.52-5.23-.77.42-1.51.77-2.2,1.19a7.16,7.16,0,0,0-3.52,7.33,4.8,4.8,0,0,0,1.51,3c0-.1.09-.14.08-.18a4.94,4.94,0,0,0-.15-.64,4.67,4.67,0,0,1,1.48-5.32c.61-.55,1.3-1,1.91-1.56a35.1,35.1,0,0,0,3.38-3.18A7.42,7.42,0,0,0,114.39,49.13Zm-21.19-.7a3.41,3.41,0,0,1,1.26.58,5.86,5.86,0,0,0,5.12.49c.52-.18,1.1-.43,1-1.33-.5.13-.93.26-1.35.36a5.57,5.57,0,0,1-4-.37A2.14,2.14,0,0,1,94,45.46a7.89,7.89,0,0,1,.88-1.8,10.88,10.88,0,0,1,.69-.92,4.32,4.32,0,0,0-.74,0A3.53,3.53,0,0,0,92,45.26a4.58,4.58,0,0,0,.74,4.27c.45.57.79.6,1.73.34Zm-.45-8.62a7.47,7.47,0,0,0,1.61-3.52,5,5,0,0,1,4.19-3.76,7.14,7.14,0,0,0-2.12,6.06A5.41,5.41,0,0,0,98,42.27a9.35,9.35,0,0,0,4.78,2.52,7.31,7.31,0,0,0,7.95-2.87c-.8-.7-.8-.7-1.49,0-1.4,1.32-2.6,1.53-4.17.58A12.75,12.75,0,0,0,102,41a2.29,2.29,0,0,1-1.52-2.94,5.21,5.21,0,0,1,.83-1.56c.67-.86,1.43-1.65,2.13-2.49a20.76,20.76,0,0,0,2.15-2.65,6,6,0,0,0-1.73-8,5.5,5.5,0,0,0-4.27-1c3.82,2.6,4.23,5.09,1.13,6.92.18-4.88-1.88-7.55-5.79-7,.61.5,1,.82,1.43,1.17a4.63,4.63,0,0,1,1.75,4.62A4.92,4.92,0,0,1,96,31.16c-1,.73-2,1.37-3.09,2a9,9,0,0,0-3.95,5.08,11.84,11.84,0,0,0-.28,5.42,10.55,10.55,0,0,0,2.74,5.2,1.16,1.16,0,0,0-.07-.53A8.93,8.93,0,0,1,92.75,39.81ZM87.51,45c.1,2.48,2.23,5.24,4,5.26C89.65,48.9,88.84,46.82,87.51,45Zm15.74-33.81a17.07,17.07,0,0,1,2.66-1l1-.34a7.28,7.28,0,0,0-3.34-.88A5.57,5.57,0,0,0,98,12.18a4,4,0,0,0-.09,3.44,7.88,7.88,0,0,0,4.53,4.5,1.4,1.4,0,0,0,.07-.41,6.89,6.89,0,0,0-.29-.91,12.4,12.4,0,0,1-.46-1.29c-.46-1.9.08-3.09,1.68-3.79,0,.18,0,.35.1.65a2.67,2.67,0,0,1,2.74-1.18,3.75,3.75,0,0,0-2.29,3.5,6.31,6.31,0,0,1,4-2.09c1.49-.23,3-.21,4.71-.31-.29-.23-.4-.38-.55-.43-1.75-.67-3.47-1.43-5.25-2-2.58-.78-4.36.08-5.48,2.5a4.18,4.18,0,0,0,0,3.83l.41.79a3,3,0,0,1-1.58-2.52A5.37,5.37,0,0,1,103.25,11.16Zm7.56,38.51c-.07-1.46.46-2.76-.61-4-.21,2.25-1.59,3.34-3.35,4.13a9.28,9.28,0,0,0-1.3.88l.09.2,1.34-.15c-1.26.77-2.71,1.21-3.23,2.88,2.25-.72,4.64-1,6.73-2.15a5.56,5.56,0,0,0,2.73-4.22,3.14,3.14,0,0,0-1.4-3.2C112.8,46.23,112.33,47.93,110.81,49.67Zm-3.1-21.85c-.09.94-.6,1.72.08,2.47A9.4,9.4,0,0,1,110,36.18c0,.37.11.73.2,1.35A8,8,0,0,0,107.71,27.82Zm-.38,8.76a32.57,32.57,0,0,1-.51,4c2.2-2.26,2.08-6.39.07-8.29A36.55,36.55,0,0,1,107.33,36.58Zm-3.71-1.95c-1.82,1.74-2,3.31-.38,4.51A5.71,5.71,0,0,0,103.62,34.63Zm11.87-.44c1.22-1.69,3.16-2.14,4.88-3a1.62,1.62,0,0,0-1.74-1.37,3.41,3.41,0,0,0-3.41,1.6A2.26,2.26,0,0,0,115.49,34.19Zm2,9.43c1,1.71,2,3.19,2.86,4.67l.28-.1a18.18,18.18,0,0,0-1.29-5.26,9.05,9.05,0,0,1-.44-1.74l-1.48.15V39.41c-.93.29-1.65.77-1.7,1.64a13.82,13.82,0,0,0,.59,5.41C116.65,45.61,117,44.76,117.48,43.62Zm2.61,9.84a2.3,2.3,0,0,0-.85.23c0,.13,0,.25,0,.37.42.25.85.47,1.25.75.79.53,1.58,1.07,2.33,1.66a1,1,0,0,1,.37,1.4A31.47,31.47,0,0,0,119,55.11l-.15.22,4.26,3.21c1.45-.46,1.73-1.07,1.05-2.44A5,5,0,0,0,120.09,53.46ZM123.82,46c3-5-.19-9.27-4.82-10.39a1.32,1.32,0,0,0-.28,0c-.91,0-1.37.55-1.09,1.42a3.33,3.33,0,0,0,.82,1.22,6.3,6.3,0,0,0,1.23.86,4.61,4.61,0,0,1,2.3,3.22,7.62,7.62,0,0,0,.37,1c1-2.29,0-4.12-1.14-5.93,2.17,1.12,3,2.69,2.59,4.91-.17.94-.47,1.85-.7,2.78-.13.51-.25,1-.37,1.56l.28.18A4.92,4.92,0,0,0,123.82,46Zm1.58-11.26a4.59,4.59,0,0,0-5.81-1c2.74.86,4.69,2.34,5.5,5.11a13.66,13.66,0,0,1-.24,7.83,10.4,10.4,0,0,0,2.43-5.06A8,8,0,0,0,125.4,34.69Zm6.25-8a2,2,0,0,0-1.19-.57c-.9-.11-1.24.39-.92,1.25s.68,1.6,1,2.41a5.25,5.25,0,0,1-1,5.61l-.77.93a2.75,2.75,0,0,0,.49,0C133,35.38,134.43,29.82,131.65,26.64Zm-4.6-.86c.1,1.87,1.43,3,2.64,4.21A8.37,8.37,0,0,0,127.05,25.78Zm14,9.69A4.45,4.45,0,0,0,142.23,30a4.73,4.73,0,0,0-.65-.77A18.19,18.19,0,0,1,136.83,35a24.29,24.29,0,0,0-1.9,1.76A4.33,4.33,0,0,0,133.71,39c.68-.63,1.21-1.15,1.78-1.64s1.17-1,1.76-1.44c-.33.6-.59,1.13-.8,1.61a6.12,6.12,0,0,0-.68,2.65,3.86,3.86,0,0,0,.1.75,1.38,1.38,0,0,0,.2,0l.05,0a2.34,2.34,0,0,0,.33-.43A16.4,16.4,0,0,1,141,35.47Zm-3.61-2.59c3-1.83,3.5-5.54.92-7.69C139.23,28,138.6,30.38,137.43,32.88ZM141,23.76c.1,0,.24,0,.37-.06-.07-.1-.1-.21-.17-.25a21.72,21.72,0,0,1-7.3-7.28,6,6,0,0,0-.68-.77,1.53,1.53,0,0,0-.41,2,7.64,7.64,0,0,0,2.07,3.18A15.07,15.07,0,0,0,141,23.76Zm6.54,11.32c-.23.62-.87,1.1-.38,1.87a6,6,0,0,1,.53,6.27C149.93,41.08,149.77,36.81,147.51,35.08Zm6.62,3.34A10.66,10.66,0,0,0,158,41.35l.2-.22c-.22-.23-.43-.47-.65-.69A18.07,18.07,0,0,1,153.69,35c-.49-1.08-1-2.14-1.54-3.2a7.08,7.08,0,0,0-.65-.9l-.26.16A17.72,17.72,0,0,0,154.13,38.42Zm-.49,8.4a5.27,5.27,0,0,0-.69-6.56c.92,5.22-1.9,7.94-6.21,9.79.8-.1,1.63-.14,2.42-.32A7.25,7.25,0,0,0,153.64,46.82Zm4-3.06c1,7.15-1.52,10.81-7.19,13.35a9.07,9.07,0,0,0,8-5A8.13,8.13,0,0,0,157.68,43.76Zm3.12,10.4c2.62-1.33,3.5-6.45,1.22-8.57a31,31,0,0,1,0,4.31A33.37,33.37,0,0,1,160.8,54.16ZM146.16,25a1.51,1.51,0,0,0,.11.21,1.78,1.78,0,0,0,.36.19,11.94,11.94,0,0,1,8,7.77A33,33,0,0,0,157,37.92a9.42,9.42,0,0,0,3.55,3.51,35.73,35.73,0,0,1-2-3.07,22.41,22.41,0,0,1-1.33-3.29,13.52,13.52,0,0,1-.89-3.37c1.27,1.35,2.14,3,3.58,4.16-.37-1-.85-1.91-1.23-2.88-1.33-3.37-3.92-5.4-7.13-6.78A15.69,15.69,0,0,0,146.16,25Zm-2.68,3.39.26.83c1,3,.26,4.49-1.54,6-.42.35-.86.68-1.26,1.05a6.73,6.73,0,0,0-.65.75l.15.18,3.22-1.71.07.12c-.57.69-1.15,1.37-1.73,2.06l.28.23c1.84-.9,3.62-1.87,3.82-4.29A5,5,0,0,0,143.48,28.37Zm-.55-9.23a2.12,2.12,0,0,0-2.14-.89Zm-1.8-3.05a21.22,21.22,0,0,1-5.92-.94,3.06,3.06,0,0,0-.7-.12c1.66,2.9,6.12,5.67,8.23,5.51a10.53,10.53,0,0,1-4.05-3.14c1.32-.08,2.43-.16,3.55-.21.77,0,1.54,0,2.38,0a2.67,2.67,0,0,0-.34-.31A6.43,6.43,0,0,0,141.13,16.09Zm-11.42-4.52c3.94.26,7.8.17,11.43,1.63C138.31,9.77,132.48,8.87,129.71,11.57Zm-10.6,7.11a3.06,3.06,0,0,0,1.56,2.44,6.59,6.59,0,0,0,3.92,1c1.22-.06,2.46-.26,3.68-.2,3.76.19,7.2,2.49,7.47,7.05.07,1.21-.08,2.42-.13,3.76a7.89,7.89,0,0,0,.59-1,7.57,7.57,0,0,0,0-6.25A9.82,9.82,0,0,0,129.1,20c-.76-.18-1.53-.29-2.27-.51a2.94,2.94,0,0,1-2.25-3.87c.12-.54.28-1.06.37-1.6a5.37,5.37,0,0,0-1.88-5c-.17,2.42-.07,4.68-.82,7-.76-1.06-1.4-2-2.2-3.08A15,15,0,0,0,119.11,18.68Zm-1.82.9c-.49-1-1-1.94-1.58-2.88a2.2,2.2,0,0,0-1.23-1.16c.36,1.24.64,2.34,1,3.4s.82,2,1.23,3l-.2.2L113.09,20c1,2.59,3.36,3.54,5.26,5a7,7,0,0,1-5.45-1.7c-2.11-1.62-3.71-3.55-3.21-6.53a1.37,1.37,0,0,0-1.58.91,5.86,5.86,0,0,0-.57,3.59,6,6,0,0,0,2.8,4,11.44,11.44,0,0,0,6.6,1.91c1.46,0,2.92,0,4.37.07a10,10,0,0,1,2.65.61,1.87,1.87,0,0,1,1.38,2.23c0,.39,0,.79-.06,1.22,1.9.58,2.71,2.1,3.41,3.9a6.87,6.87,0,0,0,.6-.84,3.57,3.57,0,0,0-.5-3.74c-.85-1.24-1.82-2.4-2.7-3.62a9.78,9.78,0,0,0-3.29-2.84c-.6-.32-1.2-.65-1.81-1A8.18,8.18,0,0,1,117.29,19.58ZM105.71,2c2.36.47,4.75.71,6.76,2.26s2.79,4,3.54,6.4a5.13,5.13,0,0,0-.61-6.53C112.61,1.51,109.25,1.3,105.71,2ZM104,4.18c3,.73,6.34.73,8.3,3.81a3.65,3.65,0,0,0-2-3.43A6.61,6.61,0,0,0,104,4.18ZM93.81,7c3.07-.78,6.09-1.57,9.17-.42-5.2.11-9.13,1.3-11,3.59l1-.29c2.07-.54,4.12-1.21,6.22-1.59,3.23-.6,6.46-.68,9.45,1.1.07,0,.21,0,.35,0C105.54,4.13,97.78,3.53,93.81,7ZM88.58,5.19c0,.42.41.56.83.46.13,0,.26-.08.39-.12l5-1.74a4.73,4.73,0,0,0,.66-.38c-.07-.67-.49-.81-1-.76A8.41,8.41,0,0,0,92.79,3c-1.29.44-2.57.93-3.82,1.46A.88.88,0,0,0,88.58,5.19Zm-5.4,9.87a4.62,4.62,0,0,0-.81.2c3.42,1.24,5.74,3.15,5.95,4.8-3.9-2.75-5.08-3.29-6.84-3,4.14,2.22,6.28,5.93,8,10.07.27-1.67-.36-3.41-2.12-6.55a26.23,26.23,0,0,1,2.09,2.51A10.16,10.16,0,0,1,90.85,26,8.82,8.82,0,0,1,91,29.24a18.81,18.81,0,0,1-1.07,3.21,5.8,5.8,0,0,0,1.88-2.81,12.17,12.17,0,0,0-1.23-10.76A7.73,7.73,0,0,0,83.18,15.06Zm-5.6-7.68c.13.82.85.44,1.34.39,1.45-.16,2.89-.34,4.33-.53a9.6,9.6,0,0,0,1-.21c0-.77-.48-.8-.93-.87a12,12,0,0,0-4.59.35C78.23,6.61,77.45,6.61,77.58,7.38ZM75.49,18c.19.86.3,1.53.49,2.17.34,1.13.76,2.24,1.1,3.37a9,9,0,0,1-.24,6.8c0,.06,0,.16.14.43a10.68,10.68,0,0,0,1.1-1.45,5.53,5.53,0,0,0,.44-4.12c-.37-1.36-1-2.65-1.44-4-.13-.35-.25-.69-.37-1a8.21,8.21,0,0,1,2.46,3.44c.94,2,1.48,4,.18,6.16a5.55,5.55,0,0,0,1.81-2.71,5.89,5.89,0,0,0-1.64-6.73A16.83,16.83,0,0,0,75.49,18ZM73.7,33.26a28.56,28.56,0,0,0-3,2.41,6.83,6.83,0,0,0-2.09,5.46,13.93,13.93,0,0,0,.63,3.48,12.73,12.73,0,0,0,4.59,6.16c.89.7,1.81,1.36,2.81,2.1-.43.31-.74.55-1.07.77a13.62,13.62,0,0,0-3.93,4.14,8.38,8.38,0,0,0-.78,1.88c-.07.24.1.55.23,1.09.5-.47.8-.79,1.13-1.07,1.77-1.5,3.54-3,5.35-4.47a1.83,1.83,0,0,1,1.25-.37c1,.15,2.35,2.21,2.1,3.18a2.16,2.16,0,0,0,.66,2.24c2.21,2.17,5,2.49,7.86,2.33a15.37,15.37,0,0,0-1.91-1,9.81,9.81,0,0,1-4-3.62c-.24-.38-.59-.76-.36-1.39A8.71,8.71,0,0,0,90.8,59c-2.46-1.41-4.82-2.86-6.47-5.25a15.82,15.82,0,0,0,6.16,1l-.26-.32-.55-.69h0l0-.05a34,34,0,0,0,4.12,1.21,7,7,0,0,0,5.57-1.19c.41-.3,1.08-.64.69-1.26s-.91-.13-1.35.08a10.29,10.29,0,0,1-8.07.36,12.17,12.17,0,0,0-1.82-.34l.62.83.24.31h0l0,0L88.55,53,87,52l-1.25-.8a8.72,8.72,0,0,1-1.38-1.11,5.87,5.87,0,0,1-1.57-6.4A2.36,2.36,0,0,1,84,42.16c.37,1.67.61,3.29,1.1,4.83a6.74,6.74,0,0,0,2.78,3.81,5.74,5.74,0,0,0-.4-1,27.65,27.65,0,0,1-1.56-4.2,8.41,8.41,0,0,1,1.43-6.39c.45-.7.86-1.44,1.31-2.2-2.77-.84-7.08.25-8.92,3.26A10.46,10.46,0,0,0,81.19,53l1,1c-.06.09-.11.18-.16.27a9.73,9.73,0,0,1-1.52-.41,8,8,0,0,1-5.1-7.61,10.82,10.82,0,0,1,4.46-9.38A20.08,20.08,0,0,1,86.05,34c.35-.12.81.08,1.22.13,3.68-4.15.64-9.89-3.09-12.17.21.64.41,1.18.57,1.74A5.14,5.14,0,0,1,82.4,30a27.18,27.18,0,0,1-2.78,1.45c-.87.42-1.78.73-2.61,1.21a11.71,11.71,0,0,0-6.22,8.83c-.12.88-.11,1.78-.16,2.76a6.76,6.76,0,0,1,.74-7.7c.95-1,2.08-1.77,3.11-2.67.32-.27.84-.41.72-1.22A6.26,6.26,0,0,0,73.7,33.26ZM72,11.88c.91,6.71-5.58,13.4-13.09,10.95,2.4,1.38,5.09,1.32,7.76,1.41-1.45,1.07-3.19,1.05-4.79,1.48a10.59,10.59,0,0,0,8.4-2.4,8,8,0,0,0,3.07-6,10.86,10.86,0,0,0-.85-4.67A6.25,6.25,0,0,0,72,11.88ZM61.28,20.72a8,8,0,0,0-1,0c2.37,1.89,5.53,1.16,7.55-.6a5.59,5.59,0,0,0,1.58-6.84,2.49,2.49,0,0,0-.12.42A6.89,6.89,0,0,1,61.28,20.72ZM54.83,20a2.44,2.44,0,0,0,.31.76l.33.15a8.4,8.4,0,0,1,6.3-6.53c-.19-.21-.23-.31-.3-.33a.94.94,0,0,0-.4-.07,7.23,7.23,0,0,0-5.23,2.83A4.94,4.94,0,0,0,54.83,20Zm-.36,21.45a14,14,0,0,0,3.37,8.63A9,9,0,0,0,65,53.57l-.78-.89c-2.12-2.45-3.85-5.09-4.29-8.4a10,10,0,0,1,3.25-9.41A12.06,12.06,0,0,1,69.4,32c1.1-.18,2.22-.23,3.61-.37A8.23,8.23,0,0,0,72,31c-4.9-1.91-9.52-1.44-13.66,1.88A10.23,10.23,0,0,0,54.47,41.45Zm10.7-6.08a10.18,10.18,0,0,0-1,14.63A17.15,17.15,0,0,1,65.17,35.37Zm1.89,15-2-4.78C64.85,47.8,65.67,49.6,67.06,50.33ZM48.72,29.42s.07-.09.06-.12a2.38,2.38,0,0,0-.11-.38,8.73,8.73,0,0,1,.73-9.17,2.38,2.38,0,0,0,.17-.75,5.37,5.37,0,0,0-3.51,4.83A5.48,5.48,0,0,0,48.72,29.42Zm-7.3,9.47A6.3,6.3,0,0,0,46,44.7,19.28,19.28,0,0,1,44,39.62c2.53,1.94,3.86,2.26,5.19,1.21-3.61-1.53-4.93-4.46-4.92-8.18l-.43,0L42.63,37.1H42.5c-.11-1-.21-2.09-.33-3.32A9.69,9.69,0,0,0,41.42,38.89Zm-3.23,6.69c.27-.08.66-.46.66-.69,0-1.82-.08-3.63-.16-5.44,0-.45-.27-.8-.78-.75s-.67.42-.67.88c0,.81,0,1.63,0,2.71,0,.69.06,1.64.15,2.58C37.42,45.32,37.71,45.7,38.19,45.58ZM39,69.8a14.28,14.28,0,0,1,2.1,1.5A3.48,3.48,0,0,1,41.56,76c-.26.36-.56.7-.84,1a3.83,3.83,0,0,0,1.55-6.3,6.87,6.87,0,0,0-3.83-1.94,2.71,2.71,0,0,0-.68.07A5.62,5.62,0,0,0,39,69.8Zm5.35,23.77c-3.1-3.52-4.47-7.2-1-11.43a5.27,5.27,0,0,0-3.95,4.72A7,7,0,0,0,44.37,93.57Zm1.18-30.76c.27.72.49,1.47.78,2.19.08.19.33.31.5.47.14-.15.23-.21.25-.28a2,2,0,0,0,.09-.54,6,6,0,0,0-3.42-5.51c-.56-.3-1.16-.52-1.74-.78A3.57,3.57,0,0,1,39.77,55a24.88,24.88,0,0,1,.2-3c.05-.52.17-1,.25-1.56l-.41-.18a3.15,3.15,0,0,0-.68.74,12.62,12.62,0,0,0-1,2.4,5.61,5.61,0,0,0,4.06,7l1.17.36A3.32,3.32,0,0,1,45.55,62.81Zm3.29,28.08c-.75-2.39-1.49-4.66-.21-7.14.61,2,1,3.94,2.39,5.43a8.83,8.83,0,0,1-.24-4.44c.34-1.43.9-2.81,1.42-4.38l-2.11,1.53a8,8,0,0,1,1-2.22,4.69,4.69,0,0,0,1-2.26,15.41,15.41,0,0,0-3.77,3.15,7.26,7.26,0,0,0-1.81,3.33A7.06,7.06,0,0,0,48.84,90.89Zm3.6-24a1.08,1.08,0,0,0,1,0c.42-.27.31-.71,0-1.08a2.29,2.29,0,0,0-.36-.4c-.95-.77-1.89-1.57-2.88-2.29-.75-.54-.88-.46-1.78.65C49.8,64.81,51.09,65.87,52.44,66.87Zm-.65,41.76c.05.11.18.18.31.3.59-.16.86-.53.67-1.11a6,6,0,0,0-.68-1.47A12.17,12.17,0,0,0,48,102.8a1.79,1.79,0,0,0-.9-.28,1.11,1.11,0,0,0-.76.41.84.84,0,0,0,.17.72,2.88,2.88,0,0,0,.76.56A10.67,10.67,0,0,1,51.79,108.63ZM54.09,120c-.94-.84-1.74-1.43-2.4-2.15s-1.25-1.65-1.88-2.49a2.63,2.63,0,0,0,.26,2.91C51,119.52,52.33,119.91,54.09,120ZM54.4,103a6.58,6.58,0,0,0-4.09-5.51c-.47-.23-1.1-.6-1.42.09s.41.8.82,1a8.35,8.35,0,0,1,4.61,4.8A1.23,1.23,0,0,0,54.4,103Zm.41,11.61c.1,1.13.2,2.19.33,3.54C56,116.68,55.84,115.49,54.81,114.65ZM56.24,58c-1.64-1.75-3.14-3.49-5.66-4.08a7,7,0,0,1-5.67-5.8c-.1-.53-.22-1-.35-1.65a2,2,0,0,0-1,1.44,5.31,5.31,0,0,0,2.11,5.78,11.3,11.3,0,0,0,5,2.17,8.51,8.51,0,0,1-2.63.42,4.59,4.59,0,0,1-4.38-2,6.16,6.16,0,0,0-.81-.79,3.74,3.74,0,0,0,1.48,3.7,5.37,5.37,0,0,0,4.52,1.06,22.62,22.62,0,0,0,2.78-.7,5.26,5.26,0,0,1,3.86.24A5.57,5.57,0,0,0,56.24,58ZM59,56.63l1.26.65c-1.13,3.65-.65,6.13,1.48,7.28-.2-.54-.34-1-.5-1.37a5,5,0,0,1,.24-4.11,3.22,3.22,0,0,1,2.78-1.94,1.29,1.29,0,0,1,1.46,1c.14.43.27.86.46,1.49.57-.06,1-.08,1.45-.16.7-.12,1.39-.38,1.57-1.13s-.47-1.14-1-1.51a10.34,10.34,0,0,0-4.13-1.74A15.5,15.5,0,0,1,55.43,50c-.3-.32-.63-.6-1.08-1a6.15,6.15,0,0,0-.09.84,7.47,7.47,0,0,0,.12,1A8.43,8.43,0,0,0,59,56.63Zm4.22,41.8A2.79,2.79,0,0,0,63.1,98C62.4,96.64,61.7,95.32,61,94c-.2-.36-.49-.7-1-.44s-.5.71-.27,1.16c.69,1.32,1.4,2.64,2.11,4a1.08,1.08,0,0,0,.49.43A.67.67,0,0,0,63.25,98.43Zm7.25,34.48c-.45-5.66-.81-11.34-1.2-17-3.12,7.94-1.62,28.77,2.44,34.17C71.75,144.31,71,138.63,70.5,132.91Zm12.57-31.43A10.35,10.35,0,0,1,84.59,97,2.62,2.62,0,0,0,85,94.65a16.85,16.85,0,0,1-.56-8.37c.26-1.23-.79-2.08-2.19-1.84a7,7,0,0,1,.84,1.08,1.45,1.45,0,0,1,.15,1.11c-.26.49-.7.17-1,0A11.38,11.38,0,0,1,78.79,84,3.63,3.63,0,0,0,79.66,87c1.32,1.35,1.13,2.92.84,4.49a2.11,2.11,0,0,1-1.78,1.86,2.57,2.57,0,0,1-2.67-1,6.4,6.4,0,0,1-.72-1.46,1.81,1.81,0,0,0-1.2-1.19,11.51,11.51,0,0,1-2.21-1.06,4.86,4.86,0,0,1-2.42-5.36c.22-1.3.41-2.61.58-3.92.08-.71.09-1.43.13-2.19,1.35,0,2.57,0,3.8,0a9.94,9.94,0,0,0,3.56-.63c-3.75-1.09-7.25-2.45-8.88-6.62-.46.64-.84,1.1-1.13,1.6a18.12,18.12,0,0,0-2.4,10.1,11.18,11.18,0,0,0,1.45,5.22,4.77,4.77,0,0,0,2.16,2.23,7.23,7.23,0,0,1,3.64,3.55,7.22,7.22,0,0,0,4.08,3.47,3,3,0,0,1,.59.36,11,11,0,0,1-3.31-.11A4,4,0,0,1,71,94.56a21,21,0,0,0-3.49-4,11.25,11.25,0,0,1-3-4.86,23,23,0,0,1,0-13.36A12.57,12.57,0,0,1,68,66.52a6.74,6.74,0,0,1,7.2-1.63c.31.11.64.15,1.11.26a3.9,3.9,0,0,0-3.65-2.72,7.87,7.87,0,0,0-7.14,3,16.59,16.59,0,0,0-2.42,4.1,24.37,24.37,0,0,0-1.61,11.68A18.3,18.3,0,0,0,65.27,91a45,45,0,0,1,3.79,5.69,16.43,16.43,0,0,0,5.25,5.86,9.25,9.25,0,0,0,5.51,1.78C82,104.3,82.77,103.62,83.07,101.48ZM86,132.29A3.66,3.66,0,0,0,89.35,130c-2.93,1.83-5.62,1.35-8.27-.39A5.19,5.19,0,0,0,86,132.29Zm6.35,2.38c-.44.09-.77.18-1.11.23a17.48,17.48,0,0,1-3,.36,15.33,15.33,0,0,1-2.79-.56c-.4-.08-.81-.26-1,.33A5.2,5.2,0,0,0,92.33,134.67Zm5,32a10.67,10.67,0,0,1-5.44-4.62C92.13,164.8,95.17,167.4,97.36,166.71Zm3.3-5.2a6.59,6.59,0,0,0,.31-3.91c-.57-.1-1.1-.23-1.63-.29a5,5,0,0,1-3.66-2.14,12.67,12.67,0,0,1-1.81-3c-.88-2.39-1.56-4.84-2.31-7.27-.14-.47-.24-1-.37-1.43l-.31.06c.06,3.23.06,6.46.22,9.68a22.06,22.06,0,0,0,1.28,6.41,9.37,9.37,0,0,0,2.29,3.68,3.18,3.18,0,0,0,2.63.89A4,4,0,0,0,100.66,161.51Zm-8.8,26.2a17.51,17.51,0,0,0,4.94-3.87,29.22,29.22,0,0,0,4.52-6.5,5.19,5.19,0,0,1,2.91-2.54c2.43-.92,4.85-1.89,7.26-2.86.49-.19,1-.45,1.44-.68,0-.1-.07-.21-.11-.31-1.85.22-3.7.45-5.56.65a12,12,0,0,0-8.36,4.66,37.41,37.41,0,0,1-4.46,4.44c-1.2,1.05-2.57,1.89-3.86,2.84a9.85,9.85,0,0,0-2.94,3c-.74,1.31-.24,2.22,1.25,2.05A9.45,9.45,0,0,0,91.86,187.71Zm25.42-9.59c0-2-1-3.1-3-3.07-1.49,0-3,.31-4.47.47a8.11,8.11,0,0,0-6.2,4c-2.26,3.43-4.7,6.74-7.06,10.11-.65.93-1.28,1.87-2,3a3.54,3.54,0,0,0,.6,0c4.7-.68,9.4-1.34,14.09-2.07a6.89,6.89,0,0,0,4.33-2.67,18.11,18.11,0,0,0,3.44-7.08A11.76,11.76,0,0,0,117.28,178.12Zm9.14-3.14L124,178.1l-.29-.13c.11-2.78,1-5.51.67-8.33a6.29,6.29,0,0,0-.43,1.24c-.44,1.72-.86,3.44-1.33,5.16-.78,2.85-1.59,5.69-2.37,8.54a2.63,2.63,0,0,0,.18,2.19A31.79,31.79,0,0,0,126.42,175Zm2.63-23.35c-1.07-2-2.74-2.55-4.44-1.48a4.72,4.72,0,0,0-2,5.11,10.75,10.75,0,0,0,2.24,4c-.41-4.42-.21-6.28.89-7.25a17.65,17.65,0,0,0,.73,7.05c.22-1.17.33-2.34.45-3.5C127.05,153.93,127.36,152.38,129.05,151.63Zm2.75-11c-2.73.3-4.93-.36-6.15-3-.76-1.65-.89-3.15-.21-4.07a7.58,7.58,0,0,0,2.82,5.51c-.19-1.8-.36-3.38-.54-4.95,0-.09,0-.24-.06-.26-1-.41-.9-1.53-1.54-2.26a3.76,3.76,0,0,0-2.35,1.19,8.13,8.13,0,0,0-1.38,9.13,5.19,5.19,0,0,0,6.94,2.27c-.52-.14-1-.23-1.39-.37a8,8,0,0,1-4.25-3.06,4.63,4.63,0,0,1-.27-5c.1.44.17.77.26,1.11a8,8,0,0,0,2.37,4.23A4,4,0,0,0,131.8,140.6Zm2.27-5.91c.14,1.11.21,2.23.33,3.59.25-.48.39-.77.53-1.05a8.32,8.32,0,0,1-.19,2.83,1.77,1.77,0,0,0,.83,2.1,10.85,10.85,0,0,1,4,4.75s.14.05.35.13c.07-2.23-1.07-3.95-2.14-5.69,2.44,1.93,3.8,4.3,3.19,7.49a6.32,6.32,0,0,0-.11,1.23,11.13,11.13,0,0,0,.12,1.16c1.64-1.11,2.73-2.28,2.68-4.21,0-1,0-2.07,0-3.11.86,2.83,1.28,5.66-.15,8.59a5,5,0,0,0,2.78-5.06,7.15,7.15,0,0,0-2.17-4,1.69,1.69,0,0,1-.76-1.58,6.19,6.19,0,0,1,2.49,2.72,12.27,12.27,0,0,1,1.48,3.49,14.15,14.15,0,0,1-.24,3.61,5.83,5.83,0,0,0,2-2.89,33.42,33.42,0,0,0,.4-3.44,6.09,6.09,0,0,1,.74,3.7c1-1.39,1-2.08.31-3.37a23.71,23.71,0,0,0-5.51-6.57,8.57,8.57,0,0,0-1-.59c.81,2,2.14,3.33,2.6,5.13-1.29-1.78-3-3.28-3.32-5.65-1.37.61-1.53,1.73-1.42,3.16-.64-1.66-1.22-3.08-1.73-4.53a2.33,2.33,0,0,1,0-1.14c.08-.49.52-.91.33-1.53l-1.79,1.17c.13-.91.21-1.52.31-2.13a7.06,7.06,0,0,0-1.65-5.73c-.22-.27-.42-.57-.62-.86l0-.06a37.38,37.38,0,0,0,5.33,1.67h0l.29.06c.72.14,1.45.26,2.18.33h.05l.59,0h.26c.34,0,.68,0,1,0a3.75,3.75,0,0,0-1.92-3.51,8.53,8.53,0,0,0-5.9-1.22,22,22,0,0,0-4.81,1.19,11.61,11.61,0,0,1,2.74,6.4c-1.06-2.42-2.41-4.58-4.95-5.9-.28.53-.53,1-.83,1.53,1.69,1.33,3.66,2.35,3.94,4.85-1.94-2.57-3.62-3.37-5-2.24a9.06,9.06,0,0,0,1.1.76A5.32,5.32,0,0,1,134.07,134.69Zm8.61,1.48c1.13-1.34,1.94-2.75,1.22-4.57-.51-1.31-1.22-2.08-2.15-2.24C143,132.61,143.1,132.23,142.68,136.17Zm-3.07-7.48c.2,1.23.41,2.45.61,3.68,1.14-.16,1.34-.34,1.43-1.23C141.77,130,141.15,129.23,139.61,128.69Zm-1.93,30.72c2.11-2.92,2.37-5.23.86-7.41.06,4.19-.09,5.09-1.11,6.24.66-3.81.27-4.79-2.71-6.8a9.26,9.26,0,0,0-1.21-.63,5.05,5.05,0,0,0-.82-.18,19.7,19.7,0,0,1,1.83,2.56,18.15,18.15,0,0,1,.88,2.88l.2,0c.14-.9.28-1.8.43-2.73.71.89.83,1.1.8,1.85a7.58,7.58,0,0,1-2.85,5.4c2.05.47,4,0,4.81-1.08Zm-5.11-.76c2.43-1.9,2.65-4.6.59-5.92a20.93,20.93,0,0,1,.11,3A22.47,22.47,0,0,1,132.57,158.65Zm.23,6.35a7.31,7.31,0,0,0,5.61.38,4.72,4.72,0,0,0,3.1-3.68,2.4,2.4,0,0,0-.12-.76C138.25,164.23,137.72,164.48,132.8,165Zm2.35,2a3.91,3.91,0,0,0,5.06-.65Zm10.94,4.75c-1.1-.06-2.09-.14-3.08-.15a3.72,3.72,0,0,0-1.32.24c-.55.22-.76.62-.33,1.11Zm38.45,24.29a3.42,3.42,0,0,0-1.42,2.07,29.3,29.3,0,0,0-1.93,10.7,6.57,6.57,0,0,0,.21-.76,31.9,31.9,0,0,1,3-9.87,7,7,0,0,0,.47-1.14C185.05,196.67,185.05,196.27,184.54,196.08Zm-47.72-69.76Zm-.09,0,.09,0,0,0ZM129.63,8.07Zm7.16,118.2h0l.39-.08,1.69-.36a5.5,5.5,0,0,0-3.62-.09l1.52.51,0,0,.06,0Zm12.35-43.4a14.7,14.7,0,0,1,.09,10.31,15.26,15.26,0,0,0-1.13-8.09,38.65,38.65,0,0,1,.37,9.73c-.36-3.53-.5-7.09-2-10.6-.39.39-.64.63-.86.88-1.1,1.28-2.16,2.6-3.29,3.85a8.06,8.06,0,0,1-5.79,2.73c-2.73.14-5.47.2-8.21.29a.91.91,0,0,1-.51-.12c2-1,4.52-.87,6.34-2.69a27.76,27.76,0,0,1-3.6-1.46,30.07,30.07,0,0,1-3.22-2.44c2.41.33,4.57,1,6.86.62-.1-.16-.14-.29-.18-.29a14.24,14.24,0,0,1-7.15-2.85,1.3,1.3,0,0,1-.23-.15,5,5,0,0,0-3.9-1.28,8.41,8.41,0,0,1-4.46-1.11,17.3,17.3,0,0,1-1.65-1.08l.1-.17,1.72.52-2.19-1.91c0-.09.1-.18.14-.27,1.1.19,2.18.45,3.27.55a6.63,6.63,0,0,0,2.56-.14c2.85-.94,5.56-2.3,8.61-2.45a2.49,2.49,0,0,0-2.43-2.43,8.27,8.27,0,0,0-2.72.16c-2.3.57-4.56,1.27-6.85,1.91a6.13,6.13,0,0,1-1.89.29,2.25,2.25,0,0,1,.37-.33,72.44,72.44,0,0,1,12.87-5.7c2.25-.67,4.55-1.18,6.86-.41a19.24,19.24,0,0,1,3.82,1.78c1.45.86,2.79,1.9,4.18,2.86a2.28,2.28,0,0,0,3.72-.91A20.64,20.64,0,0,1,150,69.94c.4,2.19.8,4.38,1.23,6.66,1-1,1-2.43,1.6-3.71a8.32,8.32,0,0,1-.12,5.62A7.66,7.66,0,0,1,149.14,82.87Zm-20.92-4.3c2-.47,3.95-.55,5.64-1.6A8.64,8.64,0,0,0,128.22,78.57Zm6.57,6c-2.13-1.28-4.45-1.82-5.15-4.26-1.07.18-2.13,0-2.73,1a1.3,1.3,0,0,0,.11.35,9.72,9.72,0,0,0,6.56,3.26A4.57,4.57,0,0,0,134.79,84.52Zm-108.66,149c-.23-.4-.43-.82-.64-1.23a1.31,1.31,0,0,1,.76.28c3,2,6,4,9,5.92a8.1,8.1,0,0,0,2,.92c1,.33,1.54.09,2.2-.88-.24-.35-.48-.73-.75-1.09-1.17-1.58-2.38-3.13-3.53-4.72a265,265,0,0,1-16-26,47.64,47.64,0,0,1-4.21-9,11,11,0,0,0-.6-1.31,5.65,5.65,0,0,0-1.25,3.8c.13,1.91.29,3.82.52,5.72,1.47,11.92,5.43,23,10.82,33.69a6,6,0,0,0,1.6,2c1.51,1.17,3.13,2.22,4.73,3.27a6.71,6.71,0,0,0,1.33.53l.32-.3a16,16,0,0,0-.74-1.69C29.88,240.05,28,236.77,26.13,233.47Zm88.74-13.57-.12-.11-.81.72c-8.9,8-17.52,16.3-26,24.76-4.07,4.08-8.1,8.18-11.79,12.6-.46.56-.9,1.13-1.48,1.84.62.12,1,.23,1.49.28,2.72.32,5.44.57,8.15.95,1.3.18,1.24.16,1.89-1,2.37-4.16,4.66-8.37,7.17-12.45a151.31,151.31,0,0,1,16.32-22.12C111.4,223.53,113.15,221.73,114.87,219.9ZM62.22,243.28c.42-.2.81-.46,1.41-.8-.79-.32-1.28-.54-1.78-.72l-5.93-2.11-10.54-3.8a1.91,1.91,0,0,0-2.37.31A20.53,20.53,0,0,0,44.63,238c1.44,1.33,2.94,2.6,4.41,3.9a6.57,6.57,0,0,1,1,1.08c.51.73.26,1.35-.61,1.52a3.94,3.94,0,0,1-1.49,0c-3.11-.69-6.21-1.43-9.32-2.14a23.58,23.58,0,0,0-3.08-.6c-1.1-.11-1.52.57-1,1.54.6,1.13,1.3,2.19,1.94,3.3A5.77,5.77,0,0,0,39.2,249a25.6,25.6,0,0,1,3,1.56,4,4,0,0,0,4.29.1C51.71,248.12,57,245.74,62.22,243.28ZM156.17,89.21c.91,4,1.65,8.13,2.51,12.19.55,2.53,1.2,5,1.85,7.74a3,3,0,0,1-.45-.48c-1.53-2.8-3.25-5.53-3.75-8.76s-.93-6.69-1.44-10a33.69,33.69,0,0,0-.93-4.68,8.42,8.42,0,0,1,.09-5.23c.58-1.68,1-3.41,1.49-5.11a2.43,2.43,0,0,1,.31-.52c.54,2.61,2.37,3,4.49,2.92h.14c1.93,0,2.72.82,2.58,2.76a4.21,4.21,0,0,1-2.32,3.78,11.17,11.17,0,0,0-3.12,2.39,10.19,10.19,0,0,1-.88.86A1.9,1.9,0,0,0,156.17,89.21Zm4-7.6a3.73,3.73,0,0,0,1.17-2.82l0,0v0l.48.29.29.17-.67-1.5-.22.08.12,1-.05,0h0l-.75-.46C160.47,79.4,160.34,80.42,160.19,81.61Zm1.16-2.82h0ZM118.29,238.93c.51-2,1.37-3.85,2.15-6a2.34,2.34,0,0,0-.43.22q-4.49,4.71-8.94,9.45a5,5,0,0,0-1,1.44c-1.19,3-2.33,6-3.49,9a1.14,1.14,0,0,0,.79-.38c2.29-2.42,4.54-4.88,6.89-7.24A14.11,14.11,0,0,0,118.29,238.93ZM157,66.32a11.8,11.8,0,0,0-4.65-3.22c1.17,1,2.33,2,3.51,3C156.13,66.37,156.41,66.73,157,66.32Zm-16.44,2.52a11.78,11.78,0,0,0,3.22,2A7.83,7.83,0,0,0,140.55,68.84ZM79.64,33.41c-3.2,1-5.78,2.69-6.84,6.08C74.68,37,77.22,35.28,79.64,33.41ZM141.32,145.1c.66-1,1.2-2,.67-3.11-.37-.82-.78-1.62-1.19-2.42-.24-.46-.5-.91-.75-1.36l-.32.13c.31,1.08.67,2.14.93,3.22S141.08,143.81,141.32,145.1ZM59.15,49.85a2.78,2.78,0,0,0,2.2.91,10,10,0,0,1-3.91-6.46,11.59,11.59,0,0,1,1-7.44,12.4,12.4,0,0,1,5.39-4.92,9.08,9.08,0,0,0-8.28,8.85A10.75,10.75,0,0,0,59.15,49.85ZM98.66,15.71l.35.86.17-.07c-.12-.28-.23-.57-.34-.86Z"/></g></g></svg>