<svg xmlns="http://www.w3.org/2000/svg" viewBox="0 0 210.16 242.3"><title>Asset 11</title><g id="Layer_2" data-name="Layer 2"><g id="Layer_1-2" data-name="Layer 1"><path d="M208.94,172.08a60.76,60.76,0,0,0-11.87-4.88c-.73-.2-1.45-.44-2-.62a16.11,16.11,0,0,0,0-1.85,5,5,0,0,0-2-3.47,14.4,14.4,0,0,0-3.27-1.94,46.33,46.33,0,0,0-4.66-1.36c-.08-.42-.21-1-.28-1.49a5.86,5.86,0,0,0-2.08-3.74,10.7,10.7,0,0,0-5.95-2.51,12.57,12.57,0,0,1-2.91-.68,17.34,17.34,0,0,0-6.28-1.16,17.59,17.59,0,0,0-6.4,1.31,2,2,0,0,1-2-.21c-1.15-.75-2.36-1.4-3.53-2.11-.45-.27-.87-.61-1.31-.92a3.51,3.51,0,0,1,.25-.62,7.3,7.3,0,0,0,1.22-5,20.52,20.52,0,0,0-.16-3.14,5,5,0,0,1,.92-4,5.78,5.78,0,0,0,.89-4.83c-.19-.8-.34-1.61-.54-2.41a4.43,4.43,0,0,1,.47-3.54,10.13,10.13,0,0,0,1.15-7.4c-.29-1.43-.69-2.84-1-4.25a7.65,7.65,0,0,1-.21-4.19,9.29,9.29,0,0,0-.82-7.53,5.75,5.75,0,0,1-.24-5.26,16,16,0,0,0,1.18-3.91,8,8,0,0,1,2.27-4.7c.66-.69,1.3-1.41,2-2.1,1.11-1.15,2.28-2.25,3.34-3.44a8.94,8.94,0,0,0,2.47-7.81,27.31,27.31,0,0,0-1.28-4.31c-.47-1.33-1.09-2.61-1.63-3.92a2.29,2.29,0,0,1,.56-2.74,19.77,19.77,0,0,0,1.56-1.74,11.7,11.7,0,0,0,2.77-10.06,26,26,0,0,0-.82-3,8.79,8.79,0,0,1-.5-3.63,51.07,51.07,0,0,0-.06-9.17,12.29,12.29,0,0,0-4.87-9.13,17.61,17.61,0,0,0-5.29-2.81,5.38,5.38,0,0,1-2.5-1.58,13,13,0,0,0-6.7-4,8.06,8.06,0,0,1-5.23-4.09c-.49-.87-.95-1.77-1.48-2.62a6.76,6.76,0,0,0-4.6-3.16,9,9,0,0,1-1.93-.66A38.79,38.79,0,0,0,117,2.45,3.82,3.82,0,0,1,115,2,18.73,18.73,0,0,0,111.83.62,18,18,0,0,0,103,.48,53,53,0,0,0,88,6.06,7.7,7.7,0,0,1,85,7,53.15,53.15,0,0,0,74.39,9C68.11,11,63.82,15,61.88,21.35A4.23,4.23,0,0,1,60.94,23a148.78,148.78,0,0,0-14.89,18.4,15.64,15.64,0,0,0-2.55,10.8c.11,1.08.29,2.17.44,3.25.3,2.17.48,4.36.94,6.5a3.71,3.71,0,0,1-.57,3.15,20.24,20.24,0,0,0-2.85,17c1.07,4.09,3.69,7.18,6.87,9.84.65.55,1.34,1.08,2,1.65-.11.47-.21.9-.32,1.34a24.23,24.23,0,0,0-.39,9.52,14.22,14.22,0,0,0,12,11.82c1.12.17,2.24.26,3.51.4q-.3,15.39-.59,30.73a48.56,48.56,0,0,0-9.12,2.56c-4,1.6-7.73,3.49-10.72,6.68a6.92,6.92,0,0,1-2,1.2c-1.47.73-3,1.33-4.44,2.13a41.85,41.85,0,0,0-14.31,13.5,5.93,5.93,0,0,1-3,2.35A58.59,58.59,0,0,0,.91,188.74c-.34.34-.81.76-.85,1.18-.11,1.19,0,2.4,0,3.83a63.14,63.14,0,0,1,9.6-8.46,52.32,52.32,0,0,1,11.24-6.09c-.16.43-.2.61-.28.77a70.41,70.41,0,0,0-6,20.1,108.68,108.68,0,0,0-1,21.85,1.7,1.7,0,0,0,.21.91A43.41,43.41,0,0,0,17,226.61c0-.54,0-.76,0-1-.14-1.64-.34-3.27-.41-4.91A111.63,111.63,0,0,1,17.25,202a70.89,70.89,0,0,1,5.55-20.11c3.78-8.38,9.33-15.22,17.49-19.73.25-.14.51-.24,1.05-.49-.3.51-.43.74-.57,1A48.09,48.09,0,0,0,36,171.56,82.7,82.7,0,0,0,30.25,200a180.56,180.56,0,0,0,.19,18.9,204.79,204.79,0,0,0,2.28,20.82c.14.83.34,1.66.53,2.55l1.51-.07c-.27-3.79-.6-7.46-.78-11.14s-.24-7.3-.26-10.95a98.14,98.14,0,0,1,.35-11.25c1.79,7.38,3.45,14.43,5.2,21.46.92,3.67,2,7.31,3,11,.12.45.18,1,.78,1a13,13,0,0,0,3-.09c-2.25-7.34-4.37-14.58-6.12-21.92.5.88.91,1.79,1.32,2.7A190.45,190.45,0,0,0,50.93,241c.83,1.41,1,1.48,2.81,1-.21-.46-.4-.92-.62-1.36a174.74,174.74,0,0,1-10.77-25.42,99.37,99.37,0,0,1-4.85-22.55,45.49,45.49,0,0,1,3.42-21c.17-.41.41-.79.73-1.42a6.77,6.77,0,0,1,0,.81,82.22,82.22,0,0,0-.8,24.41,74.58,74.58,0,0,0,6.41,23.38,56.57,56.57,0,0,0,5.59,9.57c.19.26.34.62,1,.48-.52-1-1-1.82-1.46-2.7a90.68,90.68,0,0,1-9-52.9,54.44,54.44,0,0,1,2.16-10.43,14.5,14.5,0,0,1,3.71-6.31,23.38,23.38,0,0,1,11.29-5.44c-.92.57-1.89,1-2.83,1.54a19.41,19.41,0,0,0-8.7,8.44,25.64,25.64,0,0,0-2.63,9.58,51.12,51.12,0,0,0,.49,11.19,87.29,87.29,0,0,0,11.23,32A89.51,89.51,0,0,0,73,232.38l3,2.85-4.9,3.49a4,4,0,0,1-.45-.29,5.21,5.21,0,0,1-.56-.59,113.69,113.69,0,0,1-17.76-27,47.79,47.79,0,0,1-3.82-11.24c0-.08-.17-.13-.5-.36.17,1.21.28,2.19.46,3.17a61.83,61.83,0,0,0,5.74,16.2,108.36,108.36,0,0,0,12.07,18.56l2.42,3.13-2.31,2c2.31,0,4.25.06,5.86-1.4a15.17,15.17,0,0,1,1.84-1.18,100.25,100.25,0,0,0,24-22.21,47.9,47.9,0,0,1,8.52-8.67c.23-.17.49-.28,1-.56-.21.44-.27.6-.36.75a110.78,110.78,0,0,1-12.47,16.46c-5,5.35-10.26,10.41-15.73,15.26-.38.35-.71.76-1.3,1.38.91.08,1.48.18,2.05.18,3.15,0,6.31,0,9.46,0a1.78,1.78,0,0,0,1.82-1.07c5.46-9.82,11.32-19.4,17.33-28.89A423.75,423.75,0,0,1,132.76,177a158.79,158.79,0,0,1,11.45-13.27c.38-.39.79-.75,1.19-1.12a4.84,4.84,0,0,1-.77,1.65c-4.57,7.1-9.26,14.13-13.69,21.32q-12.85,20.86-25.48,41.88c-2.62,4.33-5,8.79-7.53,13.2-.26.44-.65.88-.49,1.47,1.45.15,1.44.15,2.22-1.06,5.46-8.49,10.82-17,16.39-25.45,10.26-15.49,20.64-30.9,31-46.34.25-.37.54-.72.82-1.08a2.62,2.62,0,0,1-.43,1.16q-13.81,23-26.08,46.88c-4.2,8.16-8.19,16.42-12.26,24.63-.18.38-.55.74-.28,1.33h7.65c1.55,0,1.55,0,2.11-1.52,5-13.48,10.34-26.8,16.3-39.89a290.12,290.12,0,0,1,17.8-34.07,60.15,60.15,0,0,1,9.78-12.47,6.06,6.06,0,0,1,3.45-1.77c1.22-.13,2.45-.25,3.67-.34a6.34,6.34,0,0,1,1,.13c-1.46,1-2.75,1.85-4,2.77a22.94,22.94,0,0,0-5.15,5.07,2.19,2.19,0,0,0,0,3,2.45,2.45,0,0,0,3,.07,5.1,5.1,0,0,0,.92-.82c.43-.47.81-1,1.24-1.46,1.46-1.63,2.86-3.32,4.42-4.85a12.33,12.33,0,0,1,3-2.07,4.36,4.36,0,0,1,3.81-.15c-.31.22-.52.38-.74.51a14.11,14.11,0,0,0-5.49,5.61c-.63,1.16-1.22,2.35-1.76,3.55a170.05,170.05,0,0,0-6.36,16.75c-6.68,20.08-12.47,40.43-18.19,60.8a8,8,0,0,0-.14,1.18h4.06c.23-.72.44-1.32.62-1.93,4.6-15.61,9.12-31.25,13.8-46.84,2.42-8,4.95-16,8.13-23.82a38.19,38.19,0,0,1,3.51-7.25,7.39,7.39,0,0,1,2.51-2.46c-.15.42-.16.51-.2.59-.6,1-1.23,1.92-1.78,2.92a17.06,17.06,0,0,0-1.37,2.82,1.71,1.71,0,0,0,2.16,2.2,4.27,4.27,0,0,0,1.63-.95c.77-.71,1.43-1.54,2.14-2.3a15.13,15.13,0,0,1,1.54-1.56,2.49,2.49,0,0,1,4.19,1.5,5.58,5.58,0,0,1,.06,2.3c-.48,2.23-1,4.46-1.65,6.63q-10.17,33.36-19.54,67c-.1.33-.14.67-.23,1.1h8.32q4.49-16.72,9-33.42c3-11.17,5.91-22.34,8.83-33.42.23,5.75.34,11.6.73,17.42s1,11.72,1.63,17.58c.67,6.73,2.42,16,3.18,17,.85-1.52,1.71-3,1.41-4.87a49.74,49.74,0,0,1-.43-5.19c-.5-9.76-.94-19.52-1.46-29.27-.26-5.06-.65-10.12-1-15.17-.06-.95-.09-1.9-.14-3a53.07,53.07,0,0,1,15.28,6.56c0-.92,0-1.63,0-2.34A2,2,0,0,0,208.94,172.08ZM154.47,89.21c-.56,2.57-1.36,5.1-2.06,7.64l-.28,0c-.18-.55-.35-1.1-.58-1.8a4.5,4.5,0,0,0-.77.59,5.13,5.13,0,0,0-1.14,3.7c.09,1.36.27,2.73.46,4.08a9.53,9.53,0,0,1-.81,5.61c-1.27-1.76-2.44-3.31-2.69-5.37a7.59,7.59,0,0,0-.8-2c-1-2.16-2-4.29-3-6.46a7.15,7.15,0,0,0-2.5-3.34,2,2,0,0,1-.76-1.21c-.5-3.15-1-6.31-1.38-9.47a6.45,6.45,0,0,1,.13-1.32,8.53,8.53,0,0,1,.71.93c.31.61.57,1.25.88,1.86a8.67,8.67,0,0,0,7,4.8,11.08,11.08,0,0,0,2.75-.08c-1.73-1.1-3.67-1.78-5.77-2.84,1-.12,1.74-.21,2.46-.28a6.45,6.45,0,0,0,4.28-2.46c.34-.37.61-.8.94-1.18.6-.7,1.1-.76,1.69,0a5.61,5.61,0,0,1,1,1.89A13,13,0,0,1,154.47,89.21ZM152,124.42c-.33,1.19-.61,2.22-1,3.53C150.22,126.16,150.46,125.3,152,124.42ZM140.7,108.33c-.16.6-.3,1.11-.47,1.73-.66-1.06-.1-2.45-1.2-3.4l-.9,3.85c-.56-1.9-1.08-3.57-1.52-5.27-.21-.81-.55-1.75.38-2.37s1.57,0,2.24.47a6.54,6.54,0,0,1,2.75,4.37,2,2,0,0,1,0,.55,5.56,5.56,0,0,1-.19.68Zm-.47,17v-5.12A3.15,3.15,0,0,1,140.23,125.33Zm-.67-24.8,1.11-2a9.41,9.41,0,0,1,2.48,3.23c-.07.07-.13.15-.19.22Zm2.14,3.56a7.26,7.26,0,0,1,1.24.43,10.59,10.59,0,0,1,5.63,8.25,10.48,10.48,0,0,1-1.12,6.7c-.18-1-.4-1.92-.51-2.88-.14-1.18-.16-2.37-.26-3.55a4.17,4.17,0,0,0-1-2.56c-.35,1-.67,1.83-1,2.7C144.56,109.92,143,107.19,141.7,104.09Zm-1.95-27.27a7.08,7.08,0,0,1,.68-.57c.45-.3.93-.57,1.51-.93.87,1.55,1.86,3,3.85,2.79s2.8-1.51,3.44-3.27l1.51,1.44C148.69,80.56,142.38,79.73,139.75,76.82Zm10.68,3.56a7.35,7.35,0,0,1-2.12,1.87A6.75,6.75,0,0,1,142,82a2.36,2.36,0,0,1,2.06-1.38,10.45,10.45,0,0,0,6-1.89c.06,0,.17,0,.29,0A1.09,1.09,0,0,1,150.43,80.38Zm2.76-6c-1-.68-1.77-1.33-2.65-1.85s-1.78-.89-3-1.47h3.36c-.92-1.93-2.73-1.83-4.21-2.4,2.78-1.41,8.13-.56,9.93,1.73C155.49,71.68,154.36,73,153.19,74.34Zm9,4.39a10.34,10.34,0,0,1-1.27,1.61c-1,1.1-2,2.16-3.2,3.37a5.21,5.21,0,0,1,.87-2.86,8,8,0,0,1,.66-.87,4.67,4.67,0,0,0,1.2-4,5.25,5.25,0,0,1,.5-3.45A4.79,4.79,0,0,1,162.16,78.73ZM159.28,72c-.18.81-.35,1.62-.53,2.43A2.2,2.2,0,0,1,159.28,72Zm5.37,2.58c-.69-2.33-1.41-4.74-2.13-7.16C163.74,69.66,165,71.91,164.65,74.54Zm1.59-25.94A9.33,9.33,0,0,1,166,55a13,13,0,0,1-2.89,4.28,13.61,13.61,0,0,1-1.28,1.24A7.21,7.21,0,0,0,159,66.61a4.9,4.9,0,0,1,0,.54c0,.09,0,.18-.24.27a35.17,35.17,0,0,1,.06-4.71,6.56,6.56,0,0,1,1.31-2.5,16.59,16.59,0,0,1,1.69-2,15.94,15.94,0,0,0,4.29-8.68C166.12,49.35,166.15,49.13,166.24,48.6ZM151.61,20.28a9.91,9.91,0,0,1,1.86,1.8,6.8,6.8,0,0,0,3.43,2.36,12.39,12.39,0,0,1,4.31,2.3,11.56,11.56,0,0,1,4,8.69c.1,2.32.08,4.65,0,7a7.72,7.72,0,0,1-2.15,5.16c.26-1.38.51-2.47.67-3.58a22.06,22.06,0,0,0-1.51-11.93,8.4,8.4,0,0,0-5.27-5.2,5.73,5.73,0,0,0-1.6-.23c-.18,0-.44.27-.53.47s.19.4.36.48a3.44,3.44,0,0,0,.8.16,7.06,7.06,0,0,1,4.78,3.57,4.46,4.46,0,0,1,.57,3,8.24,8.24,0,0,0-4.53-5.18A18.75,18.75,0,0,1,158.18,43l-.32,0c-.07-.46-.16-.93-.22-1.39a12.6,12.6,0,0,0-3.88-8.36,6.42,6.42,0,0,1-2.23-4.41,2.46,2.46,0,0,0-.15-.53,2.36,2.36,0,0,0-.25-.38l-.92,2.49c-1.16-1.32-1-3.12.76-8-1.19-.77-2.32-1.68-2.32-3.48A5.93,5.93,0,0,1,151.61,20.28Zm-6.54,6.94c.32,4.53-1.72,7.89-5.12,10.61a12.49,12.49,0,0,1-1.11.8,23.32,23.32,0,0,0-5.2,4,5.89,5.89,0,0,1,1.74-3.5c.91-1,1.86-2,2.77-3a12.83,12.83,0,0,0,2-14.52c-.11-.24-.2-.5-.37-.93a6.33,6.33,0,0,1,1,.25A7.26,7.26,0,0,1,145.07,27.22Zm-6.71-3.91c2.15,1.12,3.16,5.27,1.71,7.63a11.68,11.68,0,0,1-2.43-5.82A2.14,2.14,0,0,1,138.36,23.31ZM139,10c.78,1.12,1.49,2.28,2.18,3.46a18.59,18.59,0,0,1,1.14,2.33c.25.6.21.62-.4,1.21-.8-.55-4.43-6.27-4.85-7.71A1.48,1.48,0,0,1,139,10ZM121.26,5.1a27.52,27.52,0,0,1,12.25,2.74A7.82,7.82,0,0,1,136.87,11c.79,1.39,1.58,2.78,2.24,4.23a3.51,3.51,0,0,1,0,3.29,6.21,6.21,0,0,1-.62-.69c-1.59-2.35-3.16-4.7-4.73-7a8.94,8.94,0,0,0-4.22-3.56c-.49-.19-1-.35-1.37.43a10.87,10.87,0,0,0,1.28.89c3.7,1.81,5.19,5.09,5.9,8.87a4.81,4.81,0,0,1-1.53,4.6c-.82.77-1.7,1.48-2.67,2.32a3.33,3.33,0,0,1,.53-2.64c.29-.52.7-1,1-1.49a7.07,7.07,0,0,0,.38-1.31l-.3-.15-3.3,3.87V16.63l1.17.15a4.25,4.25,0,0,0-.8-4.49,6.12,6.12,0,0,0-3.59-1.84c-2.88-.48-4.17-2.52-5-5C121.16,5.36,121.22,5.26,121.26,5.1Zm1.81,10.33a1.17,1.17,0,0,1,.58-1.27,1.09,1.09,0,0,1,1.35.36,7.34,7.34,0,0,1,1.39,2,9.18,9.18,0,0,1-6.68,12.55c-.27.05-.54,0-1.16.08.39-.43.56-.63.75-.81A13.21,13.21,0,0,0,123.18,19C123.21,17.8,123.12,16.61,123.07,15.43Zm3,13.24a31.79,31.79,0,0,0,3.49-3.25c0,3.8-4.71,7.17-7.9,5.54A35.35,35.35,0,0,0,126.07,28.67ZM117.65,4.85A5.5,5.5,0,0,1,121,7.9C118.69,7.58,117.57,6.52,117.65,4.85ZM67.18,17.05a17.56,17.56,0,0,1,8.71-3.33L77,13.59s.06-.05.19-.17c-1.44-.62-2.92-.44-4.64-.53a8.63,8.63,0,0,1,.91-.57,36.27,36.27,0,0,1,9.5-2.43,27.36,27.36,0,0,1,3-.24A8.91,8.91,0,0,1,87.6,10c-1.11.76-2.38.67-3,1.82,3.29-1.21,5.65.15,7.7,2.52a4.48,4.48,0,0,0-1.54-2.55c-.46-.44-1-.81-1.44-1.27-.82-.84-.75-1.56.17-2.3a9,9,0,0,1,.91-.61c2.38-1.4,3.69-1.28,5.84.5.59.5,1.19,1,1.79,1.48a5.35,5.35,0,0,0,5.79.69,5,5,0,0,0,.74-.34c4.22-2.6,8.13-1.51,11.87,1,1.71,1.16,2.31,2.13,3.59,5a4,4,0,0,0-.62-3.15A13.05,13.05,0,0,0,113,7.18c-2.7-1.25-5.53-1.28-8.66-1,.72.88,1.67.76,2.55,1.2a11.16,11.16,0,0,1-5.59,1.94C98.85,9.3,97,8,95.38,6.22a8.57,8.57,0,0,1,3.1-1.8,24.77,24.77,0,0,1,9.78-1.63,13.71,13.71,0,0,1,8.63,4c.27.24.5.53.76.79,6.85,6.92,3.22,18.05-3.56,22a4.51,4.51,0,0,1-.59.19c.28-.43.45-.71.64-1a14.51,14.51,0,0,0,2.33-11.86,5.73,5.73,0,0,0-2.26-3.68c.26.54.44.88.6,1.24a5.71,5.71,0,0,1,.41,3.86,11.92,11.92,0,0,1-9,8.05c1.5-1,2.84-1.74,3.31-3.31a5.87,5.87,0,0,0-.3-4.39c-.75-1.5-2.44-2.68-3.62-2.42.31.33.57.62.85.89a4.27,4.27,0,0,1-.78,7.05,17.65,17.65,0,0,1-2.91,1.16c-.46.17-1,.26-1.48.4a2.15,2.15,0,0,0,.75,2,4.28,4.28,0,0,0,3,1.4,10.41,10.41,0,0,0,5.34-.87c.54-.24,1.09-.46,1.79-.76A6.65,6.65,0,0,1,112,28.6a5.68,5.68,0,0,1-6.5,4c-.66-.12-1.32-.31-2.21-.52a3.61,3.61,0,0,0,1.56,2.08,6.4,6.4,0,0,0,5.78.56,14.24,14.24,0,0,0,2-.92,2.61,2.61,0,0,1,2.93.08,11.54,11.54,0,0,0,6.92,1.75,10.34,10.34,0,0,0,9-5.41c.24-.43.5-.86.77-1.32a1.75,1.75,0,0,1,.56.18,10.53,10.53,0,0,1,3,3.87,2.62,2.62,0,0,1-.64,3,14.12,14.12,0,0,1-1.69,1.38,6.26,6.26,0,0,0-2.16,2.77,3.83,3.83,0,0,0,2.2,5.19,8.68,8.68,0,0,0,7.16.06,8.86,8.86,0,0,0,5.43-6.6,32.43,32.43,0,0,0,.67-5c.11-1.4,0-2.82,0-4.44.27.4.44.68.64.94a23.78,23.78,0,0,0,2.86,3.82c3.17,2.85,4.44,6.5,4.9,10.54a35.37,35.37,0,0,1,0,4.49,3.31,3.31,0,0,1-.27,1.06,1.81,1.81,0,0,1-2.44,1.37,10.9,10.9,0,0,1-2.08-.65c-1-.41-2-.92-3-1.37s-2-.92-3-1.36a10.14,10.14,0,0,0-6.67-.67,18.94,18.94,0,0,1-9.74-.42c-1.09-.3-2.2-.6-3.32-.8a9.27,9.27,0,0,0-2.17-.11,1.94,1.94,0,0,0-1.79,1.11,10,10,0,0,0,1.63.7A59.35,59.35,0,0,0,134.2,50a44.46,44.46,0,0,0,5.88-.21,10.57,10.57,0,0,1,5.44,1,38,38,0,0,0,4.3,1.75,23.46,23.46,0,0,0,3.77.55c1.21.15,1.4.32,1.31,1.56a7.38,7.38,0,0,1-.41,2.14,3.53,3.53,0,0,0,.14,2.76c.64,1.59,1.18,3.24,1.75,4.86l-.22.16-.93-.61a7.12,7.12,0,0,0-5.06-1.22c-4,.57-8,1-12.07,1.62a2,2,0,0,1-1.76-.49c-1.52-1.37-2.4-3-1.89-5.09a13.72,13.72,0,0,0,.23-2.32c.1-1.52.23-1.74,1.75-2.18s2.83-.71,4.24-1.09a1.18,1.18,0,0,0,.74-.63c-2.29.15-4.57.34-6.86.45a25.18,25.18,0,0,1-6.93-.67c-2.23-.52-4.4-1.28-6.6-1.94,0,.1-.1.2-.16.3a6.34,6.34,0,0,0,.76.61,20.64,20.64,0,0,0,6.3,2.16c1,.22,2,.48,2.9.76a2.61,2.61,0,0,1,1.9,2,13.84,13.84,0,0,1,.46,2.27c.25,3.35-1.9,4.93-4.31,5.68a1.33,1.33,0,0,1-.4,0c-.53,0-1.18.23-1.41-.48s.36-.86.76-1.15c.73-.55,1.51-1,2.18-1.64a4.61,4.61,0,0,0,1.55-3.55c-.23.21-.4.3-.45.43-1.12,2.71-3.34,4-6,4.71a11.43,11.43,0,0,1-5.69-.13c-2.3-.56-4.61-1.08-6.92-1.61a12.77,12.77,0,0,0-9.14,1.29,34.69,34.69,0,0,0-6,4.22c-1.66,1.41-3.3,2.85-5,4.29l-.83-1.44c-1,1.71-.48,3.15,1.26,3.66.88.26,1.77.45,2.62.76a11.74,11.74,0,0,1,1.67,1c-2,.65-3.79.22-5.66.38a3.44,3.44,0,0,0,2.7,1.54,3,3,0,0,0,1.23,0,2,2,0,0,1,2.29,1,4.38,4.38,0,0,0,2.26,1.71c-.27-.44-.57-.86-.82-1.31a1.53,1.53,0,0,1,.78-2.45,3.46,3.46,0,0,1,2.66-.16,6,6,0,0,1,1,.44,25.48,25.48,0,0,0,6.76,2.56,3.71,3.71,0,0,1,2.6,1.63c-2.34,2-5,1.84-8,1,1.51,1.69,3.5,1.54,5.11,2.31-1.67,1-3.36,1.42-7.85,2a6.35,6.35,0,0,0,1.15.35A22.38,22.38,0,0,0,110.6,85,6.71,6.71,0,0,0,115,81.58c.67-1.3,1.33-2.6,2-3.88a3.91,3.91,0,0,0,.22-2.67c-.08-.47-.19-1,.36-1.17a1.67,1.67,0,0,1,1.23.29,4.9,4.9,0,0,1,1.11,1.2c1.08,1.51.93,2.46-.5,3.63a16.46,16.46,0,0,0-1.53,1.37,2.46,2.46,0,0,0-.65,1.34,2.7,2.7,0,0,0,.59-.17,12.09,12.09,0,0,0,4.5-4.31,13,13,0,0,1,.79-1.28,1.82,1.82,0,0,1,3-.2A6.2,6.2,0,0,1,127,77.1c.65,1.36,1.26,2.74,1.89,4.11a5.75,5.75,0,0,0,1,1.59c-.56-2.14-1.16-4.29-1.69-6.44a29.79,29.79,0,0,1-.66-3.49,2.75,2.75,0,0,1,1.81-3.18,5.41,5.41,0,0,1,3.46-.43,2,2,0,0,1,1.78,1.93c.25,2,.55,4.07.83,6.11a144,144,0,0,0,3.1,17.23,2.58,2.58,0,0,1,.08.26c.88,3.2-1.48,4.83-4.29,4.1l-.13,0a2.86,2.86,0,0,0-3.46.48c-.86-.66-1.67-1.3-2.51-1.92A7.78,7.78,0,0,0,123,95.73a13.72,13.72,0,0,0-2.66.57,10.73,10.73,0,0,0-1.34.55,4.19,4.19,0,0,1,1-6.11,1.84,1.84,0,0,1,1.83-.06c.72.38,1.41.82,2.09,1.27.47.31.91.68,1.54,1.16a3.31,3.31,0,0,0-1.89-3.19,5.88,5.88,0,0,0-5.76.19,8.61,8.61,0,0,0-3,2.61c-1,1.32-1.94,2.66-2.9,4-1.16,1.59-2.28,3.2-3.49,4.75a6.06,6.06,0,0,1-1.71,1.52,7.31,7.31,0,0,0-3.43,3.76,6.73,6.73,0,0,1-2.85,3.39c-1,.63-2,1.29-3,2-.35-.39-.65-.66-.89-1a19.22,19.22,0,0,0-7.41-5.93l-3.55-1.76c-3.16-1.56-5.18-4.25-7-7.13a3.54,3.54,0,0,1-.36-.88c-.25-.89-.12-1.17.72-1.65.12-.07.24-.14.37-.2a7.06,7.06,0,0,0,4.28-7.15,3.86,3.86,0,0,1,.78-2.54c2.81-3.8,3-7.91,1.25-12.18-.46-1.13-1.07-2.19-1.64-3.33,1.11-.14,2.11-.19,3.09-.4a5.48,5.48,0,0,0,4.52-5.14,9.86,9.86,0,0,0-.79-4.68,8,8,0,0,1-.7-3.86,2.07,2.07,0,0,1,.73-1.56,5.42,5.42,0,0,0,2.07-4.43,2,2,0,0,1,.76-1.52,23.33,23.33,0,0,0,2.14-2.31,10.86,10.86,0,0,0-.3-13.79c-.54-.66-1.07-1.33-1.69-2.11.48-.39.83-.73,1.23-1a7.87,7.87,0,0,0,3.3-6.19,3.21,3.21,0,0,0-1.55-3.14c0,.84,0,1.51,0,2.16-.1,1.39-.54,1.84-1.91,2.06-2.46.4-4.47-.72-5.68-3.18a3,3,0,0,0,1.62,4.19c.61.29,1.29.45,1.93.68a4.23,4.23,0,0,1,1,.45c.53.37.48.95-.12,1.15a5.2,5.2,0,0,1-5.22-1.16,3.71,3.71,0,0,1-.71-4.31,5.26,5.26,0,0,1,.75-1.45c.6-.76.49-1.38-.24-2.14-.33.41-.65.77-.93,1.16a2.73,2.73,0,0,1-3.27,1,10.54,10.54,0,0,1-2.1-1,14.79,14.79,0,0,1-1.66-1.19A6.07,6.07,0,0,0,73.55,16c-2,.89-4.07,1.86-6.1,2.78-.64.29-1.31.53-2.18.88A5.1,5.1,0,0,1,67.18,17.05Zm66.91,50.63a18.42,18.42,0,0,0-6-.19l-.09-.27,5.55-4.85a31.64,31.64,0,0,1,2.11,3.12A1.49,1.49,0,0,1,134.09,67.68Zm-23.5-.19c-3.13,1.36-6.28,2.66-9.38,4.09A5,5,0,0,1,96,71.26c4-4.61,8.49-5.84,15.38-4.24C111.07,67.21,110.84,67.38,110.59,67.49Zm3.49,2h-2.93A3,3,0,0,1,114.08,69.53Zm-7.51,3.35a12.24,12.24,0,0,1,.76,1,3.52,3.52,0,0,0,6.33-.54,7.1,7.1,0,0,1,.3-.67,2.66,2.66,0,0,1,1.75,1.86c-3,3.52-9.36,2.8-12-.65Zm17,31.87-1.16,1.6-.3-.19a11.66,11.66,0,0,1,1.69-4.15.87.87,0,0,1,.83-.15,3.33,3.33,0,0,1,1.27,1.13c1.12,2.22-1,5.28-3.66,5.2.62-1.06,1.58-1.91,1.7-3.16Zm-1.35-1.9a4.21,4.21,0,0,1-.42,1.43c-.59,1.17-1.23,2.31-1.87,3.45s-1.67.72-2.08-.26a1.83,1.83,0,0,1-.16-.65,7.34,7.34,0,0,1,1.6-5.07,3.33,3.33,0,0,1,1.09-.7C121.65,101,122.34,101.78,122.23,102.85Zm.52,11a14.82,14.82,0,0,1,3.12.17,32.28,32.28,0,0,0,7.48.33c.66,0,1.38-.13,1.86.72a5.87,5.87,0,0,1-3.78,1.55,24.87,24.87,0,0,1-8-.9l-2.88-.67A2.34,2.34,0,0,1,122.75,113.8Zm5.12-3.32c.15-.28.22-.43.32-.58.6-.9,1.21-1.79,1.89-2.8l2.53,3.34A6.79,6.79,0,0,1,127.87,110.48Zm-18.25,2.59-.74-.55-.75-.51c-1.53,2.56-.43,5,.19,7.66l-2.67-3c-.23,2.22.79,3.86,1.15,5.71a2.78,2.78,0,0,1-.55-.59,48.53,48.53,0,0,1-2.32-4.32,8.39,8.39,0,0,1-.19-6,12.77,12.77,0,0,1,6.23-7.65,38.13,38.13,0,0,1,3.87-1.7,5.85,5.85,0,0,1,1.06-.22c-.86,2.93-1.65,5.68-2.47,8.42,0,.14-.27.22-.4.32-.73-.6-.73-.6-.65-4.44C109.69,108.33,109.9,110.69,109.62,113.07Zm-10,11a8.18,8.18,0,0,0,1,2.37,2.51,2.51,0,0,0,.59.75,14.65,14.65,0,0,1,4.52,7.66,17.55,17.55,0,0,0,1.11,2.52l-1.18.08a20.1,20.1,0,0,0-2.58.22,2.35,2.35,0,0,0,0,4.59c1,.23,2.06.35,3.09.52.27,0,.55,0,.82.09,1.22.26,1.38.47,1.53,1.72.19,1.59.4,3.17.6,4.75a1.22,1.22,0,0,1-.07.3c-.4-.59-.74-1.17-1.16-1.69a8.18,8.18,0,0,0-4.15-2.52c-.83-.25-1.68-.45-2.5-.69a4.73,4.73,0,0,1-3.61-4.61,4.9,4.9,0,0,0-.18-1.18,4.76,4.76,0,0,0-.39,4.24,13.52,13.52,0,0,0,1.23,2.43c.55,1,.59,1.57.08,2s-1.08.09-1.78-.84a9.17,9.17,0,0,1-1.79-7.87c.28-1.23.56-2.46.73-3.73-1.59,1.25-2.06,3.08-2.59,5a2.12,2.12,0,0,1-.63-2.43c.31-.81.74-1.56,1.11-2.35.27-.6.53-1.21.86-2-1.71.58-3.48,3.63-3.7,6.14a9.11,9.11,0,0,0,2.33,6.64l-.22.2c-.36-.3-.75-.58-1.08-.91-2.51-2.45-3.12-5.48-2.6-8.81.32-2.08.74-4.13,1.08-6.2a12.13,12.13,0,0,0,0-1.86c-1.39,1.33-1.79,2.8-2.53,4.1a7.33,7.33,0,0,1,.57-2.91c.29-1,.85-1.9.62-3-1.48,2.37-3.07,4.69-3.56,7.54s.44,5.59,1.42,8.32a9.86,9.86,0,0,1-3-4.6,13.91,13.91,0,0,1-.85-5.64c.1-1.86.26-3.71.39-5.47-1.07.74-2.1,3.7-2.73,8,0-.77,0-1.55,0-2.32a16.36,16.36,0,0,0,.2-2.47c-.53,1.18-1,2.37-1.64,3.72a3.49,3.49,0,0,1-.32-.79,10.47,10.47,0,0,1,2.12-7.85,9.41,9.41,0,0,0,2.08-4.54,6.13,6.13,0,0,0-2.07-5.78c-1.22-1.09-2.34-2.29-3.47-3.48a14,14,0,0,1-1.06-1.54,5.52,5.52,0,0,0-.14,4.06,9.37,9.37,0,0,0,1,1.94,15,15,0,0,1,2.26,7.24,4.76,4.76,0,0,1-.32,2.14c-.67,1.61-1.47,3.18-2.34,5a3.91,3.91,0,0,1-.14-2.52c.24-.88.55-1.74.86-2.6a6,6,0,0,0,.16-3.89,27.21,27.21,0,0,0-2.43-5.79,17.59,17.59,0,0,1-1.44-3.23,8.39,8.39,0,0,1,.39-5.23,22.29,22.29,0,0,0,.92-3.55,13.35,13.35,0,0,0-2,3.84A7.9,7.9,0,0,1,73.2,104c.27-1.1.58-2.19.78-3.32a20.88,20.88,0,0,0-3.11,8.09,19.3,19.3,0,0,1,.24-6.48,39.37,39.37,0,0,0,1.31-8.51,7.3,7.3,0,0,1,1,.33,15.5,15.5,0,0,1,5.64,4.47,21.51,21.51,0,0,0,8,6.66,28.38,28.38,0,0,1,5.11,3.4c2.37,1.89,3.45,3.82,4.38,7.06,1.18-1.76,2.43-3.37,4.61-4.13a6.19,6.19,0,0,1,.14,1.06,21.18,21.18,0,0,0,3.51,12.31,23.88,23.88,0,0,1,1.28,2.26,20.14,20.14,0,0,1,.66,2c-3.92-2.64-6.34-3.3-6.33-11.33a3.58,3.58,0,0,0-.86,2.31A18.73,18.73,0,0,0,99.61,124.09ZM79.8,115.65a2.92,2.92,0,0,1,2,3,3.37,3.37,0,0,1,0,.44,3.87,3.87,0,0,1-.06.46,7.44,7.44,0,0,1-.7,1.95c-.39-2-.78-3.9-1.18-5.84Zm-5.18,2.91-.25.16A4.06,4.06,0,0,1,72.53,115ZM55.68,68.33c1.25.56,2.54,1,3.77,1.62a13.67,13.67,0,0,1,4.65,3.29c-.5-.13-.73-.17-.95-.24-1.64-.55-3.29-1.1-4.92-1.67-1.24-.44-2.51-.85-3.7-1.4-4.16-1.92-6.07-5.56-7.35-9.65l.23-.22,3.12,2.86v-4.7c.67.52,1.19.86,1.64,1.28a63.67,63.67,0,0,0,8,6,41.63,41.63,0,0,1,4.42,3.22c4.17,3.7,5.17,8.31,3.65,13.56,0,.12-.15.21-.32.43l-1.53-6.13c-.19-.75-.37-1.51-.61-2.24a8.55,8.55,0,0,0-5.69-5.85c-1.84-.6-3.76-1-5.65-1.45l-.21.45A15.53,15.53,0,0,0,55.68,68.33Zm9.28-6a4,4,0,0,1,4,1.9A5.11,5.11,0,0,1,69.35,70a3.53,3.53,0,0,1-.32-.66,12.38,12.38,0,0,0-2.85-5.19A14.52,14.52,0,0,1,65,62.34Zm3.23,22.93A8.55,8.55,0,0,0,71.82,80c.57-1.91,1.13-3.83,1.77-6,.24.47.39.71.5,1,.65,1.51,1.31,3,1.93,4.52a12,12,0,0,1,.78,7.23,6.66,6.66,0,0,1-2.91,4.46c.75-1.52,1.8-2.91,1.86-4.69a7.06,7.06,0,0,0-1.23-4.87l-.74,1.52V81.73C72.29,83.66,71.1,86,68,85.63,68.13,85.41,68.13,85.3,68.19,85.27Zm11.93-35a12.87,12.87,0,0,0,4.29,7.44,7.54,7.54,0,0,1,2.23,3.05A8.32,8.32,0,0,1,80.12,50.28Zm5.64,13.8a5.07,5.07,0,0,1-2.67-.86A2.67,2.67,0,0,1,85.76,64.08ZM80,69.42c2.43.7,4.68,5.09,3.73,7.5L81,73.79l-.33.12c1,2.31,1.56,4.62.42,7.11a7.52,7.52,0,0,1-.76-.56,20.64,20.64,0,0,1-6.13-9.7c-.64-2.36-1.54-4.65-2.39-7.15a6.08,6.08,0,0,1,2.82,1.87,6.63,6.63,0,0,1,.77,1.13,9,9,0,0,0,4.82,4.13C80.12,70.22,80.06,69.84,80,69.42Zm31.19,31.38a12,12,0,0,1,5-3.2l1,1.39C115.21,100,113.12,100.15,111.19,100.8Zm3.16,7.44c.4-2,.86-4,1.35-6,.18-.74.81-.92,1.69-.79,0,.48,0,.88-.09,1.27-.25,1.58-.51,3.14-.78,4.71a2.69,2.69,0,0,1-1.26,2.19A1.14,1.14,0,0,1,114.35,108.24ZM88.72,49.36c.31,1.91-.54,3.56-.69,5.4A3.57,3.57,0,0,1,88.72,49.36ZM58.31,29.69c2.33-2.37,4.76-4.66,7.16-7,0,0,.16,0,.24,0l.08.06a0,0,0,0,0,0,0c-.26,3,1,5.6,2.45,8.11,1.11,1.89,2.19,3.8,3.21,5.74a13.27,13.27,0,0,1,1.6,5.06c.08,1,0,2,0,3.21a6.09,6.09,0,0,0,1.25-3.2A11.41,11.41,0,0,0,72.71,35c-.9-1.59-1.92-3.11-2.88-4.66a13.27,13.27,0,0,1-2-4.5c-.54-3,.18-5.54,2.71-7.38.8-.58,1.66-1.18,2.76-.6a3.6,3.6,0,0,1,2.32,3,10.06,10.06,0,0,1-.37,2.41,6,6,0,0,1-.4.95c2-1.41,2.48-3.47,2.4-5.66.72-.32,1,.13,1.38.48a6.86,6.86,0,0,1,1.64,3.27c.24,1,.44,2,.61,2.94A9.8,9.8,0,0,0,84,30.88l1.12,1c1.55,1.42,3.08,2.85,3.71,5l.26-.07A11.52,11.52,0,0,0,89,35.36a8.62,8.62,0,0,0-2.33-4.12,8.5,8.5,0,0,1-2.56-5.15A11.71,11.71,0,0,0,82.8,23c-.41-.9-.89-1.76-1.24-2.72A3.22,3.22,0,0,1,84.09,22a26.74,26.74,0,0,1,1.19,2.61,10.17,10.17,0,0,0,3,4.05c.8.68,1.62,1.35,2.35,2.1a3.85,3.85,0,0,1,1,4.72,4,4,0,0,0,.2,3.61l2.67-5.28c2.39,4.44-.09,9.71-5.41,11.36-2-1.93-2.55-4.86-4.78-7,.17.58.23.9.35,1.2a13.67,13.67,0,0,1,.46,9.37c-.44,1.5-.61,3.08-.91,4.67a4.94,4.94,0,0,1-1-2.51c-.47-2.6-.91-5.21-1.28-7.82a11.22,11.22,0,0,1,.57-4.73c.12-.39.24-.77.4-1.32-.57-.18-1.11-.36-1.66-.52a30.58,30.58,0,0,1-3.79-1.12,7.59,7.59,0,0,1-4.69-6.7,3.17,3.17,0,0,1,.72-2.43A3.59,3.59,0,0,0,74.29,24a5.17,5.17,0,0,0-.84.57,6.29,6.29,0,0,0-1.43,6,11.82,11.82,0,0,0,5.49,7.23c.37.25.79.45,1.18.69.91.58,1,.88.69,1.94a8.29,8.29,0,0,1-.65,1.5c-.49.88-1,1.75-1.56,2.57-3.13,4.45-3.39,9.21-1.56,14.2a3.72,3.72,0,0,1,.24.9,14.8,14.8,0,0,1-2.92-5.26,18.38,18.38,0,0,1-1-6,3.15,3.15,0,0,0-.66,2A15.83,15.83,0,0,0,74,60.07a25.61,25.61,0,0,1,1.85,3.06,10.23,10.23,0,0,1-1-.91,17.89,17.89,0,0,1-4.86-10.77,1.74,1.74,0,0,0-.42-1.1c-.13,2.55-.26,5.1-.4,8a10.28,10.28,0,0,1-.86-.79,10.63,10.63,0,0,1-1.87-4.22,45.54,45.54,0,0,1-.74-7.9c-.11-1.82-.21-3.64-.35-5.46a9.88,9.88,0,0,0-.34-1.88,6.32,6.32,0,0,0-4-4.51,11.49,11.49,0,0,1-2.12-.94A1.81,1.81,0,0,1,58.31,29.69Zm2.48,21.54a6.38,6.38,0,0,1-3.53-3.48,9.56,9.56,0,0,1-.75-4.26A18.07,18.07,0,0,1,58,37a12.35,12.35,0,0,1,.72-1.28,2.17,2.17,0,0,1,1.92,1.46,10.79,10.79,0,0,1,.73,2.88A54.41,54.41,0,0,1,60.79,51.23Zm-12.72-7.6c1.57-2.25,3-4.56,4.57-6.83A5,5,0,0,1,54,35.4c-.25,1.21-.51,2.42-.76,3.63l.26.11a27.1,27.1,0,0,1,3.91-6.46c.94.84,1,.94.52,1.85s-1,1.54-1.44,2.33a30.52,30.52,0,0,0-2.3,4.33,8.79,8.79,0,0,0,2.93,10.07,25.1,25.1,0,0,0,3.11,2,11.8,11.8,0,0,1,3.42,2.6c-1.77-.19-3.45-.35-5.12-.55a18.48,18.48,0,0,1-2.57-.36A7.87,7.87,0,0,1,50,45.18c.13-.55.5-1.08.19-1.84-.23.22-.48.35-.56.55-2.22,5.23-.49,11.22,4.88,13.87a5.57,5.57,0,0,0,3.73.3c.71-.14,1.42-.3,2.14-.4a4.15,4.15,0,0,1,3.48,1c-2.25-.19-4.43.36-6.64.58a7.4,7.4,0,0,1-5.59-2.14,13.18,13.18,0,0,1-3.25-4.19,7.08,7.08,0,0,0-1-1.53c-.17,1.38.59,2.49,1.06,3.76A1.26,1.26,0,0,1,47,54.16a10.82,10.82,0,0,1-.81-2.86A11.18,11.18,0,0,1,48.07,43.63Zm-1,22.95c1.91,1.92,3.83,3.83,5.74,5.73-5.51,1.5-7,5.36-5.08,10A11.74,11.74,0,0,1,47.11,66.58ZM43.69,76.64c.18.56.33,1.13.53,1.68a22.34,22.34,0,0,0,6.09,8.94c1,.93,2,1.87,2.94,2.85.54.55,1,1.19,1.45,1.78l-.33.29C49,88.29,44.14,84,43.69,76.64Zm9.42,27.66c-.9-1-1.26-3.62-.8-5.86C53.31,100.38,53.22,102.28,53.11,104.3Zm.34-6.84A1.28,1.28,0,0,1,53,96c2.34.73,4,1.92,4.62,3.4A8.68,8.68,0,0,1,53.45,97.46Zm10.42,5.22a6.31,6.31,0,0,1-3.48-3.83,4.87,4.87,0,0,1-.28-1.06,12,12,0,0,0-2.17-5,55.59,55.59,0,0,1-3-4.91,13.89,13.89,0,0,1-1.51-7.55A3.64,3.64,0,0,1,54.3,78a1.43,1.43,0,0,1,1.44-.58c.65.18.69.8.69,1.35,0,1.46,0,2.92,0,4.38,0,1.18,0,2.37.07,3.55A6.77,6.77,0,0,0,58.31,91c1.06,1.17,2,2.4,3,3.55a2.38,2.38,0,0,0-.19-2.1,19.16,19.16,0,0,0-1.4-2.35C57.43,86.82,57.28,83.2,58,79.46c.24-1.23.57-1.4,1.84-1.19.62.1,1.22.27,2,.44-.39.92-.68,1.59-1,2.26a10.51,10.51,0,0,0-.8,5.62,4.83,4.83,0,0,0,3,4.11c1.58.72,1.91,1.7,1.17,3.31a4.87,4.87,0,0,1-.31.6c-.23.39-.35.85,0,1.11a1.37,1.37,0,0,0,1.12.15,7.67,7.67,0,0,0,1.59-1.26c.49-.47.85-1.07,1.36-1.53a1.4,1.4,0,0,1,2.44.68,4.44,4.44,0,0,1,.23,1.48,13,13,0,0,1-1,4.93,6.68,6.68,0,0,1-1.12,1.7A3.94,3.94,0,0,1,63.87,102.68Zm62.33,78.6q-7,10.08-14,20.15a5.81,5.81,0,0,1-1.74,1.68,50.36,50.36,0,0,0-11,8.82c-1,1.06-1.06,1.11-2.29.35-3.84-2.38-7.65-4.8-11.47-7.2-.31-.19-.64-.35-1-.52l.46.5a11,11,0,0,0,1.42,1.4c2.85,2.21,5.75,4.36,8.63,6.53.61.47,1.2,1,1.87,1.5a41,41,0,0,1-4.12,4.87c-.35.38-.74.22-1.12,0-1.23-.6-2.51-1.12-3.68-1.81-3.49-2.08-6.94-4.23-10.4-6.35a1,1,0,0,0-.72-.21,14.07,14.07,0,0,0,1.29,1.16q5.18,3.7,10.39,7.36c.81.57,1.66,1.09,2.63,1.73-1,1-1.89,2-2.91,3.06-7.44-5.14-14.5-10.62-20.36-17.52a19.37,19.37,0,0,0,3.26,4.65,115.93,115.93,0,0,0,11.76,11.27l3.67,3.14a44.55,44.55,0,0,1-5.77,5.24,77.77,77.77,0,0,1-7.33-6.42c-2.29-2.26-4.51-4.59-6.82-6.84,3.64,5.29,8.29,9.72,12.67,14.47-.32.3-.53.53-.77.72s-.52.36-.89.6c-8.45-7.5-15.72-15.91-20.64-26.16-4.82-10-8.14-20.5-8.09-31.91,3.41,1.52,6.63,3.08,9.94,4.4a58.27,58.27,0,0,0,10.51,2.93c3.53.68,7.09,1,10.86,1.36a2.57,2.57,0,0,0-1.83-1.38c-2.31-.69-4.62-1.42-7-1.91a69,69,0,0,1-18.09-6.06c-1.24-.65-2.44-1.38-3.69-2.1A42.88,42.88,0,0,1,56.43,159a7.06,7.06,0,0,1,5.77-3L59,159.85a.61.61,0,0,1,0,.12,5.84,5.84,0,0,0,.68-.41,23.39,23.39,0,0,0,7-9.13,5.8,5.8,0,0,0,.4-2.28c.15-6.07.25-12.14.39-18.21q.21-8.7.46-17.4a3.21,3.21,0,0,1,.36-1.46c.07.23.14.46.2.69.3,1.38.59,2.76.91,4.14a9.33,9.33,0,0,0,3.16,5.16,5.31,5.31,0,0,1,1.07,1.53,6.36,6.36,0,0,1,.6,4.68,7.15,7.15,0,0,0,1.28,5.6,3.49,3.49,0,0,1,.63,2c.05,4.84,2.47,8.18,6.64,10.35a1.66,1.66,0,0,1,1,1.43,66.62,66.62,0,0,0,6.75,22q1.06,2.15,2.12,4.3c1,2,1.89,4.07,1.5,6.77.43-.45.68-.61.79-.85a6,6,0,0,0,.2-4.92c-.66-1.74-1.39-3.46-2.16-5.17a73.34,73.34,0,0,1-5.24-17,7.17,7.17,0,0,1-.11-.81c0-.18,0-.36,0-.58a1.41,1.41,0,0,1,.41.13l14.39,12.26a6.49,6.49,0,0,1,.89.85c1,1.16.86,2-.39,2.84-.56.38-1.21.64-1.81,1a16.55,16.55,0,0,0-2,1.2,2.32,2.32,0,0,0-1,2.64,2.52,2.52,0,0,0,2.46,1.62,19.61,19.61,0,0,0,5.63-1c1.88-.5,3.73-1.14,5.79-1.77-.69,1.23-1.47,2.33-1,3.78-1.19.41-2.3.82-3.42,1.18a30.76,30.76,0,0,0-7,3.07,35.1,35.1,0,0,0-3.92,3A5.93,5.93,0,0,1,93,182.9a3.41,3.41,0,0,1-2.59-1c-.7-.71-1.45-1.4-2.1-2.16a9.34,9.34,0,0,0-7-3.13c-1.91-.09-3.83-.17-5.75-.24a58.92,58.92,0,0,1-17.08-2.77c-1-.34-1.95-.77-2.92-1.15l-1-.34-.15.25c.45.35.87.73,1.34,1A30.25,30.25,0,0,0,66,177.6a52.81,52.81,0,0,0,10,1.16c2.1.06,4.19.31,6.27.56a6.34,6.34,0,0,1,4,2c.76.79,1.51,1.58,2.29,2.36a5.4,5.4,0,0,0,7.11.82,10.06,10.06,0,0,0,2.7-2.29,15.45,15.45,0,0,1,10-5.33,48.73,48.73,0,0,1,7-.31,1.83,1.83,0,0,1,1.89.91c-.33.75-1.1.76-1.71.94-1.48.45-3,.69-4.48,1.21-2,.69-3.9,1.52-5.81,2.38a4.62,4.62,0,0,0-1.76,1.56,7.11,7.11,0,0,0,.9-.26,56.22,56.22,0,0,1,11.77-2.95l1.76-.28a4.54,4.54,0,0,1,2.41.24,8.83,8.83,0,0,0,5,0l1.71-.35C126.66,180.54,126.45,180.92,126.2,181.28ZM116.75,168c-1.2,2.76-2.56,4.54-3.68,4.93C112.94,171.58,114.22,169.82,116.75,168Zm8.15-15.46c-.2-.32-.33-.5-.44-.7-.54-.94-1-1.92-1.64-2.83-.7-1.06-1.55-2-2.23-3.11a8.82,8.82,0,0,1-1.37-6.4,15,15,0,0,1,.65-2,5.29,5.29,0,0,1,1,.42c1.43,1.05,2.89,2.06,4.25,3.2a5.09,5.09,0,0,1,1.72,3.34,9,9,0,0,1,0,1l-.29.08L123,142.1l-.27.14C124.73,145.36,125.77,148.67,124.9,152.55Zm10.2-28.32a7.46,7.46,0,0,0-2-3.56c-.08.15-.16.24-.14.28a12.8,12.8,0,0,1,.33,7.28,30.73,30.73,0,0,0-.56,3.93c-.1,1.31,0,2.64,0,4a3.11,3.11,0,0,1-.43-.5,6.58,6.58,0,0,0-2.74-2.41c-1.11-.54-2.23-1-3.35-1.54a11.17,11.17,0,0,1-5.72-4.88c0-.1-.19-.16-.37-.3a11.49,11.49,0,0,0,4,7.49c1.3,1.07,2.7,2,4,3.07a15.88,15.88,0,0,1,1.84,1.63,4.77,4.77,0,0,1,.78,5.81c-.27.53-.56,1-.86,1.56a5.59,5.59,0,0,0,0,5.86c.25.46.48.93.83,1.63a3.57,3.57,0,0,1-2.87-2.36,5.4,5.4,0,0,1-.26-2.53,29.16,29.16,0,0,1,.8-3.32c.2-.84.44-1.68.56-2.54a4.55,4.55,0,0,0-1.49-4.2c-.64-.58-1.36-1.08-2-1.66-.85-.75-1.67-1.55-2.5-2.33-.15-.14-.31-.26-.47-.39a3.9,3.9,0,0,0,1.37,2.25c.66.63,1.4,1.19,2,1.85a18.12,18.12,0,0,1,1.36,1.92c-2-.58-5.44-2.8-6.39-4.19a21,21,0,0,1-1.3-2.49c-2.24,1.52-3.81,5.94-3.49,10.09-1.5-.84-2.09-2.2-2.3-5.39A2.19,2.19,0,0,0,113,140a6.47,6.47,0,0,0,2.4,5.83c1.08.91,2.29,1.66,3.44,2.48.81.59,1.65,1.14,2.41,1.79a3.48,3.48,0,0,1,1.28,2.3l-8.76-4.51a2.17,2.17,0,0,0,1.14,1.27c1.09.68,2.19,1.33,3.27,2a5.4,5.4,0,0,1,2.45,4.07l-.8-1a9,9,0,0,0-3.48-2.59c-.83-.36-1.69-.67-2.52-1a5.84,5.84,0,0,1-3.61-4.5c-.11-.58-.2-1.17-.34-1.74a3.6,3.6,0,0,0-2.75-2.92c-1-.23-1.93-.5-2.9-.78-.42-.12-.91-.23-.79-1.05l1.69-.11a7.16,7.16,0,0,0,6.92-7.38c-1,2.12-2,4.12-4.41,5a4.14,4.14,0,0,1,.3-3.69,15.26,15.26,0,0,0,2.46-8.41,2,2,0,0,1,.17-.48l3.91,1.57c2.45,1,2.84,2.94,1.89,4.9-.51-.63-1-1.23-1.45-1.78a3.51,3.51,0,0,0-2.15-1.31,7.94,7.94,0,0,1,1.68,8.39,11.65,11.65,0,0,0,4-5.71,4.19,4.19,0,0,0-1.81-4.78,13,13,0,0,0-2.68-1.35c-3.06-1.13-3.19-3.46-2-5.87a3.62,3.62,0,0,1,3.54-2c-.11.93-.25,1.84-.32,2.76a5,5,0,0,0,.13,3.07,16.42,16.42,0,0,1,.5-1.68,21,21,0,0,1,1.34-2.84c.81-1.3,1.7-1.29,2.88,0-.19.33-.39.68-.58,1l-.58,1.13a2.11,2.11,0,0,0,1.52-1,2.13,2.13,0,0,1,2.14-.87c1,.14,2.06.25,3.23.39a7.1,7.1,0,0,0-.74,6.22,20.82,20.82,0,0,0,2.92,4.94l.4-.23c-.24-.45-.47-.91-.72-1.36a11.68,11.68,0,0,1-1.86-5.51,7.49,7.49,0,0,1,.7-3.9c1.84,0,3.67-.08,5.49,0a4.49,4.49,0,0,1,4.31,3.91,32.88,32.88,0,0,1,.31,3.69,4.71,4.71,0,0,0,.6-4.09c-.42-1.32-1.06-2.57-1.64-3.92.51-.38.95,0,1.38.29A5.48,5.48,0,0,1,138,126a30,30,0,0,1-2.26,2.46C135.48,126.89,135.38,125.54,135.1,124.23Zm2.27,9.35a5.08,5.08,0,0,1,1.63,5.67C137.79,138.35,137.06,135.83,137.37,133.58Zm1.34,23.72,4.06-4.1C143.07,155.09,140.91,157.25,138.71,157.3Zm9.91-18.24a6.43,6.43,0,0,1-3.9,7.7,4.1,4.1,0,0,1-2.52.67c.6-.71,1.08-1.3,1.59-1.87a25,25,0,0,0,1.84-2c1.19-1.64,1-3.37,0-5.11-.11.55-.23,1.1-.32,1.66A5,5,0,0,1,142.5,144a14.07,14.07,0,0,0-5.12,3.84,5.59,5.59,0,0,1,.14-1.1,31.63,31.63,0,0,1,1.42-2.93c.42-.75,1-1.41,1.47-2.14a5.18,5.18,0,0,0-.17-6.25,22.69,22.69,0,0,1-1.66-2.51,4.32,4.32,0,0,1,.68-5.19,2.4,2.4,0,0,1,4.11,1,7.54,7.54,0,0,0,2.58,3.62c.65.57,1.33,1.1,2,1.65a3.52,3.52,0,0,1,1.27,2.18l-1.56-.62C148,136.87,148.4,138,148.62,139.06Zm4-1.4c-.05.77-.17,1.53-.26,2.3-.9-2-.79-4.3-2.6-6-.08.54-.15.94-.22,1.41-.44-.82-.8-1.59-1.25-2.29S147.1,132,147,131a1.57,1.57,0,0,1,1.79,0A6.66,6.66,0,0,1,152.61,137.66Zm.93-6.57a6.11,6.11,0,0,1-.29-5.81c.21,1.92.41,3.83.62,5.75Zm-.22-10.46c0-.58.08-1,.12-1.52l-.17-.07-1,1.57v-5.72A3.6,3.6,0,0,1,153.32,120.63ZM142.56,224.38c-1.89,5.48-3.7,11-5.55,16.46-.14.43-.32.85-.52,1.36h-5.93a3.05,3.05,0,0,1,0-.7q5.61-16.08,11.23-32.13a14.31,14.31,0,0,1,1.13-2.49,2.91,2.91,0,0,1,3-1.44c1.84.37,2.63,1.84,2,3.73C146.14,214.24,144.31,219.3,142.56,224.38ZM24.12,192.79h3c-.89,7.1-1.68,14.19-1.9,21.32s-.34,14.29-.5,21.66c-1.42-1.69-2.78-3.26-4.06-4.91a2.24,2.24,0,0,1-.31-1.42c.17-3.73.3-7.47.6-11.19q.51-6.34,1.3-12.65C22.81,201.35,23.49,197.12,24.12,192.79Zm164,18.08c1.09,6.92,1.94,13.73,2.91,20.73h-2.76c-.93-6.76-1.87-13.56-2.83-20.53Zm-39.32-24.93-1.46-.12c.07-.34.11-.63.19-.9,1.38-4.59,2.75-9.17,4.15-13.75.59-1.92,1.35-2.36,3.67-2.09-1.66,5.65-3.3,11.26-5,17Zm-.12,32.64q-2.5,11.35-5,22.7c-.21.94-.2.94-1.38.81,2-8.29,4.08-16.52,6.6-24.65C148.78,217.82,148.71,218.21,148.63,218.58Zm-76.8-56.44C69.54,158,68.09,146,69.25,138.6c.11,1.78.21,3.38.32,5A95.82,95.82,0,0,0,72,158a6.05,6.05,0,0,1,.16,3.5C72.07,161.63,72,161.79,71.83,162.14Zm12.29,41.71.53.57-.68-.35Zm.63.63.08.08h0l-.1-.06h0l-.08-.09ZM94,90.81c0-.08.06-.17.16-.42,1,.58,1,1.71,1.73,2.51-.08-.65-.14-1.16-.2-1.68.56,1.56,1.84,2.11,3.25,2.46a2.89,2.89,0,0,1,1.55,4.24c-.38.62-.79,1.22-1.21,1.82a10.41,10.41,0,0,0-1.94,8.65c0,.2.06.4.13.9a8.11,8.11,0,0,1-2-5.08c-.15-1.72-.17-3.46-.18-5.19a26.62,26.62,0,0,0-1-7.15A7.7,7.7,0,0,1,94,90.81Zm44.2-35.33a15.18,15.18,0,0,1,3.71-.79A33.91,33.91,0,0,1,153,56.56a2.73,2.73,0,0,1,.53.33l0,.15c-1.79-.26-3.57-.61-5.37-.74s-3.73,0-5.59-.12-3.51.81-5.39.54A1.27,1.27,0,0,1,138.23,55.48Zm-18.53-1.7a15.51,15.51,0,0,1,5.42.5c1.09.33,2.21.55,3.3.86a10.52,10.52,0,0,1,1.43.65,2.1,2.1,0,0,1-2,.58c-1.47-.28-2.94-.57-4.41-.88a21.47,21.47,0,0,0-5.71-.39l-1.89.09A7,7,0,0,1,119.7,53.78Zm-13-4.65c-.24-.89.32-1.11.7-1.31,1.88-1,3.76-2,5.7-2.88a32.66,32.66,0,0,1,8-2.08,3.13,3.13,0,0,1,.68,0,1.66,1.66,0,0,1,.38.11l.09.33a6.81,6.81,0,0,1-.89.34c-2,.46-4,.85-6,1.37a27.57,27.57,0,0,0-7.27,3.35C107.69,48.6,107.23,48.83,106.69,49.13Zm11.09-1.4a39.55,39.55,0,0,0-8.25,2.57c.12-.14.22-.28.34-.4a3,3,0,0,1,.44-.33,23,23,0,0,1,7.18-2.88,7.26,7.26,0,0,1,1.56,0A1.3,1.3,0,0,1,117.78,47.73Zm-7.41,9.13a20.38,20.38,0,0,0-6.9,2.73,12.88,12.88,0,0,1,7.44-3.39C110.61,56.58,110.51,56.83,110.37,56.86Zm-8.21,40.56-1-4C102.49,93.84,103,95.69,102.16,97.42ZM91.1,111.84c1,2.67.87,5.19-1.21,7.37l-3.3,3.47a4.78,4.78,0,0,1-.5.39l-.22-.12c.34-1.12.71-2.23,1-3.36a5.75,5.75,0,0,0,.24-2,2.74,2.74,0,0,0-1.63-2.07,19.77,19.77,0,0,0-2.77-1.16c-4.37-1.43-5.73-5-5.55-8.71a4.77,4.77,0,0,1,.46-1.9c.08.73.17,1.46.24,2.19a6.7,6.7,0,0,0,4.83,6.15c1.28.43,2.57.81,4.09,1.29-1.35-2-3.37-3.24-4.21-5.59,1.61,1.49,3.1,2.81,4.52,4.19a5,5,0,0,1,1.51,3.7v2.44c1.87-2.14,2-4.44,2-6.91A2.62,2.62,0,0,1,91.1,111.84ZM99,130.31c.62,1,1.12,2,1.67,3.06l-.23.19c-.26-.11-.54-.2-.8-.34-1.07-.6-2.17-1.16-3.2-1.83a8.93,8.93,0,0,1-4.27-8.83,3.65,3.65,0,0,1,.47-1.43,12.92,12.92,0,0,0,2,6.23,16.45,16.45,0,0,1,1.21-6.73c.16,1.14.27,2.3.49,3.43A18.32,18.32,0,0,0,99,130.31Zm.86-2a5.3,5.3,0,0,1,2.94,3.74c.16.88.27,1.89-1,2.47C102.22,132.13,100.88,130.3,99.84,128.35ZM60.63,29.53c2.48,1.34,4.95,2.51,6.76,4.65a5.42,5.42,0,0,1,.76,5.6c-.16-.5-.3-.84-.38-1.19a7.48,7.48,0,0,0-4-5.37,30.42,30.42,0,0,1-2.7-1.6A1.37,1.37,0,0,1,60.63,29.53ZM76,28.8A35.06,35.06,0,0,0,78,31.69a26.27,26.27,0,0,0,2.43,2.11C77.58,34.53,75.17,31.94,76,28.8Zm53.34,91.83c1.36,1.87,2.71,7,2.33,8.62-.17-.12-.37-.18-.41-.3A52.47,52.47,0,0,1,129.29,120.63Zm-7.21-1.25c-.13,1.47-.26,2.93-.39,4.5C120.05,123.17,120.29,120.78,122.08,119.38Zm20.33,8.54c-.28,1.1-1.9,1.89-.72,3.24a1,1,0,0,1-1.52.14,1.42,1.42,0,0,1-.5-1.59A2.62,2.62,0,0,1,142.41,127.92Z"/></g></g></svg>