<?xml version="1.0" encoding="utf-8"?>
<!-- Generator: Adobe Illustrator 16.0.4, SVG Export Plug-In . SVG Version: 6.00 Build 0)  -->
<!DOCTYPE svg PUBLIC "-//W3C//DTD SVG 1.1//EN" "http://www.w3.org/Graphics/SVG/1.1/DTD/svg11.dtd">
<svg version="1.1" id="Albert_Einstein" xmlns="http://www.w3.org/2000/svg" xmlns:xlink="http://www.w3.org/1999/xlink" x="0px"
	 y="0px" width="844px" height="929px" viewBox="0 0 844 929" enable-background="new 0 0 844 929" xml:space="preserve">
<path id="black" d="M338.892,26.848c8.786,2.535,17.381,4.182,24.996,8.657c3.493,2.053,6.955,4.117,10.884,7.916
	c-14.07-1.312-26.797-1.13-38.808,4.758h12.067c-2.771,1.567-6.004,1.027-9.032,2.929c13.111-0.789,25.175,1.961,36.76,7.31
	c-33.071-8.382-64.972-6.908-95.136,10.916c2.545-3.625,6.664-4.944,9.358-8.345c-3.731,1.721-7.462,3.442-11.193,5.163
	c13.731-12.543,33.237-12.482,49.236-23.622c-10.968,2.66-19.225,9.778-31.06,8.749c8.37-3.224,14.983-7.29,22.428-9.557
	c7.317-2.229,14.84-3.305,22.418-4.405c-5.82-1.468-11.613-0.174-17.991,0.208c7.994-3.649,16.181-3.688,34.54-0.432
	c-3.94-2.92-11.071-4.673-21.379-5.825c-20.502-2.29-37.304,4.842-51.162,19.7c-6.33,6.786-12.997,13.18-20.551,18.605
	c-4.576,3.286-9.553,5.218-15.358,5.1c0.119-0.615,0.124-1.161,0.245-1.188c12.139-2.693,20.874-10.204,28.133-19.836
	c11.466-15.217,27.219-22.987,45.853-26.521C329.088,26.848,333.741,26.848,338.892,26.848L338.892,26.848z M195.934,655.612
	c-5.368,8.853-6.301,17.92-4.311,27.599c4.503,21.894,15.604,40.433,29.378,57.443c22.008,27.18,47.361,51.168,72.773,75.072
	c1.783,1.677,3.787,2.441,6.165,2.774c6.159,0.86,12.277,2.034,18.445,2.819c7.953,1.013,15.938,1.769,23.91,2.635
	c-10.274-7.358-20.885-13.404-31.278-19.805c-12.326-7.593-23.646-18.703-26.491-25.796c6.59,6.233,12.682,12.197,19.587,17.228
	c7.009,5.106,14.423,9.378,22.842,11.828c-19.475-13.566-36.502-30.113-55.574-44.102c-18.977-13.921-36.93-29.083-51.372-47.899
	c-14.991-19.531-25.22-40.536-19.411-66.564C199.103,650.985,197.607,653.124,195.934,655.612L195.934,655.612z M351.81,93.06
	c0.491-0.1,0.694-0.151,0.788-0.281c0.056-0.08-0.008-0.356-0.1-0.416c-2.612-1.689-5.625-2.21-8.592-2.553
	c-16.51-1.906-33.011-1.775-49.476,0.605c-1.239,0.179-2.497,0.836-4.442-0.343c3.792-1.44,6.935-2.633,10.348-3.929
	c-2.8-1.248-5.121,1.018-8.015-0.069c13.619-6.557,26.498-13.771,41.154-16.8c14.717-3.041,29.318-1.623,45.405,1.383
	c-7.609-4.598-14.918-4.566-21.628-6.544c16.112-1.381,30.52,3.493,44.39,11.386c-1.604-1.342-3.207-2.685-4.811-4.027
	c10.104,1.482,17.591,7.485,25.157,13.404c-4.161-5.835-9.445-10.164-15.849-13.034c-16.529-7.406-33.988-11.479-51.796-14.171
	c-16.037-2.424-31.902-2.293-47.326,3.698c-8.979,3.487-17.639,7.652-26.03,12.325c-14.342,7.986-29.469,12.349-45.997,11.125
	c-1.822-0.135-3.664-0.018-5.495-0.018c16.234,3.643,32.145,3.38,47.326-4.131c6.855-3.392,13.641-6.933,20.382-10.546
	c12.827-6.876,26.614-8.932,40.969-8.46c-19.465,0.125-34.365,12.174-51.137,19.354c5.313,0.483,9.704-2.681,14.74-3.346
	c-9.538,7.595-21.258,9.661-32.693,12.694c1.31,1.681,3.227-0.042,4.602,1.364c-7.463,2.887-15.209,4.036-22.87,5.419
	c-7.627,1.377-15.274,2.739-23.063,3.028c14.398,2.844,28.006-1.327,41.709-4.7c-13.222,7.286-27.313,10.7-42.44,9.641
	c6.777,2.813,7.761,2.813,25.45,0.257c-9.38,5.416-18.541,5.025-27.844,3.439c16.025,6.589,29.764-2.087,43.984-7.559
	c0.112,0.438,0.224,0.876,0.336,1.314c-3.926,1.913-7.852,3.825-11.778,5.739c0.112,0.299,0.225,0.597,0.336,0.896
	c3.757-1.375,7.515-2.749,11.272-4.123c-13.737,10.313-29.592,14.748-47.504,17.484c8.491,1.492,15.127-0.745,21.88-1.812
	c-9.722,5.593-19.992,5.186-31.461,1.833c3.92,3.652,8.147,3.218,13.081,5.209c-6.247,0.782-10.646-0.064-14.71-2.329
	c-4.356-2.427-6.65-6.309-6.591-12.722c-3.583,10.799,1.096,15.096,18.062,18.458c-12.889,4.566-24.073-3.592-22.204-16.99
	c-8.33,2.449-16.066,5.27-21.773,11.807c-3.03,3.471-4.124,7.751-4,12.422c0.117,4.4,2.156,6.968,6.355,8.016
	c5.26,1.313,10.55,1.625,16.868,0.75c-15.796-1.447-21.804-7.75-16.883-16.823c1.674,2.384,0.993,6.029,4.394,7.936
	c-0.596-4.355-2.761-8.556,0.761-12.613c1.139,2.945-0.546,6.298,2.255,8.872c0.311-3.301-0.312-6.46,2.321-9.485
	c0.056,5.519,0.322,10.561,5.813,12.622c4.586,1.722,9.373,0.031,14.1-0.339c-2.87,3.18-6.737,2.558-11.202,3.271
	c2.017,0.557,2.958,0.817,4.291,1.185c-1.259,0.463-2.077,0.764-3.509,1.292c17.932,1.942,29.586,0.272,43.556-5.724
	c7.049-3.025,13.267-8.157,21.427-8.47c-18.092-2.21-31.96,13.403-49.868,11.823c7.01-2.556,14.549-3.535,21.074-7.347
	c7.596-4.437,14.776-9.704,23.879-10.933c-5.254-0.571-9.936,1.822-14.976,2.208c11.531-7.443,23.883-12.139,38.788-11.168
	c-1.926-1.627-4.07-0.918-4.661-2.819c3.87-0.923,7.511,0.981,11.097,0.799c5.048-0.258,5.016-0.791,8.908,0.783
	c0.436,0.176,0.964,0.125,2.634,0.312c-6.698-6.541-14.432-6.378-23.174-6.929c14.898-6.682,29.367-6.548,43.818-6.889
	c-6.178-2.812-12.752-3.043-19.226-3.089c-6.341-0.044-12.688,0.768-19.694,1.25C292.058,92.25,332.687,90.145,351.81,93.06
	L351.81,93.06z M695.096,516.014c2.959,7.215,1.971,14.533,2.432,22.208c2.453-2.302,2.125-5.302,3.787-7.423
	c1.646,2.318-0.287,4.713,0.727,6.875c2.129-2.786,1.602-6.465,3.422-9.711c1.025,3.731,0.551,7.189,0.615,11.42
	c2.686-3.678,1.568-7.566,2.984-10.359c8.396,10.248,3.396,22.637,6.158,34.438c-6.979-3.004-11.654-8.172-18.271-12.488
	c1.318,2.801,2.092,4.443,2.865,6.086c-10.178-8.709-17.234-19.563-23.234-31.197c7.346,25.346,19.348,43.03,50.576,50.639
	c-15.676,1.917-26.512-5.911-36.854-15.106c2.611,6.427,7.561,10.898,11.67,16.042c-10.615-4.178-16.818-13.144-23.527-21.589
	c1.982,7.415,6.715,13.142,10.836,19.295c-7.439-3.159-11.201-10.074-16.373-16.618c2.783,15.173,23.098,32.16,33.115,28.531
	c0.613-1.543-2.17-1.972-1.043-3.848c9.104,0.844,18.301,1.42,27.246-1.551c-2.15-0.381-4.283-0.316-6.408-0.398
	c-1.912-0.076-3.816-0.311-5.725-0.477c7.844-1.012,15.613-1.543,23.127-7.105c-9.562-1.541-16.049-6.035-19.855-13.963
	c5.387,3.23,9.918,8.189,17.287,6.817c-8.371-2.554-13.877-7.86-17.354-17.39c4.602,3.507,6.756,7.467,11.037,9.031
	c-3.762-5.43-7.52-10.859-11.281-16.289c7.836,2.942,15.162,5.777,24.496,2.227c-6.23-0.939-11.793-0.023-16.428-4.949
	c6.383,0.989,12.111,2.847,18.182-1.762c-5.029-0.414-9.225,1.072-13.658-1.001c3.025-1.33,6.119-0.808,9.273-3.485
	c-13.143,0.947-21.398-6.295-29.441-13.959c-0.756,1.562,1.248,2.455,0.01,3.909c-4.381-4.761-7.707-10.591-14.82-12.862
	c1.482,3.591,4.049,6.023,4.166,10.455c-4.025-4.815-7.377-9.045-13.367-11.129C692.918,511.932,693.947,513.781,695.096,516.014
	L695.096,516.014z M583.99,379.06c3.22-0.78,5.56,2.28,9.47,1.01c-1.24-1.01-2.47-2.01-4.21-3.43c2.68,1.33,4.75,2.35,7.15,3.54
	c-0.82-3.49-3.801-4.17-5.61-6.32c3.54-0.14,5.44,3.09,9.03,3.95c-2.84-5.35-7.04-7.24-12.25-7.9c2.51-1.54,4.939,0.53,7.62-0.53
	c-5.28-5.04-10.49-1.23-16.7-0.35c4-2.98,7.279-3.91,10.92-4.06c3.71-0.15,7.03,0.88,11.05,4.26c-5.24-8.6-9.33-9.3-22.94-5.21
	c2.091-4.02,6.66-3.11,10.341-5.06c-5.841-2.34-10.61-0.51-16.08,2.17c3.38-4.78,7.72-4.42,12.84-5.04
	c-9.9-4.16-16.58-0.61-22.49,5.99c0.43-3.21,2.67-4.44,4.5-6.03c0.48-0.4,1.33-0.98,0.39-1.56c-0.31-0.2-0.869,0.03-1.479,0.04
	c1.17-1.71,3.42-0.5,4.22-2.11c-1.819-0.52-1.22-3.26-3.63-3.32c2.47-2.27,5.43-0.59,7.79-1.87c-7.56-4.61-13.439-2.55-28.27,10.05
	c3.149-0.76,5.8-1.06,8.529-0.43c-0.979,2.71-3.689,4.07-3.609,7.53c2.1-1.77,3.76-3.17,5.47-4.64c-0.01,0.05-0.021,0.1-0.03,0.15
	c-5.88,8.18-12.18,14.98-24,15.44c6.92,4.21,11.971,1.34,17.641-1.06c-2.29,3.69-6.08,3.41-9.551,5.28
	c5.23,1.26,9.54,0.57,14.58-1.72c-3.38,5.26-8.89,4.88-12.739,7.67c3.239,2.04,6.069-0.19,9.22-0.07
	c-1.851,2.89-4.4,4.24-6.641,5.93c-1.569,1.19-3.22,1.12-3.949-0.66c-2.25-5.53-7.71-6.71-12.141-9.19
	c-2.21-1.23-4.88-1.84-7.72-0.37c1.31,1.44,3.48,0.8,4.16,2.67c-1.94,0.76-4.39-0.49-5.8,1.65c1.359,1.41,3.66,0.4,4.51,2.54
	c-3.36-0.44-6.61-1.72-10.33,0.55c3.15,1.42,6.38,0.55,9.02,2.77c-4.609,0.24-8.979-0.28-13.869,2.68
	c6.43,1.12,11.619,0.53,16.689,1.64c3.67,0.79,3.54,2.16,1.32,4.41c-1.86,1.88-3.75,3.72-6.25,6.181
	c4.649-0.431,6.82-3.24,10.18-5.36c-1.04,4.21-3.18,6.68-6.62,9.439c6.271-0.77,10.04-4,13.931-7c8.939-6.91,16.64-16.359,30-13.819
	c-0.91-2.8-3.851-1.58-4.74-3.8c4.21-0.8,7.83,1.36,12.3,1.21c-3.09-3.21-6.729-3.64-10.41-4.54c2.79-1.62,5.5-1.36,8.08-0.84
	c9.88,1.98,17,7.73,21.83,16.47c3.28,5.95,5.57,12.319,8.14,18.569c0.96,2.32,1.761,4.881,4.881,5.591
	C604.69,404.76,599.58,388.97,583.99,379.06z M449.137,83.758c6.176,3.886,11.292,8.488,16.226,13.336
	c-3.738-8.25-10.842-13.353-16.992-19.378c9.841,4.085,18.347,9.953,25.076,18.346c-3.17-9.812-10.719-15.65-18.526-21.364
	c6.461,1.258,12.112,4.201,17.497,7.88c-4.051-5.887-9.859-9.693-17.14-14.066c8.125,0.127,12.791,4.543,18.3,6.843
	c-10.406-15.428-26.684-21.412-44.108-28.018c6.775,6.497,14.71,8.32,21.435,12.354c-8.234-1.466-15.411-5.68-22.903-9.096
	c4.684,6.306,11.343,9.473,19.565,12.443c-10.755-0.367-17.81-4.367-23.101-12.334c-5.53-8.328-11.516-10.989-20.65-10.389
	c4.514,1.623,8.688,3.06,11.959,6.316c8.059,8.018,14.403,18.382,28.482,19.55c-3.235,1.769-5.076,1.097-6.9,0.653
	c-8.072-1.962-14.49-6.562-20.041-12.578c-2.985-3.235-6.073-6.366-9.472-7.461c2.092,2.519,4.574,5.549,7.104,8.537
	c2.515,2.971,5.079,5.9,8.384,9.731c-12.761-10.297-23.28-22.817-41.871-21.755c6.108,2.631,11.648,4.021,16.108,7.755
	c-14.693-5.512-29.684-7.283-45.127-4.281c13.83-0.941,26.675,2.086,38.378,10.25c0.316-2.423-2.18-2.617-1.448-4.698
	c4.355,1.419,7.872,3.964,11.176,6.969c6.979,6.349,14.022,12.626,21.099,18.865c1.013,0.892,2.879,2.771,3.417,1.947
	c3.132-4.795,4.982-0.095,6.639,1.003c7.731,5.128,15.934,9.339,24.116,13.637c-7.256-8.395-17.219-13.259-25.568-20.236
	C436.909,76.671,442.879,80.07,449.137,83.758L449.137,83.758z M741.166,500.402c1.531-0.373,2.871-0.096,3.74-1.212
	c-16.043-6.495-18.637-8.052-21.43-12.854c18.09,10.045,33.979,11.54,39.359,4.116c-27.465,3.497-46.096-10.321-61.639-30.291
	c-4.195-5.392-8.42-10.759-12.633-16.136c4.678,14.98,12.5,28.188,22.406,41.423c-1.93-0.542-2.807-0.789-3.68-1.034
	c-0.742,1.781,2.164,2.881,0.668,5.117c-4.076-5.773-8.018-11.358-11.961-16.943c5.453,14.744,15.424,26.8,23.578,40.494
	c-3.082-0.61-3.217-3.701-5.771-4.562c3.609,9.252,9.697,15.196,19.324,16.749c6.814,1.099,12.207-1.927,17.766-7.149
	c-5.455-0.279-10.178,1.668-14.398-1.924c15.086-2.324,15.105-2.332,18.193-6.543c-13.275,3.132-24.293,0.847-29.428-6.104
	c18.627,6.081,25.402,6.003,30.674-0.353c-12.93,2.315-21.104,1.279-25.482-3.486C734.059,500.327,737.387,500.883,741.166,500.402
	L741.166,500.402z M131.183,363.38c0.898-0.245,1.561-0.596,1.913-0.396c1.477,0.839,0.182,1.397-0.387,1.731
	c-3.879,2.287-8.17,3.498-12.517,4.453c-10.07,2.211-20.183,4.23-30.24,6.498c-4.83,1.089-9.594,2.528-12.615,7.258
	c19.7-7.087,41.45-7.167,60.027-18.14c-4.463,5.998-10.866,8.841-17.748,10.567c-8.447,2.117-17.025,3.703-25.514,5.66
	c-4.701,1.083-9.249,2.638-12.949,6.142c16.332-6.505,34.974-2.665,50.609-12.094c-3.812,6.239-10.058,7.87-16.32,8.945
	c-8.229,1.413-16.573,2.143-24.845,3.32c-4.856,0.691-9.055,2.812-12.43,6.392c5.885-1.441,11.359-4.053,17.781-5.022
	c-1.576,2.457-4.527,2.98-4.926,6.445c13.568-5.396,27.447-7.639,41.039-11.013c6.5-1.614,12.518-4.429,17.051-9.447
	c4.429-4.904,9.85-7.439,16.168-8.522c2.906-0.498,5.798-1.075,10-1.861c-10.14-1.977-18.127-0.075-25.546,5.116
	c0.233-1.206,0.659-1.925,1.136-2.608c5.023-7.177,12.625-10.236,20.556-12.52c7.764-2.236,12.447-7.434,15.396-14.659
	c-4.107,3.676-8.35,7.182-13.382,9.416c-7.847,3.483-16.718,5.045-22.313,12.68c5.92-12.605,18.28-17.697,28.852-24.763
	c-22.939,6.099-41.524,21.65-65.203,27.461C120.818,366.025,125.824,364.958,131.183,363.38L131.183,363.38z M720.688,294.148
	c1.727-0.198,3.273,1.328,4.561-0.337c-15.879-6.254-20.131-9.654-18.82-15.255c8.109,6.788,17.971,10.912,25.65,18.236
	c-3.76-6.783-10.041-10.685-16.104-15.107c6.367,1.574,12.734,3.147,19.102,4.722c-5.598-3.944-12.812-3.579-18.254-7.72
	c10.076,3.113,20.965,2.839,31.707,8.747c-3.455-4.208-6.941-5.061-10.365-5.936c-9.992-2.556-20.086-4.72-29.869-8.053
	c-7.088-2.415-12.953-6.068-16.803-13.021c-4.244-7.662-10.535-13.599-18.701-17.547c12.713,11.736,14.568,27.606,17.021,43.264
	c1.736,11.082,2.631,22.305,5.281,33.231c2.127,8.768,9.852,17.574,17.031,19.794c-0.953-2.251-3.885-3.138-4.412-6.138
	c2.232,1.738,4.146,3.229,6.059,4.718c-8.465-9.097-11.76-20.473-14.957-31.919c3.914,2.925,5.887,7.108,7.877,11.257
	c2.551,5.318,5.289,10.511,9.334,14.878c4.656,5.03,10.857,7.52,16.904,6.307c-17.168-6.42-21.58-22.685-30.203-35.528
	c7.334,5.264,11.889,13.299,19.498,19.526c-5.973-10.994-13.705-19.259-22.34-26.771c-4.238-3.687-7.506-7.962-7.777-15.386
	c5.787,11.543,16.268,16.853,23.223,25.619c-7.064-11.917-20.842-19.357-22.367-34.848
	C699.357,281.902,707.809,290.368,720.688,294.148L720.688,294.148z M200.54,211.48c6.51-3.33,13.55-5.31,20.36-7.88
	c6.59-2.49,9.89-5.19,11.74-9.26c-5.62,4.05-20.15,9.91-26.03,10.4c4.21-2.98,8.82-5.07,11.73-9.18
	c-38.6,20.63-73.52,49.58-79.64,65.83c11.51-12.25,22.24-24.75,35.88-33.62c0.63,7.25-5.24,9.5-9.57,13.01
	c-8.3,6.76-16.56,13.65-21.78,23.22c-3.62,6.65-8.77,11.56-15,15.55c-1.04,0.66-1.95,1.51-2.93,2.27c8-2.18,13.84-6.75,18.19-13.75
	c8.45-13.61,21.08-23.07,33.81-32.68c-0.03,0.1-0.06,0.2-0.08,0.31c-17.27,14.91-29.16,34.11-44.35,50.67
	c3,0.42,4.78-2.44,7.66-2.35c-1.61,3.31-4.99,4.22-7.53,6.87c6.09-0.62,10.23-4.15,15.48-8.2c-2.49,6.56-6.52,9.64-11.16,12.07
	c-5.54,2.9-11.41,4.88-17.52,6.3c-5.61,1.3-6.84,2.31-9.55,6.63c10.24-6.86,23.67-4.23,32.94-12.9c-2.24,4.19-6.05,6.16-9.87,7.99
	c-6.41,3.08-12.98,5.83-19.38,8.94c-4.78,2.32-8.73,5.63-10.71,10.94c8.97-7.09,19.22-11.64,30.78-16.93
	c-3.11,4.79-6.56,6.91-9.95,9.06c-3.41,2.17-6.87,4.26-10.3,6.38c13.56-1.55,22.21-10.02,29.45-21.66c0.74,3.54-2.2,5.01-0.88,7.44
	c2.89-1.77,3.42-5.3,5.43-7.41c2.11,0.33,0.82,3.43,3.31,3.2c0.5-2.78,0.97-5.56,1.49-8.34c2.02-10.95,7.35-19.52,17.55-24.69
	c4.6-2.34,9.14-4.82,13.58-7.45c4.12-2.44,8.3-4.89,11.12-8.98c-11.4,6.57-24.08,10.63-34.92,18.28c1.7-1.86,3.41-3.71,5.88-6.4
	c-5.69,1.4-8.07,5.58-12.66,9.18c2.41-6.24,4.96-10.48,7.99-14.43c9.56-12.52,23.91-17.94,37.17-25.07
	c-6.79,1.13-12.86,4.35-19.35,6.37c6.87-7.35,16.1-10.66,24.69-15.19c-8.27,1.21-16.01,3.9-23.63,7.67
	c6.12-6.08,13.86-8.99,20.19-14.26c-2.28,0.95-4.57,1.9-6.85,2.84c9.63-8.59,23.36-9.44,32.84-18.2
	c-5.93,2.35-11.74,5.02-17.89,6.63c-6.42,1.69-11.89,5.01-17.16,8.94C193.18,215.57,196.77,213.42,200.54,211.48z M764.17,379.51
	c4.36,1.18,7.561,4.32,12.26,7.73c-3.33-6.69-7.63-10.4-12.439-13.75c-4.88-3.42-10.971-4.68-15.24-9.32
	c8.6,2.93,17.19,5.86,26.04,8.88c-0.71-2.75-2.71-3.74-4.39-4.98c-6.011-4.41-13.181-6.13-20.011-8.62
	c-5.34-1.94-11.52-2.81-15.39-7.02c-4.69-5.08-10.41-4.73-16.27-5.55c0.21,0.53,0.239,0.97,0.46,1.13c1.17,0.8,2.359,1.57,3.59,2.29
	c20.739,12.19,36.239,29.03,45.72,51.311c4.18,9.819,4.78,19.64,0.61,29.56c-0.53,1.25-1.11,4.07-2.931,2.58
	c-4.279-3.49-9.77-4.3-14.35-7.07c4.1,0.25,8.1,0.48,12.43,3.75c-2.04-5.47-5.859-7.77-8.569-11.439
	c1.909-0.15,2.75,2.189,4.579,1.17c-1.27-7.79-7.92-9.83-15.01-13.36c6.931,0.79,12.11,1.8,16.061,7.9
	c-0.94-14.29-13.57-10.811-19.971-15.99c3.69,0.86,7.391,1.73,11.091,2.59c-8.221-7.96-19.91-8.94-28.66-15.74
	c2.85,9.43,13.22,12.86,16.16,21.76c-6.601-1.99-9.25-9.21-15.95-13.43c2.109,4.93,5.76,7.51,7.33,12.74
	c-3.25-3.35-4.69-6.66-8.73-9.51c4,8.78,8.48,15.7,9.63,25.41c-5.72-11.33-9.75-22-17.39-30.63c2.05,8.31,5.93,16.11,6.02,24.92
	c-3.279-9.66-6.56-19.311-9.859-29.041c-1.84,0.96-0.101,3.03-1.98,3.45c-10.79-17.66-15.17-22.47-23.01-24.57
	c4.45,4.04,8.49,7.51,11.79,11.67c9.69,12.18,12.68,26.84,15.28,41.62c0.97,5.479,1.51,11.069,4.96,15.92
	c-2.101-1.03-3.19-2.55-4.28-4.05c-3.61-4.96-5.8-10.601-7.96-16.271c-1.56-4.1-3.32-8.1-7.58-10.399
	c5.17,10.89,6.33,22.71,8.3,34.409c-2.06-5.029-4.13-10.069-6.189-15.109c-0.28,0.109-0.57,0.22-0.851,0.33
	c0.59,3.64,1.17,7.27,1.761,10.91c-3.29-5.4-4.11-11.53-5.69-18.271c-1.37,4.92-0.11,8.92-0.32,13.11
	c-1.229-3.36-2.46-6.721-3.689-10.08c0.68,8.71,2.8,16.95,5.989,24.91c5.601,14.02,16.381,21.43,30.73,24.5
	c11.84,2.54,23.68-1.69,35.5,0.39c-10.26-6.27-22.43-0.12-33.91-5.47c10.45-1.16,19.79-2.9,29.29-0.471
	c-10.84-7.26-24.66-0.619-35.39-8.189c5.359,0.45,10.66,1.31,17.43,0.14c-8.34-0.899-15.11-2.16-21.54-8.29
	c7.4,2.19,13.46,3.181,20.21,1.891c-2.38-2.11-5.439-1.95-7.14-4.25c0.08-0.07,0.16-0.15,0.24-0.24c0.819-0.07,2.1,1.42,1.899-0.4
	c-0.12-1.09-2.359-0.79-2.09-2.67c1.91,0.29,3.6,1.84,6.15,1.21c-3.381-2.81-7.091-4.22-9.96-8.01c4.279,1.25,7.79,2.28,11.25,3.29
	c0.88-1.98-1.671-2.3-1.32-3.85c1.61-0.631,2.67,1.79,4.56,0.64c-0.199-3.99-2.529-7.54-2.989-11.67
	c3.75,6.87,10.18,9.109,17.14,10.45c2.28,0.439,4.439,1.159,6.5,2.27c3.43,1.83-0.82,4.23,0.54,6.95
	c16.54-14.35,12.36-30.99,6.51-48.47c3.01,1.64,5.43,3,7.9,4.27c2.7,1.39,5.46,2.58,8.479,3.14c2.63,0.5,5.221,1.341,8.33,0.351
	C782.4,398.68,768.75,388.53,764.17,379.51z M604.846,123.9c-9.932,0.259-18.436,2.837-24.207,11.313
	c6.781-6.034,15.012-6.862,23.512-6.972c3.014-0.038,6.037-0.436,9.023-0.897c4.316-0.668,8.332-2.042,11.881-6.508
	c-4.5,1.445-8.068,1.647-12.838,0.834c3.154-1.622,5.275-2.712,7.395-3.802c-3.65-0.327-7.088-0.75-10.541-2.072
	c4.086-0.768,7.588-2.326,10.959-5.039c-6.096-3.137-12.486-2.667-18.533-4.613c3.188-0.452,6.373-0.903,9.562-1.354
	c-0.016-0.174-0.031-0.348-0.047-0.521c-1.768-0.234-3.535-0.468-5.941-0.787c5.34-3.122,10.674-2.666,16.492-3.095
	c-4.873-3.701-10.191-2.272-15.178-3.353c2.164-2.593,4.969-1.196,7.154-2.321c-2.24-2.099-5.141-0.935-8.061-2.12
	c1.699-0.438,2.777-0.716,5.154-1.328c-3.938-0.177-6.48-0.292-9.543-0.429c2.408-2.318,5.172-1.763,8.037-2.64
	c-19.984-6.774-42.744,5.767-43.771,23.476c15.129-18.696,16.111-19.538,23.445-20.002c-2.695,1.694-6.002,2.453-7.48,5.425
	c4.689,3.104,7.656-2.233,12.184-2.473c-1.57,2.308-4.574,3.155-4.74,6.172c2.967-0.183,4.4-3.393,7.246-2.834
	c0.246,1.984-2.09,2.769-1.379,4.669c3.105-0.605,5.59-3.172,9.584-2.685c-4.881,3.112-9.615,5.608-13.773,10.484
	c6.037-0.751,11.029-1.751,16.742-0.717c-18.166,3.369-23.561,5.951-26.83,12.645c11.158-5.999,15.951-6.714,26.982-3.482
	c-9.781-0.974-17.619,0.589-23.904,7.059c7.316-2.51,14.729-3.873,22.432-2.544c0.527,0.091,0.451,0.385-0.16,0.463
	C605.525,123.874,605.348,123.878,604.846,123.9L604.846,123.9z M160.513,319.429c-14.948,2.85-29.737,4.9-40.27,17.194
	c3.482-1.809,6.964-3.617,10.446-5.424c-3.428,4.797-8.04,7.944-14.392,10.75c6.208,1.216,9.796-1.928,14.676-3.458
	c-2.793,4.353-6.424,5.54-10.525,6.631c4.27,2.492,7.682-0.327,11.562-1.32c-1.651,4.561-5.903,3.667-8.601,5.438
	c1.759,2.036,4.485,0.805,6.614,2.207c-6.098,4.042-9.92-3.153-15.525-3.455c4.879,8.34,9.594,10.181,17.752,7.284
	c6.6-2.343,12.447-6.102,18.121-10.124c9.168-6.501,18.513-12.676,29.152-16.578c2.226-0.816,4.437-1.673,7.742-2.921
	c-7.476-1.307-13.268-0.316-18.818,2.608c-5.154,2.715-9.66,6.401-14.475,9.625c5.85-6.476,12.618-11.589,21.993-14.49
	c-6.239-1.032-10.494,1.233-14.3,4.153c-3.941,3.024-7.52,6.532-11.186,9.905c-3.336,3.071-6.436,6.434-10.612,8.396
	c4.588-5.398,8.138-11.611,14.024-15.85c-6.085-0.082-9.951,3.927-14.404,6.865c1.889-4.26,4.999-7.201,9.063-9.209
	c5.469-2.702,11.385-3.989,17.208-5.604c3.163-0.877,6.673-1.428,8.877-5.213C169.663,317.748,165.314,318.54,160.513,319.429
	L160.513,319.429z M634.533,504.786c-1.414,5.981-0.211,11.391,1.695,16.858c-3.693-0.139-3.809-3.549-6.17-4.539
	c-0.404,4.358,4.309,7.564,3.34,10.469c-1.121,3.363-6.697,2.744-10.014,5.167c3.148,2.458,5.98-0.194,9.148-0.546
	c-1.885,4.315-5.947,5.121-9.656,7.742c6.85,0.59,10.383-3.302,14.48-7.734c-0.768,4.346-2.021,7.205-4.443,9.479
	c-2.613,2.46-6.088,1.991-9.609,2.126c1.83,3.123,4.947,1.588,7.217,3.379c-4.104,3.085-10.043,3.273-12.988,9.568
	c4.129-3.436,4.363-1.763,3.293,1.247c2.871-0.538,4.398-3.306,7.318-3.349c-0.377,1.074-0.697,1.99-1.258,3.587
	c2.77-2.015,4.961-3.609,8.305-6.042c-3.939,8.674-8.369,14.385-18.436,13.914c3.25,3.381,6.199,3.342,9.18,3.031
	c7.033-0.732,11.322-4.947,13.539-11.875c3.062,3.6,1.746,7.602,3.34,10.91c7.369-18.312,7.15-36.625,0.162-54.9
	c-1.932,3.238-0.877,6.928-0.533,11.826c-5.412-10.338-4.119-20.043-3.166-30.664C636.395,497.905,635.521,501.124,634.533,504.786
	L634.533,504.786z M617.045,131.672c3.441-2.093,3.441-2.093,5.133-5.183c-9.57,6.641-22.66,1.101-32.836,10.279
	c5.627-1.147,9.602-3.153,15.156-2.485c-4.857,2.327-8.273,4.675-10.873,9.489c4.018-2.283,6.312-5.453,11.234-6.615
	c-4.023,3.134-7.045,5.637-9.334,10.629c3.504-2.55,5.846-4.254,8.188-5.957c-2.311,4.042-5.865,7.195-7.891,12.518
	c3.344-1.765,5.746-3.033,9.578-5.057c-2.402,3.442-5.543,4.379-6.016,8.513c6.344-5.717,13.938-4.946,20.311-7.964
	c-1.959,2.863-5.082,3.948-8.588,6.381c6.178-0.239,9.91-3.319,14.25-5.524c0.262,4.745-2.633,8.55-2.484,12.345
	c0.24,6.114-1.818,11.169-4.312,16.306c-0.668,1.374-0.928,1.177,0.893,2.327c4.182,2.642,6.883,1.208,10.266-0.848
	c-0.943,1.62-1.889,3.239-3.338,5.726c7.381-2.111,13.959-4.057,20.924-2.985c-2.627-0.711-5.281-0.86-7.857-1.389
	c-1.395-0.287-4.359,0.773-3.834-0.198c1.01-1.864-1.51-3.691,0.785-5.331c1.848-1.321,2.885-3.541-1.02-4.24
	c-0.311-0.056-4.109,0.31-2.318-2.718c0.174-0.294,0.01-0.835-0.773-0.846c-3.434-0.049-3.424-0.092-2.293-3.588
	c0.516-1.591,1.498-3.016,1.062-4.9c-0.949-4.1-3.18-7.808-3.344-12.175c-0.096-2.531-0.947-5.033-1.529-7.897
	c-3.188,1.747-5.434,4.712-9.18,4.177c0.15-1.601,2.457-1.138,2.221-2.848c-2.006-1.08-4.441,0.65-6.688-1.104
	c4.494-3.099,10.982-0.812,14.615-5.97c-3.219-0.707-5.736,2.453-8.852,0.992c1.361-1.709,4.4-1.553,4.783-4.286
	C620.742,130.483,619.049,133.919,617.045,131.672L617.045,131.672z M95.866,427.01c9.765-2.503,14.741-12.558,25.327-14.848
	c-11.701,13-14.206,18.074-12.37,25.461c1.497-5.395,2.41-10.549,8.265-14.227c-2.699,4.717-4.896,8.373-4.506,12.879
	c3.928-12.497,18.385-15.05,23.878-26.267c-4.161,1.968-8.315,3.935-12.469,5.899c4.219-7.331,12.887-7.746,19.412-13.542
	c-5.934,1.275-10.483,3.63-15.724,3.131c5.392-2.14,10.784-4.278,16.176-6.419c-2.684-0.107-5.031,0.626-7.424,1.147
	c-2.18,0.474-4.375,1.547-7.263,0.534c32.85-12.277,34.003-12.866,36.211-18.487c-21.629,12.132-44.014,20.879-70.503,16.575
	c1.773,1.468,2.647,2.19,3.625,3c-5.312,2.371-5.312,2.371-6.964,5.476c11.518-4.229,14.434-4.575,18.728-2.216
	c-9.128,2.317-11.456,3.812-13.72,8.807c8.839-5.597,9.366-5.803,15.988-5.824c-6.025,2.266-11.121,4.26-14.647,10.521
	c4.094-2.002,6.378-4.546,10.725-5.202c-6.746,5.33-11.043,12.061-20.198,13.85C91.799,428.443,93.645,427.85,95.866,427.01
	L95.866,427.01z M112.195,454.472c2.582-3.477,1.75-8.595,5.488-12.818c-0.418,3.218-0.722,5.563-1.043,8.044
	c1.871-0.459,1.589-2.783,3.949-2.8c-2.552,5.479-3.247,10.933-0.324,17.368c0.091-5.234-0.179-9.639,4.314-13.285
	c-0.817,5.857-1.616,10.896,0.711,15.748c-0.282-9.655,4.347-17.72,7.892-26.324c-1.446,1.175-2.893,2.35-4.338,3.523
	c2.965-6.522,9.672-9.297,13.79-14.705c-3.015,1.643-6.029,3.285-9.044,4.928c-0.183-0.312-0.364-0.625-0.547-0.937l18.72-12.423
	c-7.443,1.961-13.362,6.441-19.969,9.68c6.496-6.93,15.855-9.686,22.926-15.769c-9.517,4.081-18.932,8.256-26.865,15.104
	c3.248-5.328,8.177-8.441,13.393-11.23c10.345-5.53,20.935-10.622,30.759-17.094c6.301-4.15,10.701-9.62,11.966-17.362
	c-6.823,12.29-18.451,18.396-30.36,24.188c-7.837,3.812-15.411,8.101-22.869,12.632
	C118.195,428.562,112.299,439.738,112.195,454.472L112.195,454.472z M744.801,377.068c-16.568-11.613-34.842-20.667-44.922-39.282
	c2.111,7.873,7.625,13.495,13.273,20.754c-4.242-2.133-6.395-4.638-10-4.569c6.234,5.143,12.471,10.285,18.705,15.428
	c-0.102,0.179-0.203,0.359-0.307,0.539l-6.283-3.467c-0.152,0.246-0.303,0.493-0.457,0.739c2.641,2.811,5.281,5.623,7.922,8.434
	c-2.158-0.584-3.754-1.708-5.367-2.802c-1.578-1.068-3.178-2.105-4.768-3.157c11.02,14.438,27.289,20.334,42.916,27.648
	c-1.926-5.389-5.787-9.29-9-13.612c10.184,7.357,15.729,17.688,18.479,29.805C764.939,397.734,758.289,385.679,744.801,377.068
	L744.801,377.068z M157.422,469.129c-0.796-2.238,1.49-2.55,2.534-3.66c2.55-2.711,4.075-5.709,4.01-10.291
	c-2.738,4.117-4.557,8.342-10.108,8.961c8.304-9.1,9.183-10.845,7.861-14.951c-3.189,8.362-12.268,11.264-17.16,18.201
	c0.51-4.146,2.674-7.467,5.385-10.978c-2.297,0.145-2.815,2.353-4.886,1.96c2.45-5.145,7.223-7.24,10.954-10.404
	c6.627-5.615,7.804-7.24,7.779-12.021c-3.263,5.072-8.047,8.193-12.75,11.391c-8.868,6.029-12.265,14.185-10.57,24.879
	c0.716,4.516,2.232,5.472,6.097,2.887c-0.39,5.104,2.417,7.547,6.266,5.87c2.48-1.081,4.824-2.474,7.228-3.726
	c-5.798,10.872-14.931,14.666-28.031,12.262c9.1,5.383,15.848,4.927,23.432-1.324c9.826-8.102,16.741-18.33,20.667-30.498
	c0.372-1.152,1.487-2.388,0.339-3.801c-9.677,14.554-9.677,14.554-14.001,15.072c1.605-2.377,4.039-4.203,4.081-8.326
	C163.797,464.494,161.711,467.893,157.422,469.129L157.422,469.129z M492.193,92.783c0.281-1.726-0.158-3.316,1.734-4.135
	c0.174,6.434,0.154,12.793,2.816,18.852c0.932-5.903,3.74-10.876,6.854-16.895c0.643,6.212-1.918,11.004-1.59,17.242
	c3.68-6.637,5.188-12.667,5.398-20.366c3.285,7.525,4.258,14.253,5.43,21.648c3.898-14.229-1.771-28.567-12.686-32.863
	c0.906,5.792,1.904,11.533-2.135,17.5c-1.045-8.858-1.742-17.009-10.041-22.909c0.811,3.196,1.459,5.349,1.883,7.544
	c0.396,2.067,0.557,4.182,0.822,6.275c-4.186-11.537-10.271-20.345-23.867-22.716c12.139,13.137,12.021,13.147,13.654,31.864
	c0.6,6.858,2.076,13.603,5.941,19.597c-0.941-9.206-5.207-17.964-3.518-28.482c0.854,3.056,0.234,5.613,2.205,7.322
	c1.234-1.828-0.48-4.159,1.148-6.004c1.691,5.366,1.148,11.286,5.166,16.769C491.707,99.129,491.932,96.168,492.193,92.783
	L492.193,92.783z M462.096,251.289c-8.817,0.791-17.167,1.282-25.431,2.395c-11.104,1.496-22.077,3.728-32.444,8.231
	c-6.869,2.984-9.909,5.314-12.354,9.691c9.518-6.007,19.566-9.438,30.066-11.438c40.161-7.644,80.628-6.643,121.12-3.841
	c9.496,0.658,18.936,2.155,28.402,3.266c-7.41-3.361-15.234-5.041-23.16-5.883C519.803,250.683,491.24,249.495,462.096,251.289
	L462.096,251.289z M657.814,560.854c-2.193-3.115-2.955-6.539-4.523-9.721c-1.285,3.467-1.592,6.924-1.168,10.404
	c0.428,3.52,0.941,7.047,1.719,10.502c1.398,6.217,1.494,6.195-0.539,10.317c-0.771-9.91-5.08-18.702-3.994-28.368
	c-3.199,6.903-2.039,13.891-0.674,20.885c1.146,5.869,3.062,11.792-2.279,17.732c7.479-2.065,9.383-7.586,11.648-12.936
	c5.475,2.908,9.232,8.127,15.393,9.311c-5.379-3.702-9.961-8.021-13.139-14.836c3.609,2.566,5.316,6.037,9.424,7.551
	c-1.672-2.126-2.895-3.68-4.117-5.234c5.752,2.811,10.238,7.529,16.773,8.377c-4.371-2.826-9.039-5.193-13.67-10.023
	c4.76,1.705,8.176,2.929,11.592,4.152c-13-9.902-20.777-22.643-23.086-38.844c-0.506,1.466-0.689,2.795-0.668,4.122
	c0.096,5.74,1.119,11.306,3.201,16.675c0.193,0.498,1.295,1.838-0.65,1.371C658.633,562.19,658.34,561.536,657.814,560.854
	L657.814,560.854z M557.721,500.295c-5.557-15.535-15.625-28.211-22.195-42.75c1.758,7.014,4.77,13.438,8.295,19.631
	c4.781,8.398,8.822,17.123,10.598,26.679c1.707,9.18,4.627,18.696-4.514,26.261c4.719-1.923,6.703-5.937,8.537-10.657
	c5.125,6.816,6.807,14.661,10.826,21.281c4.189,6.901,9.344,12.621,18.586,14.905c-3.299-5.783-7.172-9.573-8.918-15.47
	c-1.975-6.673-5.051-14.088-11.736-18.497c-1.064-0.701-2.193-1.729-2.408-3.314c1.725,0.449,2.334,2.662,5.348,2.582
	C564.078,514.866,560.533,508.018,557.721,500.295L557.721,500.295z M152.516,495.576c4.644-1.365,8.846-3.062,11.639-6.74
	c6.833-9,13.053-18.479,21.101-26.602c-0.98,0.131-1.688,0.549-2.352,1.029c-6.757,4.887-11.024,12.051-16.468,18.137
	c-8.195,9.164-17.516,15.779-30.592,15.426c-5.76-0.156-7.41,1.39-8.308,5.56c6.797-4.633,11.8-5.282,16.926-2.021
	c-3.151-0.055-6.296-1.535-10.051,1.689c6.182-0.936,10.364,1.106,14.424,3.618c-5.338-0.767-10.567-2.822-15.839-0.374
	c3.306,0.943,6.961,0.252,10.42,3.469c-5.872-0.812-11.042-2.02-15.307,2.096c6.41-0.496,12.427,1.402,18.549,2.34
	c4.301,0.659,10.042,0.192,10.962-3.15c0.88-3.195,3.77-4.381,4.542-7.323c-3.289-0.077-6.062,2.13-10.463,0.212
	c12.535-0.717,18.774-8.822,25.179-16.666c-2.313,1.601-4.331,3.569-6.438,5.438c-2.258,2.001-4.491,4.061-6.938,5.807
	c-2.176,1.554-4.638,2.69-8.402,1.98c4.053-2.142,7.778-3.143,9.843-7.455c-4.198,1.9-7.464,4.531-11.597,4.921
	c-0.65,0.062-1.417,0.421-1.703-0.515C151.588,496.266,152.004,495.935,152.516,495.576L152.516,495.576z M535.158,110.785
	c-1.602,4.105-3.303,7.838-4.527,11.723c-1.178,3.737-1.807,7.636-1.527,13.043c4.059-10.887,6.408-21.144,15.488-29.432
	c-5.658,12.708-5.758,13.1-4.527,17.661c3.51-8.778,6.641-17.542,15.906-22.952c-0.668,4.107-2.854,7.338-1.766,11.121
	c2.564-6.991,6.309-13,13.34-18.066c-3.109,5.766-5.678,10.557-5.973,17.453c7.379-10.766,10.09-23.834,23.156-28.331
	c-13.775,0.722-24.311,7.422-33.104,17.573c0.293-2.826,0.945-5.196,1.441-7.598c0.475-2.292,1.594-4.63-0.266-7.685
	c-1.562,5.471-2.744,10.464-6.689,14.38c0.59-9.229,0.59-9.229-1.564-12.585C544.166,96.119,541.66,104.095,535.158,110.785
	L535.158,110.785z M696.141,249.777c-7.895-2.646-13.525-7.439-17.768-14.222c-5.436-8.692-10.812-17.486-19.111-23.922
	c-8.666-6.719-17.984-10.369-30.523-6.235c15.652-1.375,26.043,5.406,34.803,15.657c-8.432-6.531-17.342-11.838-28.369-12.016
	c5.797,1.539,11.539,3.162,16.965,8.197c-5.691-1.25-10.17-3.613-16.537-2.824c9.26,4.611,16.885,9.387,23.871,15.181
	c0.373-0.446,0.748-0.894,1.123-1.34l-6.855-6.07c3.551,0.648,6.271,2.607,8.633,4.892c3.957,3.828,7.771,7.824,11.412,11.956
	c6.035,6.856,13.639,10.657,22.504,12.158c0.203,0.034,1.908,1.068,1.078-0.753C697.248,250.181,696.762,250.094,696.141,249.777
	L696.141,249.777z M184.797,543.014c-0.124-1.141-0.55-2.021,0.446-2.936c0.893,1.366,1.677,2.748,2.642,3.987
	c0.952,1.223,1.699,2.841,4.005,3.124c-13.861-21.354-5.49-40.895,3.352-60.573c-7.25,5.63-12.193,12.938-16.316,21.021
	c-5.735,11.24-11.103,22.92-23.992,28.127c10.404-1.597,16.634-8.457,21.511-17.959c0.022,5.501-2.882,8.926-5.875,13.44
	c5.4-2.238,6.168-6.965,8.966-10.257c-1.877,8.785-2.686,17.271,2.276,25.904c0.223-3.25-1.425-5.786-0.157-8.781
	c1.714,2.352,1.425,5.424,4.009,8.025C185.24,544.612,185.061,543.969,184.797,543.014L184.797,543.014z M535.447,110.011
	c1.133-2.763,2.145-5.037,3.033-7.357c2.188-5.715,1.84-11.283-1.332-18.163c-0.541,9.521-1.084,17.604-6.67,24.831
	c-0.049-6.135,1.883-11.864-2.727-18.104c0.602,6.427,1.121,11.578-1.451,16.97c-3.855-16.147-5.936-19.78-12.582-22.325
	c12.031,16.804,8.803,33.395-0.861,49.944c2.725,0.222,3.084-3,5.51-3.128c-0.41,4.717-3.295,8.653-4.389,14.54
	c8.719-9.127,8.305-20.72,13.305-30.998c0.385,3.501-0.908,5.977,0.594,8.787c1.719-5.611,3.492-10.806,7.492-14.761
	C535.352,110.28,535.268,110.479,535.447,110.011L535.447,110.011z M781.043,475.865c0.443-1.285,1.615-1.984,0.889-3.558
	c-5.1,4.328-9.701,9.51-17.951,9.771c6.066-3.673,10.902-7.354,13.129-15.396c-5.332,5.661-10.775,6.92-16.861,6.48
	c-4.957-0.356-9.943-0.434-14.914-0.371c-4.17,0.052-8.436-0.175-13.131,1.944c10.514,0.694,20.223,1.335,30.773,2.031
	c-8.479,5.823-16.723,1.583-24.73,1.764c5.35,2.487,10.578,5.005,16.633,4.698c-7.303,3.064-14.492,0.284-21.738-0.162
	c10.529,4.701,21.43,6.691,32.857,4.219C772.572,485.863,777.695,482.285,781.043,475.865L781.043,475.865z M122.767,720.221
	c20.134-14.437,40.199-28.253,62.586-38.254c1.257-0.562,2.929-0.826,2.632-2.787c-0.208-1.379-0.18-3.225-1.035-3.984
	c-1.709-1.519-3.295,0.411-4.717,1.196c-29.259,16.159-55.619,36.388-80.965,58.03c-0.597,0.51-1.464,0.963-1.151,2.472
	C107.676,731.328,115.066,725.886,122.767,720.221L122.767,720.221z M137.93,312.732c-9.678,5.845-18.132,12.291-21.52,23.55
	c9.476-12.49,23.963-14.316,37.55-18.083c-6.263-0.429-12.178,1.112-19.409,2.843c11.344-7.418,24.236-4.396,34.655-10.17
	c-7.96,1.514-15.944,1.842-23.99,2.143c9.303-5.799,21.842-4.323,29.492-13.524c-5.244,1.576-10.055,4.196-15.327,5.688
	C152.209,307.208,144.967,309.093,137.93,312.732L137.93,312.732z M591.109,455.969c0.193,0.155,0.621-0.097,0.986,0.115
	c2.189,0.702,3.557,2.422,6.369,2.266c-7.562-9.018-18.439-9.939-27.789-14.255c3.186,0.587,6.369,1.175,9.553,1.761
	c-13.504-6.744-28.969-8.553-42.375-18.908c1.094,4.645,3.305,6.461,5.172,8.437c6.848,7.239,15.867,10.511,24.984,13.636
	C575.555,451.605,583.613,452.43,591.109,455.969L591.109,455.969z M141.276,522.021c4.391-0.604,8.464-1.225,12.764-1.883
	c-0.9,2.459-3.732,1.844-4.612,3.883c3.929,0.942,6.974-2.436,11.115-2.49c-3.017,4.061-7.307,5.658-10.886,8.789
	c10.551-0.957,23.269-11.129,25.535-20.105c-2.38,0.656-3.137,3.874-6.469,3.803c2.607-3.235,5.869-5.708,6.623-10.818
	c-4.179,4.764-6.992,9.723-14.277,11.655c4.841-3.995,9.036-6.708,10.353-12.194c-14.28,13.059-14.28,13.059-37.492,11.643
	c4.984,3.65,10.458,2.434,15.743,3.037c-1.313,2.158-3.603,1.662-5.221,2.562C143.264,520.563,141.144,519.661,141.276,522.021
	L141.276,522.021z M135.11,458.879c-0.397-9.637,3.543-16.125,11.812-20.104c2.712-1.305,5.259-2.957,7.854-4.496
	c1.548-0.916,3.185-1.789,4.102-4.037c-27.766,9.919-34.421,22.662-26.082,49.052c0.722-1.416-0.402-3.296,1.022-4.878
	c0.915,2.237,0.524,4.524,2.288,6.385c0.318-1.158,0.582-2.118,0.926-3.371c1.125,2.237,1.207,4.798,3.649,6.812
	c-1.778-11.304-3.868-21.942,0.262-33.949c-4.37,5.312-3.534,10.715-5.422,16.938C135.316,463.551,135.199,461.45,135.11,458.879
	L135.11,458.879z M499.994,282.152c9.689,0.93,18.91,1.614,28.076,2.744c8.926,1.101,17.793,2.657,26.688,4.013
	c0.047-0.52,0.098-1.039,0.146-1.559c-32.809-7.548-65.926-10.863-99.577-6.793C470.055,280.353,484.783,280.948,499.994,282.152
	L499.994,282.152z M661.309,195.527c-6.811-0.542-13.193,1.106-19.656,5.27c12.809,2.382,21.18,9.952,28.564,19.137
	c-2.012-5.686-6.492-9.536-11.271-14.371c4.635,1.073,6.434,4.466,9.828,6.384c-1.938-5.678-6.939-7.2-11.037-10.349
	c6.395-0.083,11.232,2.845,17.133,5.688c-4.439-7.792-10.367-10.282-18.424-9.205C658.059,196.174,659.785,196.385,661.309,195.527
	L661.309,195.527z M645.051,195.802c1.742-0.147,3.258-0.016,4.537-0.505c7.859-3.01,15.34-1.634,22.766,1.569
	c1.672,0.721,3.268,1.948,5.328,1.681c-0.695-1.8-3.184-1.507-3.777-3.699c1.592,0.162,2.986,0.303,5.443,0.553
	c-5.729-4.014-11.592-2.845-17.717-4.441c4.355-1.1,8.098,0.747,11.834-2.101c-12.564,2.15-23.852-5.99-35.895-1.982
	c4.424-0.215,8.662,0.687,12.906,2.069c-0.59,1.226-2.689,0.784-2.898,2.468c2.531,0.701,5.121-0.71,7.648,0.71
	c-3.992,1.059-7.74,2.052-11.488,3.045c0.148,0.191,0.27,0.422,0.457,0.561C644.318,195.819,644.539,195.776,645.051,195.802
	L645.051,195.802z M198.685,512.297c-3.958,5.527-2.876,12.137-4.665,18.023c-1.518-3.984-0.465-8.029-0.938-12.481
	c-6.838,11.931-0.067,31.038,11.276,32.396c-5.975-6.443-7.354-14.082-7.226-22.361
	C197.215,522.524,198.811,517.431,198.685,512.297L198.685,512.297z M576.857,429.678c4.887-0.799,9.002-2.004,10.98-6.963
	c-8.559,2.779-12.855,5.021-31.357,1.964C562.543,428.542,569.08,430.644,576.857,429.678L576.857,429.678z M559.043,281.739
	c-5.564-0.798-10.559-2.634-15.861-1.96c14.938,3.698,29.871,7.312,44.848,13.935c-1.559-2.628-3.326-3.121-4.848-3.867
	C575.635,286.142,567.619,283.795,559.043,281.739L559.043,281.739z M545.609,310.537c-2.975-0.001-5.449-0.001-7.926-0.001
	c14.301,1.502,28.631,2.261,42.789,4.791C569.338,311.377,557.744,310.812,545.609,310.537L545.609,310.537z M590.744,456.148
	c4.516,6.98,12.178,10.927,15.984,18.403c-1.404-6.374-5.154-10.981-10.381-14.534c-1.721-1.168-3.793-1.967-4.717-4.146
	C591.326,455.856,591.121,455.837,590.744,456.148L590.744,456.148z M663.68,840.378c-0.521,1.825,1.973,2.332,1.771,4.057
	c-1.643,0.731-2.211-1.524-4.52-1.287c6.547,6.34,0.709,13.737,2.779,21.438c-6.178-4.881-11.576-9.693-17.932-13.084
	c-7.381-3.935-14.621-8.189-22.225-11.633c-23.482-10.634-43.037-26.272-59.658-45.812c-6.137-7.218-12.861-13.781-21.154-18.652
	c-1.715,1.342,0.555,2.535-0.268,4.319c-5.734-4.686-11.445-2.76-17.35-0.022c-6.129,2.841-12.406,5.412-18.967,7.139
	c-6.859,1.805-12.943-0.193-17.045-5.68c5.775,0.803,11.273,2.433,16.988,0.927c4.648-1.226,7.246-3.397,7.482-8.761
	c0.668-15.171,5.564-29.912,6.236-44.894c0.406-9.043,2.709-16.363,7.352-24.157c-3.236-0.434-5.328,0.929-7.488,2.342
	c-8.264,5.404-13.164,13.3-16.797,22.223c-2.121,5.213-4.477,10.331-7.096,15.357c-0.338-7.068,2.93-13.277,4.412-19.909
	c-7.625,11.113-10.158,23.982-12.787,37.595c-1.605-4.192-0.109-7.764-1.025-11.962c-3.861,9.663-2.619,19.131-2.795,28.694
	c-4.012-0.487-6.748-2.969-9.604-4.827c-13.215-8.599-26.407-8.146-39.829-0.666c-6.996,3.898-14.018,7.754-21.098,11.496
	c-10.806,5.71-22.09,7.742-34.019,3.984c-1.145-0.36-2.483-0.463-3.333-2.409c16.402-1.033,31.11-4.874,36.928-22.888
	c-8.907,18.66-25.233,21.264-43.221,20.29c7.74-2.416,15.679-4.42,21.998-9.943c1.41-1.233,3.183-2.196,4.097-5.144
	c-10.507,8.728-21.828,13.024-34.732,12.957c-9.979-0.052-19.689-1.393-29.023-5.042c12.584,0.516,25.138,1.39,37.145-3.675
	c-25.96,3.677-50.628,0.576-73.358-13.298c19.35,4.116,38.422,10.553,58.63,6.366c-22.5-1.684-44.451-5.854-65.049-15.306
	c-28.126-12.906-52.965-30.614-74.231-53.177c-7.515-7.974-10.291-17.742-9.247-28.597c0.429-4.46,2.496-8.091,5.909-11.014
	c2.661-2.279,5.203-4.697,7.288-7.842c-2.767,1.251-5.533,2.501-8.3,3.751c7.831-7.038,14.916-14.444,19.911-23.748
	c-1.496,1.4-2.991,2.801-4.486,4.201c8.059-15.954,21.769-26.476,36.269-37.554c-4.427,0.516-6.659,3.369-10.977,5.023
	c2.495-3.02,4.11-4.974,5.757-6.967c-1.567-1.305-2.229,0.822-3.777,0.346c1.031-4.396,5.047-7.076,7.722-11.948
	c-5.706,3.109-10.473,5.868-16.606,4.911c9.133-5.361,16.662-12.113,21.226-22.848c-6.374,3.277-11.407,7.836-19.774,7.154
	c7.651-4.828,10.548-12.402,16.416-17.439c-4.798,0.972-7.512,4.953-11.224,8.036c-0.982-1.433,0.722-2.511,0.205-4.489
	c-6.218,4.381-12.092,9.34-20.899,9.087c5.863-3.702,10.482-7.736,14.333-13.987c-6.394,2.277-11.769,5.717-19.447,3.287
	c5.114-1.283,9.248-1.788,12.854-5.441c-7.097,1.426-13.157,0.429-18.862-3.084c2.438,0.215,4.875,0.43,7.312,0.646
	c-8.125-3-15.257-7.435-21.425-13.777c13.145,4.419,26.251,9.112,39.182-0.438c-10.307,2.742-20.485,4.102-31.318-2.348
	c4.976-0.882,8.915-1.297,12.181-5.658c-6.037,2.707-11.18,6.451-17.58,1.101c5.018-0.313,9.227-0.72,12.341-4.338
	c-0.62-0.18-0.979-0.421-1.201-0.329c-9.713,3.971-12.061,2.354-11.8-8.266c0.068-2.791-0.186-5.681,1.616-8.575
	c2.804,4.886,5.859,9.184,12.811,8.192c-4.315-6.301-8.632-12.193-6.392-20.377c1.541,3.055,3.002,6.154,4.648,9.152
	c1.595,2.906,3.122,5.941,6.789,7.34c-8.377-11.637-15.934-23.294-4.217-38.68c-1.012,8.024-2.821,14.742,0.822,21.115
	c-0.128-5.277-0.497-10.556,2.93-15.324c-2.466,8.277,0.977,15.102,4.54,21.99c1.997,3.863,2.417,8.118,1.174,12.962
	c4.405-1.709,4.072-5.822,5.968-9.489c1.809,6.693,0.585,12.258-1.599,17.92c2.277,0.286,2.125-2.214,3.646-2.615
	c1.143,1.688-0.171,3.359-0.012,4.936c0.093,0.921-3.992,3.75,1.042,3.319c0.64-0.055-0.155,1.542-0.633,2.188
	c-1.126,1.517-2.373,2.942-3.988,4.914c5.353-0.31,8.167-2.599,9.367-7.134c1.891-7.145,0.626-14.178-0.698-21.177
	c-1.487-7.868-3.231-15.687-4.878-23.522c-1.145-5.446-1.192-10.918-0.678-16.411c-2.671,9.486-0.39,18.907,0.521,28.396
	c-3.972-8.023-4.278-16.801-5.173-26.449c-1.821,4.822-0.915,8.844-1.08,13.963c-4.022-9.804-1.126-18.947-2.232-28.445
	c-1.91,6.484-1.482,12.561-2.214,18.541c-1.414-6.199-1.749-12.504-2.329-18.869c-0.208,1.67-0.417,3.342-0.761,6.082
	c-3.264-6.215-3.884-12.039-4.681-17.724c-1.192-8.5-1.506-17.063,0.788-25.478c2.889-10.6,9.272-15.597,20.208-16.717
	c5.468-0.56,11.497,0.639,16.031-4.194c-7.655,4.731-16.104,0.744-24.253,2.937c1.333-5.737,6.564-7.057,9.986-10.518
	c-3.035-0.331-4.485,2.426-7.609,3.218c1.814-4.36,6.054-6.021,9.028-10.309c-7.356,3.463-10.355,9.643-15.562,14.879
	c0.623-6.4,4.209-10.522,7.396-15.997c-6.979,2.738-7.913,8.522-10.502,13.883c-1.013-3.55,1.166-6.379-0.02-9.634
	c-3.797,4.967-3.63,11.129-6.061,17.804c-1.06-16.938,4.958-28.727,18.169-37c-3.962,0.92-6.793,3.437-9.667,5.799
	c-2.946,2.422-5.715,5.059-8.85,7.302c2.573-8.54,9.684-12.911,16.135-17.96c-7.182,2.377-12.312,7.72-17.984,12.294
	c5.544-12.997,17.621-17.287,29.258-22.25c-12.679,1.042-23.083,7.069-32.87,14.695c5.842-10.394,14.516-16.831,26.591-18.574
	c-10.023-1.002-13.859,0.723-24.662,10.811c2.155-7.789,10.736-14.331,19.113-14.736c7.507-0.363,14.907,0.979,22.376,1.191
	c18.385,0.522,23.462-2.775,30.232-19.804c0.316-0.796,0.657-1.583,1.137-2.735c0.931,6.912-3.299,17.366-9.327,20.961
	c-4.128,2.463-7.276,6.047-11.507,8.347c-6.061,3.297-9.982,8.846-13.654,14.857c2.75-0.42,3.442-3.205,6.005-4.182
	c-0.005,3.351-2.606,5.323-3.178,8.242c5.492-5.685,7.035-14.544,15.459-19.655c-3.197,7.227-5.865,13.255-8.532,19.284
	c6.011-9.109,8.426-20.909,20.329-25.047c-0.827,7.038-3.16,13.754-6.094,21.872c3.655-3.45,3.389-7.152,5.568-10.46
	c1.261,7.752-2.368,13.264-5.505,19.12c1.45,0.328,1.699-0.984,2.306-1.602c0.601-0.611,1.001-1.421,1.935-1.914
	c0.845,11.98-10.63,17.937-13.936,27.932c4.263-7.376,11.599-12.455,15.062-20.437c-0.942,11.717-10.774,19.204-14.34,29.679
	c4.729-8.158,11.637-14.835,15.3-23.671c1.174,11.483-10.455,17.966-10.558,28.937c1.858-7.16,6.509-12.567,11.39-18.766
	c0.425,6.802-3.144,11.87-5.957,16.367c-2.76,4.411-2.197,8.233-1.408,12.239c1.036,5.256,3.723,9.943,7.202,14.191
	c1.296-1.488-1.147-2.762,0.342-4.24c1.934,0.24,1.998,3.041,4.481,3.609c-2.711-6.305-5.31-12.359-5.763-19.102
	c4.873,6.435,10.013,12.438,17.925,18.089c-5.795-11.222-8.94-21.595-9.178-32.809c4.285,9.231,6.833,19.41,15.263,26.837
	c-1.056-11.686-6.367-22.238-4.808-34.686c3.086,6.521,2.68,13.402,6.726,18.699c-2.851-12.371-0.515-24.72-0.41-37.111
	c2.035,4.866,2.299,10.302,6.199,16.028c-1.228-8.725-3.261-15.992,0.306-23.198v5.976c2.375-5.826,4.857-11.31,8.547-16.279
	c3.661-4.933,5.866-10.508,5.941-18.058c-2.467,4.787-4.68,8.368-10.038,10.097c2.929-4.885,6.357-8.523,7.562-14.22
	c-8.46,8.021-11.991,18.1-16.863,27.452c-0.399-2.588,0.365-4.945,1.25-7.248c0.927-2.41,2.007-4.762,2.687-7.27
	c-6.78,6.501-8.41,15.232-10.319,24.141c-2.49-7.125-0.378-12.818,12.731-34.658c-4.024,0.985-7.01,3.823-11.973,4.059
	c7.947-6.996,15.235-13.327,18.705-22.99c-5.608,4.352-11.216,8.703-16.825,13.053c4.16-6.958,10.643-11.638,15.253-18.267
	c-6.549,5.554-13.099,11.108-20.728,17.578c3.082-8.389,8.826-13.301,13.826-20.362c-8.284,3.84-12.587,9.964-17.9,15.163
	c1.03-4.827,3.284-9.024,6.896-12.315c4.602-4.192,9.499-8.057,14.206-12.134c3.498-3.029,6.708-6.314,8.759-12.03
	c-5.361,3.798-10.235,5.845-16.579,3.615c4.899-2.338,10.296-3.274,12.632-9.236c-6.197,2.435-12.027,5.912-19.597,1.479
	c7.69-0.146,14.417,0.095,19.142-7.165c-5.862,1.678-11.053,3.722-16.538-0.627c3.573-1.099,6.863,1.075,9.686-0.948
	c-0.721-1.839-2.746-0.186-3.593-1.567c1.748-1.456,4.407-1.329,6.269-3.778c-2.754-0.369-5.302,0.901-8.28-0.325
	c4.047-1.94,8.269-3.067,11.211-7.66c-4.589,1.324-8.258,2.382-12.433,3.586c2.049-5.657,8.337-3.807,11.695-7.864
	c-6.199,1.153-12.007,0.768-17.197,3.843c3.817-8.127,13.561-5.04,19.236-9.814c-3.868-0.13-7.588,0.431-11.496-2.499
	c4.054-1.247,7.846,0.678,11.31-1.217c-1.422-1.724-4.227-0.054-5.202-2.189c-0.076-0.166,1.211-0.955,2.006-1.561
	c-1.752-0.771-3.739,0.374-5.252-1.477c1.726-1.241,3.577-2.571,5.973-4.291c-3.803,0.151-6.688,2.222-10.482,0.937
	c5.225-3.534,10.927-6.162,12.86-13.977c-3.757,3.711-6.216,7.561-11.088,8.062c0.77-2.557,3.93-2.92,4.051-5.657
	c-3.401-0.078-6.504,1.938-9.903,1.268c-0.633-0.126-1.203-0.571-2.593-1.262c5.257-1.309,10.164-1.658,13.322-5.956
	c-1.796-1.087-3.164,1.7-5.273-0.008c8.02-5.626,14.698-12.522,22.307-20.051c-6.693,2.119-10.352,7.972-16.811,7.904
	c7.178-4.241,12.923-10.565,22.008-14.115c-4.763-0.035-7.209,2.778-10.602,2.854c3.022-3.546,7.207-4.924,11.596-5.716
	c12.973-2.339,25.909-0.544,38.823,0.674c10.201,0.961,20.134,0.125,29.863-3.244c-8.5-0.638-16.772-2.371-26.574-4.191
	c12.311-3.41,23.101,2.648,33.93-0.251c-10.608-0.473-20.084-5.63-31.874-7.055c12.646-4.578,22.398,4.36,34.021,3.282
	c-4.175-2.69-9.008-2.585-12.442-5.462c0.816-0.724,1.475-0.343,2.11-0.076c7.248,3.05,14.467,4.597,22.648,3.99
	c10.036-0.745,20.231,1.134,30.354-0.326c1.867-0.269,3.92,0.097,5.768-1.775c-12.623,0.306-24.563-2.555-36.701-3.973
	c8.986-1.183,17.926-1.198,26.913,0.212c8.872,1.391,17.784,3.136,26.78,0.604c-16.354-0.848-32.228-4.879-48.441-7.021
	c5.088-1.348,10.241-1.153,15.361-0.889c5.502,0.284,10.996,0.798,16.48,1.331c5.281,0.512,10.545,1.176,15.883,1.41
	c-5.988-3.304-12.406-4.651-19.215-4.643c-6.917,0.008-13.879,0.809-20.727-0.96c-4.091-1.056-7.703-2.905-10.751-6.104
	c9.288,4.958,18.968,3.413,28.73,2.906c12.91-0.67,25.008,3.305,36.318,9.222c4.145,2.167,6.863,3.401,8.334-4.873
	c1.309,8.108,4.096,6.844,8.018,4.791c7.162-3.749,14.736-2.609,23.066-0.567c-4,1.543-8.031-0.149-11.232,3.897
	c7.49-1.543,14.146-1.508,20.27,2.335c-3.74,0.11-7.473-0.636-11.195,0.279c12.773,0.672,24.938,5.629,38.275,4.831
	c-3.34,2.846-3.34,2.846-20.062,1.471c7.25,3.935,14.377,5.035,23.164,3.906c-4.885,3.43-9.125,2.774-13.635,2.4
	c3.867,3.787,3.867,3.787,15.732,0.1c-0.275,2.469-3.01,2.91-3.773,5.188c2.961-0.44,4.629,1.144,4.689,3.857
	c0.127,5.68,1.844,6.988,7.029,4.922c-1.412,4.3-1.232,4.685,2.562,5.568c0.281,0.065,0.779,0.312,0.766,0.364
	c-1.686,6.343,2.623-0.064,3.049,1.272c1.238,1.493-1.334,2.116-0.346,3.455c2.791-0.228,5.438-2.572,8.686-0.99
	c-2.031,1.77-5.268,1.552-6.445,4.346c3.164,0.252,5.936,3.626,9.494,0.478c-1.324,2.521-4.082,2.617-5.211,4.964
	c2.396,0.563,4.111-2.102,6.52-1.26c-0.514,0.757-0.979,1.443-1.82,2.686c6.42-1.042,12.453-2.023,18.252,0.726
	c-6.602,0.196-13.043,0.663-19.162,5.722c6.357,0.107,11.635,1.051,16.932,5.156c-4.264-0.739-7.641-1.462-12.137,0.167
	c6.586,2.484,11.781,5.128,16.658,10.722c-5.65-2.299-10.008-4.306-16.084-4.039c6.766,5.076,12.125,10.221,16.309,16.857
	c-3.02,1.076-5.463-0.808-8.111-0.482c0.59,2.453,3.379,2.589,4.293,4.473c-0.482,1.253-2.246-0.292-2.615,1.408
	c1.754,1.099,3.543,2.219,5.561,3.483c-1.262,1.539-3.02,0.08-4.279,0.81c2.309,3.202,1.105,7.856,4.797,10.224
	c-3.213,3.329,0.844,4.689,1.854,6.878c1.311,2.844,1.596,6.199,4.176,8.411c-2.959,1.664,1.584,4.815-1.666,7.215
	c-1.604,1.185,2.648,3.916,3.082,6.613c-2.084,0.102-2.67-2.195-4.84-2.713c2.01,7.282,4.021,14.333,5.869,21.428
	c0.439,1.691,0.686,3.595,0.369,5.278c-0.299,1.585-1.096,0.448-1.689-0.529c-0.859-1.677-1.281-3.283-3.088-4.183
	c-0.826,1.838,0.006,3.473,0.379,5.08c2.799,12.08,4.885,24.854,2.67,36.582c-3.02,15.98-1.252,31.727-2.123,47.538
	c-0.352,6.384,0.836,12.702,3.209,18.925c2.152-1.83,1.936-4.963,5.293-6.483c-5.25,11.263-5.121,22.755-5.922,34.172
	c-2.758-4.229-2.547-9.011-2.984-14.751c-1.742,8.34-1.467,15.598-0.541,22.851c-2.018,0.624-1.473-1.833-2.885-1.765
	c-0.664,1.875,0.098,3.682,0.355,5.545c0.139,0.996,1.691,3.482-1.84,1.878c-2.609-1.187-1.807,1.929-1.943,3.063
	c-1.969,16.268-3.715,32.563-5.68,48.831c-1.588,13.148-2.992,26.344-7.225,39.03c1.557-11.235,3.283-22.451,4.643-33.712
	c4.418-36.608,10.109-73.134,12.701-109.876c3.623-51.357,1.104-102.583-11.262-152.931c-7.227-29.429-23.74-53.002-45.68-73.156
	c-15.729-14.45-35.152-17.623-55.527-18.018c-17.676-0.343-35.166,1.699-52.697,3.383c-3.827,0.368-7.69,0.366-12.071,0.558
	c1.077,1.22,1.799,2.039,2.831,3.208c-7.764-0.95-14.962-2.165-23.717-0.22c3.542,0.35,5.588,0.553,8.652,0.856
	c-5.587,1.378-10.488,1.324-15.225,3.261c1.51,2.563,4.924,0.997,6.616,3.562c-20.167-1.975-39.401,8.456-59.534,3.075
	c4.938-0.473,10.028,0.308,14.726-2.146c-10.294-0.116-20.371-2.885-30.904-0.084c-8.704,2.314-13.006,9.918-20.354,13.64
	c5.787-0.822,11.257-3.229,17.095-1.116c-4.096,0.629-8.322,0.386-12.233,2.008c-3.843,1.596-6.746,4.167-8.942,8.706
	c7.374-5.283,7.374-5.283,12.654-5.463c-5.023,3.217-9.648,6.083-10.731,12.758c2.623-2.167,3.508-5.247,7.051-6.159
	c-1.1,2.451-2.232,4.479-2.937,6.646c-1.527,4.701,0.23,7.398,5.096,8.208c3.888,0.646,3.888,0.646,7.228,3.478
	c-2.252,1.356-5.139-0.035-7.28,2.235c2.233,0.4,4.558-0.518,6.491,0.832c-1.167,1.47-3.303,0.145-4.53,2.223
	c2.966,0.892,6.431-0.559,9.385,2.229c-6.134,1.188-11.979,2.211-15.111,8.097c5.989-3.315,12.23-4.278,18.996-2.514
	c-5.897,2.194-13.006,2.072-17.267,9.666c5.61-2.824,9.975-6.077,16.7-5.367c-2.951,1.364-4.999,2.323-7.059,3.258
	c-2.351,1.068-4.046,2.824-6.335,6.33c4.592-3.331,7.646-6.535,12.898-6.524c-3.353,3.218-7.472,5.091-9.075,10.61
	c3.327-3.605,5.951-6.396,11.096-8.523c-5.217,7.804-11.078,13.879-11.416,24.194c5.003-8.659,10.39-14.776,18.633-17.946
	c-4.488,5.981-10.236,11.137-11.355,17.354c23.387-26.716,51.495-46.939,89.997-47.896c-8.199,2.399-16.521,4.676-24.559,7.925
	c-15.786,6.38-30.437,14.722-43.745,25.344c-7.945,6.341-13.305,14.561-16.318,24.5c5.797-8.727,14.335-12.242,25.572-13.845
	c-4.939,2.648-8.696,4.442-12.22,6.614c-3.623,2.234-6.316,5.465-8.32,9.355c4.427-3.647,9.446-6.069,14.923-7.92
	c-4.467,4.213-9.12,8.201-12.605,13.352c24.705-21.991,54.502-26.093,85.647-25.596c-29.201,5.145-60.093,5.894-80.617,32.616
	c5.016-3.376,9.25-8.442,17.652-7.85c-7.676,4.522-14.555,8.333-17.512,16.992c3.578-2.63,5.589-6.505,10.672-7.494
	c-3.3,4.223-6.448,7.573-8.103,13.494c3.935-4.812,6.964-8.876,13.185-10.485c-6.842,8.878-14.188,16.349-14.785,27.447
	c3.458-9.01,8.789-16.669,16.299-22.933c-4.225,7.922-6.937,16.34-8.432,25.253c0.678-1.807,1.521-3.569,2.008-5.427
	c3.701-14.13,13.458-23.602,24.584-31.946c6.376-4.781,13.538-4.611,21.614-2.386c-5.378,2.291-11.125,0.729-15.707,4.215
	c21.239-3.678,49.06-0.06,60.273,8.532c-13.9-4.613-26.867-6.125-40.027-6.058c-6.93,0.037-13.923-0.23-20.687,1.651
	c-10.22,2.843-17.797,8.857-21.853,18.979c5.939-9.226,13.186-15.842,25.173-13.616c-11.732-0.322-17.965,6.944-22.707,16.394
	c-2.636,5.252-5.46,10.41-8.14,15.641c-1.8,3.512-3.975,6.709-7.441,9.099c7.127,2.125,8.173,1.985,13.653-1.945
	c-2.559,1.391-4.909-0.562-8.104-0.087c8.469-9.835,13.663-21.989,26.097-27.347c-1.545,2.501-4.481,3.783-6.232,8.288
	c7.728-8.11,15.409-12.299,25.38-8.039c-0.923,2.265-4.118,2.195-4.786,4.655c7.838-3.258,15.82-5.167,25.662-3.071
	c-3.942,1.845-7.358,0.944-10.031,3.998c5.586-0.938,11.751-2.521,14.96,1.452c3.297,4.082,8.972,3.363,11.546,8.021
	c2.725,4.93,0.703,10.173,1.842,15.215c2.332,0.386,2.543-3.027,4.785-2.587c-1.576,6.976-1.074,7.863,7.699,13.422
	c0.375-1.784-0.871-2.98-1.346-4.385c-0.453-1.346-1.805-2.493,1.402-1.839c1.619,0.331-1.607-1.955-0.363-3.519
	c3.318,1.583,3.914,5.204,5.85,7.966c1.76-1.66,0.344-3.958,1.244-5.748c0.246,0.136,0.564,0.214,0.729,0.417
	c2.107,2.607-0.701,7.318,2.41,8.578c2.32,0.939,5.738-1.175,8.713-1.434c4.496-0.392,9.068-0.673,13.311,1.652
	c-4.285-0.258-8.521-0.048-12.723,0.646c-2.889,0.477-5.52,1.374-6.688,4.524c-1.434,3.87-0.275,5.686,3.842,5.688
	c3.271,0.001,6.568-0.303,10.291,0.862c-2.975,2.842-7.719-0.289-8.822,3.01c-0.846,2.533,1.08,5.864,1.105,8.846
	c0.057,6.758-1.354,13.483-0.314,20.373c0.602-1.953,0.566-4.14,2.232-6.418c0.412,6.809,0.031,13.303,3.246,19.588
	c0.248-1.526,0.43-2.646,0.785-4.824c5.412,12.854,4.709,24.967,2.27,37.141c-1.863,9.285-3.162,18.58-2.953,28.105
	c0.252,11.362,4.391,20.757,13.9,28.469c-6.33-1.759-9.82-5.305-14.994-14.525c-0.104,7.763,8.607,16.682,19.768,20.243
	c-4.295,1.096-4.295,1.096-13.535-2.963c4.193,4.412,8.742,5.726,13.934,5.237c1.945-0.183,3.873-0.627,5.818-0.729
	c6.225-0.329,7.461,0.723,8.318,7.1c3.703-1.602,5.15-5.342,7.879-7.699c1.355-1.17,2.771-3.799,4.717-1.75
	c1.707,1.797-0.365,3.594-1.732,4.929c-1.648,1.612-3.285,3.418-5.281,4.455c-3.027,1.573-3.785,3.542-2.143,6.378
	c0.504,0.869-0.602,5.574,2.701,1.461c2.16,3.822,7.992,1.916,9.861,6.539c0.938,2.318,1.414,4.742,2.334,7.17
	c2.311-0.411,0.924-3.263,2.877-4.004c2.934,2.957,2.473,7.002,2.812,10.587c2.385,0.265,1.178-4.175,3.105-2.449
	c2.877,2.578,3.086,6.592,2.785,10.744c-2.213-1.091-1.176-3.703-2.811-4.714c-2.305,0.27,0.107,4.165-3.014,3.879
	c-2.531-0.234-4.625-0.463-3.389-4.044c0.717-2.077,1.092-4.39,0.236-6.826c-2.775,1.981-2.619,5.39-4.377,7.987
	c-2.043-4.617-0.043-9.473-1.922-14.447c-0.787,2.436-0.57,4.734-1.9,6.449c-3.469-2.346-4.068-6.029-4.322-10.643
	c-3.059,4.041-1.355,8.109-2.273,11.65c-1.564,0.309-1.135-1.629-2.453-1.873c-0.232,1.299-0.467,2.603-0.701,3.906
	c-2.959-5.741-0.924-11.965-2.162-17.888c-6.285,2.067-2.326,7.625-4.195,11.592c-2.148-2.811-1.648-6.063-2.344-9.064
	c-1.891,3.261-0.502,6.931-1.189,10.638c-2.627-2.069-0.828-5.179-3.223-7.627c-1.967,7.166-0.781,14.447-3.74,20.979
	c0.262-7.875-1.049-15.076-7.891-21.2c0.666,7.52,2.289,14.321-1.135,21.78c-0.66-5.438,0.086-10.123-2.236-15.266
	c-1.135,5.76-0.225,11.095-3.65,15.379c0.266-7.029,1.09-14.031-2.523-21.979c-0.604,7.204-2.959,12.137-9.271,15.585
	c1.145-5.165,3.572-9.521,1.654-14.943c-1.922,5.275-4.561,9.495-9.326,13.415c1.023-5.749,5.846-8.87,6.029-14.726
	c-1.801,2.175-2.102,4.816-4.771,5.674c-0.535-2.389,1.023-4.684-0.549-7.32c-1.82,10.111-10.354,13.977-16.766,19.809
	c3.346-7.371,13.146-10.625,12.59-21.146c-2.445,3.796-3.002,8.344-8.023,10.48c1.188-2.78,2.051-4.799,3.453-8.084
	c-3.203,2.722-3.832,5.991-6.85,7.601c-0.191-2.438,2.07-4.11,1.498-6.74c-1.234,1.149-2.32,2.159-3.922,3.65
	c0.387-3.478,2.857-5.638,2.355-8.791c-2.426,0.29-1.967,3.613-4.934,4.097c2.682-2.847-1.443-5.417,0.588-8.129
	c-1.832,0.906-1.873-4.957-4.863-1.052c-2.525,3.296-5.417,6.562-10.215,8.86c1.373-3.722,4.731-5.197,5.505-9.096
	c-3.831,1.887-5.655,5.144-8.066,7.737c-1.827-1.333,0.936-2.661-0.248-4.126c-4.822,3.34-5.636,8.126-4.531,14.246
	c-2.503-3.846-2.522-3.937-2.338-9.233c-1.926,2.046-1.926,2.046-3.01,8.015c-1.704-1.074-0.462-3.052-1.574-4.672
	c-1.93,1.856-0.666,4.393-1.668,6.636c-1.774-1.849-1.093-4.335-2.278-7.382c-0.844,6.072-0.263,11.291-3.344,17.097
	c0.214-3.352,0.35-5.464,0.551-8.629c-3.441,4.919-4.515,9.651-5.528,14.707c-1.667-2.086-0.347-4.356-1.271-6.216
	c-1.984,0.578-0.776,2.926-2.265,3.932c-0.32-1.051-0.615-2.022-1.035-3.407c-2.736,3.019-1.47,6.45-1.593,9.587
	c-2.43,0.369-2.154-2.247-3.697-2.807c-1.146,1.811,0.344,3.577,0.367,6.24c-3.868-3.89-3.962-7.914-3.334-12.232
	c-2.377,3.043-2.417,3.393-1.186,10.881c-2.933-1.443-3.72-4.239-5.178-6.469c-0.717,4.056-0.717,4.056,2.525,10.355
	c-1.064,0.381-1.573-0.557-2.25-0.998c-0.685-0.445-1.249-1.076-2.278-1.525c2.104,3.038,1.494,5.393-1.49,7.27
	c2.043,1.32,2.803-2.211,4.633-0.614c0.493,1.624-2.39,2.005-1.583,4.167c2.161-1.514,4.24-2.969,7.401-5.183
	c-1.762,5.642-5.27,8.286-8.736,11.172c1.352,1.606,2.653-0.653,4.163,0.581c-1.19,2.448-3.674,3.106-6.065,3.844
	c-1.075,0.333-2.192,0.638-1.752,2.069c0.411,1.333,1.456,1.12,2.611,0.903c7.541-1.42,7.546-1.392,14.617,4.795
	c-4.799-7.02-4.881-13.096-2.029-20.172c2.612,5.082,2.658,10.711,7.69,15.347c-2.138-5.593-5.147-9.618-3.971-15.618
	c3.21,5.898,4.593,12.095,10.546,15.365c0.31-3.048-2.798-4.76-2.158-7.859c2.719,1.938,3.751,5.453,7.59,6.973
	c-1.636-3.211-4.118-5.452-4.399-8.906c2.686,0.68,3.115,3.74,6.06,4.213c-3.876-8.551-8.493-16.902-3.264-26.297
	c1.127,6.428,1.946,12.875,5.456,19.089c1.256-2.266,0.191-4.978,2.165-7.112c0.474,2.816,0.895,5.326,1.523,9.071
	c1.766-5.058,3.583-8.763,8.688-9.584c0.725,2.802-1.402,5.592,0.204,8.408c1.962-0.393,0.493-2.925,2.212-3.662
	c0.964,2.042-0.064,4.679,1.919,6.335c0.644-3.008,0.818-6.245,4.05-9.293c-0.812,3.633,1.547,5.219,2.654,7.41
	c1.291-1.883,0.52-4.648,3.211-6.643c0.547,4.328-0.576,8.779,2.994,12.794c-0.479-5.427-1.02-10.267,2.273-15.28
	c0.639,3.484,1.133,6.2,1.811,9.91c1.277-4.438,0.934-8.461,4.02-11.978v7.657c1.141-7.706,12.209-8.058,11.703-16.953
	c1.621,5.527-1.535,9.942-1.836,14.819c2.211,0.085,0.695-2.698,2.545-3.076c0.328,0.919,0.668,1.866,1.055,2.948
	c1.852-1.229,1.102-3.859,3.436-5.2c0.633,2.95-0.719,5.903,0.396,8.638c1.072-1.156-0.154-3.35,2.27-4.211
	c0.311,2.077,0.607,4.068,1.123,7.536c0.166-9.174,4.793-14.669,9.99-21.106c-1.125,7.68-8.23,12.593-5.334,21.761
	c-0.672-6.927,2.736-10.374,6.031-14.845c0.852,4.373-2.627,6.775-2.492,11.293c2.816-7.445,8.357-12.092,9.893-19.02
	c1.145,3.639-0.564,6.58-2.064,9.529c-0.803,1.576-2.291,3.229,0.193,4.392c1.969,0.919,1.781-1.476,2.643-2.28
	c0.986-0.922,1.389-2.536,3.553-2.581c-0.482,3.146-2.598,5.95-1.594,10.065c1.529-3.385,2.33-6.535,5.68-8.59
	c0.094,3.857-2.535,7.031-0.756,10.929c1.523-3.795,1.363-8.421,6.795-10.592c-2.682,4.776-4.592,8.954-1.582,13.61
	c0.926-1.752,0.295-4.029,2.508-5.896c0.195,2.714,0.352,4.896,0.51,7.081c0.869-7.571,0.59-15.752,10.123-18.616
	c1.119,2.808-1.766,5.556-0.486,8.969c3.287-6.428,4.9-2.913,6.322,1.223c1.938-3.099,0.672-6.172,1.229-9.575
	c2.914,2.647,2.309,5.969,3.123,9.439c2.551-4.042-0.258-7.61-0.09-11.861c3.99,4.867,3.281,10.083,3.691,15.139
	c2.578-0.355,2.49-3.106,4.098-4.514c1.682,3.734-0.959,6.362-2.223,9.367c3.91-0.98,3.91-0.98,13.92-16.723
	c1.23,2.924-0.4,5.559-0.725,8.363c1.783,0.311,1.404-2.357,3.199-2.123c1.113,3.64-1.109,6.635-2.467,9.957
	c2.857-0.296,2.879-2.904,4.709-4.286c1.844,3.739,0.857,6.716-2.314,9.548c1.611-0.103,2.559-0.163,3.574-0.228
	c-0.34,2.508-2.699,2.406-4.4,4.409c2.533-0.508,4.375-0.877,7.174-1.438c-3.283,5.185-7.393,5.254-11.926,4.447
	c3.795,2.295,7.779,1.764,12.215,0.839c-1.178,2.954-3.299,3.534-5.611,3.327c-3-0.268-5.996-0.747-8.953-1.338
	c-4.67-0.932-9.311-2.35-13.852,0.953c-0.668-3.393,1.758-4.653,2.857-6.783c-1.557-0.791-2.422,1.248-3.807,0.872
	c-1.068-1.792,1.605-2.505,1.271-4.131c-2.209-0.077-3.189,2.042-4.959,2.751c-0.178-3.75-0.178-3.75-3.977-2.544
	c-0.117-2.108-0.227-4.195-0.359-6.281c-0.008-0.116-0.223-0.22-0.398-0.383c-9.193,11.214-22.051,14.249-35.512,15.487
	c-9.203,0.846-18.471,1.137-27.736,0.275c3.289,1.356,7.623,0.473,10.029,2.131c5.654,3.895,11.373,1.461,16.99,1.805
	c6.709,0.41,13.463,0.096,20.482,0.096c-1.887,2.674-4.865,2.137-7.727,2.588c3.033,1.496,6.553,0.797,8.768,2.769
	c-21.785,5.375-43.691,2.311-65.564,0.827c17.625,3.382,35.125,7.297,53.186,6.62c-17.242,5.089-34.367-0.488-51.529-0.383
	c18.047,3.571,36.035,7.351,55.107,4.739c-3.916,3.168-9.74,4.293-19.422,4.399c-6.75,0.074-13.328-1.471-20.014-1.878
	c14.07,4.612,28.305,2.643,42.564,1.085c-14.188,4.727-28.553,6.618-43.336,3.274c-7.842-1.772-15.158-5.108-22.78-7.53
	c-11.086-3.522-18.297,0.274-21.581,11.537c-2.144,7.353-2.657,14.635,3.021,20.964c-0.791-4.389-2.521-8.695-0.887-14.756
	c2.751,9.687,7.082,16.804,14.537,21.763c-3.628-6.622-9.39-12.173-10.546-21.258c17.307,27.731,41.945,42.54,73.589,47.831
	c-1.676,0.671-2.414,0.966-3.184,1.274c12.734,2.824,22.326-2.932,30.965-11.271c1.15-1.111,2.363-2.233,3.223-3.561
	c10.434-16.121,24.289-29.278,37.264-43.191c4.893-5.247,8.361-11.438,12.186-17.461c-0.447,4.859-2.611,9.136-5.275,12.879
	c-3.285,4.617-1.434,5.972,2.904,7.534c19.748,7.119,39.41,14.475,59.098,21.763c1.643,0.608,3.238,1.347,4.531,2.944
	c-11.551-3.869-23.127-7.667-34.646-11.628c-10.932-3.758-21.842-7.588-32.68-11.607c-2.939-1.09-4.658-0.67-6.812,1.728
	c-5.348,5.949-11.254,11.394-16.689,17.27c-5.732,6.196-9.91,13.468-13.406,21.124c-3.455,7.565-4.223,15.297-1.955,23.435
	c2.48,8.899,5.617,17.57,7.918,26.939c-2.256-2.704-4.514-5.407-6.771-8.111c-0.412,0.359-0.826,0.718-1.24,1.077
	c2.262,4.448,4.521,8.897,6.783,13.346c-0.314,0.196-0.629,0.393-0.945,0.589c-2.6-3.281-5.199-6.561-7.799-9.841
	c-0.295,0.13-0.588,0.26-0.881,0.39l5.402,11.748c-0.303,0.18-0.607,0.359-0.91,0.539c-2.318-3.223-4.637-6.445-7.334-10.193
	c3.166,15.753,18.779,31.323,38.717,38.729c-1.641-2.413-2.941-4.329-4.244-6.244c32.465,20.938,64.5,42.257,89.34,73.274
	C666.586,842.846,665.68,840.182,663.68,840.378z M270.03,367.481c-1.764,2.321-2.776,3.651-4.038,5.239
	c-3.981,3.021-3.981,3.021-4.238,9.384C265.383,378.086,268.494,373.971,270.03,367.481z M482.33,512.487
	c1.211-3.952-1.756-5.206-4.479-6.44c1.102-2.01,3.199,0.873,4.094-1.252c-0.818-2.341-1.912-4.592-2-7.146
	c-0.045-1.293,0.566-3.093-1.627-3.291c-1.861-0.168-3.633,0.308-4.611,2.023c-0.758,1.325-1.158,2.855-1.65,4.123
	c-2.02,0.582-1.795-3.378-3.826-1.656c-1.264,1.071-0.977,2.926-0.719,4.549c0.588,3.713,3.729,5.076,6.988,6.565
	c-3.443,2.752-5.986,0.142-8.91-0.512c1.191,3.985,4.34,3.835,8.648,4.764c-5.203,0.396-2.084,4.101-4.379,5.085
	c1.326,1.316,3.004,0.83,4.527,0.752c1.941-0.1,3.867-0.488,6.244-0.854c2.672-0.311,4.896-0.518,7.121-0.727
	C484.209,517.867,486.232,512.327,482.33,512.487z M440.115,342.444c1.625,0.165,3.091,0.314,4.933,0.617
	c3.688,0.48,6.997,0.808,10.308,1.134C450.412,342.661,445.788,337.895,440.115,342.444z M380.79,367.091
	c8.875-2.025,15.954-7.322,16.948-13.496c-1.753,2.2-2.735,3.432-3.989,4.913C390.204,362.377,384.883,363.029,380.79,367.091z
	 M332.952,418.5c9.509,7.223,19.956,11.923,32.247,11.404c11.049-0.466,17.895-4.79,20.132-12.593
	c-6.896,5.513-10.269,5.713-15.871,0.491c7.792,2.111,12.344-1.721,15.716-7.527c1.872-3.225,3.706-6.548,4.952-10.043
	c2.86-8.014,7.487-14.978,12.478-21.682c11.014-14.794,35.337-17.807,48.187-5.852c1.869,5.49,4.076,10.342,7.143,14.957
	c1.735,2.613,0.199,8.771,6.304,3.86c0.154-0.125,0.859,0.642,1.32,0.66c3.533,0.138,5.207,2.803,7.148,6.019
	c-0.367-21.159-22-40.91-45.65-42.52c1.112,0.753,2.234,1.513,3.848,2.605c-6.928,0.808-12.363-3.107-18.376-2.866
	c-0.66,1.508,1.818,2.022,0.758,3.454c-3.997-1.762-6.361,2.75-9.685,2.651c-5.24-0.155-9.788,0.958-13.702,4.495
	c0.708,1.73,3.249,0.74,3.632,2.881c-2.572,0.923-5.65,0.672-8.685,3.562c5.112-1.57,9.144-2.926,13.866-0.078
	c-4.564,1.085-9.186,0.551-12.045,5.725c3.735-1.701,6.464-4.333,10.935-2.786c-3.415,2.149-7.336,2.565-8.409,6.82
	c2.745-1.423,4.141-4.566,7.565-4.058c-3.671,4.625-9.969,15.839-10.274,18.249c-1.431,11.311-9.228,16.904-20.56,15.07
	c-3.795-0.614-7.103-2.737-12.123-3.601c3.477,2.713,5.951,4.642,9.486,7.401c-6.832-0.893-11.154-4.177-16.852-6.363
	c4.017,4.914,9.421,6.492,12.895,10.797c-4.291-1.928-8.581-3.854-12.871-5.781c6.81,5.531,14.854,8.489,22.676,11.971
	c-7.491,0.887-14.191-1.936-21.268-3.352c1.777,1.268,3.553,2.534,5.329,3.801C345.725,425.244,339.528,421.377,332.952,418.5z
	 M408.552,556.324c-4.228,7.306-8.126,14.598-8.854,23.17c3.029-7.469,5.253-15.377,11.875-21.408
	c0.35,2.861-2.413,4.496-1.073,7.017c3.374-2.737,5.071-6.462,7.795-10.782c0.267,3.458,0.436,5.645,0.611,7.92
	c2.2-1.047,0.986-3.445,2.21-4.568c2.122-0.303,0.723,2.69,1.083,2.684c11.183-5.362,9.832-19.86,21.55-24.178
	c-0.511,3.423-3.504,5.28-3.471,9.06c5.754-4.918,9.642-10.313,12.739-16.422c1.7,1.761-0.472,3.61,0.827,5.43
	c2.698-2.46,5.24-5.791,4.161-8.78c-2.296-6.357-2.575-12.6-1.476-19.26c-13.621,14.223-23.862,30.52-34.238,46.785
	c-0.081-9.836,3.76-18.053,9.427-25.568c8.365-11.092,17.048-21.95,24.725-33.548c5.063-7.647,10.141-15.298,12.743-24.301
	c-5.363,5.677-8.834,13.007-16.235,18.062c1.699-4.305,5.503-6.42,5.987-11.012c0.033,0.111,0.11,0.219,0.311,0.194
	c4.482-5.604,8.144-11.434,10.121-18.253c-3.475,5.893-6.947,11.785-10.406,17.755c0.004-0.065,0.011-0.129,0.015-0.196
	c0.933-7.959,5.036-13.688,9.229-19.133c7.57-9.832,12.104-20.922,14.885-32.833c2.293-9.812,2.084-17.096-0.348-22.235
	c-0.521,2.885,0.199,5.938-1.734,8.314c-1.562-1.441,0.127-3.49-1.672-4.826c-0.439,5.23,0.648,10.495-1.83,15.811
	c-1.422-3,0.207-5.938-1.885-8.537c-1.701,10.01-5.154,18.476-15.826,21.384c5.687-3.788,8.72-9.341,11.273-15.573
	c2.334-5.697,0.355-9.512-4.143-12.031c-10.665-5.977-16.907-16.696-27.47-24.116c4.303-0.208,6.621,2.454,9.837,3.248
	c-1.788-4.861-4.081-7.096-9.681-8.746c-21.489-6.333-34.282,2.677-43.798,21.101c-0.47,0.91-1.23,2.138-0.083,2.821
	c0.766,0.457,2.194,0.454,3.021,0.043c4.771-2.375,9.511-4.827,14.15-7.449c11.035-6.241,21.501-5.909,31.935,1.69
	c6.851,4.989,13.08,10.993,21.817,14.004c-4.154,4.773-8.54,7.865-14.951,8.189c1.411-2.246,4.375-1.855,5.207-4.298
	c-6.555,2.628-7.049,2.351-9.185-4.47c-1.029-3.293-3.043-6.045-5.323-8.565c-3.24-3.582-4.146-3.33-6.031,1.261
	c-2.196,5.347-2.685,11.429-7.388,16.122c5.859,1.043,11.109-0.379,16.341-0.116c-15.844,3.908-31.298,2.5-46.505-3.531
	c10.499,14.78,27.438,9.26,42.363,12.792c-15.783,5.771-30.016,4.986-43.518-4.287c2.464,5.969,7.178,8.658,12.841,9.93
	c5.384,1.209,10.822,2.176,16.235,3.247c-12.654,2.28-22.886,3.593-36.378-12.321c-1.379,2.801,0.115,5.688-0.073,8.693
	c-2.625-2.164-1.416-5.285-2.911-7.957c-5.337,7.174-12.117,11.06-20.978,10.99c-9.008-0.07-17.757-1.027-25.586-6.033
	c-0.859-0.549-1.815-1.391-2.575,0.156c-0.543,1.106,0.211,1.643,0.993,2.099c1.229,0.718,2.43,1.542,3.749,2.037
	c4.516,1.697,9.078,3.271,14.676,5.269c-3.34,0.254-5.484,0.417-8.596,0.654c4.958,1.875,9.248,1.365,14.232,2.325
	c-5.861,2.587-11.26,1.452-16.391,2.602l15.348,0.812l0.009,1.319l-12.546,0.952c5.032,2.106,9.918,0.086,15.678,0.093
	c-4.702,3.48-9.391,3.436-14.291,3.943c3.612,1.328,7.13,0.092,10.942,0.883c-4.481,3.063-7.605,7.264-13.322,6.338
	c13.086,3.345,18.815-6.201,25.741-15.385c-1.009,13.061-11.327,19.426-16.185,28.938c3.13-2.353,5.332-5.617,9.144-7.121
	c-4.465,6.102-9.073,12.047-10.757,20.34c10.215-13.479,10.449-13.694,17.653-15.812c-7.505,7.033-13.832,13.889-15.934,23.488
	c4.737-8.543,9.68-16.863,19.007-21.283c-1.789,3.023-4.024,5.712-5.888,8.641c-2.002,3.148-3.717,6.488-5.44,9.805
	c-1.513,2.912-3.072,5.834-4.035,10.565c10.012-17.245,14.541-22.969,19.95-25.301c-9.243,14.415-17.933,28.805-21.657,45.541
	c5.224-11.416,9.776-23.174,17.558-33.293c-8.458,23.917-17.739,47.573-19.97,73.115c1.901-4.366,1.611-9.729,6.917-13.445
	c-1.104,4.053-2.169,7.22-2.794,10.472c-0.599,3.119-0.741,6.327-1.085,9.496c2.47-9.379,2.49-9.431,5.419-12.605
	c-2.097,9.108-2.859,17.716-1.889,26.453c1.103-27.89,10.771-52.905,25.125-76.365c-2.429,7.662-6.148,14.917-7.586,24.049
	c4.643-4.576,6.97-10.133,12.805-11.906c-4.908,5.123-8.742,10.74-9.77,17.931c3.952-7.718,9.376-13.91,17.206-17.8
	c-5.316,7.557-10.753,14.964-13.038,24.377c2.555-0.293,3.934-2.951,6.788-2.162c-2.003,2.725-5.236,4.182-7.098,8.342
	c4.204-3.263,7.569-5.434,13.226-4.448c-3.833,2.179-7.224,3.373-8.587,7.033c2.462-0.217,3.998-2.844,6.88-1.537
	c-2.108,2.032-4.653,3.155-5.921,6.106c3.1-1.273,4.977-4.334,9.171-4.028c-5.626,4.497-9.396,9.44-11.426,15.634
	c3.732-4.244,6.771-9.174,13.178-11.949c-2.661,4.752-6.626,7.426-7.636,11.948C401.291,562.641,404.209,558.729,408.552,556.324z
	 M425.928,398.476c0.782,1.587,2.279,2.078,3.982,1.758c1.778-0.333,2.783-1.584,2.908-3.26c0.21-2.799-1.353-4.146-4.469-4.165
	C425.521,394.104,424.706,395.994,425.928,398.476z M229.58,150.484c3.563,0.906,6.197-1.252,10.232-1.482
	c-13.246,9.555-30.316,7.316-42.078,17.88c10.547-6.417,22.971-6.05,34.306-9.799c-11.536,8.754-27.665,7.583-38.368,18.233
	c12.161-7.682,28.169-3.815,39.528-14.043c-2.656,4.169-6.639,6.27-10.855,8.102c-8.315,3.615-17.141,6.012-25.105,10.457
	c-4.104,2.29-8.098,4.768-11.042,8.611c8.898-3.387,16.684-9.142,26.026-11.398c-9.792,7.325-21.205,12.133-30.062,21.043
	c7.091-3.789,14.183-7.577,21.274-11.365c0.154,0.261,0.307,0.521,0.461,0.781c-2.175,1.702-4.35,3.403-6.523,5.104
	c0.106,0.219,0.213,0.437,0.32,0.654c2.721-1.285,5.442-2.568,8.164-3.853c-3.416,4.643-8.43,7.126-12.876,10.43
	c5.037-0.671,9.191-3.366,13.768-5.296c-4.307,5.345-9.565,9.447-16.159,11.584c-4.391,1.423-8.897,2.516-13.394,3.583
	c-6.4,1.519-12.495,3.764-18.197,7.148c4.117-5.844,9.555-9.772,17.491-11.955c-4.984-0.782-8.23,1.084-12.507,2.592
	c3.229-4.725,7.612-7.091,11.055-10.657c-2.815-0.667-4.495,2.367-7.771,1.599c4.352-3.999,8.355-7.678,13.204-12.132
	c-6.677,1.416-10.844,5.466-16.453,8.72c1.724-5.577,5.364-8.406,8.864-11.781c1.518-1.224,2.763-2.208,4.008-3.194
	c-7.04,0.909-11.415,5.487-15.217,10.919c3.077-10.117,11.646-15.196,19.811-21.504c-4.237-0.445-6.498,2.631-11.032,3.849
	c8.035-7.772,16.824-11.969,25.758-18.31c-8.124,1.249-13.591,5.22-19.54,8.175c2.234-3.999,6.225-5.889,10.825-9.082
	c-10.211,1.627-15.387,7.761-20.064,14.941c-0.706-2.342,0.708-3.966,0.901-6.495c-4.308,3.962-5.506,8.704-6.106,14.642
	c-2.163-3.801-0.423-7.184-1.813-11.179c-4.766,10.025-4.042,19.771-4.062,30.889c-2.989-10.635-4.071-19.936-1.03-29.183
	c3.318-10.088,11.354-14.671,21.197-16.51c3.656-0.683,7.426-1.084,11.141-1.062c19.943,0.118,39.909,0.574,58.606-8.514
	C241.7,146.342,235.685,148.091,229.58,150.484z M220.858,152.647c-8.702,0.124-16.879,1.913-23.803,7.622
	c5.979-2.065,11.957-4.129,18.34-6.277C217.486,153.489,219.172,153.068,220.858,152.647z M623.654,431.94
	c-3.609,5.146-11.578,6.245-18.365,2.49c-5.664-3.133-9.438-8.038-12.379-13.634c-1.994-3.797-3.6-5.915-8.836-3.428
	c-9.631,4.576-19.904,4.555-30.111,0.91c-6.338-2.264-12.246-5.719-20.379-6.871c7.193-6.636,13.789-12.277,22.229-16.246
	c15.572-4.65,27.062,2.012,36.986,12.458c3.766,3.963,6.684,8.759,9.842,13.276C609.637,430.904,612.002,432.193,623.654,431.94z
	 M581.102,408.111c-3.154-2.975-5.361-3.719-7.033,1.15c-0.396,1.153-1.18,2.173-1.998,3.579c-1.23,1.903-2.611,3.603,0.928,3.579
	c2.312-0.016,4.578-0.222,6.775-1.062C585.373,413.215,585.443,412.209,581.102,408.111z M272.552,326.775
	c4.303,1.547,6.605-0.502,9.21-2.013c-6.147,17.982-20.208,20.362-35.925,9.484c5.79,1.008,10.444,3.296,15.917,2.871
	c1.264-0.108,2.13-0.203,2.998-0.297c-8.649,1.094-14.517-5.563-22.074-7.811c6.89-2.958,12.48,3.208,19.887,2.63
	c-8.144-3.745-15.612-6.078-23.797-5.568c2.154-3.955,5.557-6.105,10.562-6.277c4.612-0.158,9.24-0.07,13.854,0.093
	c9.624,0.339,17.718-1.896,21.389-12.309c0.047,4.958-2.364,8.763-5.903,13.517c2.324-1.369,3.401-2.003,5.502-3.24
	C281.476,323.089,278.382,325.895,272.552,326.775z M263.023,326.165c-5.348-1.921-10.669-3.982-16.5-1.539
	C251.917,325.289,257.47,325.727,263.023,326.165z M447.541,432.551c-17.976,8.406-35.896,12.194-54.824,3.428
	c1.9,4.242,1.954,3.993,10.976,8.433c-16.729,2.812-31.096,12.798-37.779,26.548c3.562-3.334,6.774-6.382,10.032-9.381
	c6.161-5.674,13.226-9.578,21.599-10.793c5.8-0.842,11.602-1.693,17.424-2.341c15.94-1.775,30.515-6.665,42.261-18.181
	c1.26-1.234,2.918-2.225,3.51-4.967C455.944,427.938,451.919,430.153,447.541,432.551L447.541,432.551z M368.893,529.209
	c-0.928,3.691-1.74,6.961-2.551,10.233c7.094-12.995,11.901-26.763,15.797-40.813c2.584-9.323,7.241-17.317,13.023-24.896
	c4.504-5.905,10.054-10.473,16.601-13.979c-8.98,2.192-13.352,5.673-19.996,14.16C379.083,490.119,374.265,509.531,368.893,529.209
	L368.893,529.209z"/>
</svg>
