<?xml version="1.0" encoding="utf-8"?>
<!-- Generator: Adobe Illustrator 27.2.0, SVG Export Plug-In . SVG Version: 6.00 Build 0)  -->
<svg version="1.1" id="Layer_1" xmlns="http://www.w3.org/2000/svg" xmlns:xlink="http://www.w3.org/1999/xlink" x="0px" y="0px"
	 viewBox="0 0 1080 1080" style="enable-background:new 0 0 1080 1080;" xml:space="preserve">
<g>
	<g>
		<path d="M662.66,580.65c-0.81,0.71-2.08,1.28-2.36,2.16c-1.05,3.4-2.5,6.88-1.72,10.47c0.48,2.18,1.8,4.21,2.91,6.22
			c0.59,1.07,1.75,1.1,2.9,0.83c4.35-1.02,7.14-3.73,8.57-7.89c0.32-0.94,0.46-1.93,0.68-2.88c3.31,4.93-0.57,12.69-7.46,14.89
			c1.97,2.42,2.48,2.36,7.49-0.87c-0.94,2.02-1.52,2.44-6.57,4.75c1.72,2.87,2.35,3.09,5.09,1.72c1.01-0.51,2-1.04,3.01-1.56
			c0.11,0.14,0.21,0.29,0.32,0.43c-2.66,2.26-5.33,4.52-7.99,6.78c0.09,0.16,0.18,0.32,0.26,0.47c2.33-1.09,4.65-2.17,6.98-3.26
			c0.08,0.06,0.15,0.11,0.23,0.17c-0.8,0.89-1.55,1.82-2.4,2.65c-1.37,1.34-2.81,2.61-4.2,3.93c-2.03,1.94-3.41,4.24-4.1,7
			c-1.03,4.11,0.09,7.49,3.51,9.87c2.06,1.44,4.45,2.4,6.83,3.65c-0.62,0.37-1.28,0.81-1.98,1.18c-1.84,0.97-3.67,1.95-5.54,2.84
			c-4.96,2.38-5.91,7.08-4.34,11.35c1.44,3.91,5.62,6.05,10.22,5.02c2.07-0.46,4.03-1.39,5.85-2.04c-1.43,6-10.54,7.01-18.04,1.49
			c-0.41,0.56-0.9,1.09-1.23,1.71c-1.18,2.15-2.36,4.45-0.88,6.81c1.66,2.64,4.45,3.71,7.38,3.2c2.7-0.47,5.25-1.73,7.87-2.65
			c-1.08,3.42-3.02,6.58-6.67,8.37c-2.01,0.99-4.12,1.78-6.23,2.52c-3.34,1.17-5.18,3.41-5.5,6.96c-0.59,6.5-2.19,12.75-4.63,18.83
			c6.13-6.05,9.03-13.89,11.98-21.73c0.28,5.38-1.39,10.29-3.08,15.42c0.69-0.8,1.4-1.58,2.05-2.41c0.67-0.85,1.29-1.74,1.89-2.64
			c0.65-0.96,1.25-1.95,1.9-2.98c0.08,3.34-3.01,8.96-8.27,15.49c6.81-3.7,10.75-9.86,13.99-16.93
			c0.58,11.37-9.24,20.48-23.01,21.57c-1.34,2.2-2.62,4.52-4.11,6.69c-4.47,6.51-10.2,11.38-18.02,13.38
			c-1.52,0.39-3.09,0.62-4.65,0.85c-4.25,0.65-7.92,2.43-10.93,5.53c-0.46,0.48-0.93,0.94-1.41,1.41c-0.05,0.05-0.15,0.05-0.44,0.12
			c-1.78-1.93-4.25-3.82-3.94-6.74c0.28-2.58,1.7-5.04,2.66-7.68c-1.04-0.05-2.33-0.11-3.74-0.18c-0.2,1-0.33,1.89-0.55,2.75
			c-0.99,3.94-4.65,5.96-8.44,4.56c-3.35-1.23-6.64-2.63-9.97-3.94c-0.53-0.21-1.08-0.36-1.8-0.61c0,2.65-0.36,5.21,0.12,7.6
			c0.36,1.84,1.51,3.7,2.77,5.15c4.69,5.42,9.56,10.67,14.36,15.99c2.11,2.34,4.22,4.69,6.61,7.33c-0.95,0.09-1.55,0.2-2.15,0.2
			c-9.25,0.01-18.5-0.02-27.75,0.03c-1.42,0.01-2.47-0.45-3.61-1.28c-9.84-7.13-19.75-14.16-29.62-21.24
			c-3.58-2.57-7.32-4.12-11.89-3.07c-3.66,0.84-7.28,0.08-10.81-1.05c-0.53-0.17-1.09-0.29-1.72-0.23
			c17.19,8.3,34.14,16.97,49.94,27.74c-26.13-12.78-52.21-25.65-79.54-35.76c16.19,10.79,32.14,21.87,46.83,34.91
			c-2.55,0-5.1,0.11-7.64-0.06c-0.79-0.05-1.61-0.76-2.27-1.33c-11.84-10.14-24.17-19.64-37.03-28.44
			c-19.66-13.46-40.58-24.47-63.28-31.81c-8.98-2.9-18.27-4.87-27.43-7.25c-0.31-0.08-0.64-0.05-1.02,0.07
			c36.69,13.39,68.75,34.09,97.05,60.76c-0.13,0.2-0.26,0.41-0.39,0.61c-0.84-0.62-1.69-1.24-2.53-1.88
			c-20.01-15.28-40.95-29.14-63.44-40.51c-20.66-10.45-42.35-17.98-65.05-22.52c-3.9-0.78-7.86-1.29-12.21-1.98
			c1.28-1.5,2.4-2.87,3.58-4.19c13.25-14.77,28.41-27.35,44.5-38.91c7.03-5.05,13.84-10.42,20.44-16.01
			c3.33-2.82,6.03-6.41,8.9-9.74c0.95-1.1,1.55-2.51,2.61-4.3c-2.67,0.12-4.84,0.22-7.2,0.33c-0.1,1.96-0.19,3.75-0.28,5.51
			c-8.94,1.7-16.31-1.94-19.53-8.99c-0.52-1.15-1.33-1.55-2.48-1.72c-4.8-0.7-8.74-2.98-12.11-6.44c-0.73-0.75-1.92-1.15-2.97-1.46
			c-1.19-0.34-2.48-0.31-3.68-0.59c-6.1-1.41-9-4.5-10-10.6c-0.2-1.22-0.29-2.46-0.44-3.8c2.12,1.12,4.14,2.2,6.58,3.49
			c-0.88,0.18-1.34,0.27-1.8,0.37c0.21,3.13,1.88,4.25,6.56,4.26c-0.93-2.76-1.86-5.45-2.72-8.17c-0.7-2.22-1.3-4.47-1.97-6.69
			c-0.82-2.7-0.34-5.03,1.6-7.15c2.08-2.26,4.03-4.65,6.38-7.37c-1.14-0.94-2.23-1.73-3.18-2.65c-2.7-2.63-5.68-2.13-8.29-0.78
			c-2.46,1.27-3.1,3.88-1.59,6.41c1.02,1.7,2.31,3.25,3.68,5.14c-4.34,2.03-8.57,1.7-12.66-0.22c-5.09-2.39-7.96-6.53-8.1-12.21
			c-0.11-4.49,1.73-8.13,5.33-10.58c-0.29,3.36-0.66,6.7-0.82,10.05c-0.05,1.1,0.48,2.23,0.92,3.35c-0.25-4.71,0.96-8.8,4.62-11.92
			c3.84-3.27,7.95-3.14,12.32-0.63c-1.39-6.17-5.7-11.65-2.35-18.24c-0.88-0.04-1.53-0.07-2.19-0.1
			c-6.14-0.21-10.9-4.27-11.89-10.39c-0.57-3.53-0.48-7.06,0.8-10.25c0.52,2.94,0.83,6.05,1.66,9c0.5,1.77,1.6,3.5,2.81,4.93
			c2.62,3.1,6.51,3.38,10.09,0.71c-0.74-0.47-1.31-0.98-1.97-1.23c-6.28-2.4-8.42-5.42-8.56-12.21c-0.04-1.66-0.01-3.32-0.01-4.94
			c-16.03-6.07-16.16-22.14-9.6-32.21c1.5,1.2,3.04,2.31,4.43,3.6c0.45,0.42,0.63,1.28,0.67,1.95c0.04,0.64-0.28,1.29-0.39,1.95
			c-0.41,2.48,0.36,3.95,2.47,4.77c1.42,0.55,3.63-0.33,4.73-1.97c0.46-0.68,0.82-1.45,1.15-2.21c1.24-2.8,2.45-5.61,3.75-8.59
			c-0.95-0.34-1.86-0.69-2.79-0.98c-2.53-0.8-4.61-2.25-6.34-4.25c-3.9-4.51-2.59-10.31,2.89-12.69c0.6-0.26,1.22-0.44,2.05-0.73
			c0.82,4.13,2.87,7.12,7.05,8.28c2.85,0.79,6.02,0.47,8.55-1.14c-0.82,0-1.38,0.01-1.95,0c-4.47-0.08-7.92-2.04-9.92-6.02
			c-2.82-5.6-5.04-11.41-4.17-17.91c0.08-0.63,0.02-1.36-0.22-1.94c-1.11-2.66-0.06-4.64,2.01-6.71c0.86,5.49,4.56,7.97,9.15,9.54
			c2.41,0.83,4.83,1.62,7.61,2.55c-2.87,1.52-5.55,1.44-8.01,0.67c-2.48-0.78-4.74-2.25-7.09-3.42c-0.92,2.99-0.59,4.41,1.8,5.98
			c3.51,2.31,7.14,4.47,11.61,3.19c1.51-0.43,2.91-1.26,4.28-2.18c-3.8,0.95-7.41,1.13-10.85-1.22c5.78,1.69,10.01-1.32,14.09-4.59
			c0.6-0.48,1.11-1.49,1.08-2.24c-0.13-3.82,1.17-7.16,2.95-10.42c1.07-1.96,1.99-4.01,2.84-6.08c0.78-1.91,0.29-3.36-1.51-4.67
			c-2.8-2.05-4.59-4.91-5.56-8.48c3.54,0.19,6.69-0.16,9.42-2.32c1.96-1.56,3.29-3.32,2.84-5.95c-0.28-1.63,0.24-2.71,1.83-3.31
			c0.61-0.23,1.13-0.69,1.72-1.01c2.97-1.59,4.38-3.71,4.69-7.42c0.97-11.61,9.11-20.22,17.9-22.27c3.33-0.78,6.59-0.8,9.87,0.01
			c1.46,0.36,2.56,0.21,3.77-0.97c5.44-5.29,12.04-8.55,19.38-10.27c1.84-0.43,3.19-1.16,4.02-2.9c1.76-3.66,4.79-6.12,8.03-8.38
			c0.71-0.5,1.39-1.04,2.21-1.66c-5.21-2.1-9.27-0.66-17.63,6.03c3.19-8.94,12.78-12.12,24.31-8.07c-0.86-4.93-4.78-7.57-10.15-6.91
			c-4.94,0.6-9.41,2.41-13.04,5.76c-3.91,3.6-7.53,7.53-11.22,11.37c-3.7,3.84-7.3,7.77-11.02,11.59c-1.02,1.05-2.32,1.82-3.86,2.39
			c0.44-0.58,0.89-1.16,1.33-1.75c4.5-5.89,8.86-11.89,13.56-17.62c3.15-3.84,6.43-7.74,10.29-10.82c8.08-6.46,19.2-6.73,28.36-1.3
			c1.5,0.89,3.01,1.83,4.3,2.98c1.19,1.06,2.26,0.96,3.63,0.53c4.83-1.52,9.69-2.92,14.55-4.36c3.37-1,6.74-1.04,10.01,0.34
			c1.86,0.78,3.24,0.3,4.7-0.99c1.49-1.31,3.13-2.51,4.87-3.44c5.02-2.69,9.65-1.86,13.58,2.26c0.39,0.41,0.66,0.95,1.11,1.62
			c5.52-14.69,21.85-21.39,36.09-9.69c0.46-0.38,0.95-0.79,1.45-1.19c9.3-7.58,19.74-9.85,31.36-6.76c0.83,0.22,1.92-0.01,2.73-0.38
			c3.23-1.44,6.46-2.66,10.11-1.85c4.74,1.05,8.04,4.49,8.99,9.47c-1.15-1.05-2.21-2.24-3.47-3.14c-4.97-3.55-11.37-3.29-16.74,0.62
			c-5.88,4.28-9.35,10.12-10.54,17.22c-1.26,7.52-0.78,14.92,2.26,22.04c0.74,1.72,1.25,3.54,2.25,5.23
			c-0.32-4.69-0.64-9.38-0.97-14.07c2.08,4.83,4.13,9.64,3.36,15.08c-0.59,4.11-2.27,7.6-6.01,10.59c2.07-0.19,3.53-0.22,4.96-0.47
			c2.83-0.49,4.88-2.08,5.99-4.74c1.73-4.15,1.95-8.49,1.13-13.21c-0.41,0.68-0.83,1.35-1.38,2.25c-1.9-5.17-4.1-9.76-5.23-14.6
			c-1.53-6.54-0.1-12.73,4.52-17.91c0.44-0.49,0.95-0.94,1.47-1.35c0.37-0.29,0.83-0.47,1.41-0.61c-2.47,3.95-4.04,8.1-3.89,12.82
			c0.14,4.64,1.64,8.76,4.14,12.52c-0.59-3.03-1.3-6.06-1.73-9.13c-0.47-3.36,0.11-6.67,1.44-9.76c2.85-6.59,8.82-9.13,15.88-6.9
			c3.5,1.11,6.4,3.15,8.93,5.76c0.93,0.96,1.86,1.91,2.73,2.92c1.11,1.28,2.51,1.94,4.16,1.96c4.17,0.04,7.85,1.09,10.73,4.38
			c1.09,1.25,2.61,0.63,3.98,0.26c1.33-0.36,1.13-1.52,1.2-2.46c0.27-3.69,0.47-7.39,0.72-11.4c2.28,2.83,4.55,5.37,6.5,8.13
			c2.88,4.06,3.46,8.44,0.8,12.88c-2.14,3.56-4.28,7.14-6.67,10.53c-2.92,4.15-5.24,4.85-10.11,3.48c-3.16-0.88-5.98-2.41-8.61-4.39
			c-2.31-1.75-4.79-3.27-7.21-4.87c-0.3-0.2-0.69-0.28-1.46-0.57c1.96,3.52,3.56,6.7,5.42,9.71c2.63,4.26,9.54,6.93,14.27,5.37
			c1.95-0.64,3.63-2.08,5.18-3.01c-1.11,4.46-4.52,6.88-9.34,6.32c-3.42-0.4-6.65-1.37-9.67-3.08c-1.85-1.06-3.77-2-6.01-3.18
			c1.04,4.1,3.91,6.08,6.53,8.45c-1.15-0.49-2.3-0.98-3.58-1.52c-0.35,1.62,0.49,2.58,1.59,3.38c0.74,0.53,1.55,0.96,2.34,1.42
			c5.61,3.28,9.31,7.95,10.6,14.41c0.08,0.39,0.3,0.74,0.52,1.26c0.86-5.9-0.7-10.69-6.05-18.57c6.15,3.77,9.01,9.03,9.03,15.85
			c0.01,1.66-0.12,3.35-0.45,4.97c-0.4,1.92-0.05,3.57,0.89,5.25c2.45,4.41,6.01,7.75,10.05,10.61c2.51,1.77,5.18,3.32,7.77,4.97
			c1.04,0.66,2.07,1.34,3.23,2.09c-0.42,0.73-0.73,1.27-1.04,1.81c-0.35-0.04-0.62-0.01-0.82-0.11
			c-8.96-4.39-16.9-10.28-24.45-16.72c-2.23-1.9-3.49-4.32-3.93-7.29c-0.39-2.61-1.02-5.23-1.92-7.71c-0.65-1.82-1.9-3.43-2.88-5.13
			c-0.18,0.09-0.37,0.18-0.55,0.26c0.15,0.47,0.25,0.97,0.47,1.41c1.96,4,2.05,8.37,2.45,12.67c0.37,4,1.66,7.6,4.29,10.71
			c-3.51-1.62-5.6-4.6-7.5-8.48c0.02,4.49,1.39,7.73,4.5,10.08c5.33,4.04,11.22,6.78,17.96,7.46c0.45,0.05,0.89,0.2,1.33,0.3
			c-0.01,0.2-0.01,0.41-0.02,0.61c-4.16,0.18-8.31,0.36-12.3,0.54c2.21,2.61,7.9,4.04,18.96,3.77c-2.53,1.96-5.42,1.8-8.21,1.92
			c-2.81,0.12-5.63,0.03-7.96,0.03c8.84,4.04,14.62,3.27,20.94-1.79c2.81-2.25,5.78-4.32,8.68-6.47c0.11,0.12,0.22,0.25,0.34,0.37
			c-1.23,1.38-2.46,2.76-3.75,4.21c3.56,3.2,6.46,6.97,8.48,11.81c-2.28-1.88-4.13-3.7-6.26-5.09c-1.78-1.16-3.82-2.18-5.88-2.59
			c-2.34-0.47-3.37,2.05-4.99,3.21c-3.14,2.25-4.65,5.47-5.02,9.45c4.48-5.68,10.47-6.54,17.51-5.89c-2.94,1.14-5.37,2.08-7.81,3.02
			c0.05,0.15,0.1,0.3,0.14,0.45c1.7-0.27,3.4-0.55,5.1-0.82c0.06,0.1,0.12,0.2,0.18,0.3c-1.09,0.72-2.19,1.43-3.28,2.15
			c-0.01,0.15-0.02,0.29-0.04,0.44c0.74,0,1.48-0.05,2.22,0.01c3.72,0.32,7.54,0.21,11.12,1.1c9.2,2.28,15.69,10.17,16.85,19.58
			c0.45,3.67,0.59,7.28-0.33,10.89c3.2-5.01,4.36-10.41,3.01-16.23c-1.36-5.87-5.19-9.91-10-13.34c0.57,0.18,1.18,0.29,1.71,0.56
			c6.88,3.46,11.71,8.49,12.29,16.59c0.44,6.1-1.9,11.22-5.88,15.69c-0.88,0.99-1.8,2-2.87,2.77c-1.46,1.05-1.64,2.39-1.39,3.96
			c0.63,3.98,3.9,7.32,7.3,7.46c2.8,0.11,4.33-1.03,4.54-3.8c0.12-1.71-0.23-3.46-0.44-5.18c-0.09-0.72-0.36-1.42-0.58-2.26
			c3.68,2.03,5.39,5.95,4.6,10.22c-0.76,4.11-4.4,7.61-8.64,8.32c-4.68,0.78-9.28-2.42-12.74-9.04c-5.18,2.05-10.53,2.25-16.47,0.31
			c0.67,1.73,1.03,2.99,1.62,4.12c0.77,1.47,1.73,2.84,2.6,4.26c7.82,12.74,7.41,25.5,0.13,38.28c-0.57,1.01-1.23,1.97-1.84,2.95
			c3.84,2.43,8.76,0.51,13.54-5.18c0.37,4.64-2.96,10.58-7.71,13.12c-2.01,1.07-4.32,1.85-6.57,2.11c-3.37,0.39-6.33-1.02-8.02-4.02
			c-1.53-2.73-2.72-5.68-3.8-8.63c-1.2-3.25-2.11-6.61-3.36-9.95c-0.17,4.06-1.62,7.67-3.38,11.2c-0.27,0.55-0.35,1.31-0.24,1.92
			c0.67,3.59,1.42,7.17,2.17,10.75c0.02,0.12,0.24,0.2,0.64,0.51c0-3.95,0-7.7,0-11.45c0.19-0.01,0.38-0.01,0.58-0.02
			c2.04,6.51,4.3,13.03,1.18,19.91c-1.64,3.6-3.41,4.73-6.6,4.46c-2-0.17-2.43-0.6-2.49-2.62c-0.04-1.15-0.01-2.31-0.01-3.67
			c-3.69-0.6-7.18-1.17-10.66-1.73c-0.05,0.11-0.1,0.23-0.15,0.34c1.96,1.32,3.95,2.61,5.87,3.98c1.08,0.77,2.1,1.64,3.07,2.55
			c1.27,1.19,1.97,2.69,1.85,4.46c-0.17,2.74-0.16,5.52-0.64,8.21c-0.77,4.28-3.41,7.32-7.24,9.31c-0.12,0.06-0.37-0.11-0.55-0.18
			c6.33-5.58,6.97-11.93,1.63-19.75c1.63,1.07,2.84,1.87,4.24,2.79c-0.99-3.17-6.79-7.13-10.61-7.38c0.66,0.78,1.31,1.43,1.81,2.18
			c1.61,2.41,3.42,4.72,4.67,7.3c2.24,4.6,1.84,9.16-1.11,13.44C662.93,579.6,662.84,580.15,662.66,580.65z M636.47,466.48
			c4.9-1.46,9.25,1.39,14.08,1.97c-2.84-3.58-5.19-4.99-8.27-4.33c-2,0.43-3.85,1.59-5.77,2.42c-1.84,0.2-3.69,0.39-6.15,0.66
			c1.83,1.51,3.24,2.68,4.29,3.55c2.55-1.02,4.65-1.87,6.94-2.79c-1.39-0.15-2.73-0.36-4.07-0.42
			C636.76,467.5,636.28,467.39,636.47,466.48z M476.01,534.47c-0.11,0.51-0.21,1.02-0.34,1.61c2.51-0.53,3.19-1.59,3.01-4.68
			c-0.99,1.14-1.87,2.15-2.76,3.16c-0.14-0.56-0.14-1.22-0.46-1.65c-1.55-2.11-1.24-4.42-0.75-6.7c0.43-2.03,1.06-4.01,1.59-6.02
			c0.95-3.61,0.83-6.07-0.45-8.7c-0.32,1.92-0.62,3.7-0.99,5.86c-1.19-2.89-1.52-5.79-3.77-8.03c-1.07,3.28-2.11,6.31-1.29,9.64
			c0.75,3.02-0.13,5.58-2.47,7.63c-1,0.87-2.08,1.66-3.07,2.55c-1.36,1.22-2.84,2.35-3.96,3.76c-2.65,3.33-2.53,8.04,0.3,11.43
			c-0.19-1.27-0.51-2.26-0.45-3.21c0.11-1.53,0.2-3.16,0.8-4.55c0.79-1.85,5.48-5.88,7.65-6.85c-4,4.63-7.21,9.5-4.99,16.04
			c1.41-4.76,4.29-8.3,8.68-10.99c-0.29,0.88-0.5,1.5-0.82,2.47C473.24,536.17,474.63,535.32,476.01,534.47z M478.34,427.96
			c-0.99,0.51-1.93,1.26-2.99,1.5c-4.05,0.93-8.14,1.67-12.19,2.55c-5.23,1.13-10.29,2.7-14.63,6.01
			c-3.35,2.56-5.46,7.13-4.99,10.91c3.53-5.6,6.13-8.22,8.96-9.17c-1.02,2.01-2.13,4.18-3.23,6.36c3.25-2.75,6.01-5.84,9.23-8.35
			c3.06-2.38,8.85-3.5,11.51-2.94c-10.82,4.59-15.01,8.06-15.65,12.44c2.96-1.62,6.14-3.6,9.52-5.12c2.63-1.18,5.52-1.8,8.3-2.64
			c6.64-2,12.62-5.12,17.54-10.1c0.31-0.31,0.71-0.53,1.32-0.98c-0.64,6.86-2.41,12.98-6.24,18.75c0.56-0.18,0.73-0.18,0.81-0.27
			c5.04-5.11,8.08-11.18,8.38-18.39c0.29-6.99,0.19-13.99,0.55-20.97c0.14-2.78,1.05-5.52,1.65-8.26c0.15-0.67,0.47-1.31,0.81-2.24
			c-5.81,3.86-6.36,4.86-6.55,11.4c-0.02,0.75-0.04,1.5-0.09,2.25c-0.23,3.7-0.96,7.33-3.01,10.43c-1.15,1.74-2.93,3.05-4.43,4.55
			c1.36-1.95,2.96-3.78,4.04-5.87c2.68-5.22,1.96-10.67,0.39-16.11c-0.65,3.13-1.19,6.28-1.37,9.45c-0.3,5.49-1.87,10.25-6.68,13.48
			C478.88,426.91,478.66,427.51,478.34,427.96z M602.99,600.47c-0.28-1.96-0.55-3.92-0.87-6.16c-0.49-0.13-1.36-0.37-2.24-0.57
			c-2.63-0.6-4.29,0.1-5.64,2.45c-1.02,1.77-1.18,3.69-0.35,5.52c0.86,1.88,1.84,3.72,3.03,5.41c2.05,2.93,4.33,5.7,6.45,8.58
			c0.53,0.73,0.84,1.62,1.4,2.73c-1.23-0.36-1.96-0.58-2.92-0.87c0.76,5.79,4.13,10.12,5.96,15.08c0.25-0.05,0.5-0.1,0.75-0.16
			c-0.31-3.63-0.63-7.25-0.94-10.88c2.05,3.07,3.09,6.39,3.1,10.05c0.01,3.74-1.71,6.96-3.16,10.26c8.45-5.73,9.81-14.5,3.65-22.36
			c-0.97-1.24-2.04-2.42-3.01-3.67c-1.92-2.48-3.67-5.06-4.58-7.99c3.5,3.24,7.03,6.5,10.53,9.77c0.91,0.85,1.82,1.72,2.61,2.68
			c3.16,3.8,3.56,7.97,1.3,12.31c-0.95,1.83-2.36,3.41-3.41,5.2c-0.51,0.87-0.9,1.94-0.93,2.94c-0.06,1.48,0.25,2.98,0.4,4.47
			c0.21,2.17,0.25,2.19,2.59,1.81c0.35-2.24,0.69-4.48,1.11-7.16c2.24,2.51,2.7,4.83,1.95,7.42c-0.35,1.2-0.77,2.38-1.03,3.59
			c-0.65,3.01-1.23,6.03-1.83,9.04c3.68-3.89,6.92-7.89,10.16-11.88c1.1-1.35,1.54-2.86,1.48-4.62c-0.12-3.82-1.77-7.07-3.74-10.16
			c-1.42-2.22-1.6-4.38-0.76-6.4c2.18,4.72,4.44,9.61,6.93,15.02c1.19-3.03,2.25-5.54,3.17-8.1c1.1-3.05,0.72-5.99-1.45-8.41
			c-1.76-1.97-3.74-3.78-5.79-5.47c-2.18-1.8-4.57-3.33-6.81-5.06c-1.79-1.39-3.13-3.12-3.43-5.5c1.72,2.68,3.7,5,7.51,5.74
			c-3.54-4.84-5.61-9.79-5.35-15.64c-5.18,0.73-9.58-0.64-13.83-3.38c0.21,3.04,2.31,4.46,4.23,6.6c-2.07-0.41-3.6-0.72-5.14-1.03
			C603.73,601.26,603.36,600.86,602.99,600.47z M611.18,452.35c0.09,0.14,0.18,0.27,0.26,0.41c-0.25,0.39-0.44,0.82-0.75,1.16
			c-2.43,2.65-2.93,5.87-2.88,9.29c0.03,1.62,0.54,2.9,2.15,3.75c0.52-0.44,1.06-0.9,1.6-1.37c0.77,0.51,1.58,0.79,2.2,0.56
			c5.22-1.89,10.58-1.96,16.02-1.62c1.27,0.08,2.74-0.09,3.83-0.67c3.06-1.64,6.28-1.94,9.65-2c2.71-0.05,5.06,0.6,7.17,2.31
			c1.12,0.91,2.39,1.62,3.6,2.43c0.17-0.13,0.34-0.25,0.51-0.38c-0.95-2.79-2.05-5.54-2.81-8.39c-0.92-3.41-3-5.42-6.16-6.93
			c-3.22-1.54-6.23-1.38-9.38-0.32c-4.06,1.37-8.1,2.83-12.14,4.24c4.8-2.59,9.69-4.99,14.7-7.09c1.35-0.57,3.1-0.5,4.6-0.29
			c1.92,0.27,3.78,0.98,5.9,1.56c-0.58-1.93-1.19-3.62-1.59-5.36c-0.32-1.39-1.16-2.09-2.39-2.61c-3.56-1.52-7.11-2.91-11-1.08
			c-0.12,0.05-0.31-0.06-0.67-0.14c3.14-1.8,6.07-3.67,9.77-2.04c0.3,0.13,0.64,0.16,0.97,0.21c3.98,0.6,4.38,0.24,4.12-3.71
			c-0.03-0.42-0.04-0.84-0.12-1.24c-1.45-7.59-2.94-15.18-4.36-22.78c-1.45-7.75-4.55-14.72-9.47-20.91
			c-2.9-3.65-5.6-7.45-8.4-11.18c-0.77-1.02-1.53-2.05-2.39-3.2c-0.77,1.84-1.31,3.42-2.06,4.89c-3.49,6.83-10.17,9.32-17.24,6.41
			c-1.84-0.76-3.63-1.67-5.34-2.69c-2.65-1.57-5.22-3.26-7.8-4.95c-4.53-2.97-9.06-5.97-14.34-7.43
			c-8.17-2.25-16.32-4.64-24.61-6.37c-4.59-0.96-9.1,0.2-12.37,4.2c-1.53,1.86-3.14,3.69-4.9,5.32c-4.78,4.42-10.61,6.73-16.87,8.15
			c-0.84,0.19-1.87,0.55-2.33,1.18c-0.97,1.36-1.62,2.94-2.67,4.93c9.64-3.86,19.05-6.04,28.68-7.39c-0.66,0.34-1.33,0.6-2.03,0.82
			c-4.75,1.48-9.53,2.89-14.26,4.45c-8.77,2.89-13.19,13.55-9.01,22.22c3.92-1.05,7.9-2.12,11.88-3.19
			c-5.68,3.34-11.52,6.28-15.59,11.8c2.57,0.21,5.13,0.5,7.46-0.1c4.65-1.18,9.23-2.72,13.74-4.36c4.49-1.63,8.88-3.57,13.31-5.38
			c-2.63,1.72-5.46,3.02-8.18,4.51c-4.6,2.51-9.15,5.09-13.67,7.74c-1.86,1.09-3.17,2.7-3.54,5.05c7.56-2.79,14.99-5.4,23.01-4.47
			c8.1,0.94,18.28,5.47,21.26,9.19c-0.76-0.34-1.35-0.61-1.95-0.87c-6.45-2.77-13.11-4.78-20.11-5.49
			c-1.37-0.14-3.09-0.39-4.12,0.26c-4.06,2.53-7.92,5.4-12.24,8.42c3.68-0.36,6.77-0.66,9.86-0.95c-6.73,1.99-13.53,6.84-14.96,10.9
			c3.59-1.29,7.26-2.79,11.04-3.91c3.79-1.12,7.73-1.22,11.64-0.58c5.52,0.9,8.89,2.23,10.73,4.13c-1.66-0.38-3.26-0.83-4.88-1.11
			c-11.14-1.91-20.82,0.46-28.18,9.63c-2.08,2.6-4.2,5.17-6.3,7.76c0.98,0.04,1.66-0.23,2.32-0.53c4.34-1.91,8.7-3.75,12.99-5.77
			c2-0.95,3.88-1.18,6-0.46c1.64,0.55,3.4,0.75,5.1,1.13c4.69,1.04,9.53,1.37,14.06,3.24c1.52,0.63,3.38,0.5,5.09,0.58
			c0.9,0.04,1.81-0.28,2.72-0.32c5.1-0.21,9.89,0.68,14.02,4.62c0-1.15,0-1.84,0-2.53c1.34,2.78,3.73,3.48,6.46,3.65
			c0.82,0.05,1.64,0.27,2.45,0.46c2.17,0.53,2.93,0.22,3.5-1.89c0.34-1.27,0.38-2.62,0.51-3.94c0.1-1,0.13-2.01,0.19-3.01
			c0.22-0.03,0.44-0.06,0.67-0.09c1.03,2.15,2.35,4.22,3.02,6.48c1.28,4.32,0.23,8.23-2.99,11.47c-2.41,2.43-3.78,5.19-3.31,8.75
			c0.67,5.03,1.2,10.08,1.79,15.12c0.38,3.29,1.33,6.56,0.31,9.93c0.16,0.06,0.32,0.11,0.48,0.17c1.24-2.13,2.48-4.26,3.72-6.38
			c1.16,1.15,1.27,2.31,0.38,3.76c-1.87,3.04-3.5,6.24-5.44,9.24c-1.71,2.65-1.87,5.24-0.58,8.03c0.8,1.74,1.6,3.48,2.31,5.25
			c0.59,1.47,1.62,2.24,3.19,2.36c4.81,0.35,9.61,0.7,14.42,1.07c1.34,0.1,2.28-0.43,2.79-1.63c0.42-0.98,0.83-2,1.04-3.04
			c0.48-2.39-0.14-4.54-1.4-6.65c-2.48-4.13-4.99-8.27-5.5-13.25c-0.65-6.29-1.55-12.56-2.07-18.86c-0.39-4.72-1.48-9-5.1-12.34
			c-0.78-0.72-1.38-1.62-2.15-2.55c0.7-0.62,1.2-1.2,1.82-1.57c2.13-1.3,3.06-3.13,2.98-5.63c-0.05-1.57,0.11-3.18,0.41-4.72
			c0.16-0.81,0.65-1.85,1.31-2.22C606.52,454.39,608.88,453.42,611.18,452.35z M380.63,689.7c14.5,0.74,28.62,3.32,42.48,7.36
			c13.52,3.94,26.61,8.93,38.95,15.81c2.96,1.65,6.09,3.06,9.26,4.28c10.31,3.95,20.68,7.76,31.03,11.62
			c2.58,0.96,5.18,1.87,7.77,2.81c0.07-0.15,0.14-0.3,0.21-0.46c-13.53-6.26-25.3-14.96-35.8-25.5c2.95,4.65,5.9,9.31,8.86,13.96
			c-0.14,0.11-0.27,0.22-0.41,0.33c-0.34-0.44-0.66-0.9-1.02-1.33c-3.96-4.83-7.99-9.6-11.86-14.5
			c-6.55-8.29-12.92-16.74-19.54-24.97c-3.23-4.02-6.82-7.74-11.47-10.26c-8.5-4.63-17.52-8.01-26.59-11.28
			c-1.63-0.58-3.19-0.43-4.52,0.54c-3.55,2.6-7.05,5.27-10.5,8.01c-0.71,0.57-1.11,1.52-1.7,2.35c0.51,0.38,0.76,0.74,1.02,0.75
			c4.95,0.17,9.9,0.3,14.85,0.43c-7.38,0.83-14.63,1.92-20.42,8.01c8.82,1.02,16.99,3.2,24.98,5.99c7.94,2.77,15.6,6.16,22.48,11.08
			c-4.54-1.58-8.97-3.4-13.5-4.96c-9.64-3.32-19.5-5.63-29.79-5.24C389.99,684.72,384.99,686.3,380.63,689.7z M526.43,563.41
			c2.84-1.38,3.95-3.28,3.56-6.04c-0.09-0.65,0.04-1.34-0.02-2c-0.57-6.54,2.05-11.96,6.21-17.51c-0.68,2.86-1.23,5.14-1.78,7.43
			c3.19-6.3,6.69-12.27,10.89-17.83c-0.07,0.79-0.32,1.48-0.58,2.17c-1.83,4.82-3.72,9.62-5.48,14.46c-1.5,4.12-1.53,8.4-1.29,13.06
			c3.11-1.39,5.88-2.7,8.7-3.87c2.39-0.99,3.92-2.66,4.85-5.04c2.12-5.41,4.35-10.79,6.45-16.21c1.09-2.81,2.36-5.47,4.31-7.82
			c2.87-3.46,5.61-7.02,8.38-10.56c0.67-0.85,1.24-1.77,2.12-3.03c-2.38,0.4-4.14,0.69-5.91,0.98c2.86-2.28,6.22-3.8,8.23-7.46
			c-3.58,1.67-6.83,3.19-10.08,4.7c3.71-3.07,7.75-5.71,10.58-10.25c-2.87,1.11-5.27,2.04-7.68,2.97c2.43-3.15,2.92-4.06,3.33-7.14
			c-3.31,1.58-6.37,3.01-9.4,4.48c-3.73,1.81-7.36,3.89-11.2,5.44c-4.85,1.96-10.11,3.05-14.14,6.87c1.12-1.47,2.25-2.93,3.48-4.54
			c-2.73-2.11-5.39-4.07-7.94-6.17c-1.14-0.94-2.28-1.23-3.67-0.96c-1.57,0.3-3.15,0.57-5.16,0.93c1.17-0.65,1.94-1.08,3.07-1.72
			c-2.25-2.46-4.25-4.79-6.41-6.95c-0.55-0.55-1.63-0.82-2.46-0.81c-3.96,0.04-7.45,1.49-10.58,3.87c-0.47,0.36-0.98,0.67-1.48,1
			c-0.25-0.28-0.49-0.55-0.74-0.83c2.12-1.81,4.23-3.62,6.35-5.43c-1.47-1.64-2.79-3.13-4.11-4.61c-6.45,5.71-9.97,18.66-7.14,25.95
			c2.82-9.06,7.97-15.13,13.82-16.16c-2.68,2.6-4.8,5.42-5.62,9.07c-1.76,7.79,3.09,19.07,10.39,24.06
			c-2.81-12.33,0.1-22.29,7.1-24.26c-0.46,1.91-1.17,3.8-1.32,5.74c-0.43,5.78,2,10.69,5.2,15.27c0.37,0.53,1.4,0.73,2.16,0.81
			c1.21,0.13,2.45,0.04,3.67,0.04c-0.01,0.11-0.03,0.23-0.04,0.34c-1.4,0.73-2.8,1.46-4.49,2.34c0.97,0.8,1.49,1.23,2.02,1.68
			c-1.5,1.33-2.92,2.58-4.38,3.87c0.33,1.09,0.64,2.09,0.98,3.22c1.68-0.6,3.12-1.12,4.56-1.64c0.07,0.1,0.14,0.19,0.22,0.29
			c-1.92,2.1-3.84,4.2-6.04,6.61c0-1.55,0-2.56,0-3.57c-0.24-0.18-0.48-0.37-0.72-0.55c-0.98,1.26-1.95,2.52-3.08,3.98
			c-0.1-1.73-0.19-3.09-0.28-4.69c-1.2,2.22-3.38,15.89-3.15,18.97c1.48-1.89,3.01-3.85,4.54-5.81c0.23,0.08,0.46,0.17,0.7,0.25
			c0,2.06-0.06,4.12,0.02,6.18C526.06,559.06,526.27,561.12,526.43,563.41z M618.94,504.94c1.71,2.94,3.43,5.13,6.79,5.66
			c2.68,0.41,5.28,1.32,8.42,2.14c-1.77,0.4-3.02,0.69-4.38,0.99c1.3,2.73,2.57,5.38,3.84,8.03c-0.15,0.08-0.3,0.17-0.46,0.25
			c-1.4-1.74-2.72-3.54-4.22-5.19c-1.1-1.21-2.27-2.67-3.71-3.19c-2.38-0.87-4.21-2.26-5.92-3.99c-2.8-2.85-5.63-5.68-8.45-8.5
			c-0.49-0.49-1.03-0.93-1.81-1.62c0.27,2.81,0.35,5.23,0.77,7.59c0.28,1.6,0.78,3.27,1.6,4.66c2.66,4.5,5.4,8.96,8.34,13.29
			c3.75,5.52,2.99,12.47-2.06,16.84c-0.68,0.59-1.36,1.18-2.21,1.92c2.43,0.93,4.62,1.77,7.11,2.73c0-3.83,0-7.27,0-10.72
			c0.53,0.38,0.77,0.8,0.88,1.25c0.7,2.99,1.52,5.96,2.02,8.99c0.99,5.91,4.19,10.6,7.96,14.99c0.79,0.92,1.79,1.65,3.02,2.76
			c0.54-5.09,1.14-9.69,1.5-14.31c0.46-5.74,1.09-11.42,3.79-16.65c0.64-1.25,1.16-2.58,1.59-3.93c0.95-3,2.39-6,2.56-9.05
			c0.39-6.88,0.12-13.79,0.12-20.69c-3.62,0.02-5.41,1.38-5.35,4.15c0.03,1.17,0.73,2.33,1.17,3.49c0.44,1.17,0.92,2.32,1.39,3.48
			c-0.18,0.18-0.37,0.37-0.55,0.55c-2.5-0.61-4.99-1.23-7.49-1.84c0.03-0.19,0.07-0.39,0.1-0.58c1.39,0,2.78,0,4.44,0
			c-0.93-1.36-1.63-2.57-2.51-3.64c-1.58-1.92-2.24-3.82-0.39-5.94c0.08-0.1,0.03-0.32,0.06-0.78c-3.42-2.01-7.58-1.68-11.28-2.99
			c-3.65-1.29-7.36-2.4-11.05-3.59c-0.09,0.25-0.18,0.5-0.26,0.75c4.59,2.64,9.83,3.8,14.71,5.77c-0.05,0.16-0.09,0.33-0.14,0.49
			c-2.64,0-5.28,0-7.92,0c-0.05,0.24-0.11,0.48-0.16,0.72c3.5,1.37,7.01,2.74,10.51,4.11c-0.03,0.12-0.05,0.23-0.08,0.35
			c-3.25-0.31-6.51-0.62-10.33-0.99c1.02,0.89,1.63,1.41,2.22,1.95c0.54,0.49,1.05,1,1.58,1.49c-0.09,0.11-0.17,0.22-0.26,0.32
			C622.71,505.97,620.98,505.5,618.94,504.94z M583,643.1c0.2-0.62,0.36-1.24,0.59-1.85c2.55-6.77,1.18-12.73-3.74-17.94
			c-1.77-1.88-3.57-3.73-5.37-5.58c-0.3-0.3-0.69-0.5-1.53-1.09c0.66,1.57,1.08,2.57,1.5,3.58c-0.15,0.11-0.3,0.22-0.46,0.33
			c-1.74-1.73-3.68-3.31-5.18-5.23c-1.47-1.89-2.51-4.12-3.73-6.21c0.44,2.35,1.03,4.71,2.19,6.75c2.12,3.76,4.52,7.37,6.9,10.98
			c2.49,3.77,4.77,7.64,5.57,12.16c0.68,3.85,0.74,7.77-1.79,11.01c-2.29,2.94-4.99,5.56-7.5,8.33c-0.09-0.08-0.19-0.17-0.28-0.25
			c1.1-2.25,2.19-4.5,3.29-6.75c-8.86,7.67-13.02,17.19-11.39,28.86c0.42,2.98,1.36,5.85,4,7.89c-0.47-2.07-0.94-4.14-1.52-6.7
			c1.43,1.52,2.48,2.63,3.53,3.74c0.23-0.05,0.47-0.1,0.7-0.14c0.28-1.84,1.02-3.75,0.76-5.5c-0.49-3.26-0.42-6.36,0.58-9.57
			c-1.09,1.18-2.12,2.41-2.63,3.82c-0.52,1.46-0.54,3.1-0.81,4.9c-1.3-2.58-1.45-5-0.23-7.35c0.91-1.76,1.91-3.56,3.24-4.99
			c4.26-4.59,8.69-9.03,12.95-13.41c-1.46,3.44-3.23,6.91-4.41,10.58c-1.16,3.62-1.73,7.43-2.55,11.15
			c2.19-1.96,4.21-3.97,5.85-6.25c0.98-1.36,1.71-3.1,1.94-4.75c0.93-6.53,2.67-12.81,4.95-19c1.55-4.19,2.76-8.53,3.77-12.89
			c1.8-7.7,1.81-15.33-1.74-22.68c-2.13-4.41-4.12-8.86-4.66-13.86c-0.28-2.61-4.02-3.76-5.94-2.01c-2.4,2.19-3.94,4.91-4.81,8.02
			c-0.39,1.39-0.68,2.81-1.01,4.22c-1.15-4.75,0.2-9.08,1.93-13.37c-3.71,2.04-4.32,5.71-5.2,9.66c-0.89-4.3-0.12-7.93,1.5-11.52
			c-3.49,0.45-3.87,0.65-4.2,3.8c-1.05,9.77,1.57,18.12,9.82,24.23c-0.47-1.62-1.01-3.18-1.36-4.78c-0.34-1.59-0.48-3.23-0.71-4.84
			c0.11,0,0.21-0.01,0.32-0.01c1.58,3.09,3.16,6.18,4.74,9.27c0.18-0.08,0.36-0.15,0.53-0.23c-1.59-4.98-2.32-10.04-1.46-15.25
			c0.42,0.8,0.55,1.67,0.85,2.48c1.94,5.3,3.8,10.63,5.9,15.87C589.98,628.96,588.23,636.33,583,643.1z M498.16,343.45
			c4.84,3.95,11.04,4.98,16.45,7.71c-0.02,0.19-0.04,0.39-0.07,0.58c-3.06,0.38-6.12,0.76-9.17,1.14c2.08,2.3,2.47,2.47,5.09,1.74
			c5.43-1.53,9.84-4.72,13.86-8.56c1.56-1.49,3.11-3.03,4.82-4.34c3.51-2.68,8.49-3.62,11.77-2.39c-4.57,0.06-7.62,1.07-10.76,3.85
			c-1.68,1.48-3.16,3.19-4.72,4.81c-1.27,1.32-2.45,2.73-3.77,3.99c-6.04,5.74-11.65,6.55-19.01,2.85
			c-1.18-0.59-2.41-1.11-3.65-1.58c-0.61-0.23-1.29-0.29-2.47-0.54c3.23,3.3,6.11,6.02,10.04,7.31c3.93,1.29,7.69,0,11.5-0.82
			c-3.81,3.11-8,5.08-12.98,5c6.3,2.37,11.46,0.03,16.19-4.11c0.11,0.18,0.23,0.36,0.34,0.54c-2.36,2.22-4.72,4.43-7.08,6.65
			c4.98-0.89,7.96-4.38,10.85-8.01c-2.31,6.77-6.28,11.89-13.71,13.56c1.84,2.35,3.36,2.94,5.67,1.84c1.62-0.77,3.05-1.97,4.53-3.04
			c0.67-0.49,1.24-1.12,1.86-1.69c0.14,0.12,0.28,0.24,0.42,0.36c-1.07,2.14-2.14,4.28-3.32,6.62c3.91-1.15,5.17-1.66,7.43-4.43
			c3-3.66,5.72-7.55,8.5-11.39c1.34-1.86,2.52-3.84,3.95-6.03c-3.89-0.99-6.49,1.69-9.68,2.16c2.02-1.77,3.99-3.71,6.36-4.73
			c2.41-1.04,5.2-1.18,7.83-1.71c-0.84-4.05-1.28-4.52-5.43-3.75c-2.14,0.4-4.14,1.57-6.2,2.4c-0.44,0.18-0.86,0.41-1.29,0.61
			c-0.09-0.16-0.19-0.31-0.28-0.47c2-1.64,4.01-3.29,6.19-5.08c-3.1,0.08-5.6,1.17-7.97,2.84c0.04-0.38,0.18-0.63,0.36-0.84
			c3.77-4.5,8.76-4.97,14.1-4.28c0.85,0.11,1.71,0.23,3.05,0.4c-0.97-2.05-1.53-3.73-2.47-5.16c-1.93-2.96-4.97-3.93-8.29-2.81
			c-0.86,0.29-1.68,0.73-2.48,1.17c-4.01,2.2-7.98,4.46-12,6.61c-6.65,3.56-13.54,4.95-20.85,2.1
			C500.53,344.09,499.33,343.8,498.16,343.45z M448.77,408.02c-1.8,2.11-4.3,2.94-6.71,3.91c-5.31,2.14-10.66,4.17-15.92,6.42
			c-5.24,2.24-8.97,6.19-11.76,11.11c-4.43,7.83-2.8,17.64,4.26,22.98c-2.86-4.68-5.15-9.06-3.79-14.35
			c1.39-5.44,5.75-7.69,10.66-10.2c-5.72,8.13-7.29,13.16-5.77,17.29c4.37-12.47,12.28-22.12,24.48-27.93
			c3.42-1.63,7.2-2.52,10.79-3.81c1.07-0.38,2.39-0.72,3.02-1.52c2.2-2.78,3.81-5.92,4.76-9.25c-2.21-0.77-4.22-1.54-6.28-2.15
			c-0.61-0.18-1.5-0.12-2.01,0.21c-5.44,3.53-11.53,5.42-17.65,7.34c-4.5,1.41-8.97,3.02-13.27,4.94c-3.45,1.54-6.05,4.3-8.67,7.63
			c3.12-1.59,5.71-3.1,8.46-4.23c2.83-1.16,5.81-2,8.75-2.88c3.58-1.07,7.21-1.95,10.77-3.07
			C444.91,409.82,446.82,408.85,448.77,408.02z M440.64,457.52c-0.19-0.9-0.26-1.47-0.42-2.01c-0.95-3.26-1.93-6.51-2.87-9.78
			c-0.66-2.31-0.27-4.26,1.42-6.19c4.58-5.23,10.5-8.04,16.94-10.04c3.33-1.04,6.72-1.9,10.02-3.03
			c8.11-2.79,13.4-10.95,12.83-18.59c-0.25-3.3-0.09-6.57,1.53-9.97c-1.61,0.72-2.77,1.33-4,1.77c-1.71,0.6-2.59,1.61-2.88,3.52
			c-0.89,5.97-4.37,10.24-9.7,12.76c-2.96,1.41-6.25,2.17-9.44,3.03c-4.03,1.09-8.04,2.16-11.33,4.93
			c-7.78,6.55-9.85,15.07-8.43,24.74C434.87,452.47,436.64,455.55,440.64,457.52z M553.74,664.34c3.38-2.89,6.45-5.31,9.27-8
			c1.91-1.82,3.71-3.86,5.15-6.07c3.54-5.46,2.21-12.09-3.08-16.2c-0.49,1.26-0.92,2.51-1.45,3.72c-0.51,1.14-1.08,2.25-1.71,3.32
			c-0.62,1.06-1.35,2.05-2.03,3.07c1.14-7.92-3.53-12.58-8.93-17.41c0.68,2.43,1.32,4.39,1.77,6.39c0.77,3.45,1.14,6.93-0.25,10.32
			c-2.14,5.21-7.61,6.18-11.06,1.77c-1.81-2.32-3.01-5.12-4.37-7.76c-0.55-1.07-0.81-2.29-1.33-3.82c-0.33,3.88,0.38,9.59,1.65,12.9
			c0.56,1.46,1.24,2.92,2.09,4.23c2.33,3.57,5.13,4.52,9.24,3.3c0.84-0.25,1.68-0.5,2.66-0.79c-2.73,6.75-2.56,11.36,0.44,15.23
			c-2.13-10.63,1.05-14.3,7.98-18.76C556.12,653.74,554,658.36,553.74,664.34z M679.15,484.47c-0.44,3.92-1.04,7.45,0.32,10.91
			c1.34,3.38,3.82,5.81,6.33,8.24c-0.87-1.89-1.86-3.68-2.83-5.49c-1.91-3.57-1.7-7.23-0.22-10.84c1.66-4.03,1.82-8.05,0.34-12.16
			c-0.26-0.72-0.34-1.5-0.5-2.25c2.6,3.57,3.8,7.4,2.49,11.73c-0.34,1.11-0.63,2.24-0.89,3.37c-0.91,3.96-0.08,7.53,2.41,10.83
			c0.96-1.61,1.91-3.06,2.71-4.59c0.33-0.63,0.49-1.42,0.48-2.14c-0.05-4.33-0.47-8.67-0.2-12.97c0.39-6.16-5.65-13.74-11.36-14.75
			c0.35,2.49,0.98,5.01,0.97,7.53c-0.01,2.53-1.18,4.82-2.83,6.7c-0.95-2.96-1.85-5.78-2.75-8.59c-0.17,0.03-0.35,0.06-0.52,0.08
			c0.81,4.67-0.13,9.07-1.65,13.44c-0.96,2.76-0.78,5.69,0.36,8.32c1.21,2.8,2.71,5.52,4.42,8.05c4.39,6.48,8.96,12.83,12.16,20.03
			c0.23,0.53,0.53,1.02,0.8,1.54c-0.05-5.89-1.6-11.24-5.09-15.93c-1.79-2.4-3.72-4.7-5.48-7.12
			C675.51,494.1,675.63,489.35,679.15,484.47z M608.34,678.5c3.21-0.39,5.13-2.21,5.74-5.16c0.36-1.74,0.38-3.65,0.11-5.41
			c-0.59-3.79-2.73-6.93-4.92-9.98c-3.01-4.19-5.8-8.47-6.38-14.05c-1.43,1.09-2.65,1.95-3.79,2.89c-5.17,4.27-7.46,9.34-3.98,16.29
			c0.11,0.22,0.23,0.45,0.33,0.67c0.51,1.13,0.39,2.13-0.22,3.27c-1.31,2.43-3.25,4.16-5.43,5.74c-1.48,1.07-2.98,2.17-4.2,3.5
			c-2.08,2.27-3.06,5.04-3.19,8.3c1.7-1.93,3.04-3.73,4.66-5.24c3.08-2.88,6.32-5.58,9.49-8.37c-0.9,3.23-1.85,6.66-2.88,10.38
			c5.47-3.44,11.3-5.82,15.68-10.79C609.02,673.14,608.69,675.71,608.34,678.5z M519.49,658.94c0.21,0.02,0.42,0.04,0.63,0.05
			c0.3-1.57,0.85-3.15,0.85-4.72c-0.01-3.82-0.28-7.65-0.45-11.47c-0.15-3.47,1.08-6.36,3.71-8.62c2.14-1.85,4.3-3.69,6.53-5.43
			c4.55-3.57,7.94-8.02,10.26-13.3c0.42-0.96,0.82-1.94,1.23-2.9c0.38,7.05-4.16,11.56-8.84,16.5c11.5-3.81,13.6-16.28,10.19-23.51
			c-2.5,2.69-4.97,5.35-7.47,8.05c-0.72-2.35-0.57-4.96-2.65-6.92c-0.48,1.5-0.73,3.01-0.94,4.53c-0.68,5.08-2.82,9.38-6.92,12.56
			c-2.1,1.63-4.21,3.28-6.46,4.69c-5.45,3.42-7.67,8.33-7.13,14.61c0.36,4.12,2.19,7.58,4.93,10.61c-0.69-4.25-1.38-8.51-2.06-12.76
			c0.2-0.03,0.39-0.07,0.59-0.1C517.9,646.59,520.36,652.37,519.49,658.94z M419.82,392.8c0.85-1.23,1.66-2.48,2.55-3.68
			c3.63-4.92,8.3-8.27,14.56-8.49c3.89-0.14,7.8,0.37,11.69,0.61c3.89,0.24,7.79,0.74,11.68,0.71c4.83-0.04,8.68-2.02,10.72-6.73
			c0.59-1.37,1.39-2.65,2.06-3.99c1.51-3.06,3.45-5.69,6.76-7.01c0.14-0.06,0.18-0.38,0.27-0.59c-8.25-1.18-15.03,1.11-20.02,7.95
			c-1.6,2.19-3.83,3.22-6.51,2.96c-3.56-0.34-7.09-0.9-10.64-1.27c-4-0.42-7.84,0.19-11.44,2.12c6.4-0.24,12.59,0.87,18.82,1.98
			c2.81,0.5,5.78,0.26,8.66,0.05c1.48-0.11,2.92-0.89,4.37-1.37c-0.78,0.94-1.72,1.56-2.75,1.97c-3.03,1.19-6.19,1.1-9.36,0.75
			c-3.06-0.34-6.11-0.77-9.17-1.06C431.46,376.7,422.33,382.79,419.82,392.8z M588.96,346.57c-0.26-0.41-0.53-0.81-0.77-1.23
			c-2.09-3.74-5.31-6.16-9.28-7.52c-5.26-1.8-10.1-0.91-13.96,3.22c-2.7,2.9-5.08,6.1-7.67,9.25c1.92,0.47,3.3-0.33,4.54-1.51
			c1.44-1.38,2.78-2.89,4.32-4.15c4-3.27,9.41-4.08,13.95-2.23c-8.96-0.07-13.38,2.01-15.9,7.67c1.24-0.68,2.32-1.25,3.38-1.84
			c2.87-1.58,5.98-2.19,9.17-1.62c6.39,1.15,12.38,3.36,17.32,7.74c2.74,2.43,5.23,5.15,8.16,8.06c-1.14-2.71-1.99-5.13-3.16-7.39
			c-1.01-1.96-2.15-3.95-3.64-5.54c-2.71-2.89-4.85-6.06-6.52-9.66c-1.39-3-2.85-6.06-4.82-8.68c-6.39-8.49-18.99-8.01-24.93,0.79
			c-0.27,0.4-0.39,0.89-0.58,1.33c0.94-0.61,1.64-1.32,2.37-2c7.33-6.73,17.76-5.58,23.43,2.59
			C587.03,337.68,588.34,342.01,588.96,346.57z M397.75,498.99c6.51,4.21,17.36,3.56,24.52-1.61c6.43-4.64,11.1-15.9,9.37-20.35
			c-1.36,1.94-2.74,3.9-4.12,5.86c1.66-6.18,1.33-9.56-1.37-12.06c-0.2,2-0.28,4.08-0.64,6.1c-1.61,9.04-12.17,19.28-24.34,15.94
			c-4.12-1.13-7.97-3.24-11.93-4.93c-0.71-0.3-1.37-0.7-2.06-1.05c-0.08,0.17-0.17,0.34-0.25,0.51c4.41,5.65,10.26,9.04,17.35,9.89
			c8.67,1.04,15.72-2.16,20.88-9.35c-2.13,6.64-7.93,11.21-15.08,11.51C405.88,499.62,401.66,499.15,397.75,498.99z M646.09,636.33
			c-4.78,2.96-6.06,7.25-5.62,12.33c0.4,4.61,3.98,11.05,7.62,13.33c-0.37-0.97-0.7-1.71-0.93-2.48c-1.2-3.88-1.17-7.75,0.61-11.43
			c2.09-4.3,5.64-7.45,8.94-10.79c-1.17,2.37-2.48,4.64-3.74,6.94c-1.52,2.76-2.26,5.7-1.99,8.87c0.25,2.96,2.38,5.82,5.08,6.63
			c-2.84-4.04-2.39-8.03-0.17-12.37c0.19,5.57,0.5,6.85,2.11,8.67c-0.52-4.62,0.34-8.87,2.48-12.87c0.59-1.1,1.21-2.19,1.68-3.34
			c0.24-0.57,0.4-1.32,0.23-1.87c-0.69-2.18-1.53-4.31-2.49-6.92c-3.99,2.74-7.84,5.4-11.77,8.1
			C647.51,638.26,646.88,637.4,646.09,636.33z M558.13,578.27c1.42-3.51,3.17-6.93,4.2-10.55c1.78-6.27,3.12-12.66,4.59-18.8
			c0,0-0.31,0.15-0.5,0.39c-3.2,4.09-7.42,6.56-12.38,7.88c-0.48,0.13-0.91,0.39-1.38,0.58c-3.66,1.46-5.9,4.22-7.13,7.86
			c-1.13,3.37-1.29,6.87-0.9,10.37c0.57,5.12,1.29,10.23,0.37,15.57c3.69-4.19,4.33-7.19,2.86-11.93
			c-2.12-6.86-0.75-13.19,3.11-19.1c-0.87,3.43-1.94,6.82-1.21,10.46c0.85,4.24,2.57,7.47,5.11,9.17c-0.75-2.38-1.53-4.64-2.18-6.94
			c-0.84-2.95-0.93-5.83,1.21-8.64c0.12,1.38,0.18,2.53,0.33,3.66c0.17,1.23,0.4,2.46,0.65,3.68c0.2,1.03,0.45,2.05,0.68,3.07
			c0.12-0.02,0.24-0.04,0.36-0.06c0.43-2.39,0.87-4.79,1.4-7.75C559.53,571.11,557.49,574.65,558.13,578.27z M480.93,487.32
			c-4.38-0.67-8.53-1.74-12.35-3.94c-5.72-3.29-10.4-7.75-14.35-12.98c-1.96-2.59-3.06-5.56-2.75-8.86
			c0.26-2.76,0.72-5.51,1.09-8.27c-1.2,1.53-2.31,3.18-3.02,4.99c-1.7,4.38-1.66,8.95-1.02,13.53c1.16,8.23,5,14.37,13.34,16.92
			c1.58,0.48,3.22,0.84,4.85,1.06C471.71,490.44,476.44,489.52,480.93,487.32z M576.27,573.36c0.4-0.58,0.86-1.13,1.18-1.76
			c2.45-4.74,4.42-9.67,5.33-14.96c0.46-2.67,0.37-5.32-0.8-7.82c-0.92-1.96-1.85-2.58-3.95-2.2c-2.11,0.39-4.22,0.94-6.2,1.75
			c-0.95,0.39-1.9,1.42-2.31,2.38c-1.73,4.14-1.57,8.59-1.8,12.94c1.57-3.94,3.14-7.88,4.72-11.82c0.18,0.07,0.37,0.14,0.55,0.21
			c0.16,6.71-0.32,13.28-4.4,19.13c0.25,0.12,0.49,0.25,0.74,0.37c1.55-1.75,3.11-3.5,4.85-5.47c-0.59,2.31-1.13,4.44-1.67,6.57
			c2.96-3.18,3.81-7.14,4.74-11.09C577.9,565.61,577.63,569.5,576.27,573.36z M620.98,563.38c0.3-0.03,0.6-0.07,0.91-0.1
			c0.64,2.8,1.52,5.58,1.84,8.42c0.32,2.8,0.07,5.66,0.07,8.86c0.48-1.15,0.92-2.02,1.22-2.93c2.8-8.64,1.15-16.92-2.3-24.94
			c-0.63-1.47-2.16-2.8-3.6-3.63c-2.13-1.23-4.51-2.08-6.87-2.86c-1.75-0.58-3.51-0.35-4.84,1.04c1.76,1.44,3.51,2.7,5.05,4.18
			c2.95,2.83,3.36,6.7,3.38,10.4c0.03,4.51,3.33,6.94,5.08,10.34c0.15-0.06,0.3-0.12,0.45-0.18
			C621.23,569.12,621.11,566.25,620.98,563.38z M642.68,579.59c2.09,3.42,3.61,6.79,4.24,10.56c0.93-3.39,0.67-6.74-0.24-10.03
			c-1.55-5.62-5.46-9.4-10.15-12.5c-3.52-2.32-7.33-4.27-9.85-7.9c0.72,8.21,3.7,15.44,8.91,22.24c-0.58-4.04-1.1-7.65-1.63-11.27
			c0.69,0.42,0.95,0.92,1.11,1.46c0.99,3.34,2.01,6.68,2.91,10.04c0.76,2.85,2.47,4.92,5.12,7.08
			C642.95,585.79,642.82,582.84,642.68,579.59z M672.18,335.43c-0.16,2.47-0.16,2.47,1.37,5.94c1.69,3.82,0.96,6.99-2.19,9.58
			c-2.31,1.9-3.97,1.75-5.63-0.71c-1.16-1.72-2.1-3.58-3.11-5.39c-1.19-2.13-2.98-3.34-5.42-3.43c-1.89-0.07-3.78-0.01-5.91-0.01
			c1.47,7.68,7.12,10.5,13.15,13.11c-1.86-0.12-3.72-0.23-5.78-0.36c1.64,2.6,4.11,3.57,6.68,4.25c4.04,1.08,4.51,0.8,6.32-3.06
			c0.93-1.98,1.94-3.76,3.85-5.07c2.2-1.5,2.74-3.93,2.4-6.46C677.4,340.25,675.56,337.5,672.18,335.43z M630.43,690.42
			c-4.54-0.93-8.2-4.34-11.28-10.39c0,0.74-0.07,1.38,0.01,2c0.91,6.63,5.04,10.46,11.09,12.47c4.02,1.33,8,2.65,10.9,6.05
			c0.14-0.13,0.29-0.25,0.43-0.38c-1.61-2.72-3.22-5.44-5.05-8.51c4.85,3.15,8.37,6.73,8.77,12.55c0.54-5.9-1.48-10.81-5.51-14.94
			c-2.59-2.66-5.66-4.62-9.2-5.79c-2.55-0.84-4.62-2.22-5.94-4.63c-0.11-0.2-0.32-0.36-0.48-0.53
			C625.45,682.71,626.94,686.92,630.43,690.42z M632.82,654.31c0.16,0.12,0.31,0.25,0.47,0.37c-2.32,3.94-5.37,7.62-4.64,12.74
			c1.13-0.33,2.13-0.62,3.11-0.91c0,2.23,0,4.36,0,6.77c2.64-4.16,5.04-8.02,7.51-11.83c0.68-1.06,0.6-2.01-0.06-2.97
			c-2.54-3.7-5.16-7.35-6.49-12.14c-4.62,6.14-10.44,10.96-11.12,19.16c1.87-2.18,3.42-4.23,5.23-6.03
			C628.69,657.63,630.81,656.03,632.82,654.31z M649.29,343.81c-0.58-3.2-2.2-5.68-4.07-8.02c-2.78-3.47-6.4-5.52-10.79-6.1
			c-7.5-0.99-13.61,5.74-13.05,11.37c2.48-3.88,5.85-6.04,10.5-7.3c-3.77,3.15-4.9,4.58-5.23,6.56c6.75-4.26,6.75-4.26,8.95-4.08
			c-4.78,2.94-7.77,6.84-8.46,11.09c2.64-2.36,5.4-4.51,7.77-7.03c2.67-2.83,5.43-2.79,8.46-0.98c1.35,0.8,2.6,1.77,3.86,2.71
			C647.96,342.58,648.61,343.21,649.29,343.81z M626.47,719.72c0.88-2.12,1.83-4.22,2.61-6.38c2.06-5.67,0.74-9.38-4.64-12.74
			c0.23,0.58,0.35,0.94,0.51,1.3c2.04,4.47,1.4,8.57-1.66,12.35c-1.52,1.87-3.08,3.71-4.52,5.65c-0.79,1.06-1.36,2.29-2.03,3.45
			c0.15,0.15,0.3,0.3,0.45,0.45c2.24-1.04,4.48-2.07,6.9-3.19c-1.26,2.89-3.85,4.06-5.98,5.82c3.05-0.68,6.02-1.47,8.82-2.64
			c5.5-2.3,8.5-7.3,8.26-13.27c-0.14-3.51-0.94-6.46-2.37-8.27C634.03,709.47,632.09,715.33,626.47,719.72z M650.05,573.55
			c0.22,2.53,0.43,5.07,0.65,7.6c0.13,1.49,0.14,3.01,0.46,4.46c0.48,2.21,1.99,2.84,3.91,1.64c1.95-1.22,2.9-3.18,3.32-5.35
			c0.11-0.58-0.56-1.6-0.32-1.82c1.59-1.48,1.21-3.55,1.72-5.31c1.01-3.49,0.74-6.91-1.69-9.91c-3.39-4.18-8.23-5.87-12.98-7.74
			c2.52,2.43,5.25,4.59,7.72,7.02c2.52,2.47,3.95,5.55,4.05,9.43c-2.68-3.97-6.15-6.81-9.02-7.37c3.15,3.75,7.09,7.01,5.92,12.78
			C652.84,576.79,652.49,574.33,650.05,573.55z M596.32,336.8c2.41-2.75,4.63-5.28,6.86-7.82c-1.37,5.14-1.55,10.24-1.15,15.87
			c1.38-4.61,2.45-8.78,3.89-12.82c1.49-4.17,4.27-7.59,7.81-10.9c-4.11-0.14-7.59,0.32-11.05,1.29c-4.07,1.15-7.37,3.42-10.01,6.67
			c-1.68,2.07-1.54,3.41,0.42,5.17C594.01,335.08,595.03,335.8,596.32,336.8z M630.32,475.69c0.86,0.94,1.31,1.63,1.94,2.07
			c1.89,1.35,3.8,2.69,5.79,3.87c2.64,1.56,4.91,3.36,5.96,6.41c0.2,0.58,1.04,1.41,1.48,1.34c0.65-0.09,1.41-0.76,1.74-1.39
			c1.17-2.19,2.33-4.41,3.21-6.73c0.58-1.51,0.91-3.21,0.92-4.82c0.01-2.19-0.51-2.54-2.77-2.41c-4.39,0.25-8.79,0.55-13.18,0.9
			C633.88,475.04,632.36,475.37,630.32,475.69z M650.18,628.5c2.22-1.73,3.03-4.27,4.23-6.87c1.1,0.83,2.46,1.42,3.08,2.46
			c0.57,0.96,0.34,2.39,0.52,4.26c1.02-2.38,1.81-4.23,2.68-6.28c-4.87-1.46-8.29-4.29-10.61-8.48c-2.35-4.23-2.33-8.82-1.91-13.42
			c-4.52,2.01-5.85,5.42-5.2,9.99c0.64,4.5-0.84,8.52-3.72,12.24c4.59-0.26,7.47-2.29,8.4-6.84c0.16,0.04,0.32,0.08,0.49,0.12
			c0.53,2.18,1.06,4.35,1.63,6.7c0.42-0.79,0.77-1.45,1.12-2.11c0.2,0.07,0.4,0.13,0.6,0.2
			C651.05,623.11,650.63,625.75,650.18,628.5z M604.4,587.18c0.3-3.77,0.3-3.77-3.31-5.28c-0.49,1.35-0.99,2.71-1.48,4.06
			c-0.14-0.03-0.28-0.07-0.42-0.1c0-1.76,0-3.53,0-5.21c-3.22-1.52-8.53-2.72-11.71-2.67c-1.83,0.03-2.41,0.52-2.35,2.38
			c0.06,1.7,0.36,3.39,0.6,5.51c-2.31,0-4.46,0-6.62,0c9.35,2.22,18.77,2.82,28.24,2.92c0.04-0.2,0.09-0.39,0.13-0.59
			C606.52,587.88,605.55,587.56,604.4,587.18z M704.52,473.21c-4.53,2.93-6.75,3.71-9.71,3.34c0.37-0.35,0.65-0.63,0.96-0.88
			c2.73-2.22,3.78-5.19,3.72-8.6c-0.04-2.14-1.36-4.2-3.22-4.56c-3.91-0.76-7.49,0.15-10.82,2.62c4.74,4.41,8.44,9.12,8.33,15.72
			C699.09,481.58,704.57,477.9,704.52,473.21z M386.61,483.77c0.34,0.19,0.6,0.42,0.91,0.51c6.43,2.02,12.97,2.63,19.67,1.61
			c4.27-0.65,7.59-2.71,10.06-6.23c2.54-3.62,2.16-7.87-1.08-11.18c-0.02,0.37-0.04,0.69-0.05,1.02
			c-0.28,6.96-4.18,10.72-11.18,10.98c-1.54,0.06-3.17,0.33-4.58,0.93c-3.35,1.41-6.66,1.83-10.18,0.77
			C388.65,481.71,387.42,482.28,386.61,483.77z M469.82,383.63c-4.48,1.96-8.97,1.21-13.49,0.4c-5.94-1.06-11.77-0.42-17.47,1.44
			c-3.82,1.25-6.67,3.01-8.37,5.08c4.9-1.55,9.74-2.09,14.67-1.52c3.05,0.35,6.09,0.98,9.15,1.13
			C460.44,390.45,465.65,388.31,469.82,383.63z M493.42,552.82c-1.73,1.99-3.36,3.87-5,5.76c1.09-2.94,2.63-5.59,3.53-8.44
			c1.09-3.48,0.9-5.99,0.12-8.85c-0.1,0.9-0.06,1.81-0.11,2.71c-0.18,3.4-1.03,6.61-3.18,9.29c-2.78,3.47-6.11,6.37-10.07,8.45
			c-3.2,1.68-6.56,2.15-10.15,1.37c-1.64-0.36-2.01-1.16-1.86-2.61c0.15-1.43,0.21-2.88,0.31-4.31c-0.14-0.03-0.29-0.05-0.43-0.08
			c-0.84,2.21-1.68,4.41-2.55,6.68c3.04,2.94,6.34,5.09,10.61,5.06C483.1,567.78,491.13,561.37,493.42,552.82z M552.48,489.84
			c-3.88,3.68-8.7,4.82-12.94,7.37c2.54,1.51,5.12,2.78,7.74,3.96c0.49,0.22,1.18,0.32,1.69,0.16c3.2-0.97,5.84-2.83,8.15-5.33
			c-1.87,0.1-3.73,0.2-5.6,0.31c2.11-1.18,4.29-1.94,6.35-2.94c0.71-0.34,1.31-1.17,1.66-1.92c0.4-0.86,0.48-1.87,0.65-2.65
			c-7.5-1.35-15.11-2.73-22.73-4.1C541.82,487.7,547,488.37,552.48,489.84z M547.99,674.33c-1.94,1.51-2.75,3.53-2.97,5.8
			c-0.39,4.04,1.18,7.33,4.59,9.3c2.84,1.64,5.98,2.89,9.13,3.81c4.62,1.34,8.02,3.85,10.01,8.27c0.54,1.2,1.3,2.32,2.05,3.41
			c0.33,0.48,0.88,0.8,1.34,1.2c0.22-0.1,0.44-0.2,0.66-0.3c-0.52-2.57-0.76-5.24-1.61-7.7c-1.68-4.85-5.75-7.09-10.33-8.6
			c-2.44-0.8-4.96-1.43-7.29-2.49c-4.54-2.06-6.57-6.11-5.81-11C547.85,675.48,547.92,674.91,547.99,674.33z M650.75,599.77
			c-0.85,10.9,4.75,18.4,10.39,20.03c3.9-11.47-2.57-21.47-10.94-25.91c1.59,2.19,3.11,3.83,4.08,5.76c1,1.97,1.58,4.17,2.11,6.33
			c0.51,2.08,0.71,4.23,1.04,6.35C655.31,608.11,654.16,603.47,650.75,599.77z M693.35,448.5c0.31,0.45,0.34,0.54,0.4,0.57
			c0.38,0.16,0.76,0.32,1.15,0.44c8.47,2.52,14.18,7.74,16.26,16.55c0.09,0.39,0.37,0.74,0.63,1.24
			c5.19-14.06-4.33-25.43-16.1-24.42c9.76,2.55,15.01,8.32,15.54,17.95c-1.33-4.76-3.1-9.26-7.36-12.3
			c-3.23-2.3-8.12-4.02-14.34-2.55c3.53,0.72,6.82,0.53,9.54,2.53C697.25,448.5,695.43,448.5,693.35,448.5z M650.97,671.43
			c-4.73,4.62-11.23,4.18-16.83,6.07c0,0.18,0.01,0.36,0.01,0.54c2.47,0.52,4.93,1.03,7.4,1.55c-0.01,0.08-0.03,0.16-0.04,0.24
			c-2.12,0.28-4.23,0.57-6.35,0.85c4.84,2.82,8.9,6.1,11.11,11.3c0.56-4.04-0.95-7.33-3.64-10.24c0.21-0.14,0.42-0.27,0.62-0.41
			c2.07,1.84,4.13,3.68,6.17,5.49c0.24-2.57-1.66-4.48-2.53-6.96c1.44,0.73,2.87,1.47,4.3,2.2c2.51-4.23,2.52-4.45,0.07-7.04
			c-0.66,0.32-1.36,0.65-2.52,1.21C649.63,674.31,650.3,672.87,650.97,671.43z M482.27,375.39c0,0.58-0.03,1.16,0,1.74
			c0.38,6.77-2.48,11.87-7.94,15.7c-3.76,2.63-7.86,4.44-12.35,5.66c1.15,0.28,2.28,0.33,3.4,0.27c7.22-0.36,13.23-3.53,18.63-8.11
			c4.86-4.12,5.52-9.63,5.39-15.95c-3.52,5.37-4.13,11.8-8.91,15.93C484.22,385.87,484.12,380.69,482.27,375.39z M604.56,695.39
			c-0.23-0.12-0.45-0.24-0.68-0.36c-0.75,1.41-1.78,2.74-2.21,4.24c-1.7,5.93,1.26,13.25,6.5,16.53c1.88,1.17,3.92,1.14,5.48-0.41
			c1.57-1.56,2.92-3.35,4.62-5.35c-1.44-0.23-2.43-0.32-3.38-0.56c-1.84-0.47-3.75-0.83-5.47-1.59c-4.33-1.92-6.12-5.44-5.39-10.11
			C604.16,696.98,604.39,696.19,604.56,695.39z M518.36,593.93c0.24-3.3-0.03-6.65,2.07-10.05c-0.17,2.92-0.31,5.36-0.46,7.8
			c0.23,0.05,0.47,0.11,0.7,0.16c1.93-2.86,3.87-5.72,5.8-8.57c0.14,0.07,0.28,0.13,0.42,0.2c-0.37,1.68-0.74,3.35-1.14,5.19
			c5.95-2.72,7.48-7.49,4.09-12.5c-3.41,1.62-6.88,3.21-10.29,4.92c-1.34,0.68-2.53,1.63-2.6,3.38
			C516.82,587.7,516.97,590.9,518.36,593.93z M505.68,560.61c-1.67,2.85-3.41,5.45-4.79,8.24c-1.67,3.38-0.98,6.7,0.95,9.84
			c0.17-3.57,0.36-7.11,2.43-10.31c0.64,5.04,1.26,9.87,1.88,14.71c1.15-3.59,1.47-7.29,1.24-11.39c3.97,5.3,2.23,10.45,0.84,15.61
			c3.08-4.38,4.73-9.06,2.77-14.28C509.46,568.94,507.57,564.98,505.68,560.61z M497.35,559.28c-4.32,2.65-6.12,6.86-4.09,11.62
			c2.61,6.09,1.56,11.28-2.34,16.26c-0.75,0.96-1.33,2.04-2.2,3.39c3.13-0.39,5.17-1.96,7.16-3.67c0.16,0.08,0.32,0.17,0.48,0.25
			c-0.66,1.79-1.31,3.59-2.05,5.6c1.96-0.28,3.27-1.31,3.72-2.95c0.39-1.46,0.26-3.09,0.25-4.64c-0.01-1.32-0.56-2.77-0.19-3.94
			c0.98-3.09,0.12-5.75-1.38-8.32c-2.66-4.55-2.88-8.93,0.63-13.16C497.42,559.65,497.35,559.44,497.35,559.28z M531.08,460.75
			c-0.24,0.22-0.48,0.45-0.71,0.67c0.76,2.74,1.52,5.48,2.34,8.44c-1.45,1.39,0.12,2.41,0.88,3.48c5.07-1.61,9.98-3.17,15.08-4.79
			c-1.15-1.5-2.7-1.31-3.98-1.48c-4.29-0.55-8.31-1.46-11.12-5.22C533.08,461.22,531.92,461.1,531.08,460.75z M592.28,548.25
			c-0.48,1.49-0.9,2.77-1.34,4.14c-0.33-2.07-0.45-3.99-0.97-5.79c-0.55-1.92-0.95-1.96-3.32-1.13c1.4,6.04,1.18,12.15-0.08,18.71
			c0.82-0.86,1.35-1.28,1.71-1.82c1.42-2.1,2.8-4.23,4.51-6.83c0,1.56,0.04,2.69-0.01,3.81c-0.05,1.11-0.2,2.22-0.33,3.65
			C596.6,558.15,596.52,551.29,592.28,548.25z M406.33,518.5c4.3-0.35,8.65-0.98,13-0.99c4.44-0.02,8.25,2.35,12.13,4.35
			c-1.75-3.04-4.02-5.49-6.89-7.37c-3.39-2.22-6.97-3-10.86-1.43C410.72,514.27,408.34,516.28,406.33,518.5z M449.7,392.59
			c-0.03,0.12-0.07,0.24-0.1,0.36c1.68,0.54,3.34,1.14,5.04,1.62c7.67,2.2,17.81-1.21,22.57-7.58c2.83-3.79,2.95-7.97,1.76-12.35
			c-1.16,2.41-2.08,4.87-3.01,7.33c-1.27,3.35-3.17,6.24-6.33,8.07c-4.81,2.78-9.92,4.15-15.51,3.12
			C452.66,392.89,451.17,392.78,449.7,392.59z M392.44,479.45c0.09,0.25,0.18,0.51,0.27,0.76c1.85-0.13,3.87,0.17,5.51-0.49
			c2.99-1.19,5.95-1.74,9.16-1.81c4.36-0.11,7.48-3.79,7.34-8.16c-3.03,4.03-7.12,5.17-11.9,4.56c-3.95-0.5-7.05,1.34-9.83,3.85
			C392.67,478.44,392.61,479.01,392.44,479.45z M572.85,525.42c1.35-0.13,2.67-0.25,3.99-0.37c0.33-0.03,0.67-0.02,0.99-0.07
			c2.14-0.31,3.29-1.87,3.16-4.28c-0.1-1.85-1.68-3.41-3.65-3.25c-1.88,0.16-3.77,0.51-5.58,1.05c-1.99,0.61-3.1,3.12-2.57,5.28
			C569.72,525.91,571.49,525.21,572.85,525.42z M414.77,521.33c-0.01-0.19-0.02-0.38-0.03-0.56c-3.81,0.75-7.63,1.43-11.42,2.27
			c-3.88,0.87-7.58-0.16-11.83-1.15c4.8,3.92,9.68,4.35,14.93,2.99c-2.88,1.8-5.77,3.29-9.27,3.15c-3.44-0.14-6.13-2.01-9.24-4.01
			c0.33,0.65,0.41,0.87,0.55,1.05c4.06,5.05,10.67,6.19,16.56,2.67C408.36,525.74,411.53,523.47,414.77,521.33z M405.77,426.48
			c-0.41,1.65-0.69,3.18-1.18,4.64c-0.5,1.49-1.23,2.9-1.83,4.35c-0.54,1.3-1.13,2.59-1.56,3.92c-2.32,7.27,1.64,13.33,7.2,15.47
			c-0.56-0.63-0.88-1.07-1.27-1.42c-3.87-3.36-4.55-7.52-3.04-12.2c0.79-2.44,1.74-4.83,2.53-7.27
			C407.45,431.41,407.12,428.94,405.77,426.48z M649.05,351.47c-1.29-2.34-2.38-4.43-3.6-6.45c-0.36-0.59-1.05-1.33-1.64-1.37
			c-3.17-0.23-6.31,0.15-8.98,2.03c-0.74,0.52-0.98,1.76-1.59,2.93c2.96,0.13,5.54-0.01,8.02,0.43
			C643.74,349.5,646.12,350.54,649.05,351.47z M602.46,353.85c0.06-2.76-0.14-4.95-2.55-6.84c-2.29-1.79-3.97-4.38-5.87-6.66
			c-0.58-0.69-0.96-1.56-1.51-2.28c-0.71-0.92-1.58-1.39-2.81-0.66C591.21,345.01,596.67,349.41,602.46,353.85z M487.17,572.59
			c-5.69,3.75-7.8,6.97-6.75,9.71c1.77-2.28,3.64-4.7,5.51-7.11c0.22,0.13,0.45,0.26,0.67,0.38c-1.1,3.55-2.28,7.07-3.27,10.65
			c-0.9,3.26-0.21,6.27,1.92,8.91c-0.73-3.36-0.6-6.67,0.89-9.76C488.13,581.29,488.5,577.12,487.17,572.59z M461.36,567.83
			c0.29,2.83,0.56,5.44,0.83,8c2.63-4.46,0.36-13.79-3.91-15.87c0.21,0.77,0.43,1.54,0.64,2.31c-0.18,0.09-0.37,0.17-0.55,0.26
			c-1.43-1.34-2.86-2.69-4.3-4.03c1.81,2.94,4.51,5.7,4.15,9.35c-0.33,3.36-1.57,6.63-2.41,9.94c0.1,0.06,0.21,0.12,0.31,0.17
			C457.81,574.7,459.5,571.43,461.36,567.83z M549.68,458.58c-0.02,0.24-0.05,0.47-0.07,0.71c1.81,0.47,3.67,0.8,5.42,1.44
			c3.68,1.35,7.22,0.95,10.6-0.74c1.66-0.83,3.01-0.71,4.31,0.38c2.19,1.83,4.3,3.75,6.45,5.64c-0.89-1.94-1.96-3.85-3.14-5.68
			c-1.35-2.1-3.45-2.9-5.8-2.61c-1.61,0.2-3.19,0.81-4.71,1.42c-1.9,0.75-3.7,1.81-6.25,1.24c1.33-0.79,2.39-1.41,3.45-2.04
			c-0.07-0.17-0.14-0.34-0.22-0.51C556.37,458.07,553.03,458.32,549.68,458.58z M509.89,629.79c-2.68,1.26-4.55,2.95-5.22,5.38
			c-0.83,3.01-1.27,6.14-1.65,9.25c-0.27,2.22,1.16,3.73,2.94,5.44C505.75,642.71,507.36,636.34,509.89,629.79z M613.86,473.61
			c1.27-0.92,2.56-1.82,3.8-2.78c1.7-1.31,3.57-1.66,5.63-1.12c1.6,0.42,3.21,0.83,4.83,1.19c1.05,0.23,2.12,0.37,3.43,0.6
			C625.58,462.38,616.83,466.15,613.86,473.61z M554.58,473.49c0.03-0.23,0.06-0.46,0.09-0.69c-2.43-0.24-4.87-0.73-7.29-0.65
			c-2.2,0.07-4.4,0.71-6.58,1.17c-1.29,0.27-2.58,0.59-3.81,1.04c-1.01,0.37-1.69,1.21-1.32,2.34c0.41,1.29,1.41,0.76,2.28,0.52
			c2.39-0.66,4.75-1.41,7.17-1.95C548.26,474.59,551.43,474.07,554.58,473.49z M603.93,685.12c-0.09-0.15-0.18-0.31-0.27-0.46
			c-1.99,0.91-3.96,1.88-5.97,2.73c-2.13,0.9-4.35,1.59-6.47,2.54c-3.09,1.38-5.53,3.6-7.62,6.25c-2.24,2.84-4.65,10.07-3.16,13.14
			c0.09-0.39,0.16-0.71,0.22-1.02c0.1-0.49,0.2-0.98,0.27-1.47c0.98-6.77,4.39-11.91,10.39-15.21c2.24-1.23,4.72-2.01,7-3.17
			C600.26,687.46,602.07,686.24,603.93,685.12z M458.17,531.3c-2.89,2.73-5.08,6.42-5.88,9.41c-0.54,2-0.18,3.81,1,5.44
			c1.49,2.05,3.58,3.3,6.08,4.47C455.32,543.8,453.51,541.25,458.17,531.3z M431.85,528.86c-1.63-2.57-3.83-4.41-6.69-5.35
			c-7.42-2.42-16.23,2.75-18.66,11.41c3.33-4.36,6.28-8.47,11.42-9.83C423.23,523.67,427.58,526.06,431.85,528.86z M508.55,342.13
			c3.67,2.27,13.1-0.67,15.14-3.6C518.07,337.04,513.58,339.82,508.55,342.13z M379.95,541.21c-0.22,0.06-0.44,0.12-0.66,0.18
			c0.21,2.47,0.59,4.94,0.58,7.41c-0.02,3.73,1.51,6.36,4.73,8.23c1.64,0.95,3.07,2.26,4.59,3.41c0.2-0.17,0.4-0.34,0.59-0.51
			C384.4,554.77,380.54,548.83,379.95,541.21z M653.48,536.43c-0.22,0.02-0.43,0.05-0.65,0.07c-0.78-2.11-1.56-4.22-2.35-6.33
			c-0.17,5.42-0.32,10.83,5.39,13.72c-0.65-4.23-1.29-8.42-1.92-12.61c-0.16,0.01-0.31,0.03-0.47,0.04
			C653.48,533.02,653.48,534.72,653.48,536.43z M614.96,534.15c1.73-0.76,4.26-0.3,4.79-3.02c0.43-2.24-0.91-4.58-3.07-5.65
			C614.9,527.99,612.96,530.44,614.96,534.15z M380.66,557.24c-1.75-2.93-5.13-4.36-7.3-3.35c-3.62,1.69-5.22,4.91-6.22,8.6
			C370.18,557.4,374.65,555.85,380.66,557.24z M553.35,485.38c3.39,1.18,5.49,0.71,7.55-1.65c-1.64-1.92-3.27-3.83-5.07-5.94
			C554.88,480.71,554.11,483.04,553.35,485.38z M627.53,481.96c5.17,1.52,9.44,4.38,13.35,8.17c0.33-0.7,0.59-1.4,0.35-1.8
			c-0.67-1.12-1.37-2.34-2.37-3.12C635.57,482.66,631.94,480.96,627.53,481.96z M670.02,516.13c-0.16,0-0.32,0.01-0.48,0.01
			c0.82,6.71,1.28,13.33-5.02,18.22c4.06-0.18,8.01-4.67,7.34-9.54C671.46,521.89,670.65,519.02,670.02,516.13z M395.44,517.03
			c-5-4.82-2.87-9.61,0.07-14.4C388.2,507.38,388.2,513.51,395.44,517.03z M543.65,482.88c1.77,2.09,4.24,2.95,6.32,1.99
			c2.2-1.02,2.85-3.02,2.98-5.44c-1.48-0.32-2.86-0.62-4.43-0.95C549.79,482.93,548.87,483.66,543.65,482.88z M626.57,485.67
			c0.39,4.84-0.73,5.75-5.27,4.58c1.78,2.84,4.86,3.37,7.19,1.2c1.19-1.11,2.26-2.69,1.57-4.12
			C629.61,486.43,627.78,486.2,626.57,485.67z M497.77,601.64c5.8,1.86,10.65-0.93,10.05-5.76c-0.56,0.96-1.12,1.92-1.68,2.89
			c-0.12-0.07-0.24-0.14-0.36-0.21c-0.03-0.67-0.06-1.34-0.08-1.87C502.98,598.39,500.37,600.02,497.77,601.64z M488.79,543.18
			c-0.99,5.01-4.12,8.52-7.93,11.65c1.27-0.15,2.43-0.62,3.62-0.71c1.77-0.15,2.57-1.17,3.2-2.65
			C488.81,548.82,489.26,546.11,488.79,543.18z M665.57,501.7c-5.32-6.25-8.03-13.21-6.18-21.53
			C656.13,488.99,658.38,496.76,665.57,501.7z M629.47,493.97c0.76,0.04,1.67,0.15,2.57,0.11c1.35-0.06,3.06,0.48,3.79-1.13
			c0.77-1.71-0.51-2.99-1.52-4.18c-0.44-0.51-1.1-0.84-1.46-1.1C631.69,489.83,630.62,491.82,629.47,493.97z M604.16,714.54
			c-3.06-2.86-5.12-5.7-6.2-9.21c-1.04-3.38-1.2-6.82-0.64-10.31C594.62,700.85,595.7,711.01,604.16,714.54z M586.46,367.23
			c0.14-0.14,0.27-0.29,0.41-0.43c-2.03-5.18-4.22-10.22-10.48-11.57c3.12,2.21,5.44,5.02,7.07,8.52
			C584.08,365.09,585.44,366.08,586.46,367.23z M423.85,405.47c1.51-5.21,5.07-8.23,9.27-10.67
			C425.74,395.88,422.15,400.4,423.85,405.47z M480.33,620.24c3.71,2.35,7.19,4.54,10.51,6.65
			C490.05,622.37,486.4,619.91,480.33,620.24z M484.58,404.48c-2.66,4.9-2.13,10.2-2.62,15.95c1.82-2.1,2.41-3.94,2.3-6.14
			c-0.11-2.32,0.03-4.64,0.1-6.97C484.39,406.37,484.51,405.42,484.58,404.48z M590.11,357.97c-0.1,0.11-0.2,0.21-0.31,0.32
			c0.95,2.45,1.75,4.96,2.88,7.32c1.2,2.5,3.3,4.15,5.92,5.34C595.7,366.51,592.9,362.24,590.11,357.97z M697.25,524.51
			c1.52-7.39,0.88-14.58-2.51-21.46C697.06,510.01,697.4,517.2,697.25,524.51z M638.02,617.03c2.13-1.7,2.6-6.12,0.9-8.56
			C635.86,612.29,635.67,614.14,638.02,617.03z M660,502.88c-1.16-2.22-2.66-4.35-3.41-6.72c-0.77-2.4-0.8-5.02-1.18-7.69
			C652.95,494.27,655.74,501.03,660,502.88z M624.05,611.92c0.46-4.5-0.18-5.91-3.91-8.92
			C620.03,606.44,620.95,608.59,624.05,611.92z M535.47,569.23c-1.09,0.45-1.79,1.02-1.66,2.35c0.3,3.11,0.52,6.23,0.79,9.45
			C535.96,577.79,536.33,572.83,535.47,569.23z M461.01,607.8c5.28,6.89,5.02,9.05,4.82,16.98
			C468.64,619.16,466.37,611.16,461.01,607.8z M470.1,612.66c1.54,2.61,2.2,5.37,1.99,8.35c-0.11,1.58-0.28,3.18-0.15,4.74
			c0.15,1.68,0.62,3.33,0.95,5c0.27-3.81,0.29-7.52,0.26-11.23C473.14,616.83,472.15,614.52,470.1,612.66z M661.82,476.04
			c-0.33,6.08-2.23,12.35,2.06,17.91C661.8,488.14,661.78,482.09,661.82,476.04z M484.01,629.77c0.2-0.1,0.41-0.2,0.61-0.29
			c-1.29-1.75,0.01-2.96,0.92-4.45c-1.87-0.73-3.58-1.39-5.29-2.06c-0.15,0.18-0.3,0.36-0.45,0.54
			C481.2,625.6,482.6,627.68,484.01,629.77z M547.46,699.83c-0.98-3.62-1.91-7.05-2.95-10.88
			C543.1,693.3,544.21,697.17,547.46,699.83z M475.85,588.98c1.14-3.21,1.06-6.45,0.59-9.76c-0.9,0.22-1.67,0.41-2.2,0.54
			C474.79,582.94,475.31,585.92,475.85,588.98z M586.73,705.39c2.06-2.86,4.12-5.72,6.51-9.03
			C586.46,700.35,587.4,700.31,586.73,705.39z M502.72,623.3c2.13-5.21,2.66-10.37-0.58-15.4
			C504.13,612.97,503.53,618.13,502.72,623.3z M605.85,549.15c4.06,2.29,6.23,5.87,8.06,10.23
			C613.51,553.91,609.84,549.3,605.85,549.15z M701.88,482.64c4.55-1.3,5.51-2.48,5.69-6.81
			C705.78,477.97,703.81,480.33,701.88,482.64z M485.59,532.17c-1.4-0.21-2.17-0.32-2.42-0.35c-1.58,2.71-2.97,5.08-4.35,7.46
			c0.05,0.03,0.09,0.05,0.14,0.08C481.02,537.11,483.08,534.88,485.59,532.17z M594.19,359.62c1.34,3.11,2.41,6.38,4.98,8.78
			C597.98,365.2,596.83,361.98,594.19,359.62z M478.09,370.98c3.06-1.68,5.78-3.17,8.5-4.67
			C483.29,366.77,479.71,366.74,478.09,370.98z M492.32,581.41c1.37-4.21-0.06-7.42-1.81-10.58
			C491.08,574.16,491.65,577.48,492.32,581.41z M637.65,368c1.63,3.74,3.16,7.24,4.71,10.79C642.48,374.88,641.04,371.55,637.65,368
			z M659.73,360.24c4.04,2.85,6.24,2.96,7.9,0.78C665.18,360.77,662.51,360.51,659.73,360.24z M503.72,483.78
			c-2.32,0.19-5.6,3.9-5.92,6.01c1.34-1.26,2.8-2.61,4.23-4C502.54,485.3,502.96,484.69,503.72,483.78z M508.4,622.47
			c1.26-2.5,0.39-6.94-1.61-8.82C507.28,616.33,507.88,619.62,508.4,622.47z M527.93,655.37c0.49,2.19,1.01,4.56,1.51,6.8
			C531.04,659.08,530.65,657.4,527.93,655.37z M571.67,349.12c-0.01,0.2-0.02,0.4-0.03,0.6c2.18,0.12,4.36,0.24,6.54,0.37
			C576.12,348.28,573.96,347.96,571.67,349.12z M633.42,723.61c-2.32,1-4.64,2.01-6.97,3.01
			C629.22,726.59,631.78,726.12,633.42,723.61z M542.22,455.38c2.34,0,4.69,0,7.03,0C546.9,454.3,544.55,453.8,542.22,455.38z
			 M516.96,677.19c2.91-1.66,3.94-3.88,4.59-6.85C519.95,672.72,518.6,674.73,516.96,677.19z"/>
		<path d="M681.1,533.94c3.03,4.08,4.93,8.61,5.07,13.74c0.13,4.53-2.56,8.73-6.71,10.21c3.15-3.33,4.72-7.09,4.35-11.41
			c-0.25-2.87-0.96-5.7-1.55-8.53C681.98,536.6,681.49,535.28,681.1,533.94z"/>
		<path d="M672.8,322.89c2.86,2.34,5.44,4.36,7.92,6.5c2.31,2,3.5,4.56,3.18,7.77c-0.16-0.36-0.36-0.71-0.49-1.09
			c-0.84-2.53-2.31-4.56-4.54-6.08C676.33,328.25,674.39,325.96,672.8,322.89z"/>
		<path d="M682.04,354.68c-3.27,4.11-6.06,9-12.29,9.2C673.85,360.81,677.95,357.74,682.04,354.68z"/>
		<path d="M604.1,601.66c1.07,0.89,2.14,1.78,3.38,2.81c-2.87,0.02-4.4-2.11-6.57-3.38c-0.16,0.49-0.32,0.95-0.66,1.97
			c-0.31-2.29-0.53-4.01-0.78-5.86c1.27,1.18,2.39,2.22,3.51,3.27C603.36,600.86,603.73,601.26,604.1,601.66z"/>
		<path d="M623.69,430.28c-3.66,0.57-7.33,1.06-10.97,1.72c-7.55,1.37-14.55-0.37-21.17-3.85c-5.35-2.82-10.85-5.5-15.76-9
			c-4.4-3.13-9.01-5.17-14.21-6.18c-1.29-0.25-2.55-0.67-3.75-1.44c3.94,0.56,7.98,0.79,11.8,1.79c2.82,0.74,5.5,2.27,8.01,3.83
			c6.14,3.82,12.27,7.62,18.95,10.45c3.58,1.52,7.25,2.37,11.12,2.38c5.3,0.01,10.6,0,15.9,0
			C623.65,430.09,623.67,430.18,623.69,430.28z"/>
		<path d="M618.76,414.49c-5.6,2.33-11.23,3.02-17,0.98c-6.24-2.21-16.71-7.56-20.83-11.06c0.73,0.26,1.49,0.48,2.2,0.78
			c5.93,2.56,11.87,5.11,17.79,7.71c4.38,1.92,8.92,2.43,13.63,1.88C615.95,414.62,617.36,414.58,618.76,414.49z"/>
		<path d="M614.55,441.8c-7.78,5-15.93,5.53-24.69,1.89c0.28-0.89,0.54-1.71,0.89-2.82C598.64,443.83,606.54,444.13,614.55,441.8z"
			/>
		<path d="M545.38,433.44c4.97-0.9,9.53,0.04,13.8,2.58c3.7,2.2,7.48,4.27,11.2,6.43c0.82,0.48,1.57,1.1,2.28,1.75
			C563.16,441.58,555.23,435.14,545.38,433.44z"/>
		<path d="M623.23,642.81c0.01-2.58-0.3-4.78-2.53-6.28c-0.38-0.25-0.14-1.41-0.2-2.43C623.93,636.8,624.77,639.56,623.23,642.81z"
			/>
		<path d="M437.67,439.86c0.26-7.02,5.75-14,12.35-15.82c2.88-0.79,5.82-1.33,8.72-2.05c6.64-1.66,12.43-4.64,16.39-10.52
			c-0.93,3.49-3.1,6.21-6.12,7.88c-3.67,2.04-7.65,3.52-11.53,5.18c-3.2,1.37-6.57,2.4-9.64,4
			C443.19,430.94,439.46,434.4,437.67,439.86z"/>
		<path d="M596.52,655.66c1.92,2.12,3.85,4.23,6.14,6.75c-1.12-3.3-2.09-6.18-3.06-9.06c6.87,5.6,9.06,17.04,0.42,23.08
			c1.3-3.49,2.52-7.08,1.1-10.67c-1.35-3.4-3.2-6.6-4.83-9.89C596.36,655.8,596.44,655.73,596.52,655.66z"/>
		<path d="M532.22,621.71c-2.64,5.18-7.34,8.11-11.76,11.34c-0.17-0.19-0.34-0.38-0.52-0.58
			C524.04,628.88,528.13,625.3,532.22,621.71z"/>
		<path d="M450.75,473.51c3.5,5.58,7.66,10.09,13.95,12.77C458.5,486.78,452.04,480.77,450.75,473.51z"/>
	</g>
</g>
</svg>
