<?xml version="1.0" encoding="utf-8"?>
<!-- Generator: Adobe Illustrator 27.2.0, SVG Export Plug-In . SVG Version: 6.00 Build 0)  -->
<svg version="1.1" id="Layer_1" xmlns="http://www.w3.org/2000/svg" xmlns:xlink="http://www.w3.org/1999/xlink" x="0px" y="0px"
	 viewBox="0 0 1080 1080" style="enable-background:new 0 0 1080 1080;" xml:space="preserve">
<g>
	<g>
		<path d="M432.96,568.59c-2.74-0.59-5.41-0.55-7.35-1.72c-3.55-2.15-7.38-3.58-11.03-5.43c-5.29-2.67-7.64-8.39-6.28-14.19
			c0.53-2.23,0.81-4.25-0.28-6.48c-0.65-1.33-0.62-3.09-0.57-4.64c0.05-1.47-0.33-2.64-1.4-3.56c-1.45-1.25-2.88-2.52-4.45-3.61
			c-3.23-2.24-6.34-4.57-8.77-7.73c-0.47-0.61-1.24-1.12-1.97-1.39c-10.42-3.73-15.16-11.69-16.33-22.15
			c-1.11-9.95,2.14-18.17,10.24-24.33c2.04-1.55,3.94-3.3,6.08-5.1c-0.84-1.23-1.59-2.31-2.32-3.39c-1.92-2.82-4.11-5.49-5.71-8.48
			c-4.9-9.13-2.52-20.24,5.84-26.37c3.31-2.43,7.17-4.18,10.94-5.89c1.93-0.88,2.82-1.87,2.98-4.01c0.27-3.56,0.74-7.12,1.41-10.63
			c1.34-7,5.14-12.33,11.3-16c1.91-1.14,3.7-2.54,5.37-4.02c0.67-0.59,1.18-1.66,1.26-2.56c0.37-4.49,2.62-7.81,6.13-10.41
			c3.33-2.47,7.16-3.85,11.09-5c1.68-0.49,3.36-0.97,5.04-1.43c3.66-0.99,6.96-2.67,10-4.95c14.56-10.94,30.01-20.34,46.61-27.91
			c7.01-3.2,14.21-5.18,21.84-5.65c9.39-0.58,18.8-0.98,28.19-1.49c6.85-0.37,13.38,1.42,19.93,2.96
			c10.29,2.42,20.42,5.38,30.2,9.44c6.2,2.57,11.89,5.96,17.04,10.27c0.72,0.6,1.7,1.02,2.62,1.24c5.37,1.3,9.59,4.11,12.32,9
			c2.35,4.21,4.68,8.44,7.03,12.66c1.3,2.33,2.68,4.61,3.92,6.96c1.31,2.5,3.23,3.68,6.04,4.51c15.24,4.53,24.75,14.68,27.51,30.41
			c1.19,6.78,4.66,11.79,9.37,16.3c0.63,0.61,1.53,1.01,2.37,1.33c8.77,3.34,12.92,12.22,12.55,20.53
			c-0.24,5.54-2.26,10.42-5.84,14.55c-3.05,3.51-4.66,7.64-5.91,11.97c-0.31,1.08-0.23,2.52,0.23,3.55
			c1.59,3.52,1.88,7.01,0.71,10.69c-0.24,0.75-0.33,1.68-0.13,2.43c1.45,5.49-0.87,9.55-4.77,13.05c-3.91,3.51-8.59,5.3-13.72,6.06
			c-0.66,0.1-1.31,0.22-1.96,0.37c-0.13,0.03-0.23,0.22-0.4,0.4c1.66,2.97,4.86,3.46,7.7,4.6c-3.56,2.31-7.81,1.52-12.4-2.22
			c-0.5,4.77,3.96,8.04,12.45,8.99c-1.15,4.5-4.24,6.92-8.49,8.29c-0.02,0.46-0.09,0.87-0.05,1.25c0.74,6.72-5.56,11.42-10.47,11.83
			c-0.58,0.05-1.17,0.06-1.75,0.07c-4.23,0.04-7.34,2.3-8.62,6.39c-1.25,4.01-4.3,5.74-8.08,6.54c-1.53,0.32-3.1,0.44-4.64,0.65
			c-0.12,1.73-0.09,3.4-0.39,5c-0.73,3.83-3.1,6.73-6.22,8.73c-3.15,2.02-4.3,4.15-3.62,8.03c0.89,5.09-0.76,10.04-2.86,14.88
			c0.6,0.38,1.13,0.76,1.69,1.07c5.91,3.24,11.84,6.44,17.72,9.74c1.25,0.7,2.4,0.87,3.79,0.66c6.47-0.99,12.21,0.19,17.36,4.77
			c9.02,8.03,18.41,15.64,27.59,23.5c1.4,1.2,2.75,1.76,4.54,1.15c0.78-0.27,1.61-0.42,2.43-0.56c3.58-0.63,6.82-0.16,9.18,2.98
			c0.3,0.4,0.69,0.72,1.01,1.11c9.83,12.27,22.14,21.83,34.38,31.47c1.3,1.02,2.55,2.11,3.97,3.28c-0.45,0.5-0.79,0.95-1.19,1.33
			c-9.69,9.03-19.27,18.19-29.16,26.99c-3.95,3.51-8.6,6.24-12.96,9.29c-0.72,0.5-1.57,0.81-2.65,1.36
			c0.87-17.12,1.72-33.9,2.57-50.67c-0.14-0.05-0.28-0.09-0.42-0.14c-0.28,0.69-0.56,1.37-0.83,2.06
			c-6.99,17.71-14.01,35.41-20.93,53.15c-0.77,1.97-1.92,3.04-3.88,3.76c-13.03,4.79-25.95,9.89-39.05,14.46
			c-8.56,2.99-17.45,4.88-26.43,6.24c-0.55,0.08-1.11,0.08-1.81-0.24c0.82-0.51,1.63-1.05,2.48-1.52
			c9.33-5.21,18.11-11.22,26.39-17.98c3.26-2.66,5.42-6.08,7.41-9.63c6.77-12.07,11-25.1,14.29-38.47
			c2.51-10.21,3.99-20.58,4.88-31.04c0.03-0.33,0-0.66,0-1.1c-0.29,0.19-0.59,0.27-0.65,0.45c-4.71,12.71-12.06,23.87-20.17,34.59
			c-5.77,7.64-11.49,15.32-17.23,22.98c-0.32,0.43-0.59,0.9-0.69,1.51c8.04-7.05,15.47-14.68,22.72-22.68
			c-0.43,1.18-0.85,2.35-1.28,3.53c-5.6,15.33-14.88,28.18-26.52,39.44c-0.95,0.92-2.04,1.72-3.18,2.39
			c-10.14,5.92-21.02,9.92-32.42,12.61c-6.03,1.42-11.19-0.1-15.66-4.25c-1.63-1.52-3.23-3.07-4.99-4.75
			c-2.49,7.73-4.57,15.53-12.84,19.13c1.98-3.46,3.27-7.02,2.6-10.92c-4.75,0.24-9.31,0.53-13.86,0.7
			c-5.49,0.21-10.27-1.51-14.38-5.24c-9.19-8.34-18.45-16.61-27.71-24.88c-0.81-0.73-1.28-1.48-1.13-2.59
			c0.07-0.58-0.06-1.19,0.08-1.74c1.03-4.35-1.36-7.15-4.44-9.5c-1.64-1.25-3.5-2.25-5.38-3.11c-5.93-2.74-10.69-6.67-13.74-12.56
			c-0.41-0.79-1.31-1.52-2.16-1.87c-6.53-2.72-9.79-7.74-10.38-14.62c-0.25-2.98-0.34-5.98-0.5-9.04c-0.05-0.06-0.12-0.26-0.25-0.29
			c-5.55-1.61-8.85-5.62-10.6-10.78c-1.46-4.3-2.22-8.85-3.28-13.29c-0.26-1.08-0.2-2.53-2.35-1.69c0.25,4.37,0.42,8.85,0.79,13.31
			c0.87,10.62,1.98,21.23,2.74,31.86c1.22,17.28,4.99,33.87,12.72,49.47c1.33,2.68,2.5,5.44,3.71,8.18
			c0.36,0.81,0.62,1.65,0.96,2.58c-1.76,0.36-2.98-0.07-3.9-1.38c-5.89-8.47-12.15-16.69-16.77-25.98
			c-4.03-8.1-6.38-16.7-6.62-25.68c-0.29-10.98-0.07-21.99,0.25-32.97c0.2-6.73,1.01-13.45,1.54-20.17
			c0.02-0.23-0.08-0.47-0.17-1.01c-6.11,0.01-12.29-0.8-18.28,1.13c-4.87,1.57-7.93,5.05-9.33,9.95c-0.46,1.6-0.91,3.24-0.99,4.89
			c-0.25,5.18-2.38,9.64-4.99,13.95c-2.42,4-4.67,8.12-5.39,12.8c-0.53,3.44-0.68,6.94-1.04,10.89c-0.53-1.45-1.03-2.57-1.36-3.74
			c-0.54-1.92-0.98-3.86-1.47-5.79c-0.86-3.45-0.12-6.61,1.8-9.52c2.15-3.27,4.39-6.48,6.55-9.74c0.88-1.34,1.63-2.75-0.03-4.58
			c-3.58,1.89-7.21,3.81-10.84,5.72c-0.07-0.06-0.13-0.12-0.2-0.17c2.19-2.61,4.37-5.22,6.61-7.88c-3.74-1.86-6.85-1.52-9.61,1.33
			c-3.48,3.58-6.74,7.38-10.06,11.12c-3.48,3.93-6.9,7.91-10.36,11.85c-0.38,0.43-0.83,0.79-1.32,1.25
			c-0.82-0.52-1.58-1.01-2.35-1.47c-5.26-3.05-11.61-1.21-14.08,4.36c-1.06,2.39-1.42,5.09-1.98,7.67
			c-0.29,1.36-0.33,2.78-0.52,4.47c-1.2-0.94-2.19-1.69-3.14-2.47c-2.18-1.79-4.33-3.59-6.73-5.58
			c6.78-9.32,14.18-17.32,26.46-18.27c1.65-0.13,2.74-0.77,3.86-1.88c3.97-3.92,7.93-7.86,12.07-11.59
			c6.62-5.95,14.12-9.72,23.48-8.28c0.21-0.55,0.41-0.99,0.56-1.44c2.79-8.9,9.3-13,18.16-14c5.05-0.57,10.1-1.03,15.15-1.61
			c0.66-0.08,1.6-0.42,1.85-0.92c1.65-3.39,4.31-5.88,7.29-8.39c-10.06-2.88-16.48-8.79-17.43-19.53
			c2.66,5.85,7.53,8.75,13.75,10.57c-1.08-1.81-2-3.25-2.82-4.75c-3.1-5.65-3.88-11.67-2.32-17.89c0.5-2.02,0.09-3.1-1.55-4.34
			C435.74,576.12,433.95,572.44,432.96,568.59z M516.04,456.7c0.1-0.13,0.19-0.27,0.29-0.4c-0.36-2.89-0.72-5.78-1.16-9.29
			c0.9,0.78,1.32,1.12,1.73,1.49c4.23,3.82,8.7,4.62,13.94,1.79c6.66-3.6,13.51-6.84,20.33-10.13c1.3-0.63,2.83-0.88,4.28-1.04
			c2.12-0.24,4.26-0.25,6.39-0.36c0.02-0.15,0.03-0.31,0.05-0.46c-0.79-0.62-1.58-1.23-2.73-2.13c1.86,0.15,3.18,0.25,4.5,0.36
			c1.72,0.15,3.43,0,4.64-1.31c1.87-2.03,3.82-1.59,5.79-0.41c1.28,0.76,2.66,1.54,3.59,2.65c2.5,2.99,4.8,6.14,7.15,9.26
			c0.5,0.67,0.89,1.43,1.33,2.14c0.3-0.59,0.27-1,0.15-1.38c-1.9-6.2-3.83-12.39-5.71-18.59c-1.33-4.39-4.58-6.34-8.82-6.93
			c-6.49-0.9-12.85-0.1-18.88,2.32c-9.03,3.61-17.92,7.55-26.87,11.36c-1.27,0.54-2.53,1.1-3.8,1.65
			c7.13-5.05,14.72-9.17,22.59-12.77c3.92-1.79,7.95-3.5,12.09-4.63c7.45-2.03,15.01-3.37,22.11,1.47c0.19-4.54-1.5-7.41-5.36-8.21
			c-6.35-1.31-12.74-2.59-19.3-1.68c-2.64,0.37-5.28,0.7-7.92,1.06c-8.08,1.09-16.16,2.17-24.23,3.3
			c-6.67,0.94-13.31,2.12-20.01,2.87c-6.11,0.68-11.24-2.03-16.04-5.48c1.01,0.02,1.92,0.31,2.83,0.63c6,2.1,12.13,2.86,18.43,1.81
			c15.59-2.61,31.21-4.99,46.72-8c5.97-1.16,11.51-0.92,17.12,1.01c0.92,0.32,1.86,0.57,3.15,0.96c1.55-5.81,3.17-11.39,4.5-17.03
			c1.41-5.96,0.21-11.4-3.96-16.05c-0.17-0.2-0.28-0.45-0.69-1.15c8.3,4.7,13.23,10.78,12.85,20.29c-0.16,3.9,0.14,7.83,0.38,11.73
			c0.15,2.34,0.59,4.67,0.9,7c0.19,0,0.38,0,0.57,0.01c4.28-8.33,7.68-16.93,7.73-26.62c-2.04,2.89-4.09,5.78-6.13,8.67
			c1.28-6.13,2.95-12.03,4.7-17.91c0.4-1.36,0.4-2.55-0.36-3.8c-4.55-7.46-9.06-14.94-13.57-22.42c-1.42-2.36-3.46-3.96-5.9-5.2
			c-8.4-4.27-17.2-7.52-26.1-10.53c-1.94-0.66-4.07-1.05-6.12-1.05c-4.99,0-10,0.06-14.96,0.53c-8.39,0.79-16.6,2.42-24.31,6.1
			c-14.31,6.83-27.7,15.22-40.78,24.12c-1.42,0.97-2.73,2.25-3.74,3.64c-5.1,7.09-10.17,14.21-15.08,21.43
			c-4.37,6.42-4.53,13.85-4,21.16c0.39,5.36,1.76,10.66,2.76,15.97c0.63,3.29,1.39,6.56,2.18,10.2c2.31-2.04,4.29-3.8,6.28-5.54
			c5.69-4.98,12.05-6.37,19.25-3.76c2.89,1.05,5.9,1.74,8.79,2.79c6.5,2.36,13.13,1.6,19.77,1.09c0.66-0.05,1.32-0.15,1.99-0.19
			c0.67-0.03,1.33-0.01,2-0.01c-5.32,2.59-10.89,3.61-16.55,2.65c-5.05-0.86-10.02-2.3-14.96-3.7c-7.36-2.09-14.14-1.75-19.93,3.96
			c-1.42,1.4-3.02,2.62-4.5,3.96c-0.42,0.38-0.93,0.83-1.07,1.33c-0.82,3.04-1.65,6.08-2.26,9.16c-0.45,2.31,0.24,4.39,2.08,6.02
			c3.67-5.01,3.67-5.01,8.82-6.12c-0.46-1.05-0.91-2.08-1.45-3.33c3.06,0.7,5.92,1.35,8.9,2.03c-0.19-1.07-0.33-1.85-0.53-2.96
			c1.1,0.44,2.03,0.61,2.7,1.13c2.71,2.1,5.71,3.08,9.12,3.8c6.89,1.47,13.61,3.77,20.4,5.71c0.76,0.22,1.55,0.34,2.38,0.53
			c0.97-3.91,3.18-6.6,6.57-8.94c0.15,2.67,0.28,4.88,0.4,7.11C507.87,455.1,512.2,452.77,516.04,456.7z M480.52,464.76
			c-0.02-0.17-0.04-0.34-0.06-0.51c-0.28-0.12-0.55-0.29-0.85-0.37c-6-1.69-12-3.36-18-5.03c-0.39-0.11-0.92-0.31-1.19-0.15
			c-2.27,1.35-4.62,2.62-6.7,4.23c-1.58,1.23-0.91,3.23-0.85,4.95c0.03,0.75,0.08,1.5,0.03,2.25c-0.23,3.14-1.49,5.82-3.75,8.57
			c0.46-4.67,1.59-8.93-1.33-12.85c-0.82,1.13-1.53,2.27-1.76,3.5c-0.43,2.28-0.65,4.62-0.81,6.94c-0.65,9.4-1.08,18.78,1.24,28.08
			c2.21,8.84,4.59,17.63,10.19,25.01c2.89,3.8,4.01,7.95,4.28,12.52c0.06,1.08,0.03,2.17,0.17,3.24c0.34,2.59,0.77,5.17,1.16,7.75
			c0.21,0.03,0.42,0.05,0.62,0.08c0.61-3.91,2.9-6.04,6.62-6.97c2.57-0.64,4.12-2.5,5.27-4.92c3.97-8.34,8.01-16.64,12.2-24.87
			c1.43-2.8,3.29-5.4,5.15-7.94c0.75-1.02,1.95-1.82,3.1-2.39c1.49-0.74,2.77,0.09,3.71,1.24c0.77,0.94,1.64,2,0.35,3.23
			c-2.5-1.55-2.86-1.62-4.33-0.87c-3.27,1.67-5.24,6.63-4.17,9.98c4.01,0,7.93,0,11.96,0c-0.63-2.19-1.68-4.4-1.79-6.64
			c-0.11-2.15,0.77-4.34,1.21-6.52c0.3,0.03,0.59,0.07,0.89,0.1c0,1.46,0.14,2.95-0.03,4.39c-0.46,3.96,1.7,5.88,5.33,6.53
			c8.58,1.53,15.84-3.62,17.77-10c0.53-1.75,1.03-3.51,1.64-5.23c1.46-4.07,4.66-5.07,7.98-2.35c1.99,1.63,3.86,3.46,5.51,5.42
			c6.7,7.97,13.37,15.97,19.9,24.08c2.96,3.67,6,7.02,10.57,8.79c2.65,1.03,5.09,2.63,7.79,4.06c0.14-0.61,0.28-1,0.31-1.39
			c0.5-6.56,1.09-13.12,1.44-19.68c0.39-7.19-2.13-13.21-7.73-17.86c-1.41-1.17-2.79-2.37-4.19-3.56c-0.99-0.83-1.98-1.66-2.97-2.49
			c7.62,1.7,13.8,6.04,20.12,9.98c0.27-0.25,0.43-0.34,0.5-0.47c3.87-7.55,7.72-15.12,11.59-22.67c0.78-1.52,0.46-2.89-0.38-4.24
			c-1.54-2.47-3.08-4.95-4.61-7.43c-1.1-1.79-2.19-3.58-3.29-5.38c-0.15,0.07-0.3,0.14-0.45,0.2c1,3.38,2.01,6.76,3.14,10.59
			c-2.1-1.49-3.81-2.71-5.69-4.04c-0.8,1.36-1.44,2.51-2.14,3.62c-2.1,3.3-4.1,6.67-6.38,9.84c-2.28,3.17-5.45,4.95-9.41,5.51
			c-6.22,0.88-11.73-0.83-16.71-4.35c-3.33-2.35-6.35-5.12-9.6-7.59c-1.17-0.89-2.51-1.92-3.88-2.1c-3.67-0.48-7.39-0.53-11.74-0.78
			c2.15,10.22-2.93,16.62-10.24,22.17c0.86-4.7,1.76-9.17,2.47-13.67c1-6.34,1.73-12.71,0.88-19.15c-0.13-0.96-0.23-1.76-1.31-2.16
			c-4.78-1.78-9.5-3.07-14.35-0.08c-1.23,0.76-1.75,1.47-1.72,2.92c0.09,4.83,0.04,9.67,0.05,14.5c0,0.86,0,1.71,0,2.57
			c-0.19,0.04-0.38,0.08-0.57,0.12c-1.22-1.34-2.43-2.69-3.8-4.2c-2.12,2.79-4.04,5.28-5.92,7.8c-5.75,7.67-11.56,15.33-18.99,21.48
			c-3.24,2.68-6.97,4.78-10.52,7.08c-0.64,0.42-1.46,0.57-2.2,0.85c-0.09-0.15-0.18-0.3-0.26-0.45c5.46-4.92,11.5-9.22,16.67-15.09
			c-8.4,0.24-15.08-2.15-18.97-9.67c1.43,0.96,2.72,2.16,4.12,3.19c4.66,3.42,9.73,4.34,15.03,1.8c5.01-2.39,8.07-6.93,11.55-11.12
			c-5.9,3.64-12.03,4.97-18.73,2.71c2.97-1,5.82-1.95,8.67-2.91c-9.54-0.25-9.75,0.05-18.59-4.44c0.35,2.44,0.66,4.59,0.97,6.71
			c-5.55-4.1-5.58-15.54,3.21-17.98c0.88-0.24,1.73-0.63,2.63-0.76c3.34-0.5,6.68-0.93,10.03-1.39c-3.23,0.03-6.48,0.08-9.66,0.59
			c-4.78,0.77-8.87,2.78-11.17,7.44c-0.43,0.87-1.14,1.65-1.85,2.34c-1.16,1.11-2.55,1.68-4.5,1.39c1.83-2.29,3.54-4.32,5.11-6.45
			c2.02-2.74,4.69-4.49,7.91-5.35c2.97-0.79,5.99-1.37,8.99-2.03C475.1,465.92,477.81,465.34,480.52,464.76z M534.73,591.09
			c-1.18,3.18-2.25,6.07-3.33,8.96c-0.18-0.04-0.35-0.07-0.53-0.11c1.47-5.43,2-10.92,1.22-16.5c0.16-0.08,0.33-0.16,0.49-0.24
			c1.25,1.9,2.51,3.81,3.76,5.71c0.08-0.03,0.17-0.06,0.25-0.09c-0.24-1.42-0.48-2.84-0.8-4.73c2.33,2.69,3.45,5.38,3.73,8.43
			c0.48,5.34-1.26,9.96-4.48,14.16c-1.52,1.97-2.84,4.09-4.19,6.19c-1.37,2.12-0.8,4.19,0.21,6.42c3.05-4.83,6.04-9.43,8.88-14.12
			c1.75-2.89,2.59-6.1,2.7-9.5c0.28-8.87-2.65-16.65-7.99-23.6c-0.48-0.63-1.09-1.16-1.64-1.74c-0.1,0.06-0.2,0.13-0.31,0.19
			c0.27,1.08,0.55,2.15,0.93,3.66c-1.57-1.75-2.67-3.33-4.11-4.5c-1.72-1.39-3.6-0.41-5.32,0.14c-0.25,1.95-0.47,3.75-0.7,5.54
			c-0.18,0-0.35,0-0.53,0c-0.82-1.78-1.64-3.56-2.5-5.44c-1.37,0.47-2.49,0.85-3.81,1.3c-0.24-0.16-0.76-0.49-1.44-0.94
			c-2.41,7.26-2.34,14.36-0.81,21.55c-3.99-5.02-3.54-10.92-3.25-16.79c-0.18-0.06-0.35-0.12-0.53-0.18
			c-1.08,1.31-2.17,2.63-3.25,3.94c-0.14-0.07-0.29-0.15-0.43-0.22c0.89-2.46,1.79-4.93,2.73-7.51c-3.54-0.28-4.3,2.93-6.32,5.49
			c0.27-2.15,0.47-3.73,0.71-5.64c-6.35,3.08-9.82,7.76-10.59,14.44c-0.25,2.15-0.65,4.27-0.93,6.42c-0.21,1.59-0.96,2.73-2.34,3.6
			c-2.31,1.45-4.03,3.5-5.14,5.98c-0.75,1.69-1.32,3.49-0.62,5.74c4.31-4.71,8.38-9.16,12.4-13.56c-0.19,0.51-0.42,1.19-0.71,1.84
			c-1.71,3.87-4.45,6.99-7.26,10.09c-2.4,2.65-4.96,5.22-6.95,8.16c-3.79,5.59-3.46,10.12,1.69,16.32c1.63-0.66,3.29-1.34,4.95-2.01
			c-3.57,3.94-5.72,8.27-5.44,13.58c0.3,5.74,2.92,11,6.38,12.73c-0.15-0.4-0.25-0.7-0.37-0.99c-0.16-0.39-0.35-0.76-0.48-1.15
			c-2.08-6.29-1.53-12.22,3.62-16.72c3.99-3.49,8.6-6.28,12.94-9.38c0.12,0.13,0.25,0.26,0.37,0.39c-0.86,1.07-1.67,2.19-2.59,3.21
			c-1.16,1.3-2.41,2.54-3.62,3.8c-3.15,3.25-4.38,7.13-4.06,11.63c0.25,3.47,1.32,6.67,2.74,9.79c2.47,5.44,6.27,10.38,6.04,17.22
			c3.63-4.23,6.15-8.26,5.98-13.58c-0.05-1.58,0.42-3.41,1.26-4.74c1.83-2.91,4.05-5.58,6.11-8.34c0.16,0.1,0.31,0.21,0.47,0.31
			c-0.98,2.25-2.15,4.44-2.9,6.76c-0.74,2.3-1.05,4.73-1.55,7.1c0.17,0.05,0.34,0.1,0.5,0.15c2.27-2.74,4.69-5.37,6.76-8.25
			c2.17-3.02,4.33-6.13,5.9-9.48c1.8-3.82,1.71-8,0.7-12.69c-1.26,3.64-2.39,6.73-4.97,9.74c2.53-15.49,2.39-30.26-2.61-44.86
			c4.31,4.33,5.9,9.84,7.43,15.4C533.71,605.37,536.44,598.81,534.73,591.09z M405.42,459.64c2.35-1.34,4.27-2.29,6.04-3.47
			c3.82-2.54,6.12-6.29,7.83-10.43c2-4.85,4.97-8.82,9.74-11.26c0.27-0.14,0.47-0.43,0.94-0.86c-4.24,0.42-8.01,1.24-11.65,4.04
			c1.76-5.99,5.92-8.72,10.85-10.67c-8.33-0.27-13.84,3.82-16.6,12.07c-0.38,1.14-0.74,2.29-1.11,3.43
			c-0.76-6.08,0.16-11.67,4.18-16.41c1.08-1.27,2.23-2.48,3.32-3.73c2.51-2.89,5.07-5.75,7.49-8.71c0.76-0.94,1.73-1.97,1.26-3.89
			c-2.71,1.99-5.18,3.8-7.68,5.63c1.54-3.65,4.14-6.51,7.06-9.13c1.48-1.34,3.04-2.61,4.41-4.05c0.92-0.96,1.96-1.97,1.94-3.64
			c-0.64,0-1.14-0.02-1.63,0.01c-0.41,0.02-0.83,0.07-1.24,0.14c-5.35,0.91-9.42,3.8-12.02,8.47c-1.61,2.88-2.88,5.99-3.95,9.13
			c-2.95,8.66-7.51,16.09-15.23,21.33c-1.58,1.07-3.03,2.35-4.4,3.69c-3.69,3.6-5.69,7.97-5.39,13.2c0.11,1.89,0.25,3.87,1.75,5.6
			c0.77-9.87,7.86-18.01,15.02-17.3c-4.2,3.26-6.24,7.55-6.53,12.73c-0.1,1.74-0.2,3.49-0.36,5.23
			c-0.65,7.05-3.29,12.96-10.06,16.08c-5.1,2.35-7.76,6.36-8.77,11.64c-1.58,8.28,5.46,16.28,13.82,15.84
			c-4.03-4.03-5.95-6.75-6.16-8.76c7.25,6.16,12.64,7.93,17.39,5.82c-2.41-1.21-5.04-2.28-7.41-3.76
			c-6.15-3.83-10.25-11.16-4.41-19.68c3.8-5.55,7.41-11.24,11.11-16.86c0.06-0.09,0.24-0.1,0.54-0.22
			c-0.95,3.71-1.87,7.32-2.79,10.93c-1.18,4.67-1.61,9.34-0.22,14.05c1.66,5.62,7.57,12.14,12.39,13.63
			c-1.18-2.54-2.59-5.01-3.52-7.65c-3.3-9.36-2.88-18.3,3.41-26.46c0.71-0.92,1.38-1.88,1.98-2.88c2.07-3.45,3.06-8.51,2.25-11.71
			C415.9,455.67,411.9,459.06,405.42,459.64z M612.6,381.9c1.38,2.03,2.76,4.06,4.46,6.58c0.8-6.16,0.37-11.57-2.15-16.76
			c0.24-0.08,0.47-0.16,0.71-0.24c1.42,2.88,2.84,5.76,4.26,8.63c1.59-6.19,0.91-11.41-2.61-16.69c-1.97-2.96-4.28-5.73-6.63-8.42
			c-3.32-3.79-7.51-6.3-12.4-7.53c-9.34-2.36-18.69-4.67-28.04-6.97c-2.29-0.56-4.59-1.05-6.89-1.58c1.04,1.01,2.23,1.55,3.41,2.11
			c4.96,2.35,9.9,4.71,14.87,7.04c2.33,1.09,4.15,2.65,5.46,4.92c1.11,1.94,2.43,3.79,3.79,5.57c4.2,5.49,8.35,11.01,12.74,16.35
			c3.34,4.07,5.01,8.55,4.75,13.8c-0.07,1.33,0.05,2.66,0.08,4c0.06,2.24,0.83,4.23,2.18,6c3.29,4.32,7.42,7.28,12.87,8.38
			c2.58,0.52,5.16,1.39,7.52,2.54c4.06,1.99,6.03,5.56,6.5,10c0.04,0.41,0.02,0.83,0.05,1.25c0.02,0.32,0.08,0.64,0.11,0.96
			c1.48-2.81,1.54-5.62,0.94-8.56c-0.6-2.92-2.47-5.02-4.57-7.29c8.96,1.76,13.25,10.05,9.56,17.84c-0.64,1.35-1.35,2.69-1.78,4.11
			c-0.98,3.19,1,7.47,3.82,8.56c8.25,3.17,12.67,9.31,13.92,17.92c0.17,1.16,0.44,2.31,0.66,3.46c0.23-0.01,0.46-0.01,0.69-0.02
			c0.17-0.75,0.45-1.5,0.51-2.26c0.42-5.01-1.2-9.35-4.55-13.04c-1.46-1.6-3.04-3.08-4.59-4.59c-5.9-5.75-7.86-13.77-3.2-20.27
			c1.19-1.65,1.14-3.58,0.62-5.52c-1.49-5.6-6.73-9.88-13.15-10.67c-2.89-0.36-5.81-0.53-8.67-1.05
			C617.64,398.6,611.8,391.66,612.6,381.9z M439.66,519.18c0.15,1.85,0.21,3.52,0.44,5.16c0.37,2.61-0.22,4.96-1.62,7.14
			c-3.1,4.83-3.33,9.33,0.89,13.82c2.8,2.97,3.11,6.65,1.69,10.5c-0.74,2.02-1.33,4.11-1.82,6.21c-0.82,3.5,0.9,9.3,5.36,11.78
			c1.66-4.23,2.53-8.51,1.61-13.07c1.48,1.65,2.07,3.58,2.34,5.66c0.51,3.89-0.24,7.62-1.25,11.33c-1.1,4.02-2.05,8.08-1.77,12.3
			c0.34,5.08,2.21,9.45,6.36,13.14c-0.98-5.61-0.25-10.55,2.61-15.23c-0.99,8.49,3.56,13.83,10.07,18.38
			c-0.28-5.43-2.55-10.11-3.9-15.03c3.66,4.14,5.54,9.14,7.2,14.43c3.94-3.11,7.57-5.97,11.21-8.84c-0.02-0.23-0.04-0.47-0.05-0.7
			c-1.03-0.37-2.04-0.83-3.1-1.08c-1.78-0.43-3.58-0.79-5.38-1.04c-1.22-0.17-1.99-0.78-2.4-1.88c-3.13-8.37-7.66-16.2-9.58-25.61
			c-1.41,1.97-2.58,3.6-3.74,5.24c-0.14-0.06-0.28-0.12-0.42-0.17c1.31-3.63,2.63-7.26,4.03-11.14c-2.04,0-3.98,0-6.5,0
			c1.31-1.23,2.19-2.05,3.13-2.93c-1.53-4.36-1.86-8.77-1.11-13.3c0.18-1.11,0.12-2.4-0.28-3.43c-1.46-3.78-3.1-7.48-4.77-11.45
			c-5.61,5.22-6.05,11.47-5.11,18.11c-4.68-7.72-1.63-14.08,3.7-20.04c-1.36-2.34-2.68-4.55-3.94-6.79
			C442.69,519.13,441.48,518.62,439.66,519.18z M529.51,540.93c4.34,3.2,6.61,7.76,8.67,12.47c0.18-0.03,0.36-0.07,0.53-0.1
			c0.37-3.24,0.73-6.47,1.1-9.71c1.32,2.02,2.53,4.11,3.16,6.37c1.52,5.47,6.11,7.71,10.26,10.62c1.71-4.41,1.48-8.78,1.42-13.12
			c3.89,8.13,1.15,15.36-3.16,22.41c6.12-4.38,8.03-10.62,8.08-17.81c5.92,8,6.53,16.54,3.52,25.6c5.51-8.77,5.64-17.9,2.12-27.33
			c3.29,4.55,3.96,9.89,4.86,15.16c0.19,0,0.38-0.01,0.56-0.01c0.43-3.27,0.86-6.54,1.32-10.04c4.48,7.47,3.37,15.5,3.24,23.41
			c2.03-7.26,3.29-14.6,2.68-22.14c-0.47-5.83-3.09-10.6-8.16-13.59c-3.48-2.05-7.3-3.53-11-5.18c-1-0.45-2.15-0.57-3.4-0.89
			c0.3,2.1,0.54,3.82,0.78,5.53c-1.43-1.8-2.35-3.74-3.47-5.56c-1.11-1.8-2.43-3.47-3.66-5.2c-0.19,0.11-0.38,0.21-0.57,0.32
			c0.79,2.58,1.57,5.15,2.44,8.01c-4.31-3.45-8.36-6.7-12.82-10.28c0.41,3.27,0.72,5.82,1.04,8.37c-1.69-1.43-2.92-2.98-4.26-4.43
			c-1.32-1.43-2.58-3.01-4.73-3.6c-0.08,1.16-0.15,2.17-0.25,3.52c-2.14-1.86-3.87-3.68-6.64-4.15c0.03,4.47,1.58,8.35,3.37,12.18
			c-0.26,0.19-0.52,0.38-0.79,0.57c-1.04-1.28-2.07-2.55-3.12-3.82c-1.03-1.26-2.08-2.5-3.12-3.75c-0.18,0.06-0.37,0.13-0.55,0.19
			c0,2.49,0,4.97,0,7.98c-2.21-2.07-3.97-3.73-6.11-5.74c0,3.9,0,7.18,0,10.31c3.62,0.58,7.02,1.13,10.57,1.7
			c-0.52-2.39-1.07-4.92-1.5-6.93c3.34,2.83,6.81,5.78,10.33,8.76C531.4,547.82,530.48,544.45,529.51,540.93z M492.66,535.27
			c-4.75,2.13-8.37,4.8-11.62,8.11c-1.48,1.5-3.22,2.98-5.12,3.79c-12.04,5.12-16.52,17.43-11.72,28.7
			c1.27,2.98,2.52,5.98,3.82,8.95c0.85,1.95,1.77,3.87,2.65,5.8c0.23-0.67,0.16-1.23,0.02-1.77c-1.77-6.78-3.42-13.61-2.64-20.68
			c0.3-2.75,1.38-5.43,2.18-8.12c0.15-0.52,0.66-0.93,1.01-1.4c-1.5,8.07-0.42,15.49,4.06,22.59c-0.79-13.19-0.69-14.79,1.02-16.8
			c0.27,0.97,0.49,1.94,0.82,2.87c0.29,0.83,0.7,1.61,1.06,2.41c0.11-6.69,0.18-13.22,4.6-18.76c-1.09,5.27-0.28,10.23,2.15,15.08
			c0.66-7.53,3.29-14.22,7.98-20.14c-0.52,4.71,0.31,9.1,2.55,13.35c0.93-5.94,2.14-11.72,7.45-15.5c-0.85,3.09-1.67,6.13-0.63,9.63
			c2.93-6.04,5.7-11.75,8.27-17.04c-1.77-2.39-3.27-4.41-4.91-6.61c-2.87,3.09-5.62,6.05-8.37,9.01c-0.12-0.05-0.23-0.11-0.35-0.16
			c0.33-1.48,0.66-2.97,0.99-4.45c-0.1-0.06-0.21-0.12-0.31-0.18c-1.81,2.12-3.62,4.23-5.43,6.35c-0.11-0.03-0.22-0.07-0.33-0.1
			C492.1,538.72,492.34,537.23,492.66,535.27z M554.39,585.01c-0.48,1.15-0.76,1.66-0.91,2.21c-2.29,8.25-1.67,16.12,2.97,23.52
			c2.12,3.38,4.21,6.8,6.09,10.31c4.15,7.73,6.26,15.92,5.02,24.76c-0.05,0.34,0.03,0.7,0.05,1.05c2.68-7.21,2.74-14.68,2.62-22.17
			c-0.07-4.67-1.79-8.76-4.46-12.49c-1.26-1.76-2.64-3.43-3.95-5.16c-2.29-3.02-4.15-6.25-4.64-10.08c-0.2-1.53-0.49-3.12,0.31-4.94
			c0.52,1.61,0.88,2.88,1.33,4.12c1.81,4.91,5.43,8.49,8.87,12.24c3.15,3.42,6.41,6.83,8.99,10.66c4.31,6.39,4.62,13.37,1.58,20.47
			c-0.26,0.61-0.48,1.24-0.72,1.86c2.6-1.42,4.12-3.53,4.99-6.13c1.09-3.27,0.91-6.58,0.23-9.87c-1.48-7.1-5.2-13.08-9.48-18.77
			c-1.07-1.42-2.13-2.85-3.19-4.28c0.14-0.13,0.28-0.25,0.41-0.38c3.39,3.3,6.79,6.61,10.18,9.91c-1.02-3.56-2.08-7.05-3.56-10.35
			c-2.06-4.62-4.41-9.11-6.7-13.62c-0.4-0.78-0.85-1.93-2.27-1.04c1.82,4.13,3.61,8.19,5.4,12.26c-1.08-0.29-1.82-0.79-2.5-1.36
			c-3.21-2.65-6.34-5.41-9.62-7.96C559.32,588.11,556.97,586.74,554.39,585.01z M625.02,549.84c0-2.15,0.11-4.3-0.03-6.44
			c-0.16-2.45-0.92-4.74-2.57-6.63c-1.75-2.02-4.09-3.06-6.59-3.84c-4.13-1.29-8.18-2.75-11.26-6.63
			c-0.58,5.99,3.67,10.15,4.6,15.68c-4.02-2.17-6.85-4.9-9.06-8.97c-0.45,5.12,0.21,9.27,2.33,13.26c0.99,1.87,1.85,4.03,1.94,6.09
			c0.16,3.86-0.29,7.74-0.5,11.92c-3.74-3.27-5.94-6.83-4.6-12.26c-4.61,2.4-8.06,5.09-10.22,9.24c-0.59,1.13-0.52,2.23,0.1,3.32
			c2.48,4.33,4.95,8.67,7.46,12.97c0.39,0.66,1,1.18,1.61,1.88c3.23-4.31,2.89-8.44,0.34-12.8c4.23,0.52,8.22,1.01,12.37,1.51
			c-0.38-8.05-3.28-15.03-6.61-21.93c5.08,3.95,10.57,6.1,17.06,5.79c-1.45-6.09-4.68-10.75-9.65-14.29
			C618.27,539.44,622.39,543.63,625.02,549.84z M546.95,614.22c-1.51,2.09-2.96,3.9-4.18,5.84c-2.95,4.67-5.16,9.67-6.25,15.12
			c-1.01,5.02-0.62,9.76,3.13,13.61c-6.11,7.79-6.01,14.44,0.31,19.91c-0.16-0.63-0.27-1.09-0.41-1.55
			c-1.45-5.06-0.4-9.58,3.13-13.43c1.39-1.52,3.05-2.83,4.69-4.09c1.84-1.42,3.87-2.6,5.71-4.02c6.47-5,8.52-15.15,4.65-22.3
			c-0.84,2.78-1.7,5.65-2.66,8.85c-1.39-2.11-2.38-3.85-3.61-5.41c-2.76-3.5-4.83-7.18-4.02-11.86
			C547.45,614.84,547.37,614.78,546.95,614.22z M619.37,358.64c4.07,5.68,5.52,11.66,5.01,18.23c-0.71,9.03,3.27,15.55,11.16,19.78
			c1.83,0.98,3.96,1.56,5.55,2.82c3.77,3,8.15,4.03,12.67,5.18c6.58,1.67,11.16,5.78,12.4,12.85c0.04,0.2,0.27,0.37,0.54,0.72
			c1.42-5.04,0.97-9.65-1.74-13.95c-2.66-4.21-6.36-7.31-10.94-9.15c-3.22-1.29-6.64-2.11-9.98-3.11
			c-6.83-2.05-11.08-6.55-12.57-13.5c-0.69-3.25-0.87-6.6-1.51-9.86C628.82,362.95,625.47,359.74,619.37,358.64z M446.47,379.46
			c-10.6,2.85-20.01,7.78-28,15.22c-5.58,5.19-9.12,11.34-9.17,19.25c-0.03,4.72-1.22,9.21-3.8,13.27
			c-1.32,2.08-3.03,3.33-5.51,3.89c-2.24,0.5-4.5,1.3-6.5,2.41c-4.86,2.69-7.52,8.28-6.72,13.92c2.56-5.44,6.82-8.89,11.55-11.73
			c6.14-3.69,10.15-8.99,12.67-15.56c1.31-3.41,2.47-6.88,3.92-10.23c3.45-7.97,9.46-12.41,18.26-12.93
			c0.78-0.05,1.79-0.58,2.22-1.2C439.15,390.36,442.79,384.9,446.47,379.46z M645.26,449.34c-2.46-3.02-4.67-4.35-9.25-5.79
			c-2.07-0.65-4.17-1.26-5.89-2.83c3.71,0.66,7.29,1.23,10.85,1.93c5.69,1.12,10.88,3.14,14.18,8.36c0.03,0.05,0.25-0.02,0.6-0.05
			c-0.3-1.22-0.42-2.5-0.93-3.59c-2.35-5.04-6.31-8.03-11.82-8.88c-2.46-0.38-4.96-0.59-7.41-1.03c-3.01-0.54-5.88-1.5-8.29-3.72
			c2.71,0.3,5.25,0.58,7.79,0.86c-7.81-4.89-8.49-6.96-10.4-14.82c-1.52,1.77-2.99,3.32-4.29,5.01c-2.57,3.36-3.37,7.13-2.5,11.3
			c1.02,4.86,3.6,8.69,7.32,11.86c1.99,1.69,4.24,2.67,6.86,2.49C636.37,450.15,640.66,449.73,645.26,449.34z M432.64,493.11
			c0.4-0.95,0.69-1.44,0.82-1.97c1.94-7.66,0.41-14.67-4.08-21.08c-2.32-3.31-5.04-6.38-6.07-10.5c-2.57,2.13-3.7,4.2-4.23,7.27
			c-0.24,1.38-0.49,2.8-1.06,4.07c-2.94,6.6-2.38,12.94,1.17,19.12c1.16,2.02,2.43,3.98,3.46,6.06c2.7,5.43,1.65,8.91-3.64,11.84
			c-1.87,1.04-3.96,1.7-5.94,2.54c-1.95,0.83-2.14,1.28-1.49,3.47c0.29,0.04,0.61,0.12,0.93,0.12c8.84-0.08,14.88-7.34,13.22-16.11
			c-0.53-2.78-1.61-5.46-2.44-8.19c0.11-0.07,0.21-0.13,0.32-0.2c1.97,3.33,3.94,6.66,5.9,9.97c0.66-5.11-0.21-10.12-2.19-14.96
			c-1.95-4.76-3.99-9.5-5.87-14.29c-0.44-1.12-0.41-2.41-0.64-3.9c2.55,4.55,4.83,8.78,7.25,12.91
			C430.5,483.44,432.22,487.79,432.64,493.11z M473.19,613.93c-7.9,1.67-11.89,6.58-13.83,13.6c-0.91-6.68,1.88-12.24,4.98-17.97
			c-5.21,2.04-9.47,6.25-11.39,11.08c-3.57,8.97-1.1,20.56,9.14,29.5c-1.59-6.04-4.59-11.56-3.49-18.22
			c1.32,2.64,1.71,5.39,4.06,7.1c3.81-5.83,7.9-11.29,11.07-17.33c-0.13-0.11-0.25-0.22-0.38-0.32c-2.68,2-5.35,4-8.47,6.32
			C466.53,622.18,469.47,618.11,473.19,613.93z M538.52,474.58c4.65,3.77,9.25,7.59,13.97,11.26c1.42,1.1,3.1,1.99,4.8,2.6
			c7.42,2.64,14.93,0.34,20.62-6.15c1.87-2.14,1.87-2.14,0.42-5.13c-5.66,1.54-11.23,3.71-17.76,4.17c1.71-2.04,3.1-3.71,4.7-5.62
			c-1.43,0.12-2.42,0.19-3.4,0.29c-6.38,0.65-12.36-0.94-18.26-3.14C541.01,471.89,540.23,472.22,538.52,474.58z M651.18,462.34
			c-0.19-0.05-0.39-0.1-0.58-0.15c-0.75,1.27-1.66,2.48-2.22,3.83c-1.59,3.78-1.21,7.29,1.69,10.39c2.78,2.98,5.62,5.91,8.22,9.04
			c2.66,3.2,3.24,6.98,2.39,11.06c-0.71,3.44-2.38,6.35-4.48,9.08c-0.55,0.72-1.09,1.44-1.64,2.16c6.21-2.88,11.71-6.53,16.03-11.74
			c1.77-2.13,3.28-4.44,3.45-7.32c0.34-5.96-2.29-10.78-5.96-15.2c2.18,4.6,4.4,9.21,3.36,14.5c-1.07,5.47-5.34,8.56-9.21,12.13
			c-0.08-0.42-0.17-0.6-0.14-0.74c2.2-8.79,0.82-16.61-6.02-23.08c-1.3-1.23-2.58-2.66-3.03-4.84c2.3,1.84,4.45,3.3,7.52,3.92
			C656.96,471,651.82,468.29,651.18,462.34z M685.63,471.21c2.39-2.84,4.29-5.39,5.44-8.43c2.11-5.55,0.56-11.95-4.11-15.24
			c-1.82-1.28-4.2-1.92-6.42-2.45c-4.78-1.14-9.31-2.59-12.22-6.98c-0.06-0.09-0.29-0.06-0.6-0.11c0.27,2.71,1.23,5.05,3.32,6.75
			c1.94,1.58,4.04,2.95,6.07,4.41c-0.05,0.1-0.11,0.2-0.16,0.3c-1.7-0.28-3.41-0.56-5-0.82c3.36,2.96,6.99,5.71,10.06,8.98
			C685.36,461.21,685.45,466.06,685.63,471.21z M482.37,664.86c0.53-1.68-0.14-2.91-1.06-4.19c-1.05-1.47-2.24-3-2.72-4.68
			c-1.69-5.87-2.49-11.88-1.8-18.02c0.37-3.25,0.69-6.5,1.09-10.31c-0.65,0.88-1.03,1.3-1.3,1.78c-3.42,6.12-6.23,12.5-7.99,19.29
			c-0.52,2-0.78,4.1-0.87,6.16c-0.24,5.28,0.98,10.09,5.1,13.78c0.36,0.32,0.84,0.51,1.69,1.01c-2.02-4.31-3.55-8.2-3.75-12.86
			C474.37,660.27,477.74,663.46,482.37,664.86z M564.45,637.75c-6.03,5.52-12.01,10.89-17.85,16.41c-1.36,1.28-2.45,2.97-3.28,4.66
			c-1.5,3.07-1.18,6.15,0.72,9.5c1.53-4.15,4.64-6.39,7.64-8.78c2.53-2.02,5.09-4.06,7.32-6.4
			C563.1,648.85,564.45,643.5,564.45,637.75z M547.37,457.65c0.05,0.15,0.09,0.29,0.14,0.44c1.2-0.12,2.41-0.23,3.61-0.35
			c6.13-0.62,12.24-1.14,18.37,0.13c2.34,0.48,4.79,0.6,7.18,0.58c2.8-0.03,3.82-1.91,2.59-4.42c-0.36-0.74-0.87-1.43-1.42-2.04
			c-3.27-3.61-7.44-4.38-12.06-3.81c-3.35,0.41-5.98,2.39-8.8,3.94C553.76,453.9,550.58,455.8,547.37,457.65z M492.32,658.64
			c-1.68,5.31-2.6,10.15-1.86,15.19c1.08,7.44,9.51,14.29,17.5,13.81c-3.11-2.29-5.92-4.3-8.67-6.39c-2.45-1.87-4.3-4.2-5.2-7.67
			c2.2,2.57,4.07,4.88,7.55,5.37c0-2.95,0.06-5.69-0.04-8.43c-0.03-0.77-0.3-1.7-0.78-2.27
			C498.19,665.14,495.44,662.13,492.32,658.64z M650.34,482.17c-1.53-3.04-3.7-5.6-6.81-6.89c-4.05-1.67-8.23-3.06-12.46-4.2
			c-1.95-0.53-3.3-1.2-4.03-3.12c-0.73-1.92-1.62-3.78-2.43-5.66c-0.1,0.08-0.28,0.15-0.34,0.28c-0.1,0.22-0.16,0.47-0.19,0.71
			c-0.29,3.03,0.04,5.97,1.18,8.82c2,5.02,6.02,7.75,10.74,9.82c3.26,1.44,6.48,3.02,9.58,4.77c1.5,0.85,2.69,2.24,4.2,3.55
			c-1.35-4.82-4.33-7.77-12-11.93C642.47,478.63,646.29,480.58,650.34,482.17z M631.18,517.95c1.37-2.74,2.15-5.23,2.35-7.89
			c0.55-7.51-3.64-12.6-9.01-16.85c-2.39-1.9-5.36-3.06-8.06-4.56c0.61,2.98,2.61,4.6,4.51,6.33c2.7,2.47,5.31,5.03,7.92,7.58
			c0.33,0.32,0.42,0.88,0.62,1.33c-5.31-4.75-12.63-6.58-17.07-12.95c-0.27,5.04,1.71,8.29,5.47,10.44
			c2.09,1.19,4.36,2.06,6.54,3.09c3.49,1.66,5.58,4.4,6.15,8.23C630.84,514.3,630.96,515.91,631.18,517.95z M434.65,438.67
			c-4.77,2.54-8.07,6.38-9.65,11.5c-1.38,4.48-0.77,8.73,2.31,12.43c1.01,1.21,2.12,2.34,3.16,3.53c2.22,2.55,4.42,5.12,6.62,7.66
			c0.08-0.7,0.27-1.67,0.29-2.64c0.08-4.72-1.75-8.68-4.73-12.27c-3.94-4.73-4.34-9.89-1.31-15.26
			C432.31,441.9,433.54,440.32,434.65,438.67z M384.87,504c-0.36,4.75,2.52,7.58,7.16,9.11c2.16,0.71,3.68,1.85,5.03,3.71
			c3.45,4.73,8.45,5.9,14.18,5.71C405.08,512.37,394.96,508.4,384.87,504z M517.91,567.63c2.46-0.67,5.97-1.6,9.46-2.61
			c0.52-0.15,1-0.59,1.4-1c1.17-1.19,1.11-2.07-0.21-3.1c-1.68-1.31-3.67-1.44-5.69-1.26c-4.63,0.42-9.26,0.87-13.88,1.36
			c-0.81,0.09-1.65,0.29-2.39,0.64c-1.02,0.47-2,1.3-1.5,2.5c0.37,0.87,1.25,1.98,2.06,2.13
			C510.33,566.88,513.57,567.13,517.91,567.63z M595.29,591.84c-5.68,0.8-8.81,4.41-8.39,10.04c0.43,5.74,3.15,10.45,7.19,14.42
			c1.13,1.11,2.46,2,3.69,3c-0.28-1.25-0.89-2.12-1.47-3.02c-1.7-2.66-3.42-5.31-5.07-8.01c-1.72-2.81-1.99-7.8-0.41-10.84
			c2.31,7.66,5.63,12.46,10.03,14.91c-1.2-2.97-2.88-6.24-3.83-9.71C596.08,599.14,595.84,595.45,595.29,591.84z M621.25,526.91
			c3.04-3.95,4.68-7.75,4.83-12.13c0.16-4.6-1.52-6.97-6.03-8.07c-2.58-0.63-5.11-1.23-7.01-3.7c-0.09,0.69-0.14,1-0.16,1.32
			c-0.27,3.87,1.65,6.86,3.98,9.64c2.67,3.19,4.03,6.82,4.16,10.94C621.03,525.37,621.12,525.84,621.25,526.91z M530.84,663.35
			c-0.16-0.16-0.33-0.33-0.49-0.49c-2.46,1.5-5.06,2.82-7.33,4.58c-1.14,0.88-2.21,2.46-2.42,3.86
			c-0.94,6.33,5.32,14.32,14.58,11.07c-2.75-2.49-5.94-4.6-6.58-8.51C527.99,670.11,529.33,666.7,530.84,663.35z M616.81,442.77
			c-3.58,5.71-4.92,16.03-1.96,23.68c3.15-4.14,6.25-8.15,7.3-13.26c0.24-1.18,0.04-2.73-0.56-3.75
			C620.25,447.17,618.53,445.12,616.81,442.77z M539.6,515.72c-0.18-1.99-0.35-3.71-0.49-5.43c-0.17-2.16-1.07-3.99-2.52-5.55
			c-1.93-2.07-3.54-2.06-5.51-0.06c-3.41,3.44-2.6,7.68-2.57,11.9C532.29,516.29,535.74,516.02,539.6,515.72z M425.04,385.24
			c3.72-1.75,7.21-3.5,10.78-5.03c3.2-1.36,6.51-2.46,9.77-3.7c2.87-1.09,4.97-3.07,6.64-5.65c-4.68,1.18-9.24,2.31-13.79,3.48
			c-3.58,0.92-6.88,2.44-9.71,4.84C426.88,380.75,425.28,382.51,425.04,385.24z M481.2,472.37c-0.52,6.86-2.11,9.32-6.4,10.02
			c-2,0.33-3.96,0.15-5.81-0.87c-2.76-1.52-4.04-3.97-4.27-7.11c-3.95,2.29-4.16,5.49-0.78,7.76c0.75,0.51,1.57,0.97,2.42,1.27
			c8.34,2.99,16.67,0.28,21.7-8.84C485.82,473.88,483.63,473.16,481.2,472.37z M676.41,470.52c2.5,5.81,5.29,11.46,4.17,18.13
			c-1.12,6.71-5.69,10.94-10.37,15.18c6.62-2.09,11.95-5.83,13.55-12.84C685.63,482.83,682.39,476.08,676.41,470.52z M547.24,464.9
			c-1.05,0.9-2.07,1.62-2.88,2.51c-1.17,1.3-1.03,1.93,0.37,3.08c5.37,4.41,15.94,5.36,21.98,1.92c1.73-0.98,3.37-2.11,4.15-4.05
			c-2.05-2.75-3.55-3.87-5.78-4.32c-0.61,6.38-2.96,8.9-8.33,8.95C551.58,473.05,547.81,469.95,547.24,464.9z M480.62,538.3
			c5.51-2.95,10.49-5.63,15.62-8.38c-2.31-1.93-4.76-3.98-7.44-6.22C486.05,528.6,483.45,533.25,480.62,538.3z M545.61,528.87
			c3.52,1.16,6.95,2.52,10.83,2.08c-1.22-3.7-8.69-12.23-11.26-13C547.31,526.11,547.31,526.11,545.61,528.87z M564.89,654.17
			c-2.85,1.8-5.75,3.55-8.56,5.44c-2.78,1.87-5.46,3.9-8.58,6.15C556.79,666.88,564.53,661.38,564.89,654.17z M644.97,470.26
			c-1.44-2.48-3.86-3.61-6.24-4.72c-3.82-1.77-8.07-2.75-11.08-6.19c0.98,2.9,2.17,5.61,3.47,8.27c0.2,0.41,0.88,0.75,1.38,0.83
			C636.57,469.08,640.65,469.64,644.97,470.26z M607.56,514.46c-0.81,3.57-1.03,7.06,1.45,10.09c1.69,2.07,4.54,2.83,7.27,2.16
			C613.61,522.48,609.44,519.32,607.56,514.46z M649.82,406.23c3.2,4.32,6.02,8.13,9.11,12.29c0-2.91,0.19-5.45-0.1-7.94
			c-0.11-0.91-1.17-2.1-2.08-2.46C654.71,407.31,652.5,406.93,649.82,406.23z M422.68,549.82c-1.91-1.08-3.58-1.85-5.03-2.91
			c-1.39-1.02-2.54-2.35-3.95-3.69c-0.02,6.45,2.56,9.78,8.18,10.67C422.15,552.53,422.41,551.18,422.68,549.82z M559.58,459.55
			c6.31,0.04,10.99,3.6,15.7,7.08C571.73,460.56,566.45,458.24,559.58,459.55z M650.74,548.62c-3.41,3.11-7.2,5.55-11.63,6.96
			c-0.62,0.2-1.13,0.76-1.69,1.16C644.11,556.81,648.22,554.19,650.74,548.62z M676.71,437.71c1.18,0.34,1.99,0.25,2.18-1.15
			c0.49-3.54-1.63-7.79-4.93-9.76c0.7,1.77,1.57,3.47,2.02,5.26C676.44,433.88,676.48,435.8,676.71,437.71z M471.49,473.02
			c-1.61-0.55-3.14-0.31-4.15,1.08c-0.88,1.2-0.45,2.57,0.54,3.61c0.92,0.98,1.94,1.92,3.75,1.02c-1.55-0.75-3.02-1.52-2.57-3.13
			C469.34,474.65,470.55,473.97,471.49,473.02z M557.13,470.8c2.33,0.13,2.96-0.23,3.54-2.15c0.65-2.15,0.29-3.21-1.15-4.02
			C558.72,466.68,557.91,468.77,557.13,470.8z M553.82,470.36c-0.54-0.95-1.72-2.1-1.68-3.2c0.04-1.02,1.38-1.98,2.16-2.97
			c-2.77-0.51-4.06,0.04-4.28,1.82C549.75,468.19,551.66,470.18,553.82,470.36z M474,479.66c3.77-0.17,4.46-2.22,2.32-5.78
			C475.55,475.81,474.83,477.58,474,479.66z"/>
		<path d="M428.47,727.57c-4.68-1.32-7.39-4.38-9.48-8.09c-2.19-3.89-3.35-8.15-3.93-12.53c-1.62-12.31-2.55-24.67-2.01-37.08
			c0.35-8,2.28-15.61,7.02-22.28c0.75-1.06,1.65-2.01,2.83-3.45C421.58,672.44,425.01,699.85,428.47,727.57z"/>
		<path d="M377.93,707.37c-7.99-10.46-6.05-26.1,4.77-30.82c-1.06,5.12-2.31,10.17-3.1,15.29
			C378.81,696.92,378.48,702.06,377.93,707.37z"/>
		<path d="M513.32,617.64c1.2,5.1,1.32,9.99-1.41,14.58c-0.43,0.71-0.86,1.44-1.39,2.07c-4.61,5.59-6.39,12.14-6.55,19.24
			c-0.01,0.49-0.06,0.98-0.31,1.54c-3.77-4.41-5.51-9.51-5.22-15.76c1.03,2.18,1.88,3.99,2.73,5.79c0.18-0.03,0.36-0.06,0.54-0.1
			c0.09-0.51,0.21-1.02,0.27-1.54c0.45-3.49,1.93-6.53,4.16-9.2C510.19,629.42,512.89,624.01,513.32,617.64z"/>
		<path d="M516.71,633.96c0.23-9.92,1.11-19.93-5.05-28.79c5.01,2.75,7.83,6.92,8.35,12.57
			C520.54,623.43,518.86,628.71,516.71,633.96z"/>
	</g>
</g>
</svg>
