<?xml version="1.0" encoding="UTF-8" standalone="no"?>
<!-- Created with Inkscape (http://www.inkscape.org/) -->

<svg
   xmlns:dc="http://purl.org/dc/elements/1.1/"
   xmlns:cc="http://creativecommons.org/ns#"
   xmlns:rdf="http://www.w3.org/1999/02/22-rdf-syntax-ns#"
   xmlns:svg="http://www.w3.org/2000/svg"
   xmlns="http://www.w3.org/2000/svg"
   xmlns:sodipodi="http://sodipodi.sourceforge.net/DTD/sodipodi-0.dtd"
   xmlns:inkscape="http://www.inkscape.org/namespaces/inkscape"
   width="1350"
   height="220"
   id="svg2"
   version="1.1"
   inkscape:version="0.48.5 r10040"
   sodipodi:docname="New document 1">
  <defs
     id="defs4" />
  <sodipodi:namedview
     id="base"
     pagecolor="#ffffff"
     bordercolor="#666666"
     borderopacity="1.0"
     inkscape:pageopacity="0.0"
     inkscape:pageshadow="2"
     inkscape:zoom="0.90962963"
     inkscape:cx="675"
     inkscape:cy="110"
     inkscape:document-units="px"
     inkscape:current-layer="layer1"
     showgrid="false"
     fit-margin-top="0"
     fit-margin-left="0"
     fit-margin-right="0"
     fit-margin-bottom="0"
     inkscape:window-width="1366"
     inkscape:window-height="715"
     inkscape:window-x="-8"
     inkscape:window-y="-8"
     inkscape:window-maximized="1" />
  <metadata
     id="metadata7">
    <rdf:RDF>
      <cc:Work
         rdf:about="">
        <dc:format>image/svg+xml</dc:format>
        <dc:type
           rdf:resource="http://purl.org/dc/dcmitype/StillImage" />
        <dc:title></dc:title>
      </cc:Work>
    </rdf:RDF>
  </metadata>
  <g
     inkscape:label="Layer 1"
     inkscape:groupmode="layer"
     id="layer1"
     transform="translate(-159.19875,-342.65393)">
    <path
       inkscape:connector-curvature="0"
       d="m 275.56964,463.84397 c 0.3064,-1.41909 1.70544,-2.32121 3.12453,-2.01481 1.4191,0.3064 2.32122,1.70545 2.01482,3.12454 l -12.55423,57.98981 c -0.3064,1.4191 -1.70544,2.32121 -3.12454,2.01482 -0.51809,-0.11142 -0.96637,-0.36843 -1.31287,-0.71902 -12.97539,-11.39065 -21.10075,-24.40318 -29.52062,-37.88812 -6.93132,-11.10133 -14.07137,-22.53544 -24.25165,-33.47262 -0.1389,-0.14967 -0.25775,-0.31271 -0.35579,-0.48244 -15.90755,-26.09896 -20.35944,-45.72787 -13.35124,-60.1866 7.00931,-14.46097 25.26741,-23.2916 54.78616,-27.81332 l 0.13037,-0.0167 c 50.28784,-6.17888 118.70193,4.80584 158.4422,23.83791 12.2857,5.884 21.92783,12.58172 27.59717,19.84061 6.04703,7.74208 7.70418,16.07764 3.51932,24.7326 -4.72896,9.77918 -17.20334,19.78898 -39.72726,29.51022 -18.55818,9.24957 -38.20083,16.90436 -54.33567,23.1902 -19.13607,7.45574 -33.0949,12.89665 -33.37494,15.38945 -0.0895,0.80035 4.32711,1.7203 14.98203,2.9173 l 0.062,0.007 c 20.19231,2.16114 31.91611,4.99228 36.18193,8.69916 5.92596,5.15123 2.04861,10.61072 -10.26272,16.75469 -0.11142,0.0557 -0.22507,0.10214 -0.34094,0.14113 -17.55802,6.86076 -29.81959,7.13262 -36.01518,5.16498 -3.11934,-0.99088 -5.05876,-2.6551 -5.74286,-4.55664 -0.84122,-2.33086 0.005,-4.6647 2.62129,-6.47859 3.25527,-2.25733 10.14648,-3.8417 20.72712,-2.84562 1.44101,0.13036 2.50431,1.40647 2.37396,2.84748 -0.13074,1.44138 -1.40648,2.50468 -2.84785,2.37432 -9.20947,-0.86646 -14.85056,0.26406 -17.27168,1.94239 -0.42636,0.29452 -0.68002,0.35654 -0.6674,0.39145 0.14188,0.39591 0.93778,0.86758 2.39067,1.32848 5.3165,1.68873 16.24106,1.29802 32.50848,-5.05728 7.63771,-3.81941 10.86883,-6.49344 9.09283,-8.03808 -3.43205,-2.98229 -14.22401,-5.406 -33.31403,-7.44718 l -0.0702,-0.006 c -14.34324,-1.61074 -20.10281,-4.49423 -19.62891,-8.71364 0.63471,-5.65262 15.84812,-11.58155 36.7056,-19.70802 15.9718,-6.22196 35.41426,-13.79988 53.8926,-23.01045 l 0.1894,-0.0895 c 21.31207,-9.1894 32.94636,-18.31269 37.14274,-26.98994 3.20252,-6.6238 1.84991,-13.11094 -2.92361,-19.22223 -5.15124,-6.59559 -14.149,-12.79563 -25.72534,-18.33943 -38.96406,-18.66031 -106.13175,-29.4196 -155.55722,-23.34322 -27.69335,4.24615 -44.63969,12.15646 -50.81114,24.88859 -6.15028,12.68792 -1.81798,30.63665 13.00696,55.00826 10.43208,11.25435 17.66349,22.83256 24.68432,34.07613 7.48619,11.98897 14.73356,23.59688 25.32535,33.78459 l 11.586,-53.51674 z m -24.47374,-99.45705 0.0587,-0.007 m 147.49759,93.20798 0.0557,-0.0274 m 567.51032,15.7497 c -0.31167,-1.4139 0.58122,-2.81406 1.99512,-3.12566 1.41389,-0.31159 2.81402,0.58086 3.1256,1.99476 1.53909,6.97589 -0.37476,13.40509 -3.9806,19.76484 5.79338,0.17158 12.98617,1.6917 21.67863,5.32504 14.40424,-3.99545 26.83844,-8.03399 37.96834,-12.13121 18.4888,-6.80504 33.3452,-13.75754 47.6599,-20.94364 0.062,-0.0349 0.1263,-0.0665 0.1928,-0.0958 12.832,-5.77034 20.7267,-12.48404 24.5822,-19.59437 3.4751,-6.41026 3.634,-13.23128 1.1631,-20.00884 -2.5707,-7.05166 -7.9619,-14.10926 -15.4376,-20.69222 -17.5012,-15.41135 -46.1253,-27.97524 -76.8883,-31.90013 -3.9646,-0.50955 -7.7495,-0.5051 -11.35312,-0.0334 -15.8533,2.07609 -28.43321,13.32375 -37.82272,29.79433 -9.61505,16.86648 -15.87899,39.13266 -18.91512,62.73883 -2.46681,19.18546 -2.79921,39.23554 -1.06739,57.98647 2.91283,-5.0439 6.41137,-9.75615 9.94333,-14.28195 -1.35931,-1.77378 -1.71399,-4.14996 -0.95486,-6.57665 0.74762,-2.39177 2.62468,-4.85857 5.72617,-6.68694 1.87181,-1.10341 4.23719,-1.99291 7.11845,-2.48797 4.16708,-6.43329 6.67061,-12.6805 5.26607,-19.04545 z m -2.20356,23.90847 c -1.79154,2.58454 -3.78332,5.17947 -5.85539,7.81562 7.85393,-1.79495 15.20827,-3.59844 22.12845,-5.40899 -6.72227,-2.14257 -12.10192,-2.7446 -16.27306,-2.40663 z m -10.80529,5.62996 c 0.69894,-0.8854 1.39049,-1.76523 2.06864,-2.63912 -1.05291,0.84195 -1.73402,1.76115 -2.06864,2.63912 z m 0.45459,7.88099 c -5.31948,6.78833 -10.59513,13.97777 -13.70592,21.88624 -0.52739,1.35075 -2.05196,2.01815 -3.40272,1.49077 -0.96933,-0.37919 -1.58734,-1.27203 -1.6631,-2.24582 -2.81627,-21.60584 -2.82259,-45.45416 0.0914,-68.11735 3.11933,-24.25462 9.5931,-47.19785 19.55318,-64.66933 10.18547,-17.86553 24.03177,-30.09257 41.70973,-32.40746 4.03928,-0.52961 8.26948,-0.53369 12.69018,0.0334 31.8147,4.05859 61.492,17.11829 79.703,33.15507 8.1138,7.14525 14.0134,14.93338 16.8991,22.85038 2.9856,8.19147 2.7729,16.47392 -1.473,24.30624 -4.3794,8.07708 -13.0826,15.58444 -27.0541,21.87028 -14.5248,7.29046 -29.57,14.33469 -48.1976,21.19136 -9.8561,3.62778 -20.7312,7.21136 -33.08238,10.76151 6.69028,3.99731 12.79418,8.7545 18.19608,13.73749 8.8474,8.16435 15.8389,16.95376 20.4616,24.01358 0.7937,1.21483 0.4538,2.84563 -0.761,3.63929 -1.2152,0.79404 -2.846,0.45384 -3.6397,-0.76098 -4.4352,-6.77348 -11.1381,-15.20301 -19.6173,-23.02605 -6.349,-5.85762 -13.69,-11.37543 -21.80601,-15.59372 -9.07577,2.48463 -18.92329,4.95329 -29.69852,7.41154 -1.96542,0.58643 -3.71097,0.7075 -5.20289,0.47353 z m 98.90785,1.55836 c 0.9811,-1.06664 2.6446,-1.13609 3.7109,-0.15487 1.0666,0.98122 1.1361,2.6447 0.1548,3.71096 -6.3797,6.93579 -9.0812,11.18676 -9.3505,13.46712 -0.014,0.13667 0.033,0.20836 0.1218,0.22841 1.0919,0.24214 2.8972,-0.0241 5.1019,-0.66109 8.1591,-2.35946 19.9961,-9.40851 23.8568,-15.41173 0.7832,-1.22003 2.41,-1.57471 3.63,-0.79144 1.1431,0.73388 1.5264,2.20646 0.9262,3.39306 -3.7625,8.00317 -3.9423,13.31633 -1.9052,16.3885 1.4295,2.15594 4.1184,3.30651 7.484,3.56984 3.7804,0.296 8.3192,-0.51587 12.9598,-2.27813 12.2689,-4.65951 24.9558,-15.82436 26.256,-30.61029 0.1241,-1.44769 1.4002,-2.51953 2.8475,-2.39512 1.155,0.0988 2.0709,0.93183 2.3309,2.00033 1.7983,4.98894 9.1139,10.91712 15.499,16.09138 6.4262,5.20695 12.0302,9.74872 11.8322,13.75049 -0.019,0.37028 -0.079,0.72645 -0.1824,1.06404 4.7777,0.57715 9.4602,0.84567 12.7366,-0.37993 5.0847,-1.90228 7.0714,-8.30957 0.8999,-25.37178 -0.2755,-0.56637 -0.4787,-1.13164 -0.5968,-1.69689 l 0,-9e-4 c -0.2604,-1.24752 0.4207,-2.53291 1.6515,-2.99084 1.3571,-0.50435 2.8679,0.18533 3.3722,1.54203 l 0.4714,1.28465 c 1.4373,2.57079 6.5134,6.17108 11.5878,9.76841 4.2703,3.02685 8.5414,6.05668 11.2595,9.09171 11.9902,-2.72008 27.4817,-3.85506 42.372,0.0814 1.2149,-2.84896 3.5543,-5.82606 7.146,-8.73593 0.2043,-0.19498 0.4435,-0.36025 0.7139,-0.48429 4.0173,-1.84992 7.739,-1.30657 10.1152,0.34947 1.4897,1.03805 2.4928,2.52251 2.8118,4.20567 l 0.026,0.1389 c 0.292,1.74889 -0.1523,3.61738 -1.539,5.30945 l -0.01,-0.005 0,0.005 c -2.1088,2.5719 -6.7304,4.83295 -14.8368,5.22774 0.1014,0.34985 0.2432,0.68448 0.4245,1.00016 0.6633,1.15281 1.8673,2.16374 3.5531,2.9511 3.9509,1.84769 10.2108,2.36763 18.2392,0.79886 l 0.1062,-0.0178 c 17.4277,-3.65005 33.177,-8.64827 46.5862,-14.18613 -3.0213,-1.81574 -5.4744,-3.80678 -7.2757,-5.94898 -3.5341,-4.2038 -4.6565,-8.92348 -2.8444,-14.01343 1.7841,-5.01865 6.5439,-10.28353 14.8334,-15.60226 l 0,0.004 c 0.1304,-0.0843 0.2703,-0.15785 0.42,-0.21913 14.884,-6.11983 26.0897,-8.25794 33.5822,-7.8093 3.7964,0.22618 6.7649,1.12533 8.8886,2.52548 1.6148,1.06553 2.7527,2.3992 3.4131,3.94272 4.9281,-2.51211 11.0582,-4.89757 18.3814,-7.07989 l 0,0.005 0.091,-0.0253 c 14.0874,-3.63817 27.9248,-1.38121 37.3493,4.42368 4.4247,2.72565 7.9147,6.25241 10.0603,10.34555 2.199,4.19341 2.9812,8.93907 1.9253,13.99448 -1.1379,5.45467 -4.4426,11.24804 -10.4685,17.03696 14.224,0.99607 30.6819,1.35819 49.3981,0.91066 1.4472,-0.0334 2.6498,1.11194 2.6832,2.55927 0.033,1.44769 -1.1116,2.64989 -2.5592,2.6837 -21.1921,0.5062 -39.5777,-0.0241 -55.1754,-1.34668 -1.5751,1.197 -3.2732,2.3888 -5.1019,3.57429 -0.3494,0.25366 -0.7654,0.42413 -1.2233,0.48021 -35.691,4.38876 -68.9156,1.18847 -88.378,-6.54841 -0.6485,-0.25775 -1.2814,-0.51995 -1.9001,-0.78847 -14.5545,6.3501 -32.0621,12.12378 -51.6059,16.21877 l -0.1809,0.0423 c -9.1708,1.79161 -16.5749,1.0789 -21.4691,-1.20962 -2.6774,-1.25197 -4.6703,-2.99418 -5.8759,-5.09033 -0.7892,-1.37156 -1.2338,-2.86456 -1.3096,-4.44373 -13.45,-3.63929 -27.4678,-2.82965 -38.6007,-0.49989 0.057,0.25477 0.098,0.50955 0.1199,0.76432 0.4401,4.96257 -4.9814,8.73667 -21.6723,10.21705 -0.3454,0.0293 -0.6811,-0.008 -0.9939,-0.10511 -1.6568,-0.48987 -2.6179,-1.44992 -2.9362,-2.77542 l 0,9e-4 c -0.1716,-0.72125 -0.099,-1.45066 0.202,-2.17488 -1.2096,1.14315 -2.6677,1.98844 -4.3059,2.60124 -5.49,2.05418 -12.7552,1.04659 -19.4856,0.11178 -1.0128,-0.14112 -2.0129,-0.27817 -2.9845,-0.40445 -2.7825,0.36323 -6.3735,0.44865 -10.9079,0.22321 -1.4476,-0.0672 -2.5655,-1.2969 -2.4983,-2.7446 0.049,-1.03915 0.696,-1.90859 1.5929,-2.29186 l 0,-9e-4 c 3.3975,-1.45698 8.3389,-0.96117 13.7431,-0.22953 0.6179,-0.12924 0.9031,-0.29971 0.9136,-0.50844 0.067,-1.35373 -4.5763,-5.11743 -9.8992,-9.43154 -4.73,-3.83428 -9.9307,-8.04959 -13.4808,-12.38191 -4.1603,13.56628 -16.4064,23.62437 -28.292,28.13755 -5.3522,2.03301 -10.6814,2.96261 -15.2209,2.60682 -4.9533,-0.38849 -9.0497,-2.28779 -11.453,-5.91371 -1.8321,-2.76354 -2.5908,-6.45631 -1.8603,-11.15184 -5.7871,4.29739 -13.1269,8.06965 -18.8089,9.71269 -3.0109,0.86981 -5.7028,1.18437 -7.6916,0.74353 -2.9908,-0.66331 -4.6175,-2.54553 -4.213,-5.96608 0.3895,-3.29315 3.4981,-8.56953 10.7064,-16.40632 z m 28.1519,3.78042 c -0.04,0.0798 -0.085,0.16007 -0.1343,0.23695 m 98.8074,-0.24215 c 1.831,8.06816 1.318,13.4764 -0.7368,17.05069 0.2495,-0.21392 0.521,-0.42562 0.8114,-0.63397 1.5614,-1.12235 3.8395,-2.3435 6.6643,-3.51636 2.1014,-0.87351 4.5426,-1.7422 7.2556,-2.54553 -2.2685,-1.94647 -5.3659,-4.14253 -8.4622,-6.33746 -1.8886,-1.33925 -3.7771,-2.67924 -5.5323,-4.01737 z m 6.5989,18.71083 c 8.1514,-1.05922 11.0278,-2.39809 10.9023,-3.89629 -3.3288,0.90099 -6.2859,1.91601 -8.7475,2.9392 -0.7747,0.32237 -1.4937,0.64214 -2.1548,0.95709 z m 61.1218,-9.09804 c 5.49,-0.41188 8.4641,-1.74667 9.6938,-3.24153 l -0.01,-0.005 c 0.3517,-0.4297 0.4802,-0.81484 0.4304,-1.11493 l -0.01,-0.0527 m -0.6517,-0.83674 c -0.9831,-0.6856 -2.6574,-0.85607 -4.6595,-0.008 -2.2254,1.82131 -3.8068,3.59323 -4.7984,5.25967 m 73.956,-6.78425 c 2.0824,-0.93591 4.0983,-1.88223 6.0448,-2.83708 9.7435,-4.77649 17.7107,-9.70118 23.52,-14.31872 -0.1032,-2.71191 0.8895,-5.43424 2.9708,-8.11161 1.7374,-2.23394 4.3059,-4.44373 7.7001,-6.58519 -0.1957,-0.84937 -0.7431,-1.59588 -1.6423,-2.18973 -1.3675,-0.90212 -3.4677,-1.49153 -6.3178,-1.66236 -6.7575,-0.40519 -17.0778,1.60776 -31.0407,7.32203 -7.1327,4.60602 -11.1459,8.91085 -12.5335,12.81011 -1.1305,3.17839 -0.3862,6.17554 1.8971,8.89303 2.0405,2.42744 5.2386,4.67214 9.4015,6.67952 z m 8.3482,1.87108 -1.7348,0.8401 c 18.6065,6.51982 48.4557,9.10954 80.7696,5.41306 -20.1447,-2.27368 -34.8898,-5.98501 -44.2776,-10.46551 -5.9289,-2.8289 -9.9002,-6.05112 -11.9194,-9.50322 -5.9795,4.53955 -13.6881,9.2295 -22.8378,13.71557 z m 35.7637,-27.39438 c -1.5884,3.13939 -4.5648,6.6368 -8.76,10.29727 l 0.1315,0.28002 c 1.3351,2.68035 4.6227,5.34474 9.8835,7.85462 10.015,4.77946 26.5078,8.64641 49.5781,10.73105 7.5545,-6.08306 11.4709,-12.07216 12.6092,-17.52459 0.7937,-3.80344 0.2113,-7.364 -1.4328,-10.49931 -1.6951,-3.2341 -4.5314,-6.0682 -8.1696,-8.30956 -8.2865,-5.1037 -20.5637,-7.06503 -33.1855,-3.82982 l 0,0.004 c -8.1232,2.42 -14.6113,5.03424 -19.4573,7.72907 -0.237,1.06442 -0.6358,2.15855 -1.1982,3.2679 z m -978.37468,32.65135 c -1.4477,-0.10213 -2.53811,-1.35931 -2.43597,-2.80663 0.10213,-1.44769 1.35892,-2.53847 2.80661,-2.43634 1.61371,0.11699 3.20253,0.1623 4.75311,0.14113 -0.50621,-1.09784 -0.57566,-2.41815 -0.15153,-3.97726 l 0.006,0.002 0.0241,-0.084 c 1.75818,-5.71983 6.30813,-11.08982 11.13439,-14.07359 2.20125,-1.36005 4.49945,-2.26031 6.67432,-2.52437 2.45417,-0.296 4.76684,0.18607 6.69772,1.66013 1.88445,1.43804 3.28795,3.76779 3.92154,7.17236 0.22321,0.89691 0.29787,1.78232 0.23696,2.64136 -0.18941,2.63429 -1.60851,5.05541 -3.97614,7.12853 7.05462,-1.10007 15.11238,-2.94033 22.95251,-5.20063 9.84231,-2.83931 19.23931,-6.28399 25.70231,-9.68781 -4.18709,-0.66516 -7.0264,-2.25176 -8.47818,-4.07308 -1.06739,-1.3411 -1.49708,-2.84265 -1.29282,-4.33751 l 0.0171,-0.12293 c 0.23361,-1.4826 1.08224,-2.84265 2.5329,-3.90483 2.64656,-1.9383 7.77254,-2.98973 15.15548,-1.51603 l -9e-4,0.005 c 0.22766,0.0454 0.45273,0.12219 0.66963,0.23175 4.72078,2.38992 6.00284,5.4112 4.68179,8.79497 l 1.01502,-0.0601 c 4.79506,-0.28746 8.6505,-0.51994 10.3526,1.41502 1.79606,2.04229 1.01279,4.75012 -3.62444,8.82952 -0.20835,0.18421 -0.43898,0.32831 -0.68113,0.43489 -5.81751,2.94776 -8.55506,5.68494 -8.99813,7.91552 -0.39591,1.99514 1.71696,3.80493 5.31316,4.905 4.57148,1.39793 11.17413,1.51715 18.52885,-0.36842 9.49616,-2.43523 20.1132,-8.20409 29.1377,-18.84676 0.16081,-1.43283 0.37993,-2.85936 0.65365,-4.27956 -3.62889,0.30751 -7.38108,0.52329 -11.28146,0.63173 -1.44769,0.039 -2.65398,-1.10229 -2.69297,-2.54961 -0.039,-1.4477 1.10229,-2.65435 2.54961,-2.69335 4.41959,-0.12293 8.65088,-0.39034 12.73547,-0.77659 2.87942,-9.78586 8.38422,-19.26159 16.06835,-28.62184 0.59907,-0.82969 1.65716,-1.26534 2.7175,-1.02318 1.41389,0.3231 2.29706,1.73292 1.97395,3.14644 -2.20979,9.65513 -5.30313,17.94167 -8.9959,25.01412 2.69373,-0.4245 5.3373,-0.89803 7.94412,-1.41278 l 0.75912,-0.1519 c 0.18199,-2.42446 1.88632,-4.48347 4.51504,-6.18482 4.03446,-2.61201 10.66049,-4.23538 16.41821,-4.85115 5.21623,-0.5582 10.00312,-0.0969 12.24152,1.3021 0.38624,0.20241 0.72644,0.50325 0.97676,0.88652 0.0561,0.0798 0.10436,0.16119 0.14744,0.24549 l -0.004,0.002 0.004,0.008 c 1.05699,2.08426 0.0751,4.2636 -3.87624,6.27359 l -0.002,-0.004 c -0.15041,0.0769 -0.31159,0.14002 -0.48096,0.18756 -6.90495,1.9591 -13.66617,3.82869 -20.57336,5.46171 2.58268,0.81373 5.95047,1.48001 9.29822,2.14109 7.07579,1.39941 14.08177,2.78471 16.39481,6.46188 2.32456,3.69314 0.22729,8.35488 -10.0592,14.82641 l -0.16528,0.0958 c -3.60363,2.12028 -5.38298,3.591 -5.70275,4.51838 -0.059,0.1727 0.95672,-0.0735 2.42558,0.22209 3.1004,0.62431 7.83975,0.77176 13.52579,0.55783 8.67168,-0.32497 19.37005,-1.47592 29.79767,-3.05285 -1.79903,-1.1803 -2.59418,-2.58231 -2.58341,-4.12174 0.0297,-4.99636 10.62743,-10.84135 22.08382,-14.35845 11.25844,-3.45656 23.61991,-4.87009 27.57005,-1.14538 1.28837,1.21372 1.919,2.7316 1.71473,4.58783 1.98993,0.009 3.44282,0.23806 4.42405,0.63174 2.97709,1.19589 3.5223,3.22444 2.15073,5.73766 -0.69895,1.28206 -2.18973,2.65806 -4.23945,3.98246 -2.63504,1.70136 -6.45037,3.50373 -10.81091,4.9997 9.85679,0.89989 25.43045,0.18087 47.45559,-3.43205 -1.7266,-1.59291 -2.90578,-3.73214 -3.32991,-6.57033 -0.0148,-0.0728 -0.026,-0.14522 -0.0334,-0.22023 -0.33128,-2.82557 1.54574,-4.24764 4.61569,-4.61012 l 0,9e-4 0.0112,-9e-4 c 2.71823,-0.31977 6.95471,0.3454 10.52753,1.53386 4.11133,1.36673 7.58126,3.63446 7.93891,6.36643 0.10844,0.82747 -0.0419,1.64416 -0.51141,2.43078 2.31601,-0.10957 4.67845,-0.3168 6.96178,-0.54743 -0.27781,-0.65812 -0.53146,-1.3738 -0.7569,-2.15707 l 0.004,-0.002 -0.026,-0.10102 c -0.81483,-3.3236 1.11604,-5.28196 4.28069,-6.0578 1.43506,-0.3506 3.1899,-0.40408 4.96182,-0.17976 l 0,7.5e-4 c 1.72958,0.21912 3.51079,0.69933 5.05207,1.41203 3.28906,1.52123 5.67973,4.00363 5.3503,7.35026 3.16353,-0.5389 6.26504,-0.95151 9.0906,-0.33983 7.41043,0.25144 15.29995,-0.10324 22.83033,-0.83303 -0.61168,-1.91788 -0.15561,-3.86361 1.52866,-5.68604 2.26253,-2.44637 7.36214,-4.74382 15.95174,-6.19114 -1.38753,-4.94585 1.93607,-10.91192 12.68904,-18.09728 l 0,9e-4 c 12.40567,-8.90973 24.97178,-9.46125 33.46853,-5.78185 4.54252,1.96764 7.98089,5.15532 9.73089,8.97696 1.80832,3.95423 1.82652,8.51383 -0.5582,13.05969 -2.13478,4.07308 -6.29847,8.15062 -12.97724,11.69631 5.49217,0.48839 10.43505,0.77473 13.83107,0.97045 l 0.37697,0.0223 c 1.44769,0.0791 2.55593,1.31808 2.4772,2.76577 -0.0791,1.44733 -1.31808,2.55594 -2.76577,2.4772 l -0.37697,-0.0223 c -5.32171,-0.3064 -14.22476,-0.82115 -23.38073,-2.04861 -4.16889,1.40647 -8.93797,2.64767 -14.3566,3.66678 l -0.0297,0.007 c -13.47232,3.1561 -24.80429,1.94016 -30.60509,-0.8583 l -0.36768,-0.18309 c -9.03267,1.04956 -18.79179,1.61407 -27.83597,1.29394 -0.19387,-0.002 -0.38959,-0.0264 -0.58569,-0.0735 -2.1864,-0.52849 -5.33545,0.0241 -8.52609,0.58532 -5.34398,0.93888 -10.78899,1.89708 -14.71983,-0.79182 -6.6576,0.72645 -14.43756,1.52346 -20.81848,0.53704 -1.31696,0.27038 -2.77506,0.51587 -4.38356,0.72942 l -0.059,0.0115 c -32.26336,5.59133 -52.16079,5.27565 -61.3955,2.58787 -0.86943,-0.25254 -1.66347,-0.5337 -2.38138,-0.83824 -2.31081,0.33723 -4.62496,0.52664 -6.87338,0.52218 l -0.0112,0 c -3.83093,-0.0253 -7.13968,-0.19757 -9.97712,-0.49581 -13.86266,2.61313 -29.53845,4.64911 -41.41377,5.09553 -6.05446,0.22729 -11.20458,0.0505 -14.73877,-0.66108 -5.16608,-1.04028 -7.66,-3.28981 -6.35455,-7.06948 0.72311,-2.09058 3.24264,-4.52692 8.0054,-7.33244 l 0.0223,-0.0149 c 6.99781,-4.40249 9.04233,-6.59223 8.41468,-7.58942 -1.10119,-1.75075 -7.0019,-2.91804 -12.96277,-4.09722 -6.35529,-1.25717 -12.77298,-2.52659 -15.81023,-5.37965 l 9e-4,-9e-4 c -0.0716,-0.0672 -0.14001,-0.13889 -0.20426,-0.21577 l -1.39199,0.27892 c -3.98357,0.78624 -8.05999,1.47925 -12.27939,2.05084 -1.68873,2.68777 -3.46882,5.17016 -5.31948,7.45684 -0.66962,8.31774 0.77993,16.91588 4.65951,25.92664 0.57269,1.33367 -0.0442,2.88126 -1.37824,3.45396 -1.33368,0.57269 -2.88128,-0.0442 -3.45397,-1.37825 -3.2627,-7.57865 -4.95031,-14.9122 -5.21325,-22.06377 -8.80464,8.6494 -18.62058,13.59637 -27.53849,15.88304 -8.32962,2.13514 -15.95805,1.95613 -21.34587,0.30751 -6.3642,-1.94759 -9.94258,-5.94304 -8.9517,-10.93086 0.73796,-3.71097 4.31189,-7.77588 11.65508,-11.52584 1.68427,-1.26868 3.27087,-0.70528 2.8616,-1.17175 -0.01,-0.0104 -2.7227,0.15153 -6.09792,0.35394 -1.86663,0.11142 -3.89518,0.23361 -5.95753,0.26183 -6.69994,5.13452 -19.49112,10.33292 -32.91181,14.20508 -14.33247,4.13436 -29.57335,6.8641 -38.88495,6.43996 -4.59116,0.91067 -9.78659,1.26943 -15.19892,0.8791 z m 14.73579,-6.13469 c 0.60537,-0.1285 1.19886,-0.2674 1.77675,-0.41558 3.68385,-0.94966 6.76197,-2.30562 8.92348,-3.91115 1.80757,-1.34036 2.88759,-2.78583 2.9886,-4.19415 0.0245,-0.3454 -0.005,-0.6908 -0.0914,-1.02988 -0.023,-0.0884 -0.0401,-0.17567 -0.0538,-0.26406 -0.3725,-2.01816 -1.06849,-3.29723 -1.95798,-3.97652 -0.75059,-0.57343 -1.75929,-0.74836 -2.89316,-0.61168 -1.41167,0.17084 -2.97597,0.80146 -4.53509,1.76449 -3.83539,2.37209 -7.4431,6.5915 -8.8466,11.07014 l 0.005,7.4e-4 c -0.11253,0.41596 0.48986,0.77696 1.59737,1.07927 l 0.003,-0.01 c 0.875,0.23806 1.91082,0.40222 3.08479,0.49804 z m 70.54478,-20.6417 c 0.56861,-0.58309 1.00017,-1.15578 1.28243,-1.71287 0.37585,-0.74093 -0.0854,-1.55576 -1.65828,-2.41814 -5.56051,-1.05885 -9.07983,-0.50621 -10.67386,0.66034 -0.28634,0.20946 -0.4401,0.37993 -0.45681,0.49135 l -9e-4,0.006 c 0.003,0.0676 0.0735,0.19276 0.20724,0.36137 0.97194,1.21891 3.54792,2.2592 7.86426,2.41295 l 0.18533,0.0134 0,-0.003 c 1.04658,0.11365 2.14146,0.17047 3.25081,0.1883 z m 65.8214,-8.35784 c 1.49486,-2.74981 2.89427,-5.70387 4.17744,-8.87595 -1.64639,2.94144 -3.04469,5.89774 -4.17744,8.87595 z m 20.97967,-1.83692 c 5.98501,-1.38567 11.84561,-2.9574 17.77379,-4.61754 -0.9957,0.0832 -2.09911,0.18941 -3.26046,0.31383 -5.09218,0.54521 -10.8317,1.9034 -14.11631,4.02999 -0.13927,0.0896 -0.27186,0.18088 -0.39702,0.27372 z m 69.17323,28.7184 c 4.35867,-0.8074 8.50231,-1.66755 12.23631,-2.54887 0.24326,-0.79775 0.68968,-1.59588 1.33404,-2.38658 2.16969,-2.65918 7.25444,-5.30498 14.88621,-7.28081 m 3.76334,-0.579 c 0.22246,-0.54632 0.20353,-0.91066 -0.0149,-1.11604 -2.45305,-2.31415 -12.68793,-0.65179 -22.43033,2.33942 -9.54446,2.92955 -18.36654,6.91237 -18.38252,9.36209 -0.007,0.96451 2.45715,1.77303 8.60855,2.20979 m 35.2048,-7.84718 c -0.63583,0.90955 -1.41093,1.86848 -2.33087,2.88239 1.58733,-0.74316 2.98971,-1.50749 4.1403,-2.25214 0.39701,-0.25551 0.75281,-0.501 1.06329,-0.72941 -0.76618,-0.0274 -1.71806,0.004 -2.87272,0.0992 z m -6.35455,-4.46378 c 1.20517,-0.19795 2.32641,-0.35914 3.36965,-0.4843 m 53.78712,10.10229 c 3.68571,-0.60946 5.05541,-1.0529 5.01568,-1.35708 -0.058,-0.44827 -2.00257,-1.27796 -4.3806,-2.06866 -2.77951,-0.92551 -5.94527,-1.47369 -7.99277,-1.31584 0.96006,2.67588 3.71506,4.08681 7.35769,4.74158 z m 22.56923,-0.7855 c 2.69521,-0.28745 5.11967,-0.51029 7.11071,-0.51884 -0.39813,-0.44753 -1.00239,-0.84121 -1.69504,-1.16134 -1.07593,-0.49805 -2.3097,-0.83156 -3.50039,-0.98123 l -0.0112,-9e-4 0,9e-4 c -1.15466,-0.14521 -2.2421,-0.12516 -3.06882,0.0769 -0.16528,0.0401 -0.40519,-0.39144 -0.4219,-0.33351 0.3673,1.25569 0.90953,2.20756 1.58622,2.91804 z m 50.68784,-0.91697 c 7.34432,-0.91585 14.10182,-2.15297 19.42056,-3.47736 -1.78343,-0.87872 -3.32472,-1.85363 -4.55626,-2.93476 -8.77195,1.21594 -13.56108,3.05509 -15.29177,4.9258 -0.28115,0.30417 -0.38513,0.51995 -0.33351,0.63879 0.11661,0.26853 0.37362,0.55375 0.76098,0.84753 z m 25.56045,0.26852 c -3.12603,0.97899 -7.11368,1.95279 -11.65955,2.83744 4.2974,0.0241 9.28225,-0.49395 14.71351,-1.76671 0.0769,-0.0178 0.15376,-0.0304 0.23065,-0.0419 1.08854,-0.20427 2.14553,-0.41708 3.17615,-0.63806 -1.49412,-0.33797 -2.95221,-0.70342 -4.35645,-1.09933 -0.6581,0.23918 -1.36116,0.47613 -2.10431,0.70862 z m 6.21119,-10.08855 c 3.54569,1.58214 4.10464,3.52973 2.20236,5.6879 3.06995,0.63694 6.33449,1.16432 9.61725,1.60554 10.49076,-3.67086 16.35024,-8.35563 18.77173,-12.97428 1.56988,-2.99306 1.58325,-5.94082 0.43378,-8.45478 -1.21185,-2.64656 -3.69722,-4.89942 -7.03568,-6.34489 -7.05129,-3.05435 -17.67092,-2.45826 -28.40049,5.27639 l -0.0728,0.0505 9e-4,9e-4 c -9.39404,6.27656 -11.7795,10.50228 -10.10229,13.31855 7.73057,0.1727 12.38561,0.85272 14.58501,1.83395"
       style="fill:#000000;fill-opacity:1;fill-rule:nonzero;stroke:none"
       id="path2995" />
  </g>
</svg>
