<?xml version="1.0" encoding="UTF-8"?>
<svg xmlns:dc="http://purl.org/dc/elements/1.1/" xmlns:cc="http://creativecommons.org/ns#" xmlns:rdf="http://www.w3.org/1999/02/22-rdf-syntax-ns#" xmlns:svg="http://www.w3.org/2000/svg" xmlns="http://www.w3.org/2000/svg" version="1.1" viewBox="0 0 140.33634 178.65346" height="178.65346mm" width="140.33633mm">
  <path d="M 59.237055,5.0631629e-4 C 58.847056,0.01229245 58.18605,0.22980091 57.3643,0.6702329 c -0.72403,0.3880559 -1.705756,0.7053833 -2.181263,0.7053833 -0.475501,0 -1.627113,0.4110756 -2.559015,0.9131225 -1.393667,0.7508187 -2.01525,0.8812009 -3.503147,0.7353556 C 48.12597,2.9265745 46.980536,2.64 46.575295,2.386924 45.922753,1.979404 45.717322,2.0423978 44.780573,2.9398619 44.198831,3.4972019 43.808592,4.092094 43.913441,4.2617451 44.130912,4.613614 42.758479,7.6110865 42.230341,7.9374898 42.038728,8.0559067 41.513784,7.8065827 41.064003,7.3840351 L 40.246482,6.6161233 39.679075,7.425893 c -0.705921,1.0078482 -0.715237,1.5021061 -0.03824,2.0639567 0.801399,0.6651043 0.635085,2.0295603 -0.352435,2.8881963 -1.063377,0.924597 -1.100601,1.537651 -0.176731,2.932637 0.903671,1.364504 0.886269,1.642538 -0.176218,2.788977 -1.065668,1.149871 -1.084504,1.428092 -0.176218,2.582789 0.388056,0.493332 0.705384,1.261027 0.705384,1.705839 0,0.817954 -0.01482,0.826664 -5.288049,3.271634 -3.452959,1.600986 -7.22235,7.435654 -8.241875,12.757362 -2.067632,10.792613 -1.46424,29.411917 0.792716,24.458457 1.104172,-2.423369 3.644138,-5.676228 5.069459,-6.492629 1.338511,-0.766662 1.897996,-0.854361 5.374865,-0.841291 3.573923,0.01339 4.074935,0.102069 6.345351,1.121378 1.355868,0.608722 2.545665,1.026727 2.643765,0.928625 0.0981,-0.0981 -0.337834,-0.60274 -0.968934,-1.121379 -0.631094,-0.518649 -1.146016,-1.072851 -1.144113,-1.231447 0.0051,-0.46278 1.499999,0.135403 2.648931,1.059881 4.762254,3.831942 5.028232,3.990972 6.678663,3.990972 1.443765,0 1.611273,0.08384 1.611273,0.807186 0,0.52238 0.548743,1.265682 1.554427,2.106332 1.523339,1.27335 1.575689,1.288333 2.645833,0.754475 1.223005,-0.610121 1.332236,-0.912286 0.56224,-1.551326 -0.763209,-0.63341 -0.679209,-0.919088 0.79375,-2.69906 1.477809,-1.785818 5.403374,-3.973044 8.398452,-4.679302 3.99424,-0.941861 9.780178,1.10407 13.019879,4.603338 1.040199,1.12354 1.997856,2.527514 2.128036,3.120223 0.328139,1.49402 2.324518,3.535183 3.45767,3.535183 0.990606,0 2.118964,0.907836 1.91461,1.540476 -0.0711,0.220009 -0.793173,0.613719 -1.604552,0.874881 -1.532711,0.493319 -1.798961,0.766369 -4.629693,4.7594 -1.973178,2.783393 -3.542766,3.967493 -6.465755,4.877223 -2.10824,0.656159 -5.870353,0.848027 -8.056354,0.410827 -1.738133,-0.347621 -4.296254,-3.143748 -7.323585,-8.005197 -2.814727,-4.520031 -3.853415,-5.371576 -6.025473,-4.937167 -2.167615,0.433533 -3.770542,2.415474 -5.665287,7.005775 -1.324213,3.208099 -2.077786,4.545002 -3.111437,5.51956 -1.313582,1.238491 -1.488122,1.295313 -4.723744,1.537891 -5.783471,0.43361 -8.105873,-0.32662 -11.486637,-3.759978 -1.218919,-1.237882 -2.635729,-2.962423 -3.148645,-3.832323 -1.12055,-1.900449 -1.461341,-2.171623 -2.441712,-1.942002 -0.441401,0.103381 -1.119216,-0.113289 -1.643311,-0.52555 C 22.285561,69.142246 21.12,68.862468 21.12,69.327026 c 0,0.119901 0.497994,0.785027 1.106393,1.477947 l 1.105875,1.259871 -0.237711,4.279842 c -0.270476,4.868112 -0.563737,6.302603 -1.3193,6.448185 -0.619107,0.11929 -1.11836,-0.866659 -2.280997,-4.50722 -1.136292,-3.558058 -1.169541,-7.196701 -0.07648,-8.360212 l 0.766878,-0.816488 h -1.387512 c -1.72456,0 -2.195095,0.658207 -2.490288,3.482475 -0.25858,2.473963 0.358451,4.623314 2.443262,8.512141 0.78014,1.455222 1.631307,3.042883 1.891874,3.527952 0.260556,0.485071 0.47464,1.324723 0.47594,1.866034 0.0011,0.541304 0.301424,1.573017 0.667143,2.292885 0.705233,1.388171 1.353136,3.684283 2.397787,8.497673 0.738122,3.401019 1.472253,4.253469 3.045291,3.536729 0.496528,-0.22619 1.146106,-0.31786 1.443839,-0.2036 0.539509,0.20702 2.30977,3.73073 3.220993,6.41149 0.26381,0.77613 0.951513,2.68111 1.52859,4.23334 0.577078,1.55223 1.303303,3.50866 1.613337,4.34754 0.310036,0.83888 0.97945,2.34604 1.487765,3.34915 1.654191,3.26438 2.112611,5.64029 1.894975,9.82162 -0.145841,2.80201 -0.345093,3.92514 -0.781865,4.40955 -0.322328,0.35749 -0.813988,1.31305 -1.092441,2.12339 -0.681873,1.98438 -2.392031,4.07102 -4.410064,5.38106 -0.915548,0.59434 -2.891118,1.93331 -4.39043,2.97553 -2.007915,1.39574 -3.16991,1.95469 -4.410068,2.12132 -0.926036,0.12441 -2.999886,0.85972 -4.609021,1.63401 -1.60915,0.77429 -3.196808,1.40928 -3.52795,1.41128 -0.33114,0.002 -1.451341,0.39842 -2.489254,0.8816 -1.037914,0.48317 -2.115479,0.8785 -2.394686,0.8785 -1.1707629,0 -9.38491381,3.68205 -9.8717489,4.42505 -0.42251811,0.64486 -0.49229011,2.69378 -0.40979414,12.02304 l 0.09973554,11.24531 1.5874999,-0.0475 c 0.8731251,-0.0262 4.4724636,-0.075 7.9989952,-0.10852 4.4900534,-0.0427 6.5066734,-0.18706 6.7272384,-0.48163 0.173234,-0.23136 0.486029,-1.01048 0.695048,-1.73116 0.302212,-1.04202 0.278823,-1.39385 -0.112655,-1.71876 -0.643953,-0.53442 -0.624167,-0.9992 0.05374,-1.25935 0.315412,-0.12103 0.747835,0.0658 1.023193,0.44235 0.421055,0.57583 0.580282,0.59631 1.364258,0.17673 0.949352,-0.50808 1.457507,-1.65966 0.887801,-2.01176 -0.830141,-0.51305 -2.610462,-0.36497 -3.220475,0.26768 -0.485421,0.50344 -0.790362,0.57408 -1.299146,0.3018 -1.183113,-0.63318 -1.235286,-1.7104 -0.124023,-2.56936 0.549267,-0.42455 1.355128,-1.17204 1.790588,-1.66088 0.435456,-0.48883 1.507015,-1.65005 2.38125,-2.58072 0.874228,-0.93067 1.589567,-1.92301 1.589567,-2.20503 0,-0.28201 0.317327,-0.51263 0.705384,-0.51263 0.391975,0 0.7059,-0.23518 0.7059,-0.52917 0,-0.32926 -0.33335,-0.52917 -0.882117,-0.52917 -0.630145,2e-5 -0.882117,-0.19051 -0.882117,-0.66766 0,-0.36729 0.238125,-0.75906 0.529167,-0.87074 0.291042,-0.11168 0.529167,-0.50932 0.529167,-0.88367 0,-0.37434 0.395239,-1.37198 0.877982,-2.2164 0.482732,-0.84444 0.8792,-1.80825 0.8816,-2.14199 0.0025,-0.33374 0.489512,-0.9649 1.082105,-1.40302 0.95033,-0.70261 1.585687,-1.50893 4.114993,-5.2219 0.330433,-0.48507 1.043212,-1.40336 1.584402,-2.0407 0.541184,-0.63734 0.983919,-1.36093 0.983919,-1.60766 0,-0.5879 3.481292,-5.52421 3.895887,-5.52421 0.175836,0 0.565605,-0.47624 0.866613,-1.05833 0.301006,-0.58208 0.778553,-1.05833 1.060916,-1.05833 0.753189,0 0.997087,1.46479 0.752925,4.52375 -0.611341,7.65916 -0.671775,11.08128 -0.22841,12.92944 0.395666,1.64933 0.371613,2.30937 -0.18035,5.01159 -0.710052,3.47618 -0.916477,3.99356 -2.297018,5.75778 -2.261261,2.88972 -3.585929,5.90534 -3.919656,8.92297 -0.176086,1.59221 -0.406789,3.17349 -0.512631,3.514 -0.332713,1.07034 0.860245,1.15234 1.924947,0.13229 0.532609,-0.51028 1.152602,-0.92759 1.377694,-0.92759 0.603768,0 1.355775,-1.51556 0.837676,-1.68827 -1.244603,-0.41487 0.221652,-3.93317 2.75177,-6.60218 0.960567,-1.0133 1.947079,-2.51465 2.317686,-3.52795 0.598006,-1.63503 2.127748,-3.76714 4.493266,-6.26267 0.533577,-0.56291 0.969968,-1.35299 0.969968,-1.75596 0,-1.22796 3.045269,-6.41186 5.071009,-8.63203 0.990042,-1.08508 1.069107,-1.10854 2.036567,-0.60824 0.553514,0.28624 1.006142,0.64599 1.006142,0.79944 0,0.15346 1.111422,1.67549 2.469615,3.38222 1.358196,1.70673 2.469616,3.21765 2.469616,3.35794 0,0.47555 -2.903752,2.86481 -4.077788,3.35535 -1.315251,0.54955 -2.272212,2.10276 -2.272212,3.68711 0,1.41024 -1.242695,2.56717 -2.608625,2.42879 -0.820423,-0.0831 -1.116592,-0.35549 -1.45831,-1.33945 -1.085786,-3.12645 -1.611384,-4.07391 -1.938382,-3.49539 -0.209608,0.37082 -0.06732,1.29206 0.419095,2.71663 0.404804,1.18555 0.639095,2.4083 0.520382,2.71766 -0.118713,0.30936 -0.762881,0.7914 -1.431438,1.07074 -1.866416,0.77984 -1.792581,1.14915 0.219625,1.09605 l 1.828829,-0.0486 0.609783,1.5875 c 0.764728,1.99036 2.070878,7.70526 1.97249,8.631 -0.112398,1.05754 1.150855,1.1841 10.156486,1.01544 4.462638,-0.0836 16.368883,-0.14601 26.458334,-0.13901 10.089439,0.007 26.016477,0.0283 35.393197,0.047 9.37672,0.0187 17.15565,-0.0725 17.28628,-0.20308 0.3126,-0.31243 0.55258,-29.138 0.2558,-30.7201 -0.24642,-1.31342 -1.72668,-2.4977 -4.33049,-3.46438 -6.65335,-2.47008 -15.38285,-6.4499 -18.4459,-8.40931 -2.15532,-1.37875 -4.34629,-3.6071 -5.85649,-5.95674 -0.54669,-0.85057 -1.56111,-2.26104 -2.25413,-3.13418 -0.69303,-0.87312 -2.11493,-2.85733 -3.16001,-4.40955 -1.04507,-1.55222 -2.55347,-3.53694 -3.35173,-4.41006 -2.27764,-2.49119 -2.54757,-3.45747 -1.80816,-6.47661 0.33931,-1.38534 1.00575,-4.34451 1.48104,-6.57583 0.89223,-4.18868 2.13901,-7.76128 2.70837,-7.761283 0.17881,0 0.7965,0.396992 1.37304,0.882119 1.48824,1.252275 2.53426,1.415743 4.42815,0.692464 2.19476,-0.838192 4.32199,-2.86748 6.01359,-5.737119 1.66131,-2.81827 2.06025,-4.046966 2.35283,-7.248136 0.12136,-1.328071 0.46673,-3.074141 0.76791,-3.880382 0.69787,-1.86813 1.85237,-7.437009 1.87637,-9.050613 0.0218,-1.463281 -1.70346,-5.282554 -2.94917,-6.528282 -0.75902,-0.758999 -1.19779,-0.880051 -3.19154,-0.880051 -2.02584,0 -2.40628,0.109148 -3.07837,0.882118 -0.42177,0.485071 -0.95171,0.881599 -1.1777,0.881599 -0.22598,0 -0.69836,0.317852 -1.04955,0.705901 -0.79553,0.879065 -1.63523,0.886957 -3.88038,0.03721 -2.35483,-0.891288 -2.53379,-1.813816 -0.50643,-2.610175 1.39371,-0.547481 1.53601,-0.541271 2.8391,0.123507 l 1.37149,0.699699 V 65.12676 c 0,-1.188889 -0.68928,-1.927391 -2.28048,-2.443263 -1.89352,-0.613881 -2.20668,-1.919718 -1.47846,-6.163447 0.31289,-1.823321 0.3977,-3.158234 0.20567,-3.227192 -0.4908,-0.176239 -0.39403,-1.327764 0.14935,-1.778704 0.51965,-0.431292 0.29061,-2.728844 -0.48835,-4.898925 -0.48844,-1.360707 -0.25388,-2.198084 0.61805,-2.206585 0.60383,-0.0059 2.21589,-1.412348 2.21589,-1.933215 0,-0.138671 -0.39706,-0.723704 -0.88212,-1.300179 -1.46635,-1.742657 -1.15713,-1.980993 1.49965,-1.157552 0.75555,0.234188 0.79375,0.154292 0.79375,-1.660882 0,-1.184537 -0.25678,-2.410346 -0.67799,-3.236494 -0.3729,-0.731449 -0.7892,-1.995321 -0.92501,-2.808613 -0.26593,-1.592636 -1.68327,-3.175085 -4.74131,-5.293218 -1.49796,-1.037539 -1.53712,-1.10608 -0.73898,-1.294495 1.42123,-0.335506 1.71838,-1.232373 0.90951,-2.744535 -0.55449,-1.036614 -1.30443,-1.623996 -3.50315,-2.744535 -2.67492,-1.363225 -3.696693,-2.278414 -2.544031,-2.278414 0.29576,0 0.635591,0.158406 0.75551,0.352433 0.29291,0.473938 3.601111,0.45248 3.896401,-0.02532 0.3836,-0.620668 -3.537597,-4.025377 -6.281268,-5.453931 C 95.470976,12.098353 93.92469,11.230681 93.439619,10.901651 92.3424,10.157391 87.731321,8.5700162 85.89951,8.3059435 83.70637,7.9897691 83.192195,7.2898072 83.432995,4.9464585 83.606784,3.2552555 83.52381,2.8205364 82.86817,1.9931504 82.44539,1.4595734 81.847746,1.0231837 81.540086,1.0231837 c -0.30767,0 -1.941152,0.6365398 -3.629752,1.4143839 L 74.840238,3.851434 72.057462,3.4772968 C 70.526802,3.2713507 68.242461,3.1191369 66.981285,3.1393328 65.567396,3.1619732 63.741433,2.891069 62.218785,2.4329159 58.505823,1.3157157 58.694177,1.4079303 59.16109,0.94101741 59.791542,0.3105714 59.73848,-0.01464637 59.237055,5.0631629e-4 Z M 56.360743,2.1921038 c 0.273553,-0.00978 0.443746,0.1913311 0.792202,0.6444052 0.352145,0.4578821 0.639069,0.91171 0.63717,1.008724 -0.01114,0.5817129 -1.142376,1.4787041 -2.443779,1.9378663 -1.885456,0.6652292 -2.123385,0.6637023 -2.123385,-0.014986 0,-1.0442279 1.07669,-2.6198421 2.180228,-3.1905031 0.469762,-0.242924 0.744802,-0.3779059 0.957564,-0.3855064 z M 46.106072,12.958372 c 0.497015,0.02316 0.643284,0.621207 0.201538,1.678451 -0.277801,0.664954 -0.405434,1.605306 -0.283702,2.090311 l 0.221173,0.882117 1.437122,-1.394747 c 1.537793,-1.492583 2.012799,-1.538543 2.012799,-0.194303 0,0.692904 0.535252,2.368025 0.944645,2.956408 0.05287,0.07599 0.407278,-0.241847 0.787548,-0.7059 0.591267,-0.721527 0.79362,-0.781595 1.39578,-0.414961 0.618861,0.376814 0.824521,0.278967 1.698604,-0.80822 0.982017,-1.221433 1.019752,-1.233747 3.004468,-0.999422 1.631358,0.192609 2.030109,0.368268 2.116667,0.933793 0.07107,0.464381 0.695142,0.931834 1.870686,1.401465 2.067865,0.826102 3.049966,0.845149 4.216797,0.08061 0.648655,-0.425011 1.018863,-0.467846 1.557012,-0.179834 0.388311,0.207817 1.014593,0.377755 1.391648,0.377755 0.377058,0 0.89376,0.250953 1.148249,0.557589 0.295299,0.355811 0.789268,0.490854 1.365808,0.37362 0.496869,-0.101034 1.435701,0.0036 2.085661,0.232027 1.119431,0.393423 1.171961,0.487484 0.997873,1.785421 -0.101081,0.753618 -0.315627,1.491581 -0.476459,1.64021 -0.548288,0.506678 -4.167799,0.544109 -6.289538,0.06511 -1.164166,-0.262816 -2.602407,-0.516123 -3.196187,-0.563274 -0.593784,-0.04715 -1.298673,-0.221132 -1.566313,-0.386539 -0.267639,-0.16541 -1.210651,-0.330406 -2.095479,-0.366386 -0.884827,-0.03598 -3.275562,-0.180616 -5.312854,-0.321427 -2.572383,-0.177793 -4.027535,-0.128737 -4.7625,0.160196 -1.653294,0.649951 -4.933993,1.023644 -6.294708,0.716753 -0.722587,-0.162971 -1.376659,-0.137974 -1.575096,0.06046 -0.737426,0.737426 -1.893843,0.125777 -2.364714,-1.25057 -0.419661,-1.226661 -0.399047,-1.418414 0.221176,-2.038635 0.376494,-0.376494 0.957816,-1.417308 1.29191,-2.313037 0.334098,-0.895728 0.906346,-1.803987 1.271757,-2.018482 0.365408,-0.214479 1.033243,-0.747347 1.48363,-1.183907 0.559271,-0.542102 1.043773,-0.815 1.391129,-0.84956 0.03618,-0.0036 0.07074,-0.0047 0.10387,-0.0031 z m 42.944667,3.586861 c 0.302493,0 0.451684,0.158924 0.331764,0.35295 -0.119914,0.19403 -0.367268,0.352434 -0.549838,0.352434 -0.182581,0 -0.331764,-0.158404 -0.331764,-0.352434 0,-0.194026 0.247338,-0.35295 0.549838,-0.35295 z m -0.258381,4.610572 c 1.023062,-0.02105 2.147168,0.143198 3.235979,0.486275 l 1.5875,0.500228 -2.292885,-0.02635 c -1.261179,-0.01457 -2.928046,-0.125107 -3.704167,-0.24598 -1.27925,-0.199228 -1.328705,-0.243649 -0.529166,-0.47439 0.511598,-0.147638 1.0889,-0.227158 1.702739,-0.239778 z m 6.279719,1.14825 c 0.195082,0.0072 0.444958,0.03723 0.748792,0.09198 1.37595,0.247928 2.205032,0.717158 2.205032,1.247986 0,0.455149 -1.075005,0.294177 -2.374014,-0.355534 -1.148159,-0.574262 -1.390684,-0.953449 -0.756544,-0.983919 0.05285,-0.0025 0.111707,-0.0029 0.176734,-5.29e-4 z M 76.719193,57.232157 c -0.497782,-0.01061 -0.971617,0.132575 -1.424721,0.429432 -1.173678,0.76903 -1.142098,1.108808 0.129191,1.388028 0.568679,0.124912 1.216612,0.447323 1.440222,0.716751 0.32675,0.393721 0.146579,0.614423 -0.91984,1.123963 -0.729779,0.348689 -1.388583,0.824569 -1.463992,1.057299 -0.0754,0.23273 0.706855,0.846897 1.738394,1.364776 2.70736,1.359221 2.789095,1.449766 2.316655,2.560566 -0.75557,1.77649 -1.359522,2.219135 -2.871142,2.106333 -1.266171,-0.0945 -1.480994,-0.255114 -2.134753,-1.594734 -0.776725,-1.591562 -1.411047,-1.770079 -2.177646,-0.6134 -0.4201,0.633892 -0.366961,0.87312 0.449067,2.020031 0.781722,1.098669 0.853908,1.387409 0.463539,1.857769 -1.38522,1.66909 -3.377551,1.453663 -3.72587,-0.403077 -0.1241,-0.661479 -0.36644,-1.289979 -0.53847,-1.396296 -0.17204,-0.106344 -0.313158,-1.34679 -0.313158,-2.75694 0,-2.5288 0.02072,-2.58662 1.513602,-4.212662 0.832469,-0.90674 1.794714,-1.648478 2.137855,-1.648478 0.343148,0 0.525579,-0.158909 0.405659,-0.352952 -0.119909,-0.194029 -0.665459,-0.352949 -1.212329,-0.352949 -0.54688,0 -1.189757,-0.234979 -1.428337,-0.522448 -0.383199,-0.46173 -0.520573,-0.46173 -1.179772,0 -0.41043,0.287469 -1.009915,0.522448 -1.332219,0.522448 -0.61699,0 -2.776549,2.194693 -3.511932,3.568775 -2.577756,4.816578 -0.838271,11.249811 3.820957,14.129372 3.000722,1.854546 7.400404,2.053566 10.864453,0.491958 3.74363,-1.687642 5.797064,-5.141407 5.797064,-9.750309 0,-2.948199 -0.913839,-5.126416 -2.29702,-5.473568 -0.64112,-0.160909 -0.87798,-0.456869 -0.87798,-1.098642 0,-1.080347 -1.740985,-2.787026 -3.161565,-3.099036 -0.171294,-0.03762 -0.339987,-0.05851 -0.505912,-0.06201 z m -42.737962,1.2392 -1.72651,1.173572 c -3.736538,2.540061 -5.013759,7.347281 -3.209107,12.076783 1.071269,2.807499 1.829112,3.878188 3.59668,5.079277 1.696707,1.152941 2.685375,1.414159 5.485971,1.450041 1.616321,0.02069 3.01647,-0.210293 4.410067,-0.727604 1.250138,-0.46406 2.613576,-1.325536 3.51658,-2.222087 1.40072,-1.39069 2.230565,-3.13345 1.730645,-3.63337 -0.126667,-0.126669 -1.534628,-0.265006 -3.129007,-0.307475 -1.594382,-0.0425 -3.494363,-0.190402 -4.221965,-0.328662 -0.896998,-0.17045 -1.322916,-0.122698 -1.322916,0.147793 0,0.22266 -0.559663,0.398942 -1.26659,0.398942 -1.061188,0 -1.547175,-0.291256 -2.998269,-1.796788 -1.840815,-1.909869 -2.045023,-2.539037 -1.209744,-3.731557 0.461727,-0.659209 0.461727,-0.79657 0,-1.179772 -0.724741,-0.60148 -0.670766,-0.854519 0.535885,-2.520259 1.22955,-1.697339 1.280514,-2.060848 0.433564,-3.106788 z m 8.807215,0.05426 c -0.724152,0 -1.065948,1.060477 -0.464572,1.441257 0.270809,0.171479 1.082509,0.314294 1.804025,0.317291 0.964671,0.004 1.262904,-0.121946 1.127064,-0.475937 -0.204033,-0.531691 -1.647949,-1.282611 -2.466517,-1.282611 z m 30.366621,0 c -0.291039,0 -0.529167,0.15416 -0.529167,0.342099 0,0.187933 0.238128,0.250185 0.529167,0.138493 0.291052,-0.11168 0.529167,-0.265332 0.529167,-0.341582 0,-0.0763 -0.238115,-0.13901 -0.529167,-0.13901 z m 5.203301,1.416453 c 0.339551,-0.003 0.617533,0.153752 0.617533,0.347781 0,0.430252 -0.04014,0.430252 -0.705898,0 -0.452226,-0.292251 -0.439235,-0.343183 0.08836,-0.347781 z m 7.621242,2.988963 c 0.05836,1.1e-5 0.125095,0.01344 0.200503,0.04238 0.603399,0.231532 0.990854,1.104334 0.597898,1.347203 -0.154504,0.0955 -0.46531,-0.0105 -0.690399,-0.235643 -0.502861,-0.502854 -0.516535,-1.15406 -0.108002,-1.153936 z M 38.073489,65.63526 c -0.190188,-0.0048 -0.373613,0.156943 -0.692981,0.445969 -1.457357,1.318889 -0.640533,2.643058 1.643308,2.664436 0.783357,0.007 1.146186,-0.155408 1.146186,-0.513146 0,-0.287991 -0.461603,-1.039786 -1.025779,-1.671217 -0.570643,-0.638657 -0.826209,-0.91994 -1.070734,-0.926042 z M 21.9985,65.94377 c -0.278069,0.0031 -0.55625,0.107426 -0.682129,0.311091 -0.109101,0.17652 -0.09886,0.580692 0.02274,0.897621 0.203613,0.5306 0.272995,0.529185 0.874882,-0.01551 0.359511,-0.325353 0.568463,-0.729006 0.464571,-0.897104 -0.12414,-0.200859 -0.401993,-0.299207 -0.680062,-0.296106 z m 69.126015,1.469678 c 0.467637,0.007 0.948584,0.327239 0.815969,0.725535 -0.19635,0.589751 -1.194654,0.757547 -1.506365,0.253217 -0.137012,-0.221678 -0.08299,-0.569156 0.119888,-0.772046 0.148156,-0.148156 0.357944,-0.209907 0.570508,-0.206706 z m 26.559105,2.435511 c 0.0385,0.005 0.0827,0.01633 0.13229,0.03255 0.27199,0.0888 0.70961,0.602824 0.97255,1.142566 0.61657,1.265608 0.2447,5.493206 -0.48317,5.493206 -0.35704,0 -0.46394,-0.558292 -0.42323,-2.205033 0.0299,-1.21268 -0.0842,-2.742178 -0.25322,-3.398761 -0.21597,-0.838713 -0.21491,-1.099364 0.0548,-1.064532 z m -6.72052,8.884211 c 0.46914,0.02537 1.17357,0.892789 1.17357,1.555462 0,0.477221 -1.11297,0.641964 -1.52859,0.226343 -0.37788,-0.377891 -0.27092,-1.464728 0.17105,-1.737879 0.0547,-0.03379 0.11697,-0.04753 0.18397,-0.04393 z m -86.264506,2.12907 c 0.421651,-0.02828 0.861214,0.29599 1.190107,1.083139 0.760156,1.819309 1.713346,6.419344 1.464511,7.067785 -0.223295,0.581901 -1.191398,0.731062 -1.861386,0.286803 -0.609391,-0.404071 -1.921147,-3.631761 -2.112015,-5.197099 -0.225443,-1.848879 0.513807,-3.18665 1.318783,-3.240628 z m 24.466207,5.605341 c 0.900679,-0.04796 1.941483,0.744691 1.941483,1.769401 0,0.826778 -2.280237,1.404298 -2.939872,0.74466 -0.38331,-0.383302 -0.268219,-1.707375 0.188102,-2.163694 0.225373,-0.225375 0.510062,-0.334386 0.810287,-0.350367 z m 9.318294,0.03359 c 1.121112,-0.0028 3.018775,0.746646 3.141412,1.393195 0.09566,0.504341 -0.130107,0.611862 -1.231966,0.589111 -0.741831,-0.01529 -1.793016,-0.189982 -2.336293,-0.388088 -1.035391,-0.377571 -1.103606,-0.888357 -0.194304,-1.461926 0.144663,-0.09125 0.362434,-0.131766 0.621151,-0.132292 z m -6.56549,11.554333 c 0.634741,0.02397 1.512166,0.267986 2.538347,0.721918 1.116182,0.493779 2.033347,0.669544 2.74815,0.526585 0.690946,-0.138192 1.271871,-0.03749 1.632461,0.28267 0.307943,0.273421 1.432952,0.586953 2.500106,0.697113 2.715972,0.28039 6.680679,0.56283 7.9375,0.56483 1.683629,0.003 2.645834,0.33406 2.645834,0.91002 0,0.84047 -0.938964,0.98813 -2.446364,0.38499 -2.231539,-0.89289 -5.54922,-1.06298 -7.784021,-0.39946 -1.067152,0.31683 -2.257777,0.57509 -2.645833,0.57309 -0.388057,-0.001 -3.15055,0.16994 -6.139162,0.38137 -4.479015,0.31688 -5.548313,0.49902 -6.085417,1.03612 -0.495707,0.49569 -1.183471,0.65163 -2.874243,0.65163 -1.258242,0 -2.406166,-0.18356 -2.645833,-0.42323 -0.64797,-0.64797 -0.516372,-1.16657 0.599964,-2.36161 0.818269,-0.87596 1.309552,-1.09554 2.448946,-1.09554 0.783831,0 1.534097,-0.17672 1.6676,-0.39274 0.40635,-0.657491 3.302471,-1.779152 4.012158,-1.553912 0.366466,0.116321 0.768688,0.04641 0.893484,-0.155546 0.155829,-0.25213 0.502635,-0.366948 0.996323,-0.348298 z m -0.589629,9.527066 c 0.508431,-0.009 1.182063,0.0229 2.103231,0.0878 1.669365,0.11781 3.238257,0.38299 3.486608,0.58911 0.248354,0.20615 0.98693,0.33156 1.641245,0.27906 0.996945,-0.08 1.20791,0.0321 1.301729,0.69091 0.187208,1.31467 -1.316731,2.47323 -3.503663,2.69854 -3.100856,0.31952 -5.372894,0.42364 -6.263701,0.28733 -1.886254,-0.28866 -3.250496,-3.24642 -1.632974,-3.54036 0.388054,-0.0705 0.98207,-0.37342 1.320332,-0.67334 0.311097,-0.27584 0.699807,-0.4041 1.547193,-0.4191 z m 2.874243,20.86333 c 0.22905,0.001 0.489088,0.006 0.78445,0.0114 2.147988,0.0398 2.469616,0.13029 2.469616,0.69608 0,0.95614 1.686118,1.51838 2.458249,0.81959 0.837499,-0.75791 1.180933,-0.6731 1.686718,0.416 0.812668,1.74988 0.573898,2.73159 -0.827341,3.39979 -0.893374,0.42604 -1.20581,0.76764 -1.056783,1.156 0.139679,0.364 -0.03144,0.61506 -0.503327,0.73845 -0.601377,0.15728 -0.679477,0.3759 -0.491443,1.37822 0.215006,1.14605 0.181899,1.19165 -0.87385,1.19165 -0.723101,0 -1.097608,-0.17444 -1.097608,-0.51108 0.344924,-0.52674 -0.934048,-0.94701 -1.058333,-1.56424 0,-0.17139 -0.317844,-0.39462 -0.705898,-0.4961 -0.495935,-0.12969 -0.706067,-0.48291 -0.707969,-1.18804 -0.0021,-0.79926 -0.289164,-1.16632 -1.411283,-1.80712 -1.493073,-0.85264 -1.743107,-1.47705 -0.879017,-2.19418 0.291044,-0.24154 0.529167,-0.80849 0.529167,-1.25988 0,-0.6871 0.08131,-0.79871 1.684652,-0.78651 z m -10.052616,7.13651 c 0.133588,-0.0179 0.362709,0.0677 0.695047,0.28733 0.862729,0.57015 2.226066,2.65684 1.929598,2.9533 -0.100809,0.10081 -0.755158,-0.38825 -1.453658,-1.08675 -1.112856,-1.11285 -1.571749,-2.10028 -1.170987,-2.15388 z m 13.574366,6.71691 c 0.664586,0.008 1.143598,0.19881 1.143598,0.53071 0,0.30646 -3.664035,2.489 -4.139798,2.466 -0.148458,-0.007 -0.861245,-0.44357 -1.583883,-0.96996 -1.887628,-1.37502 -1.76429,-1.9876 0.344164,-1.70791 0.921917,0.1223 2.227782,0.0642 2.902149,-0.12919 0.469273,-0.13455 0.935019,-0.19465 1.33377,-0.18965 z m 33.00212,5.15162 c 0.02655,0.004 0.04981,0.0157 0.06873,0.0346 0.319826,0.31985 -0.90904,2.89649 -1.863971,3.90881 -0.763739,0.80961 -1.492729,1.24244 -1.486731,0.88212 7.94e-4,-0.0485 0.37519,-0.8247 0.83199,-1.72496 0.834218,-1.64409 2.051773,-3.16599 2.449981,-3.10059 z m -37.885543,18.07487 c 0.273966,0.0271 0.431372,0.17934 0.65164,0.47439 0.487055,0.65242 0.47103,0.9207 -0.269751,4.52427 -0.36199,1.7609 -1.064382,2.88266 -1.519804,2.42724 -0.133974,-0.13398 -0.243398,-0.65112 -0.243398,-1.14928 0,-0.49816 -0.423918,-1.71562 -0.942059,-2.70527 -0.518139,-0.98962 -0.852477,-2.03338 -0.74259,-2.31975 0.109889,-0.28636 0.882097,-0.72488 1.715656,-0.97462 0.686041,-0.20559 1.076341,-0.30408 1.350306,-0.27698 z m 23.175847,7.4414 c 0.12174,0.004 0.229989,0.0766 0.31936,0.22118 0.289999,0.46923 -0.45484,1.40146 -1.119828,1.40146 -0.384302,0 -0.414329,-0.15735 -0.131259,-0.68626 0.332036,-0.62041 0.663897,-0.94438 0.931727,-0.93638 z" style="opacity:1;vector-effect:none;fill:#999999;fill-opacity:1;fill-rule:evenodd;stroke:none;stroke-width:0.5;stroke-linecap:butt;stroke-linejoin:miter;stroke-miterlimit:4;stroke-dasharray:none;stroke-dashoffset:0;stroke-opacity:1;paint-order:fill markers stroke"/>
  <path d="m 79.055485,4.6002258 c -0.650235,0.055328 -2.644656,1.682079 0.09663,0.4211629 0.162203,-0.3287511 0.08543,-0.436654 -0.09663,-0.4211629 z m -9.606651,1.642277 c -1.666129,2.6884895 -6.181508,3.5402568 -2.597256,7.0347132 -0.03716,1.143136 -0.347781,3.324102 1.438672,1.561661 1.92972,-2.266899 7.133336,-4.9560496 8.216035,-3.232361 C 74.214546,16.858951 87.26209,10.074904 79.440991,9.5849344 78.691389,5.0782625 72.726365,8.5631497 71.306085,10.730084 65.517366,12.14269 73.795195,6.3549057 69.448834,6.2425028 Z M 57.725519,7.9312885 c -0.47897,-0.03344 -1.18124,0.277105 -2.025716,1.1435996 -1.289055,0.9515979 -0.871514,3.7824479 1.089856,1.7983399 1.96356,-1.131731 1.989593,-2.8683724 0.93586,-2.9419395 z m 31.787207,6.0895505 c -0.920729,0.01379 -1.513607,1.823833 0.929658,0.758094 -0.279492,-0.567565 -0.622747,-0.762693 -0.929658,-0.758094 z m -2.935738,5.282882 c -0.777621,0.01776 -0.616421,1.49534 0.86558,0.416512 -0.356569,-0.312111 -0.647846,-0.421512 -0.86558,-0.416512 z m -3.350183,0.04599 c -1.405385,-0.0064 -3.688935,1.172246 -0.711068,1.067119 l 1.012341,-0.100769 0.577226,-0.266651 c 0.08692,-0.513429 -0.328565,-0.697299 -0.878499,-0.699699 z m -28.625126,4.549594 c -4.907778,0.828757 -9.762252,1.767862 -14.768092,1.832962 -4.163383,1.199092 -8.564179,3.046791 -10.29498,7.414536 -1.123821,4.301879 -1.532544,9.134091 -1.205611,13.368692 1.903804,2.84234 -3.898177,11.78564 2.522328,8.399489 4.645375,-1.258189 9.644809,-1.331492 14.422375,-1.116211 4.633878,1.54114 9.454576,4.933993 14.469401,2.923853 4.597842,-1.591419 9.261938,-3.848833 14.255978,-2.834453 5.277861,-0.194109 10.490277,2.392358 13.381096,6.841959 3.383881,2.083578 1.603089,7.43191 6.709669,5.738151 1.227609,-0.152752 2.41617,-0.520113 3.579109,-0.929143 5.972208,0.0367 6.348648,-5.465929 6.020308,-10.20041 -0.40113,-4.777708 0.42033,-8.515035 -1.28158,-13.122196 -0.13858,-3.668075 -2.472106,-6.984643 -2.34508,-10.20558 -1.885595,-0.805159 -2.192993,-2.348433 -1.102769,-3.409095 -2.292864,-0.511048 -4.61354,-1.649849 -4.037481,-3.190502 -4.62424,0.208735 -8.818685,-2.493049 -13.51959,-0.907438 -8.943928,0.599662 -17.883646,-0.179204 -26.805081,-0.604614 z m 61.045371,41.917338 c -1.11171,0.02315 -2.3157,0.551244 -3.52899,1.776635 -2.32369,2.329585 -6.48731,0.901171 -7.45897,4.757852 -1.76158,-3.704429 -3.43468,-7.187275 -8.128188,-4.463294 -4.26761,2.017001 -10.119598,0.702464 -12.449368,5.807914 -2.459091,4.42341 -7.454996,6.027714 -12.199256,6.489526 -5.552464,1.59077 -8.074186,-5.239481 -10.906829,-8.695593 -1.40608,-5.607799 -8.234632,-6.198142 -9.552387,-0.104904 -0.605009,3.57488 -4.691269,8.683649 -3.223059,11.162628 5.641078,0.239379 10.870161,2.5034 15.801102,5.007962 0.837653,2.436638 -4.476427,3.274584 -4.681368,6.252332 -2.180902,4.312388 5.913245,3.969424 8.616527,5.500439 4.488032,-1.750304 9.111406,2.31785 8.647536,6.97374 -2.030151,0.74125 -0.707782,1.89243 -0.212392,2.74918 -1.868125,2.90779 -5.135279,-5.03729 -4.717539,0.11886 -1.404911,3.38196 -7.025151,4.72684 -10.848952,5.02037 -5.505233,1.66489 2.632713,8.49816 6.153114,8.138 5.452964,1.98351 9.51961,-5.18398 14.478704,-2.2686 1.55797,3.18626 1.747562,6.48512 0.702281,10.21333 -2.90847,3.83672 -7.913008,5.3858 -11.86646,7.95611 -5.530107,2.75333 -10.723028,6.64137 -16.83153,7.94783 0.350404,1.28135 2.393675,3.24401 3.316592,4.77077 3.369244,2.5085 2.375924,6.72604 2.484604,9.50536 3.279251,0.36465 6.112082,4.05739 7.154604,7.12825 -4.320078,0.37468 -8.917348,-3.47316 -8.934858,-7.88686 -5.569546,-0.52669 -1.173255,7.61271 -3.399793,10.96316 -0.970375,2.66268 -5.360649,8.3761 0.682646,7.43159 3.386601,5.3e-4 6.797966,0.11892 10.168372,-0.24133 3.348527,-3.48175 6.350683,-7.40986 8.771041,-11.59051 -1.276559,-0.65408 -5.678967,0.31546 -1.958536,-1.86913 4.95763,-1.9441 8.488913,-5.69045 11.485605,-9.96115 3.43702,-4.18494 6.752019,-8.63236 10.967289,-12.03855 -0.24289,3.23255 -1.113504,7.06822 -2.016416,10.05675 -0.701275,3.0727 1.440805,3.98934 3.192055,5.62498 -3.62807,-0.17391 -0.886862,3.06551 -2.84272,4.68189 1.891289,3.90647 -1.949149,9.52188 2.890263,12.22664 2.722859,-0.006 4.262607,1.61385 0.404109,2.07171 -2.66223,-2.21837 -4.37152,1.5194 -0.31936,0.74517 2.04779,0.14008 8.665347,-0.50339 3.950147,-2.27117 2.08764,-0.25884 6.01058,-2.39101 8.26099,-0.52142 -0.59528,1.09951 -3.76008,2.6091 -0.61908,1.54978 3.17101,0.0951 7.46399,2.29602 9.98079,0.98288 -1.81923,-2.61422 -1.31813,-6.77838 -0.35192,-9.78545 2.21278,0.77121 -0.0782,5.52168 3.69693,4.52014 0.18249,2.58253 -3.27714,7.56466 0.7643,4.83898 -1.83646,-4.15021 2.19734,-1.21045 3.83542,-0.53691 0.47165,-3.27749 4.08802,-2.44365 2.17868,0.43924 1.85925,1.38804 2.4627,-0.81423 4.29586,1.05162 1.79651,-1.80537 2.72977,0.67568 5.8782,-0.2682 4.42005,-0.95075 1.22764,-8.09659 2.18798,-11.62151 -0.005,-6.41546 -0.0453,-12.83045 -0.0677,-19.24586 -8.37346,-4.6233 -18.25108,-6.75548 -25.49508,-13.25397 -4.65854,-5.61859 -8.83166,-11.64498 -13.27671,-17.4377 -1.506295,-4.63338 1.21114,-9.3712 1.76009,-14.00741 0.90273,-3.533468 1.71855,-9.83198 5.91076,-4.823481 5.04303,1.763236 8.66432,-5.10613 9.84074,-9.153962 0.50835,-4.468828 1.77058,-8.775308 2.50062,-13.195578 1.21004,-3.983516 -1.43893,-9.294736 -5.07049,-9.219076 z m 1.89859,2.433445 c 0.16258,5.29e-4 0.33527,0.0091 0.51832,0.02585 2.81711,1.684988 2.83054,12.015147 -0.59583,10.622608 -0.3867,-3.07094 -4.96232,-10.664267 0.0775,-10.648445 z m -35.924422,2.086176 c -3.509611,2.348219 -6.210837,6.985775 -10.287228,3.649906 -2.31694,-0.583041 -7.168851,-3.522398 -7.669816,-3.448368 1.953575,4.71963 7.803878,7.738002 12.686049,5.430161 2.4389,-0.297929 6.619756,-3.95268 5.270995,-5.631699 z m 29.536182,7.427971 c 0.59195,0.01003 1.34218,0.353891 2.25361,1.170472 3.38208,1.08541 2.72451,11.280537 -1.19889,6.225976 -3.20671,-1.212395 -3.61984,-7.439848 -1.05472,-7.396448 z M 62.657517,102.48418 c -2.914968,-0.0702 -2.355173,2.5496 0.65319,3.32331 2.654422,0.47808 4.661249,4.03666 7.592819,2.37143 2.532989,-4.54488 -3.586646,-6.15391 -7.229017,-5.58157 -0.377063,-0.0699 -0.715444,-0.10617 -1.016992,-0.11317 z M 39.97208,130.82457 c -1.013991,0.19936 -0.316912,5.82925 -0.703315,7.16752 -0.474546,7.47541 -0.0085,14.96906 -0.211876,22.43997 -0.31741,3.7135 -4.721709,6.28363 -4.266406,9.90172 0.830352,-0.65984 1.500179,-1.48572 2.198833,-2.27583 2.386621,-4.70089 5.479251,-8.56078 8.465635,-12.98835 0.900665,-4.00257 6.402578,-7.59428 6.5381,-10.3756 -4.924158,-3.37761 -9.783702,-7.64223 -11.473201,-13.594 -0.22283,-0.22154 -0.402913,-0.30394 -0.54777,-0.27543 z m 53.496995,21.01215 c 0.402473,0.005 0.177591,1.73052 -0.382405,0.33073 0.163293,-0.24163 0.289526,-0.33173 0.382405,-0.33073 z m -5.794997,11.04842 c -0.390205,0.0171 -0.175617,1.48852 0.473874,0.41548 -0.207785,-0.31099 -0.364612,-0.42048 -0.473874,-0.41548 z m -0.05943,1.95337 c -1.606979,2.33929 -0.4278,6.83955 -1.90686,8.43359 3.044621,1.32124 0.984353,6.41847 5.968111,4.25556 -3.558588,-3.31673 -0.316939,-10.93584 -4.061251,-12.68915 z m 13.671522,3.39308 c 0.35237,0.0213 0.12342,1.92095 -0.43822,0.53743 0.19528,-0.40185 0.33952,-0.54343 0.43822,-0.53743 z m 22.08961,0.31781 c 0.64716,-0.002 0.90329,0.40989 -0.31058,1.58439 l -0.75913,0.17622 -0.90898,-0.18707 c -0.74896,-0.68275 1.03286,-1.57054 1.97869,-1.57354 z m -9.78132,1.19527 c 0.29658,-2e-4 0.70114,1.48334 -0.20774,0.63614 0.0223,-0.471 0.10884,-0.63608 0.20774,-0.63614 z m -13.43122,0.57103 c 0.5405,-0.0584 2.00433,2.08334 0.0496,1.38131 -0.331544,-0.99887 -0.261133,-1.35851 -0.0496,-1.38131 z m 27.54871,1.61747 c 0.56026,0.059 0.009,1.24719 -0.57826,0.18138 0.26092,-0.14818 0.44897,-0.19498 0.57826,-0.18138 z m -9.00721,1.52187 c -0.83792,0.0425 -2.2207,1.07965 -0.24598,1.3534 l 0.55346,-0.34881 c 0.42074,-0.776 0.13143,-1.02679 -0.30748,-1.00459 z m 11.69386,0.0475 c 0.70619,0.0386 1.11364,1.47106 -0.6227,0.38137 0.20415,-0.29367 0.42497,-0.39217 0.6227,-0.38137 z m -5.39037,3.96513 c -0.66346,0.0355 -0.33538,0.5138 0.62219,0.063 -0.26317,-0.0561 -0.46907,-0.071 -0.62219,-0.063 z" style="opacity:1;vector-effect:none;fill:#ffffff;fill-opacity:1;fill-rule:evenodd;stroke:none;stroke-width:0.5;stroke-linecap:butt;stroke-linejoin:miter;stroke-miterlimit:4;stroke-dasharray:none;stroke-dashoffset:0;stroke-opacity:1;paint-order:fill markers stroke"/>
</svg>