<?xml version="1.0" standalone="no"?>
<!DOCTYPE svg PUBLIC "-//W3C//DTD SVG 20010904//EN"
 "http://www.w3.org/TR/2001/REC-SVG-20010904/DTD/svg10.dtd">
<svg version="1.0" xmlns="http://www.w3.org/2000/svg"
 width="280.000000pt" height="326.000000pt" viewBox="0 0 280.000000 326.000000"
 preserveAspectRatio="xMidYMid meet">

<g transform="translate(0.000000,326.000000) scale(0.100000,-0.100000)"
fill="#000000" stroke="none">
<path d="M1060 3240 c12 -22 30 -26 48 -8 8 8 14 5 22 -16 5 -15 10 -34 10
-42 0 -24 25 -10 28 15 l4 23 14 -21 c15 -21 54 -29 54 -12 0 14 65 8 84 -8 9
-8 14 -21 11 -30 -6 -21 38 -42 75 -34 20 4 27 10 23 20 -5 13 -2 13 25 -1 17
-9 38 -16 47 -16 19 0 20 -34 1 -49 -11 -10 -24 -9 -56 0 -34 10 -43 10 -50
-1 -4 -7 -15 -10 -24 -7 -9 4 -16 2 -16 -3 0 -6 -9 -10 -19 -10 -11 0 -22 -4
-26 -9 -6 -12 -98 -4 -137 11 -15 5 -29 16 -32 24 -7 19 -26 18 -26 -1 0 -8 6
-15 14 -15 8 0 17 -7 20 -16 4 -11 1 -14 -12 -11 -57 16 -93 17 -107 3 -13
-13 -13 -17 7 -30 22 -16 22 -16 -11 -16 -43 0 -37 -24 7 -28 38 -4 33 -22 -6
-22 -15 -1 -38 -7 -52 -15 -24 -14 -24 -14 23 -15 32 0 46 -4 42 -11 -4 -6
-13 -8 -21 -5 -7 3 -20 -1 -28 -9 -8 -8 -19 -15 -25 -15 -6 0 -11 -4 -11 -10
0 -13 -33 -13 -47 1 -8 8 -16 5 -31 -11 -20 -22 -36 -60 -24 -60 14 1 44 29
39 37 -3 4 6 8 19 8 31 0 31 -19 -1 -33 -16 -7 -23 -17 -19 -27 6 -15 42 8
138 87 172 142 477 156 659 29 98 -69 174 -160 197 -238 11 -34 10 -48 -1 -75
-7 -18 -12 -39 -11 -47 2 -7 0 -20 -4 -30 -9 -19 -11 -31 -15 -89 -3 -44 -3
-44 -36 -39 -42 7 -43 -8 -2 -42 87 -73 12 -261 -104 -261 -56 0 -122 27 -137
56 -24 43 -40 27 -19 -19 26 -57 144 -81 218 -44 32 16 57 14 46 -3 -3 -5 -1
-11 5 -15 15 -9 11 -77 -5 -99 -8 -11 -15 -27 -15 -37 0 -9 -7 -22 -15 -29
-11 -9 -12 -17 -5 -30 13 -24 13 -107 0 -115 -5 -3 -10 -11 -10 -16 0 -6 5 -7
11 -3 7 4 9 -2 7 -17 -2 -15 -11 -25 -23 -27 -17 -3 -105 -108 -105 -126 0 -7
-30 -44 -48 -60 -8 -6 -24 -21 -36 -32 -29 -30 -88 -53 -118 -47 -15 3 -37 -2
-50 -11 -14 -9 -32 -14 -41 -10 -8 3 -26 0 -39 -7 -13 -7 -36 -14 -52 -16 -16
-2 -31 -5 -34 -7 -10 -10 11 -26 34 -26 14 0 27 -7 30 -15 4 -8 15 -15 25 -15
10 0 19 -4 19 -9 0 -5 9 -13 21 -16 34 -11 51 -66 36 -112 -9 -30 -19 -40 -47
-49 -29 -10 -32 -13 -15 -17 11 -4 -5 -4 -35 -2 -49 4 -53 3 -36 -10 22 -17
112 -13 148 6 25 13 122 91 153 123 33 34 73 91 100 141 l25 47 11 -28 c6 -16
10 -79 9 -144 -2 -106 0 -120 25 -180 21 -48 28 -82 29 -135 1 -66 0 -70 -22
-73 -20 -3 -21 -6 -10 -19 10 -13 12 -98 10 -415 l-2 -398 520 0 520 0 0 445
0 445 -42 61 c-59 85 -82 107 -115 114 -55 12 -103 28 -133 46 -28 18 -30 22
-30 81 0 35 6 74 13 88 11 23 18 25 72 24 33 -1 93 -5 132 -9 95 -10 103 -3
103 85 0 62 -2 68 -22 72 -27 6 -95 3 -155 -6 -25 -4 -44 -2 -48 4 -3 5 -18
11 -33 11 -51 3 84 17 171 18 84 1 87 2 87 24 0 23 -2 24 -82 20 -276 -13
-625 -42 -713 -60 -54 -11 -277 -1 -282 13 -2 6 7 22 19 36 13 14 30 34 38 44
19 24 60 124 60 147 0 9 7 17 16 17 8 0 22 6 30 14 12 13 11 15 -6 21 -25 8
-37 52 -21 76 6 10 11 41 11 69 0 57 22 87 62 88 24 0 25 -2 16 -47 -5 -25 -6
-67 -2 -93 5 -39 3 -49 -10 -54 -30 -12 -5 -24 35 -18 36 6 40 5 39 -12 -6
-54 12 -76 24 -29 8 30 22 32 31 5 8 -24 -1 -40 -21 -40 -12 0 -13 -4 -4 -21
7 -12 18 -18 26 -15 8 3 14 1 14 -3 0 -5 -6 -11 -14 -14 -7 -3 -16 -20 -18
-37 -4 -25 -1 -34 16 -40 12 -5 15 -9 9 -9 -7 -1 -13 -5 -13 -9 0 -15 269 -20
358 -7 l43 6 -6 142 c-16 377 -5 517 40 525 11 2 27 10 35 17 20 17 70 26 155
30 39 1 80 3 93 4 22 1 22 2 22 154 l0 154 -54 -8 c-29 -4 -64 -13 -77 -20
-13 -7 -37 -13 -54 -14 -92 -7 -174 -7 -184 0 -7 4 -11 25 -11 48 0 23 -2 66
-5 96 -3 33 0 60 6 68 9 9 7 14 -5 19 -11 4 -13 11 -7 23 5 9 11 43 14 74 2
32 9 63 15 69 7 7 12 15 12 19 0 4 5 20 12 36 6 15 10 38 9 50 -1 14 5 24 18
28 12 3 26 15 31 26 6 10 17 19 25 19 8 0 15 4 15 8 0 10 110 47 165 56 71 12
75 15 75 52 l0 34 -595 0 -595 0 0 -72 c0 -39 -3 -69 -6 -65 -3 3 -6 35 -5 71
l1 66 -275 0 c-273 0 -276 0 -265 -20z m1060 -789 c0 -12 -20 -25 -27 -18 -7
7 6 27 18 27 5 0 9 -4 9 -9z m60 -1 c0 -13 -11 -13 -30 0 -12 8 -11 10 8 10
12 0 22 -4 22 -10z m-244 -37 c1 -11 4 -25 7 -30 12 -19 -16 -43 -41 -36 -16
4 -20 8 -12 13 7 4 13 23 15 41 4 43 3 41 18 37 6 -3 12 -14 13 -25z m49 -3
c3 -5 -1 -10 -9 -10 -9 0 -16 5 -16 10 0 6 4 10 9 10 6 0 13 -4 16 -10z m40 0
c3 -5 -1 -10 -9 -10 -9 0 -16 5 -16 10 0 6 4 10 9 10 6 0 13 -4 16 -10z m-122
-97 c-7 -2 -19 -2 -25 0 -7 3 -2 5 12 5 14 0 19 -2 13 -5z m22 -157 c12 8 30
12 39 8 20 -7 21 -24 2 -24 -7 0 -19 -7 -26 -15 -7 -8 -16 -15 -21 -15 -9 0
-39 53 -38 67 0 4 5 -2 11 -14 10 -20 12 -21 33 -7z m-55 -35 c-5 -11 -10 -32
-10 -48 0 -19 -3 -24 -9 -15 -4 8 -12 13 -17 12 -19 -3 -13 18 12 43 32 32 38
34 24 8z m-23 -213 c-3 -8 -6 -5 -6 6 -1 11 2 17 5 13 3 -3 4 -12 1 -19z m237
-467 c4 -5 -3 -7 -14 -4 -23 6 -26 13 -6 13 8 0 17 -4 20 -9z m-644 -130 c0
-4 -6 -16 -14 -27 -15 -19 -15 -19 -37 3 l-23 22 25 9 c24 9 49 6 49 -7z"/>
<path d="M180 3142 c0 -5 -17 -17 -37 -26 -21 -9 -60 -29 -88 -44 -45 -25 -50
-32 -53 -65 -2 -20 -1 -37 1 -37 14 0 67 23 67 30 0 4 15 13 33 21 17 7 49 24
70 38 32 20 38 29 35 54 -3 27 -28 53 -28 29z"/>
<path d="M100 2992 l-95 -47 -3 -1472 -2 -1473 545 0 c487 0 545 2 545 16 0
21 -20 104 -30 129 -10 21 -27 104 -60 290 -11 60 -22 117 -26 125 -3 8 -9 74
-14 145 -5 81 -18 168 -33 230 -28 108 -38 276 -23 390 l8 60 -35 -50 c-36
-53 -114 -125 -175 -162 -63 -38 -131 -73 -142 -73 -5 0 -16 16 -24 35 -8 19
-21 38 -29 41 -9 3 -12 14 -9 30 2 13 0 24 -6 24 -6 0 -20 19 -32 43 -36 73
-51 97 -61 97 -5 0 -14 11 -19 25 -12 32 -28 32 -40 1 -11 -30 -29 -41 -42
-28 -6 6 -17 8 -24 5 -11 -4 -14 9 -14 63 -1 38 -3 98 -5 134 -2 36 -7 146
-10 245 -3 99 -10 290 -15 425 -6 135 -10 364 -11 509 0 251 -3 292 -18 291
-3 -1 -49 -22 -101 -48z"/>
<path d="M821 2661 c-14 -25 -14 -51 -1 -51 6 0 10 8 10 18 0 10 5 23 11 29 7
7 7 13 0 17 -5 4 -15 -2 -20 -13z"/>
<path d="M802 2575 c0 -16 2 -22 5 -12 2 9 2 23 0 30 -3 6 -5 -1 -5 -18z"/>
<path d="M954 2400 c-87 -25 -129 -47 -144 -75 -7 -14 -11 -27 -9 -29 2 -2 49
11 104 30 92 30 101 31 117 17 10 -9 18 -22 18 -30 0 -21 17 -7 34 29 18 35
21 64 7 72 -5 3 -8 0 -7 -7 1 -13 -6 -17 -29 -17 -8 0 -15 7 -15 15 0 18 2 18
-76 -5z"/>
<path d="M1124 2408 c-3 -4 11 -8 30 -8 20 0 36 4 36 9 0 12 -59 11 -66 -1z"/>
<path d="M1267 2403 c-10 -9 3 -23 21 -23 9 0 37 -18 61 -39 42 -37 44 -40 39
-85 -6 -52 -37 -104 -79 -132 -18 -12 -25 -22 -19 -28 20 -20 113 112 125 177
7 34 10 37 40 37 42 0 56 -18 64 -81 3 -30 12 -54 19 -57 11 -3 12 6 7 41 l-7
46 38 7 c38 7 67 31 58 46 -8 13 -24 9 -24 -6 0 -21 -21 -31 -31 -15 -12 20 5
34 60 49 38 10 48 17 40 26 -7 9 -2 14 21 19 48 11 35 25 -24 25 -43 0 -58 -4
-68 -19 -15 -21 -44 -30 -118 -38 -25 -3 -48 -10 -51 -15 -4 -6 -25 2 -52 21
-25 17 -53 31 -62 31 -9 0 -24 4 -34 10 -10 5 -21 7 -24 3z"/>
<path d="M1298 2333 c-10 -2 -18 -9 -18 -15 0 -7 -15 -9 -40 -5 -40 5 -65 -9
-52 -30 7 -10 72 -17 135 -14 23 1 27 5 27 30 0 17 -6 31 -16 35 -9 3 -16 5
-17 5 -1 -1 -10 -3 -19 -6z"/>
<path d="M1785 2300 c3 -5 8 -10 11 -10 2 0 4 5 4 10 0 6 -5 10 -11 10 -5 0
-7 -4 -4 -10z"/>
<path d="M1654 2285 c-13 -13 10 -49 36 -57 8 -3 -6 -8 -32 -12 -27 -4 -48 -9
-48 -12 0 -21 25 -44 46 -44 14 0 23 -3 20 -8 -8 -13 73 0 85 14 6 8 17 14 25
14 9 0 11 10 7 38 -7 42 -15 50 -63 57 -19 4 -42 10 -50 14 -9 5 -20 3 -26 -4z"/>
<path d="M1140 2280 c0 -5 5 -10 11 -10 5 0 7 5 4 10 -3 6 -8 10 -11 10 -2 0
-4 -4 -4 -10z"/>
<path d="M1800 2239 c0 -22 4 -26 20 -22 13 3 20 14 20 29 0 17 -5 22 -20 21
-15 -1 -20 -8 -20 -28z"/>
<path d="M710 2235 c0 -8 2 -15 4 -15 2 0 6 7 10 15 3 8 1 15 -4 15 -6 0 -10
-7 -10 -15z"/>
<path d="M1225 2224 l-50 -12 40 -1 c22 0 47 3 55 9 24 15 8 17 -45 4z"/>
<path d="M812 2110 c0 -14 2 -19 5 -12 2 6 2 18 0 25 -3 6 -5 1 -5 -13z"/>
<path d="M1316 1992 c-5 -9 65 -35 72 -27 3 3 -1 11 -8 20 -13 16 -55 21 -64
7z"/>
<path d="M1520 1985 c-7 -8 -16 -15 -20 -15 -5 0 -27 -18 -50 -40 -51 -49 -53
-85 -5 -85 25 0 30 -3 27 -22 -2 -13 2 -23 7 -23 6 0 11 10 11 23 1 21 1 22
15 3 13 -17 15 -18 15 -3 0 10 8 17 19 17 24 0 35 15 49 66 16 56 15 71 -5 77
-10 2 -25 8 -34 11 -9 4 -21 0 -29 -9z"/>
<path d="M1132 1947 c-45 -41 -62 -62 -62 -78 0 -25 17 -24 25 1 3 11 10 20
14 20 13 0 47 33 54 53 7 20 -11 22 -31 4z"/>
<path d="M1156 1802 c-7 -12 43 -58 71 -66 19 -6 21 -3 20 26 -1 18 -9 36 -17
40 -22 10 -68 9 -74 0z"/>
<path d="M1310 1783 c8 -3 18 -11 22 -16 4 -7 11 -7 21 1 18 15 33 0 39 -38 2
-20 -2 -26 -20 -28 -13 -2 -35 4 -49 13 -18 12 -28 14 -36 6 -19 -19 56 -41
142 -41 51 0 81 -4 83 -11 3 -9 17 -8 55 1 61 16 92 55 71 89 -7 12 -23 20
-38 20 -14 -1 -88 2 -165 5 -77 3 -133 2 -125 -1z m155 -58 c0 -13 -8 -21 -22
-23 -17 -3 -23 2 -23 16 0 10 3 22 7 26 13 13 38 1 38 -19z"/>
<path d="M1975 1709 c-4 -6 -5 -13 -2 -16 7 -7 27 6 27 18 0 12 -17 12 -25 -2z"/>
<path d="M1460 1593 c-14 -3 -29 -9 -35 -15 -14 -14 74 -3 88 11 12 12 -4 13
-53 4z"/>
<path d="M1243 987 l-42 -52 40 -17 c22 -10 42 -25 46 -35 4 -10 18 -29 30
-43 27 -28 26 -34 -9 -180 -19 -78 -20 -104 -14 -330 3 -135 9 -264 13 -287
l6 -43 148 0 149 0 0 44 c0 24 -7 81 -15 127 -7 46 -19 125 -25 174 -16 133
-59 340 -80 388 -22 48 -28 171 -8 183 6 4 24 10 39 13 l28 6 -38 44 c-36 42
-40 44 -55 28 -17 -16 -24 -16 -116 3 -19 4 -34 12 -32 18 5 27 -26 7 -65 -41z"/>
<path d="M1660 852 c0 -20 23 -31 43 -20 16 8 17 12 6 19 -18 11 -49 12 -49 1z"/>
</g>
</svg>
