<?xml version="1.0" standalone="no"?>
<!DOCTYPE svg PUBLIC "-//W3C//DTD SVG 20010904//EN"
 "http://www.w3.org/TR/2001/REC-SVG-20010904/DTD/svg10.dtd">
<svg version="1.0" xmlns="http://www.w3.org/2000/svg"
 width="216.000000pt" height="308.000000pt" viewBox="0 0 216.000000 308.000000"
 preserveAspectRatio="xMidYMid meet">

<g transform="translate(0.000000,308.000000) scale(0.100000,-0.100000)"
fill="#000000" stroke="none">
<path d="M752 2721 c-48 -23 -157 -122 -178 -163 -10 -19 -15 -75 -18 -185 -1
-87 -7 -166 -11 -177 -8 -19 -3 -45 40 -196 32 -112 44 -140 61 -140 14 0 19
-15 29 -94 5 -39 2 -58 -14 -90 -11 -23 -32 -70 -46 -106 l-26 -65 6 46 c7 52
-2 89 -16 67 -7 -10 -9 -10 -9 2 0 8 9 30 20 48 23 38 22 38 -24 11 -43 -25
-68 -92 -72 -194 -1 -38 -3 -74 -4 -80 -5 -21 1 -27 14 -16 12 10 15 3 21 -41
4 -29 11 -63 16 -76 23 -60 51 -240 56 -357 4 -95 1 -152 -10 -212 -22 -116
-58 -244 -67 -238 -10 6 -2 283 10 325 12 43 12 50 1 50 -17 0 -24 -35 -31
-160 -5 -100 -11 -134 -29 -168 -12 -24 -21 -51 -19 -61 2 -10 -4 -26 -12 -36
-11 -14 -6 -13 25 6 22 13 51 26 64 27 88 13 96 51 96 435 l0 277 37 0 c20 0
40 5 43 10 3 6 13 10 20 10 11 0 14 -10 11 -41 -3 -32 0 -45 17 -62 12 -12 22
-30 22 -39 0 -10 5 -18 10 -18 6 0 10 9 10 20 0 11 4 19 9 17 11 -3 35 44 36
73 1 24 1 24 12 5 15 -27 24 -32 67 -39 22 -3 48 -17 65 -35 24 -25 28 -36 24
-70 -4 -46 7 -53 24 -16 6 14 14 25 18 25 3 0 14 18 24 41 13 29 22 39 33 34
13 -4 14 -3 3 10 -11 13 -10 14 2 10 20 -8 42 20 35 44 -4 17 -1 19 30 15 19
-2 32 0 29 5 -3 5 1 11 9 15 8 3 15 10 15 16 0 6 -4 9 -9 5 -22 -13 -32 34
-18 77 l14 42 16 -30 c18 -33 21 -24 8 23 -7 25 -5 41 9 70 17 37 43 151 54
243 4 32 3 39 -3 25 -5 -11 -10 -32 -10 -46 -1 -30 -64 -201 -88 -238 -11 -17
-18 -20 -26 -12 -15 15 -27 14 -27 -4 0 -26 -19 -16 -22 13 l-4 27 -12 -27
c-13 -32 -18 -34 -26 -13 -3 9 7 27 24 45 17 17 30 33 30 36 0 2 18 36 39 74
22 39 38 70 36 70 -3 0 -26 -20 -52 -45 -47 -45 -66 -54 -78 -35 -3 6 -16 10
-28 10 -22 1 -57 21 -57 34 0 3 7 6 15 6 8 0 15 4 15 10 0 5 6 7 13 5 6 -3 19
-1 27 5 12 7 9 14 -18 38 -44 40 -41 61 15 90 36 20 47 14 77 -43 15 -30 32
-52 37 -49 19 12 38 74 45 147 6 74 5 79 -21 113 -15 20 -40 40 -56 46 -33 12
-38 28 -9 28 11 0 23 7 26 15 4 8 12 15 18 15 23 0 55 45 72 102 16 53 22 59
63 77 25 11 60 29 76 41 l30 20 -33 0 c-22 0 -41 -8 -58 -25 -20 -20 -26 -22
-30 -10 -4 8 -14 15 -23 15 -9 0 -34 12 -55 26 -45 31 -98 40 -148 26 -32 -9
-36 -8 -32 6 5 14 4 14 -6 0 -16 -26 -30 -22 -30 7 0 14 -5 25 -10 25 -7 0 -8
-18 -4 -50 8 -63 -7 -66 -31 -4 -12 31 -22 44 -31 40 -8 -3 -14 1 -14 9 0 8
-7 15 -16 15 -8 0 -23 7 -31 16 -14 13 -14 17 -2 24 8 5 23 7 34 5 52 -11 146
-8 126 4 -9 6 -10 11 -2 15 6 4 11 4 11 0 0 -3 7 -1 15 6 13 11 13 15 -1 41
-8 16 -18 29 -23 29 -5 0 -12 11 -15 25 -5 20 -12 24 -41 23 -37 -1 -75 24
-75 49 0 8 11 29 24 46 23 31 40 117 23 117 -4 0 -5 5 -2 10 3 6 -5 10 -19 10
-28 0 -43 15 -24 23 7 3 2 6 -12 6 -14 1 -41 4 -60 6 -23 4 -50 -1 -78 -14z
m88 -95 c0 -3 -4 -8 -10 -11 -5 -3 -10 -1 -10 4 0 6 5 11 10 11 6 0 10 -2 10
-4z m354 -462 c9 -4 21 -14 26 -24 13 -25 -10 -21 -39 7 -24 23 -18 29 13 17z
m-14 -29 c17 -20 -9 -21 -36 0 -19 14 -19 14 2 15 12 0 27 -7 34 -15z m-583
-52 c-3 -10 -5 -2 -5 17 0 19 2 27 5 18 2 -10 2 -26 0 -35z m398 0 c7 -40 44
-113 56 -113 10 0 29 -58 29 -88 0 -13 12 -46 27 -73 30 -52 26 -66 -17 -69
-41 -3 -50 -1 -50 15 0 8 -4 15 -10 15 -5 0 -10 9 -10 20 0 12 -9 22 -23 25
-31 8 -49 73 -54 190 -3 103 -1 115 26 115 14 0 21 -10 26 -37z m51 -40 c8 -3
14 -11 14 -19 0 -18 43 -41 48 -26 2 7 11 8 26 2 35 -13 50 3 48 50 -2 35 1
41 14 36 10 -4 22 1 30 11 12 17 13 16 14 -5 0 -36 -26 -89 -54 -108 -34 -22
-99 -14 -132 17 -27 26 -46 82 -36 107 5 11 8 4 10 -21 2 -22 10 -41 18 -44z
m-315 -414 c6 -12 13 -36 15 -53 15 -108 34 -186 46 -186 6 0 7 -7 4 -16 -7
-19 19 -43 47 -44 9 0 17 -3 17 -8 0 -4 8 -12 19 -17 59 -32 102 -70 130 -115
18 -29 30 -54 27 -57 -2 -3 -26 15 -52 40 -26 25 -77 65 -115 89 -37 23 -72
53 -78 66 -6 12 -14 22 -18 22 -5 0 -23 -23 -42 -51 -39 -57 -134 -145 -139
-129 -2 6 1 17 8 25 7 8 9 23 4 37 -4 13 -7 35 -6 51 1 15 -1 27 -6 27 -24 0
28 182 82 288 29 57 39 63 57 31z m227 -118 c3 -8 -1 -12 -9 -9 -7 2 -15 10
-17 17 -3 8 1 12 9 9 7 -2 15 -10 17 -17z"/>
<path d="M1018 1849 c-18 -10 -25 -29 -10 -29 4 0 18 9 32 20 27 21 10 28 -22
9z"/>
<path d="M1448 2163 c-2 -5 -1 -30 2 -58 l5 -50 13 47 c6 26 12 52 12 57 0 12
-27 15 -32 4z"/>
<path d="M1404 2046 c-8 -33 5 -74 17 -55 12 19 11 66 -1 74 -5 3 -12 -5 -16
-19z"/>
<path d="M1332 1999 c-12 -33 -15 -119 -4 -119 9 0 24 131 16 139 -2 2 -7 -7
-12 -20z"/>
<path d="M1220 1611 c-6 -12 -7 -21 -1 -21 10 0 24 30 17 37 -2 3 -9 -5 -16
-16z"/>
<path d="M204 1419 c-5 -9 -2 -10 9 -6 9 3 18 2 21 -4 2 -5 3 -4 2 3 -3 17
-23 21 -32 7z"/>
<path d="M395 1400 c-3 -5 -2 -10 3 -10 14 0 21 -49 9 -57 -5 -3 -15 1 -22 10
-7 10 -17 17 -24 17 -6 0 -11 5 -11 10 0 6 -8 10 -17 9 -15 0 -14 -3 5 -16 12
-8 22 -21 22 -27 0 -7 11 -22 24 -34 30 -26 99 -21 94 7 -3 10 -12 15 -26 14
-12 -2 -22 2 -22 7 0 6 5 10 10 10 16 0 12 27 -5 34 -8 3 -15 12 -15 21 0 17
-16 20 -25 5z"/>
<path d="M251 1278 c35 -35 68 -80 94 -131 21 -43 42 -80 46 -83 4 -2 -1 25
-11 61 -34 120 -103 205 -167 205 -11 0 0 -17 38 -52z"/>
<path d="M1371 1277 c-7 -29 -22 -54 -42 -71 -28 -24 -30 -29 -20 -58 6 -17
11 -46 11 -65 0 -19 5 -43 11 -54 10 -20 11 -20 30 2 10 12 19 28 19 36 0 19
18 16 23 -4 3 -10 5 19 6 65 1 62 4 82 15 82 7 0 19 -7 26 -15 12 -14 15 -12
32 12 l20 28 -5 -35 c-34 -227 -69 -404 -82 -420 -25 -28 -36 -70 -25 -91 11
-20 36 -23 89 -13 28 6 31 10 31 45 0 21 -5 41 -12 45 -6 4 -8 3 -4 -4 3 -6 2
-13 -4 -17 -12 -7 -13 1 -10 84 1 47 8 72 22 92 17 23 19 35 12 66 -12 56 -11
170 2 183 11 11 32 17 61 19 7 1 13 20 15 44 3 41 4 42 43 45 84 7 52 20 -62
26 -65 4 -134 9 -154 12 -36 5 -36 5 -48 -39z"/>
<path d="M350 1258 c0 -12 42 -79 47 -74 3 2 -7 22 -21 43 -14 20 -26 35 -26
31z"/>
<path d="M1254 1152 c-5 -4 -22 -23 -37 -44 -21 -27 -26 -43 -21 -62 3 -14 9
-26 13 -26 9 0 47 77 55 113 7 29 6 30 -10 19z"/>
<path d="M1623 1020 c0 -30 2 -43 4 -27 2 15 2 39 0 55 -2 15 -4 2 -4 -28z"/>
<path d="M1654 985 c2 -27 9 -67 16 -88 6 -22 9 -45 6 -53 -3 -8 -1 -14 4 -14
15 0 12 -66 -4 -79 -7 -6 -21 -9 -30 -5 -12 5 -16 0 -16 -20 0 -16 -8 -30 -22
-37 -12 -7 -30 -21 -39 -33 -16 -19 -16 -23 -2 -45 14 -22 14 -25 -1 -37 -21
-15 -6 -27 21 -17 14 5 16 4 7 -8 -6 -8 -11 -22 -11 -31 0 -14 3 -15 14 -6 10
8 12 8 9 -3 -4 -12 66 -55 125 -77 17 -7 9 94 -11 153 -23 66 -25 107 -9 133
8 13 9 35 2 75 -11 60 -8 72 7 35 l9 -23 0 23 c1 13 5 32 11 42 12 22 3 50
-15 50 -8 0 -15 -8 -18 -17 -2 -11 -7 -2 -12 20 -5 25 -3 48 5 65 9 22 9 25
-1 15 -19 -19 -28 -16 -39 10 -8 17 -9 10 -6 -28z"/>
<path d="M1610 940 c0 -11 2 -20 4 -20 2 0 6 9 9 20 3 11 1 20 -4 20 -5 0 -9
-9 -9 -20z"/>
<path d="M985 920 c-3 -5 -1 -10 4 -10 6 0 11 5 11 10 0 6 -2 10 -4 10 -3 0
-8 -4 -11 -10z"/>
<path d="M958 859 c-14 -15 -16 -28 -9 -81 8 -58 9 -60 10 -18 0 25 5 61 11
79 12 41 10 43 -12 20z"/>
<path d="M1550 715 c0 -8 6 -15 14 -15 22 0 28 17 10 24 -22 9 -24 8 -24 -9z"/>
<path d="M1422 614 c9 -9 24 -14 32 -11 27 11 17 27 -16 27 -30 0 -31 -1 -16
-16z"/>
<path d="M1157 407 c-2 -6 -18 -10 -35 -10 -27 0 -32 -4 -30 -21 2 -16 -2 -20
-17 -18 -11 2 -23 9 -27 15 -5 8 -8 4 -8 -8 0 -13 -3 -16 -8 -8 -9 14 -71 3
-138 -24 l-41 -17 35 -33 c19 -18 41 -33 48 -33 8 0 14 -7 14 -15 0 -26 37
-17 44 10 4 14 11 23 16 20 6 -3 10 1 10 11 0 14 8 16 60 11 49 -4 71 -13 120
-46 33 -23 69 -41 81 -41 19 0 19 2 -8 39 -15 22 -40 47 -55 58 -16 10 -28 26
-28 35 0 27 11 48 26 48 27 0 14 17 -21 27 -24 8 -35 8 -38 0z m23 -31 c0 -15
-18 -31 -26 -23 -7 7 7 37 17 37 5 0 9 -6 9 -14z"/>
<path d="M410 374 c0 -8 -5 -12 -10 -9 -6 4 -22 -1 -37 -10 -21 -14 -27 -15
-34 -4 -7 11 -9 10 -9 -3 0 -25 -16 -23 -23 2 -6 23 -30 21 -99 -8 -38 -16
-38 -16 -38 -74 0 -33 4 -58 10 -58 6 0 24 10 41 22 27 21 41 23 157 23 121 0
128 1 150 24 23 24 30 61 12 61 -5 0 -10 -5 -10 -10 0 -6 -8 -10 -17 -8 -12 2
-19 -4 -21 -19 -3 -23 -22 -33 -22 -12 0 6 -9 8 -20 4 -18 -6 -20 -2 -20 32 0
22 5 44 12 51 9 9 8 12 -5 12 -9 0 -17 -7 -17 -16z"/>
<path d="M586 279 c3 -5 -5 -10 -18 -10 -14 -1 -17 -3 -7 -6 8 -2 26 0 39 5
24 9 24 9 2 14 -12 4 -20 2 -16 -3z"/>
<path d="M1016 241 c-4 -7 -5 -15 -2 -18 9 -9 19 4 14 18 -4 11 -6 11 -12 0z"/>
</g>
</svg>
